G04 #@! TF.GenerationSoftware,KiCad,Pcbnew,7.0.9*
G04 #@! TF.CreationDate,2024-02-28T09:18:08+02:00*
G04 #@! TF.ProjectId,link,6c696e6b-2e6b-4696-9361-645f70636258,rev?*
G04 #@! TF.SameCoordinates,Original*
G04 #@! TF.FileFunction,Copper,L2,Bot*
G04 #@! TF.FilePolarity,Positive*
%FSLAX46Y46*%
G04 Gerber Fmt 4.6, Leading zero omitted, Abs format (unit mm)*
G04 Created by KiCad (PCBNEW 7.0.9) date 2024-02-28 09:18:08*
%MOMM*%
%LPD*%
G01*
G04 APERTURE LIST*
G04 Aperture macros list*
%AMRoundRect*
0 Rectangle with rounded corners*
0 $1 Rounding radius*
0 $2 $3 $4 $5 $6 $7 $8 $9 X,Y pos of 4 corners*
0 Add a 4 corners polygon primitive as box body*
4,1,4,$2,$3,$4,$5,$6,$7,$8,$9,$2,$3,0*
0 Add four circle primitives for the rounded corners*
1,1,$1+$1,$2,$3*
1,1,$1+$1,$4,$5*
1,1,$1+$1,$6,$7*
1,1,$1+$1,$8,$9*
0 Add four rect primitives between the rounded corners*
20,1,$1+$1,$2,$3,$4,$5,0*
20,1,$1+$1,$4,$5,$6,$7,0*
20,1,$1+$1,$6,$7,$8,$9,0*
20,1,$1+$1,$8,$9,$2,$3,0*%
G04 Aperture macros list end*
G04 #@! TA.AperFunction,ComponentPad*
%ADD10C,5.000000*%
G04 #@! TD*
G04 #@! TA.AperFunction,ComponentPad*
%ADD11RoundRect,0.500000X-0.300000X0.000000X-0.300000X0.000000X0.300000X0.000000X0.300000X0.000000X0*%
G04 #@! TD*
G04 #@! TA.AperFunction,ComponentPad*
%ADD12R,1.700000X1.700000*%
G04 #@! TD*
G04 #@! TA.AperFunction,ComponentPad*
%ADD13O,1.700000X1.700000*%
G04 #@! TD*
G04 #@! TA.AperFunction,ViaPad*
%ADD14C,0.600000*%
G04 #@! TD*
G04 #@! TA.AperFunction,ViaPad*
%ADD15C,0.800000*%
G04 #@! TD*
G04 #@! TA.AperFunction,Conductor*
%ADD16C,0.200000*%
G04 #@! TD*
G04 #@! TA.AperFunction,Conductor*
%ADD17C,0.300000*%
G04 #@! TD*
G04 #@! TA.AperFunction,Conductor*
%ADD18C,0.500000*%
G04 #@! TD*
G04 APERTURE END LIST*
D10*
X115000000Y-75000000D03*
X115000000Y-97000000D03*
X157000000Y-97000000D03*
X157000000Y-75000000D03*
D11*
X116680000Y-81680000D03*
X112500000Y-81680000D03*
X116680000Y-90320000D03*
X112500000Y-90320000D03*
D12*
X121880000Y-99000000D03*
D13*
X124420000Y-99000000D03*
X126960000Y-99000000D03*
X129500000Y-99000000D03*
X132040000Y-99000000D03*
X134580000Y-99000000D03*
X137120000Y-99000000D03*
X139660000Y-99000000D03*
D12*
X122000000Y-73000000D03*
D13*
X124540000Y-73000000D03*
X127080000Y-73000000D03*
X129620000Y-73000000D03*
X132160000Y-73000000D03*
X134700000Y-73000000D03*
X137240000Y-73000000D03*
X139780000Y-73000000D03*
D12*
X156700000Y-79650000D03*
D13*
X156700000Y-82190000D03*
X156700000Y-84730000D03*
X156700000Y-87270000D03*
X156700000Y-89810000D03*
X156700000Y-92350000D03*
D14*
X133000000Y-85750000D03*
X127500000Y-86500000D03*
X125500000Y-81000000D03*
X123750000Y-91250000D03*
X119200000Y-90600000D03*
X127000000Y-82150000D03*
X118600000Y-90600000D03*
X122500000Y-87600000D03*
X135750000Y-95000000D03*
X118900000Y-82500000D03*
X122600000Y-85600000D03*
X136750000Y-79250000D03*
X146200000Y-87500000D03*
X144750000Y-100250000D03*
X119500000Y-82500000D03*
X143500000Y-80750000D03*
X149200000Y-100400000D03*
X118600000Y-90000000D03*
X143100000Y-87800000D03*
X144000000Y-100250000D03*
X119500000Y-81900000D03*
X122600000Y-83800000D03*
X118600000Y-91200000D03*
X126499992Y-87500000D03*
X159900000Y-86000000D03*
X150500000Y-100400000D03*
X123200000Y-77600000D03*
X145000000Y-90700000D03*
X149850000Y-100400000D03*
X149100000Y-87500000D03*
X123250000Y-80000000D03*
X119200000Y-91200000D03*
X145500000Y-100250000D03*
X126500000Y-89000000D03*
X131500000Y-80750000D03*
X138250000Y-95000000D03*
X118900000Y-81900000D03*
X120500000Y-86700000D03*
X120500000Y-85150500D03*
X122037000Y-93750000D03*
X136036487Y-91496411D03*
X129500000Y-91250000D03*
X120500000Y-93750000D03*
X133424265Y-78024265D03*
X137750000Y-78000000D03*
X133400000Y-77200000D03*
X137753147Y-77199994D03*
X142500000Y-84250000D03*
X133600000Y-81250000D03*
X137000000Y-81250000D03*
X130500000Y-82250000D03*
X137000000Y-82250000D03*
X129500000Y-94500000D03*
X127000000Y-94500000D03*
X134500000Y-94500000D03*
X132000000Y-94500000D03*
X124500000Y-94500000D03*
X135750000Y-90750000D03*
X130250000Y-90599500D03*
X145100000Y-96800000D03*
X145100000Y-96100000D03*
X145100000Y-95400000D03*
X145100000Y-94700000D03*
X145800000Y-94700000D03*
X146500000Y-94700000D03*
X147200000Y-94700000D03*
X147900000Y-94700000D03*
X147900000Y-96100000D03*
X147900000Y-95400000D03*
X147900000Y-97500000D03*
X147900000Y-96800000D03*
X145100000Y-97500000D03*
D15*
X130000000Y-88300000D03*
X138250000Y-90500000D03*
D14*
X142500000Y-83000000D03*
D16*
X120500000Y-85150500D02*
X120500000Y-86700000D01*
X136036487Y-91496411D02*
X135648573Y-91496411D01*
X122037000Y-93750000D02*
X120500000Y-93750000D01*
X135402162Y-91250000D02*
X129500000Y-91250000D01*
X135648573Y-91496411D02*
X135402162Y-91250000D01*
X137725735Y-78024265D02*
X137750000Y-78000000D01*
X133424265Y-78024265D02*
X137725735Y-78024265D01*
X133400000Y-77200000D02*
X137753141Y-77200000D01*
X137753141Y-77200000D02*
X137753147Y-77199994D01*
D17*
X146750000Y-84250000D02*
X142500000Y-84250000D01*
X146750000Y-84250000D02*
X154640000Y-84250000D01*
X154640000Y-84250000D02*
X156700000Y-82190000D01*
D16*
X137000000Y-81250000D02*
X133600000Y-81250000D01*
X130500000Y-82250000D02*
X137000000Y-82250000D01*
X129500000Y-94500000D02*
X129500000Y-99000000D01*
X126960000Y-94540000D02*
X127000000Y-94500000D01*
X126960000Y-99000000D02*
X126960000Y-94540000D01*
X134500000Y-94500000D02*
X134500000Y-98920000D01*
X134500000Y-98920000D02*
X134580000Y-99000000D01*
X132000000Y-94500000D02*
X132000000Y-98960000D01*
X132000000Y-98960000D02*
X132040000Y-99000000D01*
X124420000Y-94580000D02*
X124420000Y-99000000D01*
X130250000Y-90599500D02*
X135599500Y-90599500D01*
X135599500Y-90599500D02*
X135750000Y-90750000D01*
X124500000Y-94500000D02*
X124420000Y-94580000D01*
D18*
X137000000Y-90500000D02*
X137000000Y-98880000D01*
X138250000Y-90500000D02*
X137000000Y-90500000D01*
X136500000Y-90000000D02*
X137000000Y-90500000D01*
X130000000Y-89025000D02*
X130975000Y-90000000D01*
X130000000Y-88300000D02*
X130000000Y-89025000D01*
X130975000Y-90000000D02*
X136500000Y-90000000D01*
X137000000Y-98880000D02*
X137120000Y-99000000D01*
D17*
X152000000Y-83000000D02*
X155350000Y-79650000D01*
X155350000Y-79650000D02*
X156700000Y-79650000D01*
X142500000Y-83000000D02*
X152000000Y-83000000D01*
G04 #@! TA.AperFunction,Conductor*
G36*
X150508188Y-91501078D02*
G01*
X150612963Y-91514872D01*
X150644735Y-91523385D01*
X150734674Y-91560639D01*
X150763160Y-91577086D01*
X150840393Y-91636349D01*
X150863651Y-91659607D01*
X150922914Y-91736840D01*
X150939361Y-91765326D01*
X150976615Y-91855265D01*
X150985128Y-91887037D01*
X150998922Y-91991812D01*
X151000000Y-92008258D01*
X151000000Y-97741742D01*
X150998922Y-97758188D01*
X150985128Y-97862963D01*
X150976615Y-97894735D01*
X150939361Y-97984674D01*
X150922914Y-98013160D01*
X150863651Y-98090393D01*
X150840393Y-98113651D01*
X150763160Y-98172914D01*
X150734674Y-98189361D01*
X150644735Y-98226615D01*
X150612963Y-98235128D01*
X150508188Y-98248922D01*
X150491742Y-98250000D01*
X142758258Y-98250000D01*
X142741812Y-98248922D01*
X142637037Y-98235128D01*
X142605265Y-98226615D01*
X142515326Y-98189361D01*
X142486840Y-98172914D01*
X142409607Y-98113651D01*
X142386349Y-98090393D01*
X142327086Y-98013160D01*
X142310639Y-97984674D01*
X142273385Y-97894735D01*
X142264872Y-97862963D01*
X142251078Y-97758188D01*
X142250000Y-97741742D01*
X142250000Y-92008258D01*
X142251078Y-91991812D01*
X142264872Y-91887037D01*
X142273385Y-91855265D01*
X142310639Y-91765326D01*
X142327086Y-91736840D01*
X142386349Y-91659607D01*
X142409607Y-91636349D01*
X142486840Y-91577086D01*
X142515326Y-91560639D01*
X142605265Y-91523385D01*
X142637037Y-91514872D01*
X142741812Y-91501078D01*
X142758258Y-91500000D01*
X150491742Y-91500000D01*
X150508188Y-91501078D01*
G37*
G04 #@! TD.AperFunction*
G04 #@! TA.AperFunction,Conductor*
G36*
X158982236Y-71302004D02*
G01*
X159000000Y-71305136D01*
X159008530Y-71303632D01*
X159013056Y-71303632D01*
X159030907Y-71302711D01*
X159152893Y-71311435D01*
X159234809Y-71317293D01*
X159248785Y-71319304D01*
X159471884Y-71367837D01*
X159485432Y-71371814D01*
X159568484Y-71402791D01*
X159699364Y-71451606D01*
X159712213Y-71457474D01*
X159912604Y-71566897D01*
X159924486Y-71574533D01*
X160107264Y-71711358D01*
X160117940Y-71720608D01*
X160279392Y-71882060D01*
X160288642Y-71892736D01*
X160425467Y-72075514D01*
X160433103Y-72087396D01*
X160542526Y-72287787D01*
X160548394Y-72300636D01*
X160628185Y-72514565D01*
X160632163Y-72528116D01*
X160672164Y-72711990D01*
X160680696Y-72751212D01*
X160682707Y-72765194D01*
X160697289Y-72969093D01*
X160696368Y-72986944D01*
X160696368Y-72991470D01*
X160694864Y-73000000D01*
X160696368Y-73008528D01*
X160697996Y-73017761D01*
X160699500Y-73034953D01*
X160699500Y-98965047D01*
X160697996Y-98982236D01*
X160694864Y-99000000D01*
X160696368Y-99008530D01*
X160696368Y-99013056D01*
X160697289Y-99030907D01*
X160682707Y-99234806D01*
X160680696Y-99248785D01*
X160649625Y-99391615D01*
X160632164Y-99471882D01*
X160628185Y-99485435D01*
X160548394Y-99699364D01*
X160542526Y-99712213D01*
X160433103Y-99912604D01*
X160425467Y-99924486D01*
X160288642Y-100107264D01*
X160279392Y-100117940D01*
X160117940Y-100279392D01*
X160107264Y-100288642D01*
X159924486Y-100425467D01*
X159912604Y-100433103D01*
X159712213Y-100542526D01*
X159699364Y-100548394D01*
X159568484Y-100597209D01*
X159485432Y-100628186D01*
X159471884Y-100632163D01*
X159248785Y-100680696D01*
X159234809Y-100682707D01*
X159152893Y-100688565D01*
X159030907Y-100697289D01*
X159013056Y-100696368D01*
X159008530Y-100696368D01*
X159000000Y-100694864D01*
X158982236Y-100697996D01*
X158965047Y-100699500D01*
X113034953Y-100699500D01*
X113017764Y-100697996D01*
X113000000Y-100694864D01*
X112991470Y-100696368D01*
X112986944Y-100696368D01*
X112969093Y-100697289D01*
X112847107Y-100688565D01*
X112765191Y-100682707D01*
X112751215Y-100680696D01*
X112528116Y-100632163D01*
X112514568Y-100628186D01*
X112431516Y-100597209D01*
X112300636Y-100548394D01*
X112287787Y-100542526D01*
X112087396Y-100433103D01*
X112075514Y-100425467D01*
X111892736Y-100288642D01*
X111882060Y-100279392D01*
X111720608Y-100117940D01*
X111711358Y-100107264D01*
X111574533Y-99924486D01*
X111566897Y-99912604D01*
X111457474Y-99712213D01*
X111451606Y-99699364D01*
X111371815Y-99485435D01*
X111367836Y-99471882D01*
X111350375Y-99391615D01*
X111330738Y-99301346D01*
X113063694Y-99301346D01*
X113064321Y-99305310D01*
X113065292Y-99306582D01*
X113101687Y-99339698D01*
X113106112Y-99343281D01*
X113383182Y-99542377D01*
X113388000Y-99545434D01*
X113686117Y-99711363D01*
X113691234Y-99713837D01*
X114006461Y-99844409D01*
X114011836Y-99846280D01*
X114339974Y-99939753D01*
X114345517Y-99940992D01*
X114682235Y-99996132D01*
X114687893Y-99996726D01*
X115028697Y-100012798D01*
X115034402Y-100012739D01*
X115374794Y-99989533D01*
X115380452Y-99988818D01*
X115715915Y-99926644D01*
X115721458Y-99925282D01*
X115821041Y-99894646D01*
X120729500Y-99894646D01*
X120732618Y-99920846D01*
X120778061Y-100023153D01*
X120784529Y-100029610D01*
X120784530Y-100029611D01*
X120811964Y-100056997D01*
X120857287Y-100102241D01*
X120865645Y-100105936D01*
X120952864Y-100144496D01*
X120952866Y-100144496D01*
X120959673Y-100147506D01*
X120967067Y-100148368D01*
X120982378Y-100150153D01*
X120985354Y-100150500D01*
X122774646Y-100150500D01*
X122792561Y-100148368D01*
X122793469Y-100148260D01*
X122793470Y-100148260D01*
X122800846Y-100147382D01*
X122903153Y-100101939D01*
X122982241Y-100022713D01*
X123027506Y-99920327D01*
X123030500Y-99894646D01*
X123030500Y-98969754D01*
X123264967Y-98969754D01*
X123278796Y-99180749D01*
X123279912Y-99185142D01*
X123279912Y-99185144D01*
X123302487Y-99274032D01*
X123330845Y-99385690D01*
X123332747Y-99389815D01*
X123332747Y-99389816D01*
X123371518Y-99473916D01*
X123419369Y-99577714D01*
X123541405Y-99750391D01*
X123692865Y-99897937D01*
X123696638Y-99900458D01*
X123864899Y-100012887D01*
X123864902Y-100012889D01*
X123868677Y-100015411D01*
X123965472Y-100056997D01*
X124058774Y-100097083D01*
X124058778Y-100097084D01*
X124062953Y-100098878D01*
X124092881Y-100105650D01*
X124264760Y-100144543D01*
X124264765Y-100144544D01*
X124269186Y-100145544D01*
X124374828Y-100149695D01*
X124475937Y-100153668D01*
X124475938Y-100153668D01*
X124480470Y-100153846D01*
X124689730Y-100123504D01*
X124694029Y-100122045D01*
X124694032Y-100122044D01*
X124885654Y-100056997D01*
X124889955Y-100055537D01*
X124921406Y-100037924D01*
X125070481Y-99954437D01*
X125074442Y-99952219D01*
X125237012Y-99817012D01*
X125372219Y-99654442D01*
X125455761Y-99505268D01*
X125473319Y-99473916D01*
X125473320Y-99473914D01*
X125475537Y-99469955D01*
X125487329Y-99435217D01*
X125542044Y-99274032D01*
X125542045Y-99274029D01*
X125543504Y-99269730D01*
X125573846Y-99060470D01*
X125574940Y-99018705D01*
X125575353Y-99002914D01*
X125575353Y-99002909D01*
X125575429Y-99000000D01*
X125574646Y-98991472D01*
X125572650Y-98969754D01*
X125804967Y-98969754D01*
X125818796Y-99180749D01*
X125819912Y-99185142D01*
X125819912Y-99185144D01*
X125842487Y-99274032D01*
X125870845Y-99385690D01*
X125872747Y-99389815D01*
X125872747Y-99389816D01*
X125911518Y-99473916D01*
X125959369Y-99577714D01*
X126081405Y-99750391D01*
X126232865Y-99897937D01*
X126236638Y-99900458D01*
X126404899Y-100012887D01*
X126404902Y-100012889D01*
X126408677Y-100015411D01*
X126505472Y-100056997D01*
X126598774Y-100097083D01*
X126598778Y-100097084D01*
X126602953Y-100098878D01*
X126632881Y-100105650D01*
X126804760Y-100144543D01*
X126804765Y-100144544D01*
X126809186Y-100145544D01*
X126914828Y-100149695D01*
X127015937Y-100153668D01*
X127015938Y-100153668D01*
X127020470Y-100153846D01*
X127229730Y-100123504D01*
X127234029Y-100122045D01*
X127234032Y-100122044D01*
X127425654Y-100056997D01*
X127429955Y-100055537D01*
X127461406Y-100037924D01*
X127610481Y-99954437D01*
X127614442Y-99952219D01*
X127777012Y-99817012D01*
X127912219Y-99654442D01*
X127995761Y-99505268D01*
X128013319Y-99473916D01*
X128013320Y-99473914D01*
X128015537Y-99469955D01*
X128027329Y-99435217D01*
X128082044Y-99274032D01*
X128082045Y-99274029D01*
X128083504Y-99269730D01*
X128113846Y-99060470D01*
X128114940Y-99018705D01*
X128115353Y-99002914D01*
X128115353Y-99002909D01*
X128115429Y-99000000D01*
X128114646Y-98991472D01*
X128112650Y-98969754D01*
X128344967Y-98969754D01*
X128358796Y-99180749D01*
X128359912Y-99185142D01*
X128359912Y-99185144D01*
X128382487Y-99274032D01*
X128410845Y-99385690D01*
X128412747Y-99389815D01*
X128412747Y-99389816D01*
X128451518Y-99473916D01*
X128499369Y-99577714D01*
X128621405Y-99750391D01*
X128772865Y-99897937D01*
X128776638Y-99900458D01*
X128944899Y-100012887D01*
X128944902Y-100012889D01*
X128948677Y-100015411D01*
X129045472Y-100056997D01*
X129138774Y-100097083D01*
X129138778Y-100097084D01*
X129142953Y-100098878D01*
X129172881Y-100105650D01*
X129344760Y-100144543D01*
X129344765Y-100144544D01*
X129349186Y-100145544D01*
X129454828Y-100149695D01*
X129555937Y-100153668D01*
X129555938Y-100153668D01*
X129560470Y-100153846D01*
X129769730Y-100123504D01*
X129774029Y-100122045D01*
X129774032Y-100122044D01*
X129965654Y-100056997D01*
X129969955Y-100055537D01*
X130001406Y-100037924D01*
X130150481Y-99954437D01*
X130154442Y-99952219D01*
X130317012Y-99817012D01*
X130452219Y-99654442D01*
X130535761Y-99505268D01*
X130553319Y-99473916D01*
X130553320Y-99473914D01*
X130555537Y-99469955D01*
X130567329Y-99435217D01*
X130622044Y-99274032D01*
X130622045Y-99274029D01*
X130623504Y-99269730D01*
X130653846Y-99060470D01*
X130654940Y-99018705D01*
X130655353Y-99002914D01*
X130655353Y-99002909D01*
X130655429Y-99000000D01*
X130654646Y-98991472D01*
X130652650Y-98969754D01*
X130884967Y-98969754D01*
X130898796Y-99180749D01*
X130899912Y-99185142D01*
X130899912Y-99185144D01*
X130922487Y-99274032D01*
X130950845Y-99385690D01*
X130952747Y-99389815D01*
X130952747Y-99389816D01*
X130991518Y-99473916D01*
X131039369Y-99577714D01*
X131161405Y-99750391D01*
X131312865Y-99897937D01*
X131316638Y-99900458D01*
X131484899Y-100012887D01*
X131484902Y-100012889D01*
X131488677Y-100015411D01*
X131585472Y-100056997D01*
X131678774Y-100097083D01*
X131678778Y-100097084D01*
X131682953Y-100098878D01*
X131712881Y-100105650D01*
X131884760Y-100144543D01*
X131884765Y-100144544D01*
X131889186Y-100145544D01*
X131994828Y-100149695D01*
X132095937Y-100153668D01*
X132095938Y-100153668D01*
X132100470Y-100153846D01*
X132309730Y-100123504D01*
X132314029Y-100122045D01*
X132314032Y-100122044D01*
X132505654Y-100056997D01*
X132509955Y-100055537D01*
X132541406Y-100037924D01*
X132690481Y-99954437D01*
X132694442Y-99952219D01*
X132857012Y-99817012D01*
X132992219Y-99654442D01*
X133075761Y-99505268D01*
X133093319Y-99473916D01*
X133093320Y-99473914D01*
X133095537Y-99469955D01*
X133107329Y-99435217D01*
X133162044Y-99274032D01*
X133162045Y-99274029D01*
X133163504Y-99269730D01*
X133193846Y-99060470D01*
X133194940Y-99018705D01*
X133195353Y-99002914D01*
X133195353Y-99002909D01*
X133195429Y-99000000D01*
X133194646Y-98991472D01*
X133192650Y-98969754D01*
X133424967Y-98969754D01*
X133438796Y-99180749D01*
X133439912Y-99185142D01*
X133439912Y-99185144D01*
X133462487Y-99274032D01*
X133490845Y-99385690D01*
X133492747Y-99389815D01*
X133492747Y-99389816D01*
X133531518Y-99473916D01*
X133579369Y-99577714D01*
X133701405Y-99750391D01*
X133852865Y-99897937D01*
X133856638Y-99900458D01*
X134024899Y-100012887D01*
X134024902Y-100012889D01*
X134028677Y-100015411D01*
X134125472Y-100056997D01*
X134218774Y-100097083D01*
X134218778Y-100097084D01*
X134222953Y-100098878D01*
X134252881Y-100105650D01*
X134424760Y-100144543D01*
X134424765Y-100144544D01*
X134429186Y-100145544D01*
X134534828Y-100149695D01*
X134635937Y-100153668D01*
X134635938Y-100153668D01*
X134640470Y-100153846D01*
X134849730Y-100123504D01*
X134854029Y-100122045D01*
X134854032Y-100122044D01*
X135045654Y-100056997D01*
X135049955Y-100055537D01*
X135081406Y-100037924D01*
X135230481Y-99954437D01*
X135234442Y-99952219D01*
X135397012Y-99817012D01*
X135532219Y-99654442D01*
X135615761Y-99505268D01*
X135633319Y-99473916D01*
X135633320Y-99473914D01*
X135635537Y-99469955D01*
X135647329Y-99435217D01*
X135702044Y-99274032D01*
X135702045Y-99274029D01*
X135703504Y-99269730D01*
X135733846Y-99060470D01*
X135734940Y-99018705D01*
X135735353Y-99002914D01*
X135735353Y-99002909D01*
X135735429Y-99000000D01*
X135734646Y-98991472D01*
X135721130Y-98844385D01*
X135716081Y-98789440D01*
X135699408Y-98730320D01*
X135659920Y-98590306D01*
X135659920Y-98590305D01*
X135658686Y-98585931D01*
X135565165Y-98396290D01*
X135438651Y-98226867D01*
X135283381Y-98083337D01*
X135276752Y-98079154D01*
X135108391Y-97972926D01*
X135104554Y-97970505D01*
X134962815Y-97913957D01*
X134915773Y-97874833D01*
X134900500Y-97822005D01*
X134900500Y-94995873D01*
X134919407Y-94937682D01*
X134925825Y-94930167D01*
X134928282Y-94928282D01*
X135024536Y-94802841D01*
X135085044Y-94656762D01*
X135105682Y-94500000D01*
X135085044Y-94343238D01*
X135024536Y-94197159D01*
X134928282Y-94071718D01*
X134802841Y-93975464D01*
X134656762Y-93914956D01*
X134500000Y-93894318D01*
X134343238Y-93914956D01*
X134197159Y-93975464D01*
X134071718Y-94071718D01*
X133975464Y-94197159D01*
X133914956Y-94343238D01*
X133894318Y-94500000D01*
X133914956Y-94656762D01*
X133975464Y-94802841D01*
X134071718Y-94928282D01*
X134071743Y-94928301D01*
X134098281Y-94980386D01*
X134099500Y-94995873D01*
X134099500Y-97890761D01*
X134080593Y-97948952D01*
X134051118Y-97975842D01*
X133993486Y-98010129D01*
X133909501Y-98060095D01*
X133900856Y-98065238D01*
X133897441Y-98068233D01*
X133897438Y-98068235D01*
X133855112Y-98105354D01*
X133741881Y-98204655D01*
X133739073Y-98208217D01*
X133619570Y-98359807D01*
X133610976Y-98370708D01*
X133608862Y-98374726D01*
X133515751Y-98551701D01*
X133512523Y-98557836D01*
X133487728Y-98637690D01*
X133454097Y-98746000D01*
X133449820Y-98759773D01*
X133449286Y-98764283D01*
X133449286Y-98764284D01*
X133445216Y-98798676D01*
X133424967Y-98969754D01*
X133192650Y-98969754D01*
X133181130Y-98844385D01*
X133176081Y-98789440D01*
X133159408Y-98730320D01*
X133119920Y-98590306D01*
X133119920Y-98590305D01*
X133118686Y-98585931D01*
X133025165Y-98396290D01*
X132898651Y-98226867D01*
X132743381Y-98083337D01*
X132736752Y-98079154D01*
X132568391Y-97972926D01*
X132564554Y-97970505D01*
X132502816Y-97945874D01*
X132462815Y-97929915D01*
X132415773Y-97890791D01*
X132400500Y-97837963D01*
X132400500Y-94995873D01*
X132419407Y-94937682D01*
X132425825Y-94930167D01*
X132428282Y-94928282D01*
X132524536Y-94802841D01*
X132585044Y-94656762D01*
X132605682Y-94500000D01*
X132585044Y-94343238D01*
X132524536Y-94197159D01*
X132428282Y-94071718D01*
X132302841Y-93975464D01*
X132156762Y-93914956D01*
X132000000Y-93894318D01*
X131843238Y-93914956D01*
X131697159Y-93975464D01*
X131571718Y-94071718D01*
X131475464Y-94197159D01*
X131414956Y-94343238D01*
X131394318Y-94500000D01*
X131414956Y-94656762D01*
X131475464Y-94802841D01*
X131571718Y-94928282D01*
X131571743Y-94928301D01*
X131598281Y-94980386D01*
X131599500Y-94995873D01*
X131599500Y-97867971D01*
X131580593Y-97926162D01*
X131543988Y-97956606D01*
X131542575Y-97957127D01*
X131538677Y-97959446D01*
X131538675Y-97959447D01*
X131364762Y-98062914D01*
X131360856Y-98065238D01*
X131357441Y-98068233D01*
X131357438Y-98068235D01*
X131315112Y-98105354D01*
X131201881Y-98204655D01*
X131199073Y-98208217D01*
X131079570Y-98359807D01*
X131070976Y-98370708D01*
X131068862Y-98374726D01*
X130975751Y-98551701D01*
X130972523Y-98557836D01*
X130947728Y-98637690D01*
X130914097Y-98746000D01*
X130909820Y-98759773D01*
X130909286Y-98764283D01*
X130909286Y-98764284D01*
X130905216Y-98798676D01*
X130884967Y-98969754D01*
X130652650Y-98969754D01*
X130641130Y-98844385D01*
X130636081Y-98789440D01*
X130619408Y-98730320D01*
X130579920Y-98590306D01*
X130579920Y-98590305D01*
X130578686Y-98585931D01*
X130485165Y-98396290D01*
X130358651Y-98226867D01*
X130203381Y-98083337D01*
X130196752Y-98079154D01*
X130028391Y-97972926D01*
X130024554Y-97970505D01*
X130020343Y-97968825D01*
X130020339Y-97968823D01*
X129962815Y-97945874D01*
X129915773Y-97906750D01*
X129900500Y-97853922D01*
X129900500Y-94995873D01*
X129919407Y-94937682D01*
X129925825Y-94930167D01*
X129928282Y-94928282D01*
X130024536Y-94802841D01*
X130085044Y-94656762D01*
X130105682Y-94500000D01*
X130085044Y-94343238D01*
X130024536Y-94197159D01*
X129928282Y-94071718D01*
X129802841Y-93975464D01*
X129656762Y-93914956D01*
X129500000Y-93894318D01*
X129343238Y-93914956D01*
X129197159Y-93975464D01*
X129071718Y-94071718D01*
X128975464Y-94197159D01*
X128914956Y-94343238D01*
X128894318Y-94500000D01*
X128914956Y-94656762D01*
X128975464Y-94802841D01*
X129071718Y-94928282D01*
X129071743Y-94928301D01*
X129098281Y-94980386D01*
X129099500Y-94995873D01*
X129099500Y-97852370D01*
X129080593Y-97910561D01*
X129034766Y-97945251D01*
X129002575Y-97957127D01*
X128998676Y-97959446D01*
X128998671Y-97959449D01*
X128824762Y-98062914D01*
X128820856Y-98065238D01*
X128817441Y-98068233D01*
X128817438Y-98068235D01*
X128775112Y-98105354D01*
X128661881Y-98204655D01*
X128659073Y-98208217D01*
X128539570Y-98359807D01*
X128530976Y-98370708D01*
X128528862Y-98374726D01*
X128435751Y-98551701D01*
X128432523Y-98557836D01*
X128407728Y-98637690D01*
X128374097Y-98746000D01*
X128369820Y-98759773D01*
X128369286Y-98764283D01*
X128369286Y-98764284D01*
X128365216Y-98798676D01*
X128344967Y-98969754D01*
X128112650Y-98969754D01*
X128101130Y-98844385D01*
X128096081Y-98789440D01*
X128079408Y-98730320D01*
X128039920Y-98590306D01*
X128039920Y-98590305D01*
X128038686Y-98585931D01*
X127945165Y-98396290D01*
X127818651Y-98226867D01*
X127663381Y-98083337D01*
X127656752Y-98079154D01*
X127488391Y-97972926D01*
X127484554Y-97970505D01*
X127480343Y-97968825D01*
X127480339Y-97968823D01*
X127422815Y-97945874D01*
X127375773Y-97906750D01*
X127360500Y-97853922D01*
X127360500Y-95029114D01*
X127379407Y-94970923D01*
X127399233Y-94950572D01*
X127423129Y-94932236D01*
X127428282Y-94928282D01*
X127524536Y-94802841D01*
X127585044Y-94656762D01*
X127605682Y-94500000D01*
X127585044Y-94343238D01*
X127524536Y-94197159D01*
X127428282Y-94071718D01*
X127302841Y-93975464D01*
X127156762Y-93914956D01*
X127000000Y-93894318D01*
X126843238Y-93914956D01*
X126697159Y-93975464D01*
X126571718Y-94071718D01*
X126475464Y-94197159D01*
X126414956Y-94343238D01*
X126394318Y-94500000D01*
X126414956Y-94656762D01*
X126475464Y-94802841D01*
X126479415Y-94807990D01*
X126539042Y-94885698D01*
X126559500Y-94945965D01*
X126559500Y-97852370D01*
X126540593Y-97910561D01*
X126494766Y-97945251D01*
X126462575Y-97957127D01*
X126458676Y-97959446D01*
X126458671Y-97959449D01*
X126284762Y-98062914D01*
X126280856Y-98065238D01*
X126277441Y-98068233D01*
X126277438Y-98068235D01*
X126235112Y-98105354D01*
X126121881Y-98204655D01*
X126119073Y-98208217D01*
X125999570Y-98359807D01*
X125990976Y-98370708D01*
X125988862Y-98374726D01*
X125895751Y-98551701D01*
X125892523Y-98557836D01*
X125867728Y-98637690D01*
X125834097Y-98746000D01*
X125829820Y-98759773D01*
X125829286Y-98764283D01*
X125829286Y-98764284D01*
X125825216Y-98798676D01*
X125804967Y-98969754D01*
X125572650Y-98969754D01*
X125561130Y-98844385D01*
X125556081Y-98789440D01*
X125539408Y-98730320D01*
X125499920Y-98590306D01*
X125499920Y-98590305D01*
X125498686Y-98585931D01*
X125405165Y-98396290D01*
X125278651Y-98226867D01*
X125123381Y-98083337D01*
X125116752Y-98079154D01*
X124948391Y-97972926D01*
X124944554Y-97970505D01*
X124940343Y-97968825D01*
X124940339Y-97968823D01*
X124882815Y-97945874D01*
X124835773Y-97906750D01*
X124820500Y-97853922D01*
X124820500Y-95059807D01*
X124839407Y-95001616D01*
X124859233Y-94981265D01*
X124923129Y-94932236D01*
X124928282Y-94928282D01*
X125024536Y-94802841D01*
X125085044Y-94656762D01*
X125105682Y-94500000D01*
X125085044Y-94343238D01*
X125024536Y-94197159D01*
X124928282Y-94071718D01*
X124802841Y-93975464D01*
X124656762Y-93914956D01*
X124500000Y-93894318D01*
X124343238Y-93914956D01*
X124197159Y-93975464D01*
X124071718Y-94071718D01*
X123975464Y-94197159D01*
X123914956Y-94343238D01*
X123894318Y-94500000D01*
X123914956Y-94656762D01*
X123975464Y-94802841D01*
X123999044Y-94833571D01*
X124019500Y-94893836D01*
X124019500Y-97852370D01*
X124000593Y-97910561D01*
X123954766Y-97945251D01*
X123922575Y-97957127D01*
X123918676Y-97959446D01*
X123918671Y-97959449D01*
X123744762Y-98062914D01*
X123740856Y-98065238D01*
X123737441Y-98068233D01*
X123737438Y-98068235D01*
X123695112Y-98105354D01*
X123581881Y-98204655D01*
X123579073Y-98208217D01*
X123459570Y-98359807D01*
X123450976Y-98370708D01*
X123448862Y-98374726D01*
X123355751Y-98551701D01*
X123352523Y-98557836D01*
X123327728Y-98637690D01*
X123294097Y-98746000D01*
X123289820Y-98759773D01*
X123289286Y-98764283D01*
X123289286Y-98764284D01*
X123285216Y-98798676D01*
X123264967Y-98969754D01*
X123030500Y-98969754D01*
X123030500Y-98105354D01*
X123028548Y-98088951D01*
X123028260Y-98086531D01*
X123028260Y-98086530D01*
X123027382Y-98079154D01*
X122981939Y-97976847D01*
X122945471Y-97940442D01*
X122933349Y-97928342D01*
X122902713Y-97897759D01*
X122835335Y-97867971D01*
X122807136Y-97855504D01*
X122807134Y-97855504D01*
X122800327Y-97852494D01*
X122786322Y-97850861D01*
X122777494Y-97849832D01*
X122777493Y-97849832D01*
X122774646Y-97849500D01*
X120985354Y-97849500D01*
X120968951Y-97851452D01*
X120966531Y-97851740D01*
X120966530Y-97851740D01*
X120959154Y-97852618D01*
X120856847Y-97898061D01*
X120850390Y-97904529D01*
X120850389Y-97904530D01*
X120828795Y-97926162D01*
X120777759Y-97977287D01*
X120774064Y-97985645D01*
X120738876Y-98065238D01*
X120732494Y-98079673D01*
X120731632Y-98087067D01*
X120729940Y-98101584D01*
X120729500Y-98105354D01*
X120729500Y-99894646D01*
X115821041Y-99894646D01*
X116047548Y-99824963D01*
X116052894Y-99822976D01*
X116365313Y-99685834D01*
X116370380Y-99683252D01*
X116664964Y-99511110D01*
X116669696Y-99507966D01*
X116930777Y-99311941D01*
X116938446Y-99301030D01*
X116938422Y-99299512D01*
X116935309Y-99294520D01*
X115011086Y-97370296D01*
X114999203Y-97364242D01*
X114994172Y-97365038D01*
X113069748Y-99289463D01*
X113063694Y-99301346D01*
X111330738Y-99301346D01*
X111319304Y-99248785D01*
X111317293Y-99234806D01*
X111302711Y-99030907D01*
X111303632Y-99013056D01*
X111303632Y-99008530D01*
X111305136Y-99000000D01*
X111302004Y-98982236D01*
X111300500Y-98965047D01*
X111300500Y-96908205D01*
X111988464Y-96908205D01*
X111997394Y-97249270D01*
X111997872Y-97254965D01*
X112045943Y-97592725D01*
X112047074Y-97598333D01*
X112133651Y-97928342D01*
X112135406Y-97933744D01*
X112259349Y-98251644D01*
X112261715Y-98256812D01*
X112421368Y-98558343D01*
X112424324Y-98563223D01*
X112617562Y-98844385D01*
X112621068Y-98848906D01*
X112690345Y-98928319D01*
X112701791Y-98935170D01*
X112705239Y-98934862D01*
X112707361Y-98933428D01*
X114629704Y-97011086D01*
X114634946Y-97000797D01*
X115364242Y-97000797D01*
X115365038Y-97005828D01*
X117287994Y-98928783D01*
X117299877Y-98934837D01*
X117302748Y-98934383D01*
X117305503Y-98932187D01*
X117417135Y-98798676D01*
X117420535Y-98794099D01*
X117607855Y-98508929D01*
X117610697Y-98504008D01*
X117764009Y-98199183D01*
X117766263Y-98193973D01*
X117883515Y-97873565D01*
X117885163Y-97868108D01*
X117964813Y-97536343D01*
X117965821Y-97530743D01*
X118006887Y-97191385D01*
X118007221Y-97186987D01*
X118013028Y-97002214D01*
X118012971Y-96997793D01*
X117993293Y-96656529D01*
X117992639Y-96650875D01*
X117933980Y-96314767D01*
X117932678Y-96309218D01*
X117835777Y-95982086D01*
X117833846Y-95976723D01*
X117699983Y-95662888D01*
X117697459Y-95657802D01*
X117528407Y-95361421D01*
X117525311Y-95356654D01*
X117323319Y-95081676D01*
X117319696Y-95077296D01*
X117312172Y-95069199D01*
X117300517Y-95062713D01*
X117296258Y-95063228D01*
X117295344Y-95063867D01*
X115370296Y-96988914D01*
X115364242Y-97000797D01*
X114634946Y-97000797D01*
X114635758Y-96999203D01*
X114634962Y-96994172D01*
X112710648Y-95069859D01*
X112698765Y-95063805D01*
X112696715Y-95064129D01*
X112692902Y-95067267D01*
X112527552Y-95278145D01*
X112524305Y-95282818D01*
X112346038Y-95573723D01*
X112343343Y-95578749D01*
X112199697Y-95888208D01*
X112197594Y-95893520D01*
X112090465Y-96217450D01*
X112088994Y-96222940D01*
X112019805Y-96557042D01*
X112018972Y-96562681D01*
X111988642Y-96902517D01*
X111988464Y-96908205D01*
X111300500Y-96908205D01*
X111300500Y-94701596D01*
X113064376Y-94701596D01*
X113064487Y-94703945D01*
X113066912Y-94707701D01*
X114988914Y-96629704D01*
X115000797Y-96635758D01*
X115005828Y-96634962D01*
X116928800Y-94711990D01*
X116934854Y-94700107D01*
X116934356Y-94696963D01*
X116932471Y-94694571D01*
X116823894Y-94601837D01*
X116819341Y-94598381D01*
X116536159Y-94408091D01*
X116531256Y-94405191D01*
X116228073Y-94248707D01*
X116222870Y-94246390D01*
X115903711Y-94125790D01*
X115898266Y-94124083D01*
X115567368Y-94040968D01*
X115561769Y-94039900D01*
X115223502Y-93995366D01*
X115217824Y-93994949D01*
X114876667Y-93989590D01*
X114871000Y-93989827D01*
X114531486Y-94023715D01*
X114525853Y-94024607D01*
X114192506Y-94097289D01*
X114187019Y-94098821D01*
X113864232Y-94209336D01*
X113858955Y-94211489D01*
X113551002Y-94358375D01*
X113546010Y-94361119D01*
X113256992Y-94542420D01*
X113252335Y-94545730D01*
X113071700Y-94690446D01*
X113064376Y-94701596D01*
X111300500Y-94701596D01*
X111300500Y-93750000D01*
X119894318Y-93750000D01*
X119914956Y-93906762D01*
X119975464Y-94052841D01*
X120071718Y-94178282D01*
X120197159Y-94274536D01*
X120343238Y-94335044D01*
X120500000Y-94355682D01*
X120656762Y-94335044D01*
X120802841Y-94274536D01*
X120928282Y-94178282D01*
X120928301Y-94178257D01*
X120980386Y-94151719D01*
X120995873Y-94150500D01*
X121541127Y-94150500D01*
X121599318Y-94169407D01*
X121606833Y-94175825D01*
X121608718Y-94178282D01*
X121734159Y-94274536D01*
X121880238Y-94335044D01*
X122037000Y-94355682D01*
X122193762Y-94335044D01*
X122339841Y-94274536D01*
X122465282Y-94178282D01*
X122561536Y-94052841D01*
X122622044Y-93906762D01*
X122642682Y-93750000D01*
X122622044Y-93593238D01*
X122561536Y-93447159D01*
X122465282Y-93321718D01*
X122339841Y-93225464D01*
X122193762Y-93164956D01*
X122037000Y-93144318D01*
X121880238Y-93164956D01*
X121734159Y-93225464D01*
X121608718Y-93321718D01*
X121608699Y-93321743D01*
X121556614Y-93348281D01*
X121541127Y-93349500D01*
X120995873Y-93349500D01*
X120937682Y-93330593D01*
X120930167Y-93324175D01*
X120928282Y-93321718D01*
X120802841Y-93225464D01*
X120656762Y-93164956D01*
X120500000Y-93144318D01*
X120343238Y-93164956D01*
X120197159Y-93225464D01*
X120071718Y-93321718D01*
X119975464Y-93447159D01*
X119914956Y-93593238D01*
X119894318Y-93750000D01*
X111300500Y-93750000D01*
X111300500Y-91250000D01*
X128894318Y-91250000D01*
X128914956Y-91406762D01*
X128975464Y-91552841D01*
X129071718Y-91678282D01*
X129197159Y-91774536D01*
X129343238Y-91835044D01*
X129500000Y-91855682D01*
X129656762Y-91835044D01*
X129802841Y-91774536D01*
X129928282Y-91678282D01*
X129928301Y-91678257D01*
X129980386Y-91651719D01*
X129995873Y-91650500D01*
X135195261Y-91650500D01*
X135253452Y-91669407D01*
X135265265Y-91679496D01*
X135387664Y-91801895D01*
X135387668Y-91801898D01*
X135410231Y-91824461D01*
X135417168Y-91827995D01*
X135417170Y-91827997D01*
X135431724Y-91835412D01*
X135444963Y-91843524D01*
X135464484Y-91857707D01*
X135471889Y-91860113D01*
X135471893Y-91860115D01*
X135487428Y-91865162D01*
X135501774Y-91871105D01*
X135523269Y-91882057D01*
X135530962Y-91883275D01*
X135530964Y-91883276D01*
X135543701Y-91885293D01*
X135598218Y-91913070D01*
X135601349Y-91916640D01*
X135604257Y-91919547D01*
X135608205Y-91924693D01*
X135733646Y-92020947D01*
X135879725Y-92081455D01*
X136036487Y-92102093D01*
X136193249Y-92081455D01*
X136312615Y-92032012D01*
X136373611Y-92027211D01*
X136425780Y-92059180D01*
X136449195Y-92115708D01*
X136449500Y-92123476D01*
X136449500Y-98012801D01*
X136430593Y-98070992D01*
X136415775Y-98087233D01*
X136395112Y-98105354D01*
X136281881Y-98204655D01*
X136279073Y-98208217D01*
X136159570Y-98359807D01*
X136150976Y-98370708D01*
X136148862Y-98374726D01*
X136055751Y-98551701D01*
X136052523Y-98557836D01*
X136027728Y-98637690D01*
X135994097Y-98746000D01*
X135989820Y-98759773D01*
X135989286Y-98764283D01*
X135989286Y-98764284D01*
X135985216Y-98798676D01*
X135964967Y-98969754D01*
X135978796Y-99180749D01*
X135979912Y-99185142D01*
X135979912Y-99185144D01*
X136002487Y-99274032D01*
X136030845Y-99385690D01*
X136032747Y-99389815D01*
X136032747Y-99389816D01*
X136071518Y-99473916D01*
X136119369Y-99577714D01*
X136241405Y-99750391D01*
X136392865Y-99897937D01*
X136396638Y-99900458D01*
X136564899Y-100012887D01*
X136564902Y-100012889D01*
X136568677Y-100015411D01*
X136665472Y-100056997D01*
X136758774Y-100097083D01*
X136758778Y-100097084D01*
X136762953Y-100098878D01*
X136792881Y-100105650D01*
X136964760Y-100144543D01*
X136964765Y-100144544D01*
X136969186Y-100145544D01*
X137074828Y-100149695D01*
X137175937Y-100153668D01*
X137175938Y-100153668D01*
X137180470Y-100153846D01*
X137389730Y-100123504D01*
X137394029Y-100122045D01*
X137394032Y-100122044D01*
X137585654Y-100056997D01*
X137589955Y-100055537D01*
X137621406Y-100037924D01*
X137770481Y-99954437D01*
X137774442Y-99952219D01*
X137937012Y-99817012D01*
X138072219Y-99654442D01*
X138155761Y-99505268D01*
X138173319Y-99473916D01*
X138173320Y-99473914D01*
X138175537Y-99469955D01*
X138185488Y-99440640D01*
X138222097Y-99391615D01*
X138280531Y-99373471D01*
X138338469Y-99393139D01*
X138370960Y-99435217D01*
X138442183Y-99610620D01*
X138445840Y-99617860D01*
X138558266Y-99801322D01*
X138563056Y-99807867D01*
X138703935Y-99970502D01*
X138709729Y-99976176D01*
X138875292Y-100113629D01*
X138881921Y-100118270D01*
X139067713Y-100226838D01*
X139075008Y-100230334D01*
X139276038Y-100307099D01*
X139283808Y-100309357D01*
X139390637Y-100331091D01*
X139403846Y-100329586D01*
X139406000Y-100321405D01*
X139406000Y-100320952D01*
X139914000Y-100320952D01*
X139918122Y-100333637D01*
X139919650Y-100334748D01*
X139924884Y-100335238D01*
X139939291Y-100333392D01*
X139947200Y-100331710D01*
X140153304Y-100269876D01*
X140160852Y-100266918D01*
X140354087Y-100172253D01*
X140361046Y-100168104D01*
X140536231Y-100043148D01*
X140542412Y-100037924D01*
X140694831Y-99886035D01*
X140700088Y-99879858D01*
X140825651Y-99705119D01*
X140829823Y-99698176D01*
X140925164Y-99505268D01*
X140928144Y-99497744D01*
X140987814Y-99301346D01*
X155063694Y-99301346D01*
X155064321Y-99305310D01*
X155065292Y-99306582D01*
X155101687Y-99339698D01*
X155106112Y-99343281D01*
X155383182Y-99542377D01*
X155388000Y-99545434D01*
X155686117Y-99711363D01*
X155691234Y-99713837D01*
X156006461Y-99844409D01*
X156011836Y-99846280D01*
X156339974Y-99939753D01*
X156345517Y-99940992D01*
X156682235Y-99996132D01*
X156687893Y-99996726D01*
X157028697Y-100012798D01*
X157034402Y-100012739D01*
X157374794Y-99989533D01*
X157380452Y-99988818D01*
X157715915Y-99926644D01*
X157721458Y-99925282D01*
X158047548Y-99824963D01*
X158052894Y-99822976D01*
X158365313Y-99685834D01*
X158370380Y-99683252D01*
X158664964Y-99511110D01*
X158669696Y-99507966D01*
X158930777Y-99311941D01*
X158938446Y-99301030D01*
X158938422Y-99299512D01*
X158935309Y-99294520D01*
X157011086Y-97370296D01*
X156999203Y-97364242D01*
X156994172Y-97365038D01*
X155069748Y-99289463D01*
X155063694Y-99301346D01*
X140987814Y-99301346D01*
X140990701Y-99291843D01*
X140992410Y-99283936D01*
X140994304Y-99269547D01*
X140991873Y-99256431D01*
X140990571Y-99255195D01*
X140985290Y-99254000D01*
X139929680Y-99254000D01*
X139916995Y-99258122D01*
X139914000Y-99262243D01*
X139914000Y-100320952D01*
X139406000Y-100320952D01*
X139406000Y-98730320D01*
X139914000Y-98730320D01*
X139918122Y-98743005D01*
X139922243Y-98746000D01*
X140980779Y-98746000D01*
X140992730Y-98742117D01*
X140993058Y-98732462D01*
X140950946Y-98564809D01*
X140948333Y-98557133D01*
X140862534Y-98359807D01*
X140858701Y-98352660D01*
X140741826Y-98171997D01*
X140736880Y-98165575D01*
X140592065Y-98006426D01*
X140586139Y-98000899D01*
X140417269Y-97867534D01*
X140410525Y-97863054D01*
X140222141Y-97759060D01*
X140214749Y-97755738D01*
X140175226Y-97741742D01*
X141944500Y-97741742D01*
X141945154Y-97761724D01*
X141946232Y-97778170D01*
X141948192Y-97798064D01*
X141948296Y-97798855D01*
X141948299Y-97798880D01*
X141958132Y-97873565D01*
X141961986Y-97902839D01*
X141962301Y-97904421D01*
X141962301Y-97904423D01*
X141965672Y-97921369D01*
X141969781Y-97942030D01*
X141970200Y-97943592D01*
X141970200Y-97943594D01*
X141977411Y-97970505D01*
X141978294Y-97973802D01*
X141991140Y-98011645D01*
X142028394Y-98101584D01*
X142046071Y-98137428D01*
X142046871Y-98138813D01*
X142046876Y-98138823D01*
X142050913Y-98145814D01*
X142062518Y-98165914D01*
X142066583Y-98171997D01*
X142083809Y-98197779D01*
X142083818Y-98197791D01*
X142084717Y-98199137D01*
X142143980Y-98276370D01*
X142145047Y-98277586D01*
X142145053Y-98277594D01*
X142169252Y-98305188D01*
X142169265Y-98305202D01*
X142170328Y-98306414D01*
X142193586Y-98329672D01*
X142194798Y-98330735D01*
X142194812Y-98330748D01*
X142222406Y-98354947D01*
X142223630Y-98356020D01*
X142300863Y-98415283D01*
X142302209Y-98416182D01*
X142302221Y-98416191D01*
X142317310Y-98426273D01*
X142334086Y-98437482D01*
X142335489Y-98438292D01*
X142361177Y-98453124D01*
X142361187Y-98453129D01*
X142362572Y-98453929D01*
X142398416Y-98471606D01*
X142488355Y-98508860D01*
X142526198Y-98521706D01*
X142527737Y-98522118D01*
X142527749Y-98522122D01*
X142556406Y-98529800D01*
X142557970Y-98530219D01*
X142559554Y-98530534D01*
X142559558Y-98530535D01*
X142595577Y-98537699D01*
X142597161Y-98538014D01*
X142598765Y-98538225D01*
X142598764Y-98538225D01*
X142701120Y-98551701D01*
X142701145Y-98551704D01*
X142701936Y-98551808D01*
X142721830Y-98553768D01*
X142738276Y-98554846D01*
X142739101Y-98554873D01*
X142757432Y-98555473D01*
X142757434Y-98555473D01*
X142758258Y-98555500D01*
X150491742Y-98555500D01*
X150492566Y-98555473D01*
X150492568Y-98555473D01*
X150510899Y-98554873D01*
X150511724Y-98554846D01*
X150528170Y-98553768D01*
X150548064Y-98551808D01*
X150548855Y-98551704D01*
X150548880Y-98551701D01*
X150651236Y-98538225D01*
X150651235Y-98538225D01*
X150652839Y-98538014D01*
X150654423Y-98537699D01*
X150690442Y-98530535D01*
X150690446Y-98530534D01*
X150692030Y-98530219D01*
X150693594Y-98529800D01*
X150722251Y-98522122D01*
X150722263Y-98522118D01*
X150723802Y-98521706D01*
X150761645Y-98508860D01*
X150851584Y-98471606D01*
X150887428Y-98453929D01*
X150888813Y-98453129D01*
X150888823Y-98453124D01*
X150914511Y-98438292D01*
X150915914Y-98437482D01*
X150932690Y-98426273D01*
X150947779Y-98416191D01*
X150947791Y-98416182D01*
X150949137Y-98415283D01*
X151026370Y-98356020D01*
X151027594Y-98354947D01*
X151055188Y-98330748D01*
X151055202Y-98330735D01*
X151056414Y-98329672D01*
X151079672Y-98306414D01*
X151080735Y-98305202D01*
X151080748Y-98305188D01*
X151104947Y-98277594D01*
X151104953Y-98277586D01*
X151106020Y-98276370D01*
X151165283Y-98199137D01*
X151166182Y-98197791D01*
X151166191Y-98197779D01*
X151183417Y-98171997D01*
X151187482Y-98165914D01*
X151199087Y-98145814D01*
X151203124Y-98138823D01*
X151203129Y-98138813D01*
X151203929Y-98137428D01*
X151221606Y-98101584D01*
X151258860Y-98011645D01*
X151271706Y-97973802D01*
X151272590Y-97970505D01*
X151279800Y-97943594D01*
X151279800Y-97943592D01*
X151280219Y-97942030D01*
X151284329Y-97921369D01*
X151287699Y-97904423D01*
X151287699Y-97904421D01*
X151288014Y-97902839D01*
X151291868Y-97873565D01*
X151301701Y-97798880D01*
X151301704Y-97798855D01*
X151301808Y-97798064D01*
X151303768Y-97778170D01*
X151304846Y-97761724D01*
X151305500Y-97741742D01*
X151305500Y-96908205D01*
X153988464Y-96908205D01*
X153997394Y-97249270D01*
X153997872Y-97254965D01*
X154045943Y-97592725D01*
X154047074Y-97598333D01*
X154133651Y-97928342D01*
X154135406Y-97933744D01*
X154259349Y-98251644D01*
X154261715Y-98256812D01*
X154421368Y-98558343D01*
X154424324Y-98563223D01*
X154617562Y-98844385D01*
X154621068Y-98848906D01*
X154690345Y-98928319D01*
X154701791Y-98935170D01*
X154705239Y-98934862D01*
X154707361Y-98933428D01*
X156629704Y-97011086D01*
X156634946Y-97000797D01*
X157364242Y-97000797D01*
X157365038Y-97005828D01*
X159287994Y-98928783D01*
X159299877Y-98934837D01*
X159302748Y-98934383D01*
X159305503Y-98932187D01*
X159417135Y-98798676D01*
X159420535Y-98794099D01*
X159607855Y-98508929D01*
X159610697Y-98504008D01*
X159764009Y-98199183D01*
X159766263Y-98193973D01*
X159883515Y-97873565D01*
X159885163Y-97868108D01*
X159964813Y-97536343D01*
X159965821Y-97530743D01*
X160006887Y-97191385D01*
X160007221Y-97186987D01*
X160013028Y-97002214D01*
X160012971Y-96997793D01*
X159993293Y-96656529D01*
X159992639Y-96650875D01*
X159933980Y-96314767D01*
X159932678Y-96309218D01*
X159835777Y-95982086D01*
X159833846Y-95976723D01*
X159699983Y-95662888D01*
X159697459Y-95657802D01*
X159528407Y-95361421D01*
X159525311Y-95356654D01*
X159323319Y-95081676D01*
X159319696Y-95077296D01*
X159312172Y-95069199D01*
X159300517Y-95062713D01*
X159296258Y-95063228D01*
X159295344Y-95063867D01*
X157370296Y-96988914D01*
X157364242Y-97000797D01*
X156634946Y-97000797D01*
X156635758Y-96999203D01*
X156634962Y-96994172D01*
X154710648Y-95069859D01*
X154698765Y-95063805D01*
X154696715Y-95064129D01*
X154692902Y-95067267D01*
X154527552Y-95278145D01*
X154524305Y-95282818D01*
X154346038Y-95573723D01*
X154343343Y-95578749D01*
X154199697Y-95888208D01*
X154197594Y-95893520D01*
X154090465Y-96217450D01*
X154088994Y-96222940D01*
X154019805Y-96557042D01*
X154018972Y-96562681D01*
X153988642Y-96902517D01*
X153988464Y-96908205D01*
X151305500Y-96908205D01*
X151305500Y-94701596D01*
X155064376Y-94701596D01*
X155064487Y-94703945D01*
X155066912Y-94707701D01*
X156988914Y-96629704D01*
X157000797Y-96635758D01*
X157005828Y-96634962D01*
X158928800Y-94711990D01*
X158934854Y-94700107D01*
X158934356Y-94696963D01*
X158932471Y-94694571D01*
X158823894Y-94601837D01*
X158819341Y-94598381D01*
X158536159Y-94408091D01*
X158531256Y-94405191D01*
X158228073Y-94248707D01*
X158222870Y-94246390D01*
X157903711Y-94125790D01*
X157898266Y-94124083D01*
X157567368Y-94040968D01*
X157561769Y-94039900D01*
X157223502Y-93995366D01*
X157217824Y-93994949D01*
X156876667Y-93989590D01*
X156871000Y-93989827D01*
X156531486Y-94023715D01*
X156525853Y-94024607D01*
X156192506Y-94097289D01*
X156187019Y-94098821D01*
X155864232Y-94209336D01*
X155858955Y-94211489D01*
X155551002Y-94358375D01*
X155546010Y-94361119D01*
X155256992Y-94542420D01*
X155252335Y-94545730D01*
X155071700Y-94690446D01*
X155064376Y-94701596D01*
X151305500Y-94701596D01*
X151305500Y-92008258D01*
X151304846Y-91988276D01*
X151303768Y-91971830D01*
X151301808Y-91951936D01*
X151299165Y-91931855D01*
X151288225Y-91848764D01*
X151288014Y-91847161D01*
X151286381Y-91838949D01*
X151280535Y-91809558D01*
X151280534Y-91809554D01*
X151280219Y-91807970D01*
X151278591Y-91801895D01*
X151272122Y-91777749D01*
X151272118Y-91777737D01*
X151271706Y-91776198D01*
X151258860Y-91738355D01*
X151221606Y-91648416D01*
X151203929Y-91612572D01*
X151187482Y-91584086D01*
X151170197Y-91558217D01*
X151166191Y-91552221D01*
X151166182Y-91552209D01*
X151165283Y-91550863D01*
X151106020Y-91473630D01*
X151104947Y-91472406D01*
X151080748Y-91444812D01*
X151080735Y-91444798D01*
X151079672Y-91443586D01*
X151056414Y-91420328D01*
X151055202Y-91419265D01*
X151055188Y-91419252D01*
X151027594Y-91395053D01*
X151027586Y-91395047D01*
X151026370Y-91393980D01*
X150949137Y-91334717D01*
X150947791Y-91333818D01*
X150947779Y-91333809D01*
X150925350Y-91318823D01*
X150915914Y-91312518D01*
X150906577Y-91307127D01*
X150888823Y-91296876D01*
X150888813Y-91296871D01*
X150887428Y-91296071D01*
X150851584Y-91278394D01*
X150761645Y-91241140D01*
X150723802Y-91228294D01*
X150722263Y-91227882D01*
X150722251Y-91227878D01*
X150693594Y-91220200D01*
X150693592Y-91220200D01*
X150692030Y-91219781D01*
X150690446Y-91219466D01*
X150690442Y-91219465D01*
X150654423Y-91212301D01*
X150654421Y-91212301D01*
X150652839Y-91211986D01*
X150642386Y-91210610D01*
X150548880Y-91198299D01*
X150548855Y-91198296D01*
X150548064Y-91198192D01*
X150528170Y-91196232D01*
X150511724Y-91195154D01*
X150509990Y-91195097D01*
X150492568Y-91194527D01*
X150492566Y-91194527D01*
X150491742Y-91194500D01*
X142758258Y-91194500D01*
X142757434Y-91194527D01*
X142757432Y-91194527D01*
X142740010Y-91195097D01*
X142738276Y-91195154D01*
X142721830Y-91196232D01*
X142701936Y-91198192D01*
X142701145Y-91198296D01*
X142701120Y-91198299D01*
X142607614Y-91210610D01*
X142597161Y-91211986D01*
X142595579Y-91212301D01*
X142595577Y-91212301D01*
X142559558Y-91219465D01*
X142559554Y-91219466D01*
X142557970Y-91219781D01*
X142556408Y-91220200D01*
X142556406Y-91220200D01*
X142527749Y-91227878D01*
X142527737Y-91227882D01*
X142526198Y-91228294D01*
X142488355Y-91241140D01*
X142398416Y-91278394D01*
X142362572Y-91296071D01*
X142361187Y-91296871D01*
X142361177Y-91296876D01*
X142343423Y-91307127D01*
X142334086Y-91312518D01*
X142324650Y-91318823D01*
X142302221Y-91333809D01*
X142302209Y-91333818D01*
X142300863Y-91334717D01*
X142223630Y-91393980D01*
X142222414Y-91395047D01*
X142222406Y-91395053D01*
X142194812Y-91419252D01*
X142194798Y-91419265D01*
X142193586Y-91420328D01*
X142170328Y-91443586D01*
X142169265Y-91444798D01*
X142169252Y-91444812D01*
X142145053Y-91472406D01*
X142143980Y-91473630D01*
X142084717Y-91550863D01*
X142083818Y-91552209D01*
X142083809Y-91552221D01*
X142079803Y-91558217D01*
X142062518Y-91584086D01*
X142046071Y-91612572D01*
X142028394Y-91648416D01*
X141991140Y-91738355D01*
X141978294Y-91776198D01*
X141977882Y-91777737D01*
X141977878Y-91777749D01*
X141971409Y-91801895D01*
X141969781Y-91807970D01*
X141969466Y-91809554D01*
X141969465Y-91809558D01*
X141963619Y-91838949D01*
X141961986Y-91847161D01*
X141961775Y-91848764D01*
X141950836Y-91931855D01*
X141948192Y-91951936D01*
X141946232Y-91971830D01*
X141945154Y-91988276D01*
X141944500Y-92008258D01*
X141944500Y-97741742D01*
X140175226Y-97741742D01*
X140011920Y-97683912D01*
X140004081Y-97681841D01*
X139929436Y-97668545D01*
X139916226Y-97670378D01*
X139915805Y-97670782D01*
X139914000Y-97677996D01*
X139914000Y-98730320D01*
X139406000Y-98730320D01*
X139406000Y-97680667D01*
X139401878Y-97667982D01*
X139400877Y-97667254D01*
X139394549Y-97666739D01*
X139348220Y-97673829D01*
X139340348Y-97675705D01*
X139135807Y-97742558D01*
X139128350Y-97745693D01*
X138937479Y-97845054D01*
X138930627Y-97849369D01*
X138758544Y-97978573D01*
X138752491Y-97983947D01*
X138603830Y-98139513D01*
X138598727Y-98145814D01*
X138477466Y-98323575D01*
X138473468Y-98330613D01*
X138382871Y-98525790D01*
X138380073Y-98533394D01*
X138374832Y-98552292D01*
X138341062Y-98603314D01*
X138283751Y-98624741D01*
X138224791Y-98608389D01*
X138190643Y-98569622D01*
X138188270Y-98564809D01*
X138105165Y-98396290D01*
X137978651Y-98226867D01*
X137823381Y-98083337D01*
X137816752Y-98079154D01*
X137648391Y-97972926D01*
X137644554Y-97970505D01*
X137612814Y-97957842D01*
X137565772Y-97918717D01*
X137550500Y-97865890D01*
X137550500Y-91149500D01*
X137569407Y-91091309D01*
X137618907Y-91055345D01*
X137649500Y-91050500D01*
X137776133Y-91050500D01*
X137833482Y-91068803D01*
X137836819Y-91071174D01*
X137841233Y-91075191D01*
X137990235Y-91156092D01*
X138025189Y-91165262D01*
X138148464Y-91197603D01*
X138148468Y-91197604D01*
X138154233Y-91199116D01*
X138160194Y-91199210D01*
X138160197Y-91199210D01*
X138238965Y-91200447D01*
X138323760Y-91201779D01*
X138329575Y-91200447D01*
X138329577Y-91200447D01*
X138483206Y-91165262D01*
X138483209Y-91165261D01*
X138489029Y-91163928D01*
X138504610Y-91156092D01*
X138577796Y-91119283D01*
X138640498Y-91087747D01*
X138645035Y-91083872D01*
X138645038Y-91083870D01*
X138764888Y-90981508D01*
X138764891Y-90981505D01*
X138769423Y-90977634D01*
X138773561Y-90971875D01*
X138864877Y-90844796D01*
X138864878Y-90844794D01*
X138868361Y-90839947D01*
X138903076Y-90753593D01*
X138929377Y-90688167D01*
X138929378Y-90688165D01*
X138931601Y-90682634D01*
X138932442Y-90676727D01*
X138955034Y-90517985D01*
X138955034Y-90517979D01*
X138955490Y-90514778D01*
X138955645Y-90500000D01*
X138935276Y-90331680D01*
X138875345Y-90173077D01*
X138809322Y-90077014D01*
X155368043Y-90077014D01*
X155398807Y-90213524D01*
X155401231Y-90221258D01*
X155482183Y-90420620D01*
X155485840Y-90427860D01*
X155598266Y-90611322D01*
X155603056Y-90617867D01*
X155743935Y-90780502D01*
X155749729Y-90786176D01*
X155915292Y-90923629D01*
X155921921Y-90928270D01*
X156107713Y-91036838D01*
X156115009Y-91040334D01*
X156267009Y-91098377D01*
X156314626Y-91136799D01*
X156330565Y-91195872D01*
X156308738Y-91253031D01*
X156265957Y-91283744D01*
X156206837Y-91305554D01*
X156206831Y-91305557D01*
X156202575Y-91307127D01*
X156198676Y-91309446D01*
X156198671Y-91309449D01*
X156054784Y-91395053D01*
X156020856Y-91415238D01*
X156017441Y-91418233D01*
X156017438Y-91418235D01*
X155952800Y-91474921D01*
X155861881Y-91554655D01*
X155859073Y-91558217D01*
X155761305Y-91682236D01*
X155730976Y-91720708D01*
X155728862Y-91724726D01*
X155643460Y-91887049D01*
X155632523Y-91907836D01*
X155631179Y-91912165D01*
X155572205Y-92102093D01*
X155569820Y-92109773D01*
X155569286Y-92114283D01*
X155569286Y-92114284D01*
X155569118Y-92115708D01*
X155544967Y-92319754D01*
X155558796Y-92530749D01*
X155559912Y-92535142D01*
X155559912Y-92535144D01*
X155582487Y-92624032D01*
X155610845Y-92735690D01*
X155612747Y-92739815D01*
X155612747Y-92739816D01*
X155651518Y-92823916D01*
X155699369Y-92927714D01*
X155821405Y-93100391D01*
X155972865Y-93247937D01*
X155976638Y-93250458D01*
X156144899Y-93362887D01*
X156144902Y-93362889D01*
X156148677Y-93365411D01*
X156245472Y-93406997D01*
X156338774Y-93447083D01*
X156338778Y-93447084D01*
X156342953Y-93448878D01*
X156347387Y-93449881D01*
X156347386Y-93449881D01*
X156544760Y-93494543D01*
X156544765Y-93494544D01*
X156549186Y-93495544D01*
X156654828Y-93499695D01*
X156755937Y-93503668D01*
X156755938Y-93503668D01*
X156760470Y-93503846D01*
X156969730Y-93473504D01*
X156974029Y-93472045D01*
X156974032Y-93472044D01*
X157165654Y-93406997D01*
X157169955Y-93405537D01*
X157354442Y-93302219D01*
X157517012Y-93167012D01*
X157652219Y-93004442D01*
X157755537Y-92819955D01*
X157756997Y-92815654D01*
X157822044Y-92624032D01*
X157822045Y-92624029D01*
X157823504Y-92619730D01*
X157853846Y-92410470D01*
X157855429Y-92350000D01*
X157836081Y-92139440D01*
X157813446Y-92059180D01*
X157779920Y-91940306D01*
X157779920Y-91940305D01*
X157778686Y-91935931D01*
X157685165Y-91746290D01*
X157558651Y-91576867D01*
X157403381Y-91433337D01*
X157384577Y-91421472D01*
X157228391Y-91322926D01*
X157224554Y-91320505D01*
X157187079Y-91305554D01*
X157130560Y-91283005D01*
X157083518Y-91243881D01*
X157068457Y-91184578D01*
X157091130Y-91127748D01*
X157138797Y-91096228D01*
X157193312Y-91079873D01*
X157200852Y-91076918D01*
X157394087Y-90982253D01*
X157401046Y-90978104D01*
X157576231Y-90853148D01*
X157582412Y-90847924D01*
X157734831Y-90696035D01*
X157740088Y-90689858D01*
X157865651Y-90515119D01*
X157869823Y-90508176D01*
X157965164Y-90315268D01*
X157968144Y-90307744D01*
X158030701Y-90101843D01*
X158032410Y-90093938D01*
X158034304Y-90079547D01*
X158031873Y-90066431D01*
X158030571Y-90065195D01*
X158025290Y-90064000D01*
X155380790Y-90064000D01*
X155368460Y-90068006D01*
X155368043Y-90077014D01*
X138809322Y-90077014D01*
X138779312Y-90033349D01*
X138652721Y-89920560D01*
X138502881Y-89841224D01*
X138420661Y-89820572D01*
X138344231Y-89801373D01*
X138344228Y-89801373D01*
X138338441Y-89799919D01*
X138252841Y-89799471D01*
X138174861Y-89799062D01*
X138174859Y-89799062D01*
X138168895Y-89799031D01*
X138163099Y-89800423D01*
X138163095Y-89800423D01*
X138055703Y-89826207D01*
X138004032Y-89838612D01*
X137933113Y-89875216D01*
X137858675Y-89913636D01*
X137858673Y-89913638D01*
X137853369Y-89916375D01*
X137848867Y-89920302D01*
X137848866Y-89920303D01*
X137843364Y-89925102D01*
X137787085Y-89949108D01*
X137778284Y-89949500D01*
X137269032Y-89949500D01*
X137210841Y-89930593D01*
X137199029Y-89920504D01*
X136899488Y-89620964D01*
X136896617Y-89617971D01*
X136858769Y-89576812D01*
X136854201Y-89571844D01*
X136816134Y-89548242D01*
X136811977Y-89545384D01*
X155364056Y-89545384D01*
X155365756Y-89553462D01*
X155367566Y-89555098D01*
X155371792Y-89556000D01*
X158020779Y-89556000D01*
X158032730Y-89552117D01*
X158033058Y-89542462D01*
X157990946Y-89374809D01*
X157988333Y-89367133D01*
X157902534Y-89169807D01*
X157898701Y-89162660D01*
X157781826Y-88981997D01*
X157776880Y-88975575D01*
X157632065Y-88816426D01*
X157626139Y-88810899D01*
X157457269Y-88677534D01*
X157450525Y-88673054D01*
X157262141Y-88569060D01*
X157254749Y-88565738D01*
X157136040Y-88523701D01*
X157087498Y-88486454D01*
X157070121Y-88427788D01*
X157090545Y-88370112D01*
X157137264Y-88336634D01*
X157165657Y-88326996D01*
X157169955Y-88325537D01*
X157194940Y-88311545D01*
X157350481Y-88224437D01*
X157354442Y-88222219D01*
X157517012Y-88087012D01*
X157652219Y-87924442D01*
X157755537Y-87739955D01*
X157764471Y-87713636D01*
X157822044Y-87544032D01*
X157822045Y-87544029D01*
X157823504Y-87539730D01*
X157853846Y-87330470D01*
X157855101Y-87282560D01*
X157855353Y-87272914D01*
X157855353Y-87272909D01*
X157855429Y-87270000D01*
X157851252Y-87224536D01*
X157836496Y-87063960D01*
X157836081Y-87059440D01*
X157778686Y-86855931D01*
X157685165Y-86666290D01*
X157558651Y-86496867D01*
X157403381Y-86353337D01*
X157224554Y-86240505D01*
X157028160Y-86162152D01*
X156820775Y-86120901D01*
X156716599Y-86119537D01*
X156613886Y-86118192D01*
X156613881Y-86118192D01*
X156609346Y-86118133D01*
X156604873Y-86118902D01*
X156604868Y-86118902D01*
X156501601Y-86136647D01*
X156400953Y-86153941D01*
X156202575Y-86227127D01*
X156198676Y-86229446D01*
X156198671Y-86229449D01*
X156024762Y-86332914D01*
X156020856Y-86335238D01*
X156017441Y-86338233D01*
X156017438Y-86338235D01*
X156002977Y-86350917D01*
X155861881Y-86474655D01*
X155730976Y-86640708D01*
X155632523Y-86827836D01*
X155631179Y-86832165D01*
X155578183Y-87002841D01*
X155569820Y-87029773D01*
X155569286Y-87034283D01*
X155569286Y-87034284D01*
X155558771Y-87123129D01*
X155544967Y-87239754D01*
X155558796Y-87450749D01*
X155559912Y-87455142D01*
X155559912Y-87455144D01*
X155582487Y-87544032D01*
X155610845Y-87655690D01*
X155612747Y-87659815D01*
X155612747Y-87659816D01*
X155692747Y-87833349D01*
X155699369Y-87847714D01*
X155821405Y-88020391D01*
X155972865Y-88167937D01*
X155976638Y-88170458D01*
X156144899Y-88282887D01*
X156144902Y-88282889D01*
X156148677Y-88285411D01*
X156267903Y-88336634D01*
X156272507Y-88338612D01*
X156318508Y-88378954D01*
X156332012Y-88438631D01*
X156307859Y-88494847D01*
X156264183Y-88523673D01*
X156175811Y-88552557D01*
X156168350Y-88555693D01*
X155977479Y-88655054D01*
X155970627Y-88659369D01*
X155798544Y-88788573D01*
X155792491Y-88793947D01*
X155643830Y-88949513D01*
X155638727Y-88955814D01*
X155517466Y-89133575D01*
X155513468Y-89140613D01*
X155422871Y-89335790D01*
X155420073Y-89343394D01*
X155364056Y-89545384D01*
X136811977Y-89545384D01*
X136808449Y-89542959D01*
X136778166Y-89519973D01*
X136778161Y-89519970D01*
X136772783Y-89515888D01*
X136756566Y-89509467D01*
X136740845Y-89501560D01*
X136731752Y-89495922D01*
X136731747Y-89495920D01*
X136726014Y-89492365D01*
X136683010Y-89479871D01*
X136674187Y-89476850D01*
X136638826Y-89462849D01*
X136638819Y-89462847D01*
X136632547Y-89460364D01*
X136615194Y-89458540D01*
X136597932Y-89455153D01*
X136581175Y-89450285D01*
X136576002Y-89449905D01*
X136576001Y-89449905D01*
X136572286Y-89449632D01*
X136572279Y-89449632D01*
X136570485Y-89449500D01*
X136534369Y-89449500D01*
X136524021Y-89448958D01*
X136489255Y-89445304D01*
X136489254Y-89445304D01*
X136482546Y-89444599D01*
X136461764Y-89448114D01*
X136445254Y-89449500D01*
X131244033Y-89449500D01*
X131185842Y-89430593D01*
X131174029Y-89420504D01*
X130583802Y-88830278D01*
X130556025Y-88775761D01*
X130565596Y-88715329D01*
X130573409Y-88702504D01*
X130594571Y-88673054D01*
X130618361Y-88639947D01*
X130665103Y-88523673D01*
X130679377Y-88488167D01*
X130679378Y-88488165D01*
X130681601Y-88482634D01*
X130685505Y-88455204D01*
X130705034Y-88317985D01*
X130705034Y-88317979D01*
X130705490Y-88314778D01*
X130705645Y-88300000D01*
X130689664Y-88167937D01*
X130685993Y-88137602D01*
X130685992Y-88137599D01*
X130685276Y-88131680D01*
X130625345Y-87973077D01*
X130529312Y-87833349D01*
X130402721Y-87720560D01*
X130252881Y-87641224D01*
X130170661Y-87620571D01*
X130094231Y-87601373D01*
X130094228Y-87601373D01*
X130088441Y-87599919D01*
X130002841Y-87599471D01*
X129924861Y-87599062D01*
X129924859Y-87599062D01*
X129918895Y-87599031D01*
X129913099Y-87600423D01*
X129913095Y-87600423D01*
X129805703Y-87626207D01*
X129754032Y-87638612D01*
X129729473Y-87651288D01*
X129608675Y-87713636D01*
X129608673Y-87713638D01*
X129603369Y-87716375D01*
X129475604Y-87827831D01*
X129378113Y-87966547D01*
X129375945Y-87972108D01*
X129330013Y-88089917D01*
X129316524Y-88124513D01*
X129294394Y-88292611D01*
X129295049Y-88298544D01*
X129295049Y-88298548D01*
X129312344Y-88455204D01*
X129312999Y-88461135D01*
X129371266Y-88620356D01*
X129374595Y-88625310D01*
X129432671Y-88711738D01*
X129449500Y-88766954D01*
X129449500Y-89010565D01*
X129449413Y-89014711D01*
X129446790Y-89077294D01*
X129448332Y-89083867D01*
X129448332Y-89083870D01*
X129457016Y-89120893D01*
X129458716Y-89130063D01*
X129464794Y-89174432D01*
X129471724Y-89190446D01*
X129477247Y-89207144D01*
X129481232Y-89224136D01*
X129484483Y-89230049D01*
X129484485Y-89230055D01*
X129502809Y-89263387D01*
X129506911Y-89271760D01*
X129522014Y-89306661D01*
X129522016Y-89306665D01*
X129524695Y-89312855D01*
X129528940Y-89318098D01*
X129528941Y-89318099D01*
X129535671Y-89326410D01*
X129545484Y-89341014D01*
X129546793Y-89343394D01*
X129553893Y-89356308D01*
X129560897Y-89364422D01*
X129586444Y-89389969D01*
X129593376Y-89397669D01*
X129619614Y-89430070D01*
X129625113Y-89433978D01*
X129636791Y-89442277D01*
X129649445Y-89452971D01*
X130071691Y-89875216D01*
X130099469Y-89929733D01*
X130089898Y-89990165D01*
X130046633Y-90033430D01*
X130039574Y-90036684D01*
X129988572Y-90057810D01*
X129947159Y-90074964D01*
X129821718Y-90171218D01*
X129725464Y-90296659D01*
X129664956Y-90442738D01*
X129664109Y-90449174D01*
X129648981Y-90564077D01*
X129622640Y-90619302D01*
X129568869Y-90648497D01*
X129537907Y-90649308D01*
X129506435Y-90645165D01*
X129506434Y-90645165D01*
X129500000Y-90644318D01*
X129343238Y-90664956D01*
X129197159Y-90725464D01*
X129071718Y-90821718D01*
X128975464Y-90947159D01*
X128914956Y-91093238D01*
X128894318Y-91250000D01*
X111300500Y-91250000D01*
X111300500Y-90730908D01*
X111319407Y-90672717D01*
X111368907Y-90636753D01*
X111430093Y-90636753D01*
X111479593Y-90672717D01*
X111488632Y-90687820D01*
X111518336Y-90749266D01*
X111521789Y-90753592D01*
X111521790Y-90753593D01*
X111547801Y-90786176D01*
X111630380Y-90889620D01*
X111770734Y-91001664D01*
X111932423Y-91079827D01*
X111937807Y-91081070D01*
X111937810Y-91081071D01*
X112012772Y-91098377D01*
X112107411Y-91120226D01*
X112112163Y-91120500D01*
X112113586Y-91120500D01*
X112501367Y-91120499D01*
X112887836Y-91120499D01*
X112892589Y-91120226D01*
X112896670Y-91119284D01*
X112896676Y-91119283D01*
X113062190Y-91081071D01*
X113062193Y-91081070D01*
X113067577Y-91079827D01*
X113229266Y-91001664D01*
X113369620Y-90889620D01*
X113452199Y-90786176D01*
X113478210Y-90753593D01*
X113478211Y-90753592D01*
X113481664Y-90749266D01*
X113516731Y-90676727D01*
X113557421Y-90592554D01*
X113559827Y-90587577D01*
X113565253Y-90564077D01*
X113591780Y-90449174D01*
X113600226Y-90412589D01*
X113600500Y-90407837D01*
X113600499Y-90232164D01*
X113600226Y-90227411D01*
X113599284Y-90223330D01*
X113599283Y-90223324D01*
X113561071Y-90057810D01*
X113561070Y-90057807D01*
X113559827Y-90052423D01*
X113509883Y-89949108D01*
X113484072Y-89895715D01*
X113484072Y-89895714D01*
X113481664Y-89890734D01*
X113442141Y-89841224D01*
X113373079Y-89754713D01*
X113369620Y-89750380D01*
X113229266Y-89638336D01*
X113067577Y-89560173D01*
X113062193Y-89558930D01*
X113062190Y-89558929D01*
X112975955Y-89539021D01*
X112892589Y-89519774D01*
X112887837Y-89519500D01*
X112886414Y-89519500D01*
X112498633Y-89519501D01*
X112112164Y-89519501D01*
X112107411Y-89519774D01*
X112103330Y-89520716D01*
X112103324Y-89520717D01*
X111937810Y-89558929D01*
X111937807Y-89558930D01*
X111932423Y-89560173D01*
X111770734Y-89638336D01*
X111630380Y-89750380D01*
X111626921Y-89754713D01*
X111557860Y-89841224D01*
X111518336Y-89890734D01*
X111515928Y-89895714D01*
X111515928Y-89895715D01*
X111488632Y-89952180D01*
X111446283Y-89996341D01*
X111386064Y-90007176D01*
X111330978Y-89980546D01*
X111302065Y-89926624D01*
X111300500Y-89909092D01*
X111300500Y-88900000D01*
X115569534Y-88900000D01*
X115589313Y-89050236D01*
X115591797Y-89056233D01*
X115644819Y-89184240D01*
X115644821Y-89184244D01*
X115647302Y-89190233D01*
X115651248Y-89195375D01*
X115651250Y-89195379D01*
X115703435Y-89263387D01*
X115739549Y-89310451D01*
X115744698Y-89314402D01*
X115854621Y-89398750D01*
X115854625Y-89398752D01*
X115859767Y-89402698D01*
X115865761Y-89405181D01*
X115865763Y-89405182D01*
X115902754Y-89420504D01*
X115963641Y-89445724D01*
X115967274Y-89447229D01*
X116013800Y-89486965D01*
X116028084Y-89546460D01*
X116004669Y-89602988D01*
X115972477Y-89627825D01*
X115950734Y-89638336D01*
X115810380Y-89750380D01*
X115806921Y-89754713D01*
X115737860Y-89841224D01*
X115698336Y-89890734D01*
X115695928Y-89895714D01*
X115695928Y-89895715D01*
X115670117Y-89949108D01*
X115620173Y-90052423D01*
X115618930Y-90057807D01*
X115618929Y-90057810D01*
X115599021Y-90144045D01*
X115579774Y-90227411D01*
X115579500Y-90232163D01*
X115579501Y-90407836D01*
X115579774Y-90412589D01*
X115580716Y-90416668D01*
X115580717Y-90416676D01*
X115618929Y-90582190D01*
X115620173Y-90587577D01*
X115622579Y-90592554D01*
X115663270Y-90676727D01*
X115698336Y-90749266D01*
X115701789Y-90753592D01*
X115701790Y-90753593D01*
X115727801Y-90786176D01*
X115810380Y-90889620D01*
X115950734Y-91001664D01*
X116112423Y-91079827D01*
X116117807Y-91081070D01*
X116117810Y-91081071D01*
X116192772Y-91098377D01*
X116287411Y-91120226D01*
X116292163Y-91120500D01*
X116293586Y-91120500D01*
X116681367Y-91120499D01*
X117067836Y-91120499D01*
X117072589Y-91120226D01*
X117076670Y-91119284D01*
X117076676Y-91119283D01*
X117242190Y-91081071D01*
X117242193Y-91081070D01*
X117247577Y-91079827D01*
X117409266Y-91001664D01*
X117549620Y-90889620D01*
X117632199Y-90786176D01*
X117658210Y-90753593D01*
X117658211Y-90753592D01*
X117661664Y-90749266D01*
X117696731Y-90676727D01*
X117737421Y-90592554D01*
X117739827Y-90587577D01*
X117745253Y-90564077D01*
X117771780Y-90449174D01*
X117780226Y-90412589D01*
X117780500Y-90407837D01*
X117780499Y-90232164D01*
X117780226Y-90227411D01*
X117779284Y-90223330D01*
X117779283Y-90223324D01*
X117741071Y-90057810D01*
X117741070Y-90057807D01*
X117739827Y-90052423D01*
X117689883Y-89949108D01*
X117664072Y-89895715D01*
X117664072Y-89895714D01*
X117661664Y-89890734D01*
X117622141Y-89841224D01*
X117553079Y-89754713D01*
X117549620Y-89750380D01*
X117409266Y-89638336D01*
X117247577Y-89560173D01*
X117242193Y-89558930D01*
X117242190Y-89558929D01*
X117155955Y-89539021D01*
X117072589Y-89519774D01*
X117067837Y-89519500D01*
X117064017Y-89519500D01*
X116579657Y-89519501D01*
X116521467Y-89500594D01*
X116485503Y-89451094D01*
X116485503Y-89389909D01*
X116519390Y-89341960D01*
X116555297Y-89314407D01*
X116555302Y-89314402D01*
X116560451Y-89310451D01*
X116596565Y-89263387D01*
X116648750Y-89195379D01*
X116648752Y-89195375D01*
X116652698Y-89190233D01*
X116655179Y-89184244D01*
X116655181Y-89184240D01*
X116708203Y-89056233D01*
X116710687Y-89050236D01*
X116730466Y-88900000D01*
X116710687Y-88749764D01*
X116704317Y-88734386D01*
X116655181Y-88615760D01*
X116655179Y-88615756D01*
X116652698Y-88609767D01*
X116648752Y-88604625D01*
X116648750Y-88604621D01*
X116564402Y-88494698D01*
X116560451Y-88489549D01*
X116530725Y-88466739D01*
X116445379Y-88401250D01*
X116445375Y-88401248D01*
X116440233Y-88397302D01*
X116434244Y-88394821D01*
X116434240Y-88394819D01*
X116306233Y-88341797D01*
X116300236Y-88339313D01*
X116187720Y-88324500D01*
X116112280Y-88324500D01*
X115999764Y-88339313D01*
X115993767Y-88341797D01*
X115865760Y-88394819D01*
X115865756Y-88394821D01*
X115859767Y-88397302D01*
X115854625Y-88401248D01*
X115854621Y-88401250D01*
X115769275Y-88466739D01*
X115739549Y-88489549D01*
X115735598Y-88494698D01*
X115651250Y-88604621D01*
X115651248Y-88604625D01*
X115647302Y-88609767D01*
X115644821Y-88615756D01*
X115644819Y-88615760D01*
X115595683Y-88734386D01*
X115589313Y-88749764D01*
X115569534Y-88900000D01*
X111300500Y-88900000D01*
X111300500Y-86700000D01*
X119894318Y-86700000D01*
X119914956Y-86856762D01*
X119975464Y-87002841D01*
X120071718Y-87128282D01*
X120197159Y-87224536D01*
X120343238Y-87285044D01*
X120500000Y-87305682D01*
X120656762Y-87285044D01*
X120802841Y-87224536D01*
X120928282Y-87128282D01*
X121024536Y-87002841D01*
X121085044Y-86856762D01*
X121105682Y-86700000D01*
X121085044Y-86543238D01*
X121024536Y-86397159D01*
X120928282Y-86271718D01*
X120928257Y-86271699D01*
X120901719Y-86219614D01*
X120900500Y-86204127D01*
X120900500Y-85646373D01*
X120919407Y-85588182D01*
X120925825Y-85580667D01*
X120928282Y-85578782D01*
X121024536Y-85453341D01*
X121085044Y-85307262D01*
X121105682Y-85150500D01*
X121085044Y-84993738D01*
X121024536Y-84847659D01*
X120928282Y-84722218D01*
X120802841Y-84625964D01*
X120656762Y-84565456D01*
X120500000Y-84544818D01*
X120343238Y-84565456D01*
X120197159Y-84625964D01*
X120071718Y-84722218D01*
X119975464Y-84847659D01*
X119914956Y-84993738D01*
X119894318Y-85150500D01*
X119914956Y-85307262D01*
X119975464Y-85453341D01*
X120071718Y-85578782D01*
X120071743Y-85578801D01*
X120098281Y-85630886D01*
X120099500Y-85646373D01*
X120099500Y-86204127D01*
X120080593Y-86262318D01*
X120074175Y-86269833D01*
X120071718Y-86271718D01*
X119975464Y-86397159D01*
X119914956Y-86543238D01*
X119894318Y-86700000D01*
X111300500Y-86700000D01*
X111300500Y-84250000D01*
X141894318Y-84250000D01*
X141914956Y-84406762D01*
X141975464Y-84552841D01*
X142071718Y-84678282D01*
X142197159Y-84774536D01*
X142343238Y-84835044D01*
X142500000Y-84855682D01*
X142656762Y-84835044D01*
X142802841Y-84774536D01*
X142864660Y-84727101D01*
X142872666Y-84720958D01*
X142932933Y-84700500D01*
X154607373Y-84700500D01*
X154619009Y-84701186D01*
X154654310Y-84705364D01*
X154661586Y-84704035D01*
X154661589Y-84704035D01*
X154685028Y-84699754D01*
X155544967Y-84699754D01*
X155558796Y-84910749D01*
X155559912Y-84915142D01*
X155559912Y-84915144D01*
X155581507Y-85000174D01*
X155610845Y-85115690D01*
X155612747Y-85119815D01*
X155612747Y-85119816D01*
X155696194Y-85300826D01*
X155699369Y-85307714D01*
X155821405Y-85480391D01*
X155972865Y-85627937D01*
X155993208Y-85641530D01*
X156144899Y-85742887D01*
X156144902Y-85742889D01*
X156148677Y-85745411D01*
X156245472Y-85786997D01*
X156338774Y-85827083D01*
X156338778Y-85827084D01*
X156342953Y-85828878D01*
X156347387Y-85829881D01*
X156347386Y-85829881D01*
X156544760Y-85874543D01*
X156544765Y-85874544D01*
X156549186Y-85875544D01*
X156654828Y-85879695D01*
X156755937Y-85883668D01*
X156755938Y-85883668D01*
X156760470Y-85883846D01*
X156969730Y-85853504D01*
X156974029Y-85852045D01*
X156974032Y-85852044D01*
X157165654Y-85786997D01*
X157169955Y-85785537D01*
X157354442Y-85682219D01*
X157517012Y-85547012D01*
X157652219Y-85384442D01*
X157755537Y-85199955D01*
X157774509Y-85144066D01*
X157822044Y-85004032D01*
X157822045Y-85004029D01*
X157823504Y-84999730D01*
X157837062Y-84906223D01*
X157853426Y-84793369D01*
X157853426Y-84793363D01*
X157853846Y-84790470D01*
X157854199Y-84777019D01*
X157855353Y-84732914D01*
X157855353Y-84732909D01*
X157855429Y-84730000D01*
X157854599Y-84720958D01*
X157841090Y-84573949D01*
X157836081Y-84519440D01*
X157778686Y-84315931D01*
X157685165Y-84126290D01*
X157591634Y-84001037D01*
X157561367Y-83960504D01*
X157561366Y-83960503D01*
X157558651Y-83956867D01*
X157403381Y-83813337D01*
X157224554Y-83700505D01*
X157028160Y-83622152D01*
X156820775Y-83580901D01*
X156716599Y-83579537D01*
X156613886Y-83578192D01*
X156613881Y-83578192D01*
X156609346Y-83578133D01*
X156604873Y-83578902D01*
X156604868Y-83578902D01*
X156501601Y-83596647D01*
X156400953Y-83613941D01*
X156202575Y-83687127D01*
X156198676Y-83689446D01*
X156198671Y-83689449D01*
X156071547Y-83765080D01*
X156020856Y-83795238D01*
X156017441Y-83798233D01*
X156017438Y-83798235D01*
X155945457Y-83861361D01*
X155889241Y-83885514D01*
X155836233Y-83873519D01*
X155836545Y-83873831D01*
X155846116Y-83934263D01*
X155826082Y-83980066D01*
X155736865Y-84093238D01*
X155730976Y-84100708D01*
X155728862Y-84104726D01*
X155652430Y-84250000D01*
X155632523Y-84287836D01*
X155631179Y-84292165D01*
X155595596Y-84406762D01*
X155569820Y-84489773D01*
X155569286Y-84494283D01*
X155569286Y-84494284D01*
X155545620Y-84694241D01*
X155544967Y-84699754D01*
X154685028Y-84699754D01*
X154692288Y-84698428D01*
X154712430Y-84694749D01*
X154715476Y-84694242D01*
X154773962Y-84685449D01*
X154780475Y-84682321D01*
X154787573Y-84681025D01*
X154839982Y-84653801D01*
X154842762Y-84652412D01*
X154889408Y-84630013D01*
X154889411Y-84630011D01*
X154896079Y-84626809D01*
X154900521Y-84622703D01*
X154902781Y-84621180D01*
X154907788Y-84618579D01*
X154912828Y-84614275D01*
X154950460Y-84576643D01*
X154953263Y-84573949D01*
X154990124Y-84539876D01*
X154990126Y-84539873D01*
X154995556Y-84534854D01*
X154999078Y-84528790D01*
X155005638Y-84521465D01*
X155678331Y-83848772D01*
X155732848Y-83820995D01*
X155793208Y-83830555D01*
X155789222Y-83826009D01*
X155783623Y-83765080D01*
X155810178Y-83716925D01*
X156222258Y-83304845D01*
X156276775Y-83277068D01*
X156331342Y-83283890D01*
X156342953Y-83288878D01*
X156404660Y-83302841D01*
X156544760Y-83334543D01*
X156544765Y-83334544D01*
X156549186Y-83335544D01*
X156654828Y-83339695D01*
X156755937Y-83343668D01*
X156755938Y-83343668D01*
X156760470Y-83343846D01*
X156969730Y-83313504D01*
X156974029Y-83312045D01*
X156974032Y-83312044D01*
X157165654Y-83246997D01*
X157169955Y-83245537D01*
X157354442Y-83142219D01*
X157517012Y-83007012D01*
X157652219Y-82844442D01*
X157743059Y-82682236D01*
X157753319Y-82663916D01*
X157753320Y-82663914D01*
X157755537Y-82659955D01*
X157784141Y-82575690D01*
X157822044Y-82464032D01*
X157822045Y-82464029D01*
X157823504Y-82459730D01*
X157838224Y-82358210D01*
X157853426Y-82253369D01*
X157853426Y-82253363D01*
X157853846Y-82250470D01*
X157855429Y-82190000D01*
X157848011Y-82109266D01*
X157842364Y-82047820D01*
X157836081Y-81979440D01*
X157825525Y-81942010D01*
X157779920Y-81780306D01*
X157779920Y-81780305D01*
X157778686Y-81775931D01*
X157774695Y-81767837D01*
X157688061Y-81592163D01*
X157685165Y-81586290D01*
X157558651Y-81416867D01*
X157403381Y-81273337D01*
X157396654Y-81269092D01*
X157228391Y-81162926D01*
X157224554Y-81160505D01*
X157028160Y-81082152D01*
X156820775Y-81040901D01*
X156716599Y-81039537D01*
X156613886Y-81038192D01*
X156613881Y-81038192D01*
X156609346Y-81038133D01*
X156604873Y-81038902D01*
X156604868Y-81038902D01*
X156501601Y-81056647D01*
X156400953Y-81073941D01*
X156202575Y-81147127D01*
X156198676Y-81149446D01*
X156198671Y-81149449D01*
X156024762Y-81252914D01*
X156020856Y-81255238D01*
X156017441Y-81258233D01*
X156017438Y-81258235D01*
X156002977Y-81270917D01*
X155861881Y-81394655D01*
X155859073Y-81398217D01*
X155737178Y-81552841D01*
X155730976Y-81560708D01*
X155728862Y-81564726D01*
X155639270Y-81735013D01*
X155632523Y-81747836D01*
X155617895Y-81794945D01*
X155572175Y-81942190D01*
X155569820Y-81949773D01*
X155569286Y-81954283D01*
X155569286Y-81954284D01*
X155550431Y-82113593D01*
X155544967Y-82159754D01*
X155550397Y-82242597D01*
X155558201Y-82361664D01*
X155558796Y-82370749D01*
X155610428Y-82574047D01*
X155606426Y-82635100D01*
X155584478Y-82668419D01*
X154482393Y-83770504D01*
X154427876Y-83798281D01*
X154412389Y-83799500D01*
X142932933Y-83799500D01*
X142872666Y-83779042D01*
X142807990Y-83729415D01*
X142802841Y-83725464D01*
X142781113Y-83716464D01*
X142734588Y-83676727D01*
X142720304Y-83617233D01*
X142743719Y-83560705D01*
X142781113Y-83533536D01*
X142802841Y-83524536D01*
X142872665Y-83470958D01*
X142932933Y-83450500D01*
X151967373Y-83450500D01*
X151979009Y-83451186D01*
X152014310Y-83455364D01*
X152021586Y-83454035D01*
X152021589Y-83454035D01*
X152052288Y-83448428D01*
X152072430Y-83444749D01*
X152075476Y-83444242D01*
X152133962Y-83435449D01*
X152140475Y-83432321D01*
X152147573Y-83431025D01*
X152199982Y-83403801D01*
X152202762Y-83402412D01*
X152249408Y-83380013D01*
X152249411Y-83380011D01*
X152256079Y-83376809D01*
X152260521Y-83372703D01*
X152262781Y-83371180D01*
X152267788Y-83368579D01*
X152272828Y-83364275D01*
X152310460Y-83326643D01*
X152313263Y-83323949D01*
X152350124Y-83289876D01*
X152350126Y-83289873D01*
X152355556Y-83284854D01*
X152359078Y-83278790D01*
X152365638Y-83271465D01*
X155380496Y-80256607D01*
X155435013Y-80228830D01*
X155495445Y-80238401D01*
X155538710Y-80281666D01*
X155549500Y-80326611D01*
X155549500Y-80544646D01*
X155552618Y-80570846D01*
X155598061Y-80673153D01*
X155677287Y-80752241D01*
X155685645Y-80755936D01*
X155772864Y-80794496D01*
X155772866Y-80794496D01*
X155779673Y-80797506D01*
X155787067Y-80798368D01*
X155802378Y-80800153D01*
X155805354Y-80800500D01*
X157594646Y-80800500D01*
X157612561Y-80798368D01*
X157613469Y-80798260D01*
X157613470Y-80798260D01*
X157620846Y-80797382D01*
X157723153Y-80751939D01*
X157802241Y-80672713D01*
X157847506Y-80570327D01*
X157850500Y-80544646D01*
X157850500Y-78755354D01*
X157847382Y-78729154D01*
X157801939Y-78626847D01*
X157784371Y-78609309D01*
X157729179Y-78554214D01*
X157722713Y-78547759D01*
X157675801Y-78527019D01*
X157627136Y-78505504D01*
X157627134Y-78505504D01*
X157620327Y-78502494D01*
X157606322Y-78500861D01*
X157597494Y-78499832D01*
X157597493Y-78499832D01*
X157594646Y-78499500D01*
X155805354Y-78499500D01*
X155788951Y-78501452D01*
X155786531Y-78501740D01*
X155786530Y-78501740D01*
X155779154Y-78502618D01*
X155676847Y-78548061D01*
X155597759Y-78627287D01*
X155552494Y-78729673D01*
X155549500Y-78755354D01*
X155549500Y-79100500D01*
X155530593Y-79158691D01*
X155481093Y-79194655D01*
X155450500Y-79199500D01*
X155382626Y-79199500D01*
X155370990Y-79198814D01*
X155369453Y-79198632D01*
X155335689Y-79194636D01*
X155328413Y-79195965D01*
X155328409Y-79195965D01*
X155277573Y-79205250D01*
X155274505Y-79205761D01*
X155227494Y-79212829D01*
X155216038Y-79214551D01*
X155209525Y-79217679D01*
X155202427Y-79218975D01*
X155168656Y-79236517D01*
X155150002Y-79246207D01*
X155147236Y-79247590D01*
X155093921Y-79273191D01*
X155089481Y-79277295D01*
X155087218Y-79278820D01*
X155082211Y-79281421D01*
X155077172Y-79285725D01*
X155039540Y-79323357D01*
X155036737Y-79326051D01*
X154999876Y-79360124D01*
X154999874Y-79360127D01*
X154994444Y-79365146D01*
X154990922Y-79371210D01*
X154984362Y-79378535D01*
X151842393Y-82520504D01*
X151787876Y-82548281D01*
X151772389Y-82549500D01*
X142932933Y-82549500D01*
X142872666Y-82529042D01*
X142807990Y-82479415D01*
X142802841Y-82475464D01*
X142656762Y-82414956D01*
X142500000Y-82394318D01*
X142343238Y-82414956D01*
X142197159Y-82475464D01*
X142071718Y-82571718D01*
X141975464Y-82697159D01*
X141914956Y-82843238D01*
X141894318Y-83000000D01*
X141914956Y-83156762D01*
X141975464Y-83302841D01*
X142071718Y-83428282D01*
X142197159Y-83524536D01*
X142218887Y-83533536D01*
X142265412Y-83573273D01*
X142279696Y-83632767D01*
X142256281Y-83689295D01*
X142218887Y-83716464D01*
X142197159Y-83725464D01*
X142071718Y-83821718D01*
X141975464Y-83947159D01*
X141914956Y-84093238D01*
X141894318Y-84250000D01*
X111300500Y-84250000D01*
X111300500Y-83100000D01*
X115569534Y-83100000D01*
X115589313Y-83250236D01*
X115591797Y-83256233D01*
X115644819Y-83384240D01*
X115644821Y-83384244D01*
X115647302Y-83390233D01*
X115651248Y-83395375D01*
X115651250Y-83395379D01*
X115694073Y-83451186D01*
X115739549Y-83510451D01*
X115744698Y-83514402D01*
X115854621Y-83598750D01*
X115854625Y-83598752D01*
X115859767Y-83602698D01*
X115865756Y-83605179D01*
X115865760Y-83605181D01*
X115993767Y-83658203D01*
X115999764Y-83660687D01*
X116112280Y-83675500D01*
X116187720Y-83675500D01*
X116300236Y-83660687D01*
X116306233Y-83658203D01*
X116434240Y-83605181D01*
X116434244Y-83605179D01*
X116440233Y-83602698D01*
X116445375Y-83598752D01*
X116445379Y-83598750D01*
X116555302Y-83514402D01*
X116560451Y-83510451D01*
X116605927Y-83451186D01*
X116648750Y-83395379D01*
X116648752Y-83395375D01*
X116652698Y-83390233D01*
X116655179Y-83384244D01*
X116655181Y-83384240D01*
X116708203Y-83256233D01*
X116710687Y-83250236D01*
X116730466Y-83100000D01*
X116710687Y-82949764D01*
X116671366Y-82854835D01*
X116655181Y-82815760D01*
X116655179Y-82815756D01*
X116652698Y-82809767D01*
X116648752Y-82804625D01*
X116648750Y-82804621D01*
X116564402Y-82694698D01*
X116560451Y-82689549D01*
X116555302Y-82685598D01*
X116555299Y-82685595D01*
X116519391Y-82658042D01*
X116484735Y-82607618D01*
X116486336Y-82546453D01*
X116523584Y-82497912D01*
X116579658Y-82480500D01*
X117064042Y-82480499D01*
X117067836Y-82480499D01*
X117072589Y-82480226D01*
X117076670Y-82479284D01*
X117076676Y-82479283D01*
X117242190Y-82441071D01*
X117242193Y-82441070D01*
X117247577Y-82439827D01*
X117409266Y-82361664D01*
X117549144Y-82250000D01*
X129894318Y-82250000D01*
X129914956Y-82406762D01*
X129975464Y-82552841D01*
X130071718Y-82678282D01*
X130197159Y-82774536D01*
X130343238Y-82835044D01*
X130500000Y-82855682D01*
X130656762Y-82835044D01*
X130802841Y-82774536D01*
X130928282Y-82678282D01*
X130928301Y-82678257D01*
X130980386Y-82651719D01*
X130995873Y-82650500D01*
X136504127Y-82650500D01*
X136562318Y-82669407D01*
X136569833Y-82675825D01*
X136571718Y-82678282D01*
X136697159Y-82774536D01*
X136843238Y-82835044D01*
X137000000Y-82855682D01*
X137156762Y-82835044D01*
X137302841Y-82774536D01*
X137428282Y-82678282D01*
X137524536Y-82552841D01*
X137585044Y-82406762D01*
X137605682Y-82250000D01*
X137585044Y-82093238D01*
X137524536Y-81947159D01*
X137428282Y-81821718D01*
X137424933Y-81819148D01*
X137397592Y-81765487D01*
X137407163Y-81705055D01*
X137424513Y-81681174D01*
X137428282Y-81678282D01*
X137524536Y-81552841D01*
X137585044Y-81406762D01*
X137605682Y-81250000D01*
X137585044Y-81093238D01*
X137524536Y-80947159D01*
X137428282Y-80821718D01*
X137302841Y-80725464D01*
X137156762Y-80664956D01*
X137000000Y-80644318D01*
X136843238Y-80664956D01*
X136697159Y-80725464D01*
X136571718Y-80821718D01*
X136571699Y-80821743D01*
X136519614Y-80848281D01*
X136504127Y-80849500D01*
X134095873Y-80849500D01*
X134037682Y-80830593D01*
X134030167Y-80824175D01*
X134028282Y-80821718D01*
X133902841Y-80725464D01*
X133756762Y-80664956D01*
X133600000Y-80644318D01*
X133443238Y-80664956D01*
X133297159Y-80725464D01*
X133171718Y-80821718D01*
X133075464Y-80947159D01*
X133014956Y-81093238D01*
X132994318Y-81250000D01*
X133014956Y-81406762D01*
X133075464Y-81552841D01*
X133171718Y-81678282D01*
X133175470Y-81681161D01*
X133202908Y-81735013D01*
X133193337Y-81795445D01*
X133150072Y-81838710D01*
X133105127Y-81849500D01*
X130995873Y-81849500D01*
X130937682Y-81830593D01*
X130930167Y-81824175D01*
X130928282Y-81821718D01*
X130802841Y-81725464D01*
X130656762Y-81664956D01*
X130500000Y-81644318D01*
X130343238Y-81664956D01*
X130197159Y-81725464D01*
X130071718Y-81821718D01*
X129975464Y-81947159D01*
X129914956Y-82093238D01*
X129894318Y-82250000D01*
X117549144Y-82250000D01*
X117549620Y-82249620D01*
X117661664Y-82109266D01*
X117739827Y-81947577D01*
X117741113Y-81942010D01*
X117769279Y-81820004D01*
X117780226Y-81772589D01*
X117780500Y-81767837D01*
X117780499Y-81592164D01*
X117780226Y-81587411D01*
X117779284Y-81583330D01*
X117779283Y-81583324D01*
X117741071Y-81417810D01*
X117741070Y-81417807D01*
X117739827Y-81412423D01*
X117665290Y-81258235D01*
X117664072Y-81255715D01*
X117664072Y-81255714D01*
X117661664Y-81250734D01*
X117549620Y-81110380D01*
X117460082Y-81038902D01*
X117413593Y-81001790D01*
X117413592Y-81001789D01*
X117409266Y-80998336D01*
X117247577Y-80920173D01*
X117242193Y-80918930D01*
X117242190Y-80918929D01*
X117155955Y-80899021D01*
X117072589Y-80879774D01*
X117067837Y-80879500D01*
X117066414Y-80879500D01*
X116678633Y-80879501D01*
X116292164Y-80879501D01*
X116287411Y-80879774D01*
X116283330Y-80880716D01*
X116283324Y-80880717D01*
X116117810Y-80918929D01*
X116117807Y-80918930D01*
X116112423Y-80920173D01*
X115950734Y-80998336D01*
X115946408Y-81001789D01*
X115946407Y-81001790D01*
X115899918Y-81038902D01*
X115810380Y-81110380D01*
X115698336Y-81250734D01*
X115695928Y-81255714D01*
X115695928Y-81255715D01*
X115694710Y-81258235D01*
X115620173Y-81412423D01*
X115579774Y-81587411D01*
X115579500Y-81592163D01*
X115579501Y-81767836D01*
X115579774Y-81772589D01*
X115580716Y-81776668D01*
X115580717Y-81776676D01*
X115618929Y-81942190D01*
X115620173Y-81947577D01*
X115698336Y-82109266D01*
X115810380Y-82249620D01*
X115950734Y-82361664D01*
X115955714Y-82364072D01*
X115955715Y-82364072D01*
X115972477Y-82372175D01*
X116016638Y-82414525D01*
X116027473Y-82474743D01*
X116000843Y-82529829D01*
X115967274Y-82552771D01*
X115865763Y-82594818D01*
X115865761Y-82594819D01*
X115859767Y-82597302D01*
X115854625Y-82601248D01*
X115854621Y-82601250D01*
X115778116Y-82659955D01*
X115739549Y-82689549D01*
X115735598Y-82694698D01*
X115651250Y-82804621D01*
X115651248Y-82804625D01*
X115647302Y-82809767D01*
X115644821Y-82815756D01*
X115644819Y-82815760D01*
X115628634Y-82854835D01*
X115589313Y-82949764D01*
X115569534Y-83100000D01*
X111300500Y-83100000D01*
X111300500Y-82090908D01*
X111319407Y-82032717D01*
X111368907Y-81996753D01*
X111430093Y-81996753D01*
X111479593Y-82032717D01*
X111488632Y-82047820D01*
X111518336Y-82109266D01*
X111630380Y-82249620D01*
X111770734Y-82361664D01*
X111932423Y-82439827D01*
X111937807Y-82441070D01*
X111937810Y-82441071D01*
X111999154Y-82455233D01*
X112107411Y-82480226D01*
X112112163Y-82480500D01*
X112113586Y-82480500D01*
X112501367Y-82480499D01*
X112887836Y-82480499D01*
X112892589Y-82480226D01*
X112896670Y-82479284D01*
X112896676Y-82479283D01*
X113062190Y-82441071D01*
X113062193Y-82441070D01*
X113067577Y-82439827D01*
X113229266Y-82361664D01*
X113369620Y-82249620D01*
X113481664Y-82109266D01*
X113559827Y-81947577D01*
X113561113Y-81942010D01*
X113589279Y-81820004D01*
X113600226Y-81772589D01*
X113600500Y-81767837D01*
X113600499Y-81592164D01*
X113600226Y-81587411D01*
X113599284Y-81583330D01*
X113599283Y-81583324D01*
X113561071Y-81417810D01*
X113561070Y-81417807D01*
X113559827Y-81412423D01*
X113485290Y-81258235D01*
X113484072Y-81255715D01*
X113484072Y-81255714D01*
X113481664Y-81250734D01*
X113369620Y-81110380D01*
X113280082Y-81038902D01*
X113233593Y-81001790D01*
X113233592Y-81001789D01*
X113229266Y-80998336D01*
X113067577Y-80920173D01*
X113062193Y-80918930D01*
X113062190Y-80918929D01*
X112975955Y-80899021D01*
X112892589Y-80879774D01*
X112887837Y-80879500D01*
X112886414Y-80879500D01*
X112498633Y-80879501D01*
X112112164Y-80879501D01*
X112107411Y-80879774D01*
X112103330Y-80880716D01*
X112103324Y-80880717D01*
X111937810Y-80918929D01*
X111937807Y-80918930D01*
X111932423Y-80920173D01*
X111770734Y-80998336D01*
X111766408Y-81001789D01*
X111766407Y-81001790D01*
X111719918Y-81038902D01*
X111630380Y-81110380D01*
X111518336Y-81250734D01*
X111515928Y-81255714D01*
X111515928Y-81255715D01*
X111488632Y-81312180D01*
X111446283Y-81356341D01*
X111386064Y-81367176D01*
X111330978Y-81340546D01*
X111302065Y-81286624D01*
X111300500Y-81269092D01*
X111300500Y-77301346D01*
X113063694Y-77301346D01*
X113064321Y-77305310D01*
X113065292Y-77306582D01*
X113101687Y-77339698D01*
X113106112Y-77343281D01*
X113383182Y-77542377D01*
X113388000Y-77545434D01*
X113686117Y-77711363D01*
X113691234Y-77713837D01*
X114006461Y-77844409D01*
X114011836Y-77846280D01*
X114339974Y-77939753D01*
X114345517Y-77940992D01*
X114682235Y-77996132D01*
X114687893Y-77996726D01*
X115028697Y-78012798D01*
X115034402Y-78012739D01*
X115374794Y-77989533D01*
X115380452Y-77988818D01*
X115715915Y-77926644D01*
X115721458Y-77925282D01*
X116047548Y-77824963D01*
X116052894Y-77822976D01*
X116365313Y-77685834D01*
X116370380Y-77683252D01*
X116664964Y-77511110D01*
X116669696Y-77507966D01*
X116930777Y-77311941D01*
X116938446Y-77301030D01*
X116938422Y-77299512D01*
X116935309Y-77294520D01*
X116840789Y-77200000D01*
X132794318Y-77200000D01*
X132814956Y-77356762D01*
X132875464Y-77502841D01*
X132925215Y-77567678D01*
X132945638Y-77625351D01*
X132925214Y-77688210D01*
X132903680Y-77716274D01*
X132903678Y-77716278D01*
X132899729Y-77721424D01*
X132839221Y-77867503D01*
X132818583Y-78024265D01*
X132839221Y-78181027D01*
X132899729Y-78327106D01*
X132995983Y-78452547D01*
X133121424Y-78548801D01*
X133267503Y-78609309D01*
X133424265Y-78629947D01*
X133581027Y-78609309D01*
X133727106Y-78548801D01*
X133852547Y-78452547D01*
X133852566Y-78452522D01*
X133904651Y-78425984D01*
X133920138Y-78424765D01*
X137283529Y-78424765D01*
X137343796Y-78445223D01*
X137447159Y-78524536D01*
X137593238Y-78585044D01*
X137750000Y-78605682D01*
X137906762Y-78585044D01*
X138052841Y-78524536D01*
X138178282Y-78428282D01*
X138274536Y-78302841D01*
X138335044Y-78156762D01*
X138355682Y-78000000D01*
X138335044Y-77843238D01*
X138274536Y-77697159D01*
X138247798Y-77662313D01*
X138227375Y-77604640D01*
X138247799Y-77541781D01*
X138271333Y-77511110D01*
X138277683Y-77502835D01*
X138326476Y-77385040D01*
X138335707Y-77362753D01*
X138338191Y-77356756D01*
X138345486Y-77301346D01*
X155063694Y-77301346D01*
X155064321Y-77305310D01*
X155065292Y-77306582D01*
X155101687Y-77339698D01*
X155106112Y-77343281D01*
X155383182Y-77542377D01*
X155388000Y-77545434D01*
X155686117Y-77711363D01*
X155691234Y-77713837D01*
X156006461Y-77844409D01*
X156011836Y-77846280D01*
X156339974Y-77939753D01*
X156345517Y-77940992D01*
X156682235Y-77996132D01*
X156687893Y-77996726D01*
X157028697Y-78012798D01*
X157034402Y-78012739D01*
X157374794Y-77989533D01*
X157380452Y-77988818D01*
X157715915Y-77926644D01*
X157721458Y-77925282D01*
X158047548Y-77824963D01*
X158052894Y-77822976D01*
X158365313Y-77685834D01*
X158370380Y-77683252D01*
X158664964Y-77511110D01*
X158669696Y-77507966D01*
X158930777Y-77311941D01*
X158938446Y-77301030D01*
X158938422Y-77299512D01*
X158935309Y-77294520D01*
X157011086Y-75370296D01*
X156999203Y-75364242D01*
X156994172Y-75365038D01*
X155069748Y-77289463D01*
X155063694Y-77301346D01*
X138345486Y-77301346D01*
X138358829Y-77199994D01*
X138338191Y-77043232D01*
X138277683Y-76897153D01*
X138181429Y-76771712D01*
X138055988Y-76675458D01*
X137909909Y-76614950D01*
X137778716Y-76597678D01*
X137759581Y-76595159D01*
X137753147Y-76594312D01*
X137746713Y-76595159D01*
X137727578Y-76597678D01*
X137596385Y-76614950D01*
X137450306Y-76675458D01*
X137324865Y-76771712D01*
X137324842Y-76771742D01*
X137272755Y-76798281D01*
X137257268Y-76799500D01*
X133895873Y-76799500D01*
X133837682Y-76780593D01*
X133830167Y-76774175D01*
X133828282Y-76771718D01*
X133702841Y-76675464D01*
X133556762Y-76614956D01*
X133400000Y-76594318D01*
X133243238Y-76614956D01*
X133097159Y-76675464D01*
X132971718Y-76771718D01*
X132875464Y-76897159D01*
X132872981Y-76903154D01*
X132817443Y-77037235D01*
X132814956Y-77043238D01*
X132794318Y-77200000D01*
X116840789Y-77200000D01*
X115011086Y-75370296D01*
X114999203Y-75364242D01*
X114994172Y-75365038D01*
X113069748Y-77289463D01*
X113063694Y-77301346D01*
X111300500Y-77301346D01*
X111300500Y-74908205D01*
X111988464Y-74908205D01*
X111997394Y-75249270D01*
X111997872Y-75254965D01*
X112045943Y-75592725D01*
X112047074Y-75598333D01*
X112133651Y-75928342D01*
X112135406Y-75933744D01*
X112259349Y-76251644D01*
X112261715Y-76256812D01*
X112421368Y-76558343D01*
X112424324Y-76563223D01*
X112617562Y-76844385D01*
X112621068Y-76848906D01*
X112690345Y-76928319D01*
X112701791Y-76935170D01*
X112705239Y-76934862D01*
X112707361Y-76933428D01*
X114629704Y-75011086D01*
X114634946Y-75000797D01*
X115364242Y-75000797D01*
X115365038Y-75005828D01*
X117287994Y-76928783D01*
X117299877Y-76934837D01*
X117302748Y-76934383D01*
X117305503Y-76932187D01*
X117417135Y-76798676D01*
X117420535Y-76794099D01*
X117607855Y-76508929D01*
X117610697Y-76504008D01*
X117764009Y-76199183D01*
X117766263Y-76193973D01*
X117883515Y-75873565D01*
X117885163Y-75868108D01*
X117964813Y-75536343D01*
X117965821Y-75530743D01*
X118006887Y-75191385D01*
X118007221Y-75186987D01*
X118013028Y-75002214D01*
X118012971Y-74997793D01*
X118007805Y-74908205D01*
X153988464Y-74908205D01*
X153997394Y-75249270D01*
X153997872Y-75254965D01*
X154045943Y-75592725D01*
X154047074Y-75598333D01*
X154133651Y-75928342D01*
X154135406Y-75933744D01*
X154259349Y-76251644D01*
X154261715Y-76256812D01*
X154421368Y-76558343D01*
X154424324Y-76563223D01*
X154617562Y-76844385D01*
X154621068Y-76848906D01*
X154690345Y-76928319D01*
X154701791Y-76935170D01*
X154705239Y-76934862D01*
X154707361Y-76933428D01*
X156629704Y-75011086D01*
X156634946Y-75000797D01*
X157364242Y-75000797D01*
X157365038Y-75005828D01*
X159287994Y-76928783D01*
X159299877Y-76934837D01*
X159302748Y-76934383D01*
X159305503Y-76932187D01*
X159417135Y-76798676D01*
X159420535Y-76794099D01*
X159607855Y-76508929D01*
X159610697Y-76504008D01*
X159764009Y-76199183D01*
X159766263Y-76193973D01*
X159883515Y-75873565D01*
X159885163Y-75868108D01*
X159964813Y-75536343D01*
X159965821Y-75530743D01*
X160006887Y-75191385D01*
X160007221Y-75186987D01*
X160013028Y-75002214D01*
X160012971Y-74997793D01*
X159993293Y-74656529D01*
X159992639Y-74650875D01*
X159933980Y-74314767D01*
X159932678Y-74309218D01*
X159835777Y-73982086D01*
X159833846Y-73976723D01*
X159699983Y-73662888D01*
X159697459Y-73657802D01*
X159528407Y-73361421D01*
X159525311Y-73356654D01*
X159323319Y-73081676D01*
X159319696Y-73077296D01*
X159312172Y-73069199D01*
X159300517Y-73062713D01*
X159296258Y-73063228D01*
X159295344Y-73063867D01*
X157370296Y-74988914D01*
X157364242Y-75000797D01*
X156634946Y-75000797D01*
X156635758Y-74999203D01*
X156634962Y-74994172D01*
X154710648Y-73069859D01*
X154698765Y-73063805D01*
X154696715Y-73064129D01*
X154692902Y-73067267D01*
X154527552Y-73278145D01*
X154524305Y-73282818D01*
X154346038Y-73573723D01*
X154343343Y-73578749D01*
X154199697Y-73888208D01*
X154197594Y-73893520D01*
X154090465Y-74217450D01*
X154088994Y-74222940D01*
X154019805Y-74557042D01*
X154018972Y-74562681D01*
X153988642Y-74902517D01*
X153988464Y-74908205D01*
X118007805Y-74908205D01*
X117993293Y-74656529D01*
X117992639Y-74650875D01*
X117933980Y-74314767D01*
X117932678Y-74309218D01*
X117835777Y-73982086D01*
X117833846Y-73976723D01*
X117798837Y-73894646D01*
X120849500Y-73894646D01*
X120852618Y-73920846D01*
X120898061Y-74023153D01*
X120904529Y-74029610D01*
X120904530Y-74029611D01*
X120931964Y-74056997D01*
X120977287Y-74102241D01*
X120985645Y-74105936D01*
X121072864Y-74144496D01*
X121072866Y-74144496D01*
X121079673Y-74147506D01*
X121087067Y-74148368D01*
X121102378Y-74150153D01*
X121105354Y-74150500D01*
X122894646Y-74150500D01*
X122912561Y-74148368D01*
X122913469Y-74148260D01*
X122913470Y-74148260D01*
X122920846Y-74147382D01*
X123023153Y-74101939D01*
X123102241Y-74022713D01*
X123147506Y-73920327D01*
X123150500Y-73894646D01*
X123150500Y-72969754D01*
X123384967Y-72969754D01*
X123388673Y-73026292D01*
X123392303Y-73081676D01*
X123398796Y-73180749D01*
X123399912Y-73185142D01*
X123399912Y-73185144D01*
X123443471Y-73356654D01*
X123450845Y-73385690D01*
X123452747Y-73389815D01*
X123452747Y-73389816D01*
X123491518Y-73473916D01*
X123539369Y-73577714D01*
X123661405Y-73750391D01*
X123812865Y-73897937D01*
X123816638Y-73900458D01*
X123984899Y-74012887D01*
X123984902Y-74012889D01*
X123988677Y-74015411D01*
X124085472Y-74056997D01*
X124178774Y-74097083D01*
X124178778Y-74097084D01*
X124182953Y-74098878D01*
X124212881Y-74105650D01*
X124384760Y-74144543D01*
X124384765Y-74144544D01*
X124389186Y-74145544D01*
X124494828Y-74149695D01*
X124595937Y-74153668D01*
X124595938Y-74153668D01*
X124600470Y-74153846D01*
X124809730Y-74123504D01*
X124814029Y-74122045D01*
X124814032Y-74122044D01*
X125005654Y-74056997D01*
X125009955Y-74055537D01*
X125057021Y-74029179D01*
X125190481Y-73954437D01*
X125194442Y-73952219D01*
X125357012Y-73817012D01*
X125492219Y-73654442D01*
X125595537Y-73469955D01*
X125596997Y-73465654D01*
X125662044Y-73274032D01*
X125662045Y-73274029D01*
X125663504Y-73269730D01*
X125677062Y-73176223D01*
X125693426Y-73063369D01*
X125693426Y-73063363D01*
X125693846Y-73060470D01*
X125695429Y-73000000D01*
X125694230Y-72986944D01*
X125692650Y-72969754D01*
X125924967Y-72969754D01*
X125928673Y-73026292D01*
X125932303Y-73081676D01*
X125938796Y-73180749D01*
X125939912Y-73185142D01*
X125939912Y-73185144D01*
X125983471Y-73356654D01*
X125990845Y-73385690D01*
X125992747Y-73389815D01*
X125992747Y-73389816D01*
X126031518Y-73473916D01*
X126079369Y-73577714D01*
X126201405Y-73750391D01*
X126352865Y-73897937D01*
X126356638Y-73900458D01*
X126524899Y-74012887D01*
X126524902Y-74012889D01*
X126528677Y-74015411D01*
X126625472Y-74056997D01*
X126718774Y-74097083D01*
X126718778Y-74097084D01*
X126722953Y-74098878D01*
X126752881Y-74105650D01*
X126924760Y-74144543D01*
X126924765Y-74144544D01*
X126929186Y-74145544D01*
X127034828Y-74149695D01*
X127135937Y-74153668D01*
X127135938Y-74153668D01*
X127140470Y-74153846D01*
X127349730Y-74123504D01*
X127354029Y-74122045D01*
X127354032Y-74122044D01*
X127545654Y-74056997D01*
X127549955Y-74055537D01*
X127597021Y-74029179D01*
X127730481Y-73954437D01*
X127734442Y-73952219D01*
X127897012Y-73817012D01*
X128032219Y-73654442D01*
X128135537Y-73469955D01*
X128136997Y-73465654D01*
X128202044Y-73274032D01*
X128202045Y-73274029D01*
X128203504Y-73269730D01*
X128217062Y-73176223D01*
X128233426Y-73063369D01*
X128233426Y-73063363D01*
X128233846Y-73060470D01*
X128235429Y-73000000D01*
X128234230Y-72986944D01*
X128232650Y-72969754D01*
X128464967Y-72969754D01*
X128468673Y-73026292D01*
X128472303Y-73081676D01*
X128478796Y-73180749D01*
X128479912Y-73185142D01*
X128479912Y-73185144D01*
X128523471Y-73356654D01*
X128530845Y-73385690D01*
X128532747Y-73389815D01*
X128532747Y-73389816D01*
X128571518Y-73473916D01*
X128619369Y-73577714D01*
X128741405Y-73750391D01*
X128892865Y-73897937D01*
X128896638Y-73900458D01*
X129064899Y-74012887D01*
X129064902Y-74012889D01*
X129068677Y-74015411D01*
X129165472Y-74056997D01*
X129258774Y-74097083D01*
X129258778Y-74097084D01*
X129262953Y-74098878D01*
X129292881Y-74105650D01*
X129464760Y-74144543D01*
X129464765Y-74144544D01*
X129469186Y-74145544D01*
X129574828Y-74149695D01*
X129675937Y-74153668D01*
X129675938Y-74153668D01*
X129680470Y-74153846D01*
X129889730Y-74123504D01*
X129894029Y-74122045D01*
X129894032Y-74122044D01*
X130085654Y-74056997D01*
X130089955Y-74055537D01*
X130137021Y-74029179D01*
X130270481Y-73954437D01*
X130274442Y-73952219D01*
X130437012Y-73817012D01*
X130572219Y-73654442D01*
X130675537Y-73469955D01*
X130676997Y-73465654D01*
X130742044Y-73274032D01*
X130742045Y-73274029D01*
X130743504Y-73269730D01*
X130757062Y-73176223D01*
X130773426Y-73063369D01*
X130773426Y-73063363D01*
X130773846Y-73060470D01*
X130775429Y-73000000D01*
X130774230Y-72986944D01*
X130772650Y-72969754D01*
X131004967Y-72969754D01*
X131008673Y-73026292D01*
X131012303Y-73081676D01*
X131018796Y-73180749D01*
X131019912Y-73185142D01*
X131019912Y-73185144D01*
X131063471Y-73356654D01*
X131070845Y-73385690D01*
X131072747Y-73389815D01*
X131072747Y-73389816D01*
X131111518Y-73473916D01*
X131159369Y-73577714D01*
X131281405Y-73750391D01*
X131432865Y-73897937D01*
X131436638Y-73900458D01*
X131604899Y-74012887D01*
X131604902Y-74012889D01*
X131608677Y-74015411D01*
X131705472Y-74056997D01*
X131798774Y-74097083D01*
X131798778Y-74097084D01*
X131802953Y-74098878D01*
X131832881Y-74105650D01*
X132004760Y-74144543D01*
X132004765Y-74144544D01*
X132009186Y-74145544D01*
X132114828Y-74149695D01*
X132215937Y-74153668D01*
X132215938Y-74153668D01*
X132220470Y-74153846D01*
X132429730Y-74123504D01*
X132434029Y-74122045D01*
X132434032Y-74122044D01*
X132625654Y-74056997D01*
X132629955Y-74055537D01*
X132677021Y-74029179D01*
X132810481Y-73954437D01*
X132814442Y-73952219D01*
X132977012Y-73817012D01*
X133112219Y-73654442D01*
X133215537Y-73469955D01*
X133216997Y-73465654D01*
X133282044Y-73274032D01*
X133282045Y-73274029D01*
X133283504Y-73269730D01*
X133297062Y-73176223D01*
X133313426Y-73063369D01*
X133313426Y-73063363D01*
X133313846Y-73060470D01*
X133315429Y-73000000D01*
X133314230Y-72986944D01*
X133312650Y-72969754D01*
X133544967Y-72969754D01*
X133548673Y-73026292D01*
X133552303Y-73081676D01*
X133558796Y-73180749D01*
X133559912Y-73185142D01*
X133559912Y-73185144D01*
X133603471Y-73356654D01*
X133610845Y-73385690D01*
X133612747Y-73389815D01*
X133612747Y-73389816D01*
X133651518Y-73473916D01*
X133699369Y-73577714D01*
X133821405Y-73750391D01*
X133972865Y-73897937D01*
X133976638Y-73900458D01*
X134144899Y-74012887D01*
X134144902Y-74012889D01*
X134148677Y-74015411D01*
X134245472Y-74056997D01*
X134338774Y-74097083D01*
X134338778Y-74097084D01*
X134342953Y-74098878D01*
X134372881Y-74105650D01*
X134544760Y-74144543D01*
X134544765Y-74144544D01*
X134549186Y-74145544D01*
X134654828Y-74149695D01*
X134755937Y-74153668D01*
X134755938Y-74153668D01*
X134760470Y-74153846D01*
X134969730Y-74123504D01*
X134974029Y-74122045D01*
X134974032Y-74122044D01*
X135165654Y-74056997D01*
X135169955Y-74055537D01*
X135217021Y-74029179D01*
X135350481Y-73954437D01*
X135354442Y-73952219D01*
X135517012Y-73817012D01*
X135652219Y-73654442D01*
X135755537Y-73469955D01*
X135756997Y-73465654D01*
X135822044Y-73274032D01*
X135822045Y-73274029D01*
X135823504Y-73269730D01*
X135837062Y-73176223D01*
X135853426Y-73063369D01*
X135853426Y-73063363D01*
X135853846Y-73060470D01*
X135855429Y-73000000D01*
X135854230Y-72986944D01*
X135852650Y-72969754D01*
X136084967Y-72969754D01*
X136088673Y-73026292D01*
X136092303Y-73081676D01*
X136098796Y-73180749D01*
X136099912Y-73185142D01*
X136099912Y-73185144D01*
X136143471Y-73356654D01*
X136150845Y-73385690D01*
X136152747Y-73389815D01*
X136152747Y-73389816D01*
X136191518Y-73473916D01*
X136239369Y-73577714D01*
X136361405Y-73750391D01*
X136512865Y-73897937D01*
X136516638Y-73900458D01*
X136684899Y-74012887D01*
X136684902Y-74012889D01*
X136688677Y-74015411D01*
X136785472Y-74056997D01*
X136878774Y-74097083D01*
X136878778Y-74097084D01*
X136882953Y-74098878D01*
X136912881Y-74105650D01*
X137084760Y-74144543D01*
X137084765Y-74144544D01*
X137089186Y-74145544D01*
X137194828Y-74149695D01*
X137295937Y-74153668D01*
X137295938Y-74153668D01*
X137300470Y-74153846D01*
X137509730Y-74123504D01*
X137514029Y-74122045D01*
X137514032Y-74122044D01*
X137705654Y-74056997D01*
X137709955Y-74055537D01*
X137757021Y-74029179D01*
X137890481Y-73954437D01*
X137894442Y-73952219D01*
X138057012Y-73817012D01*
X138192219Y-73654442D01*
X138295537Y-73469955D01*
X138296997Y-73465654D01*
X138362044Y-73274032D01*
X138362045Y-73274029D01*
X138363504Y-73269730D01*
X138377062Y-73176223D01*
X138393426Y-73063369D01*
X138393426Y-73063363D01*
X138393846Y-73060470D01*
X138395429Y-73000000D01*
X138394230Y-72986944D01*
X138392650Y-72969754D01*
X138624967Y-72969754D01*
X138628673Y-73026292D01*
X138632303Y-73081676D01*
X138638796Y-73180749D01*
X138639912Y-73185142D01*
X138639912Y-73185144D01*
X138683471Y-73356654D01*
X138690845Y-73385690D01*
X138692747Y-73389815D01*
X138692747Y-73389816D01*
X138731518Y-73473916D01*
X138779369Y-73577714D01*
X138901405Y-73750391D01*
X139052865Y-73897937D01*
X139056638Y-73900458D01*
X139224899Y-74012887D01*
X139224902Y-74012889D01*
X139228677Y-74015411D01*
X139325472Y-74056997D01*
X139418774Y-74097083D01*
X139418778Y-74097084D01*
X139422953Y-74098878D01*
X139452881Y-74105650D01*
X139624760Y-74144543D01*
X139624765Y-74144544D01*
X139629186Y-74145544D01*
X139734828Y-74149695D01*
X139835937Y-74153668D01*
X139835938Y-74153668D01*
X139840470Y-74153846D01*
X140049730Y-74123504D01*
X140054029Y-74122045D01*
X140054032Y-74122044D01*
X140245654Y-74056997D01*
X140249955Y-74055537D01*
X140297021Y-74029179D01*
X140430481Y-73954437D01*
X140434442Y-73952219D01*
X140597012Y-73817012D01*
X140732219Y-73654442D01*
X140835537Y-73469955D01*
X140836997Y-73465654D01*
X140902044Y-73274032D01*
X140902045Y-73274029D01*
X140903504Y-73269730D01*
X140917062Y-73176223D01*
X140933426Y-73063369D01*
X140933426Y-73063363D01*
X140933846Y-73060470D01*
X140935429Y-73000000D01*
X140934230Y-72986944D01*
X140916496Y-72793960D01*
X140916081Y-72789440D01*
X140891307Y-72701596D01*
X155064376Y-72701596D01*
X155064487Y-72703945D01*
X155066912Y-72707701D01*
X156988914Y-74629704D01*
X157000797Y-74635758D01*
X157005828Y-74634962D01*
X158928800Y-72711990D01*
X158934854Y-72700107D01*
X158934356Y-72696963D01*
X158932471Y-72694571D01*
X158823894Y-72601837D01*
X158819341Y-72598381D01*
X158536159Y-72408091D01*
X158531256Y-72405191D01*
X158228073Y-72248707D01*
X158222870Y-72246390D01*
X157903711Y-72125790D01*
X157898266Y-72124083D01*
X157567368Y-72040968D01*
X157561769Y-72039900D01*
X157223502Y-71995366D01*
X157217824Y-71994949D01*
X156876667Y-71989590D01*
X156871000Y-71989827D01*
X156531486Y-72023715D01*
X156525853Y-72024607D01*
X156192506Y-72097289D01*
X156187019Y-72098821D01*
X155864232Y-72209336D01*
X155858955Y-72211489D01*
X155551002Y-72358375D01*
X155546010Y-72361119D01*
X155256992Y-72542420D01*
X155252335Y-72545730D01*
X155071700Y-72690446D01*
X155064376Y-72701596D01*
X140891307Y-72701596D01*
X140858686Y-72585931D01*
X140765165Y-72396290D01*
X140654960Y-72248707D01*
X140641367Y-72230504D01*
X140641366Y-72230503D01*
X140638651Y-72226867D01*
X140483381Y-72083337D01*
X140476752Y-72079154D01*
X140308391Y-71972926D01*
X140304554Y-71970505D01*
X140108160Y-71892152D01*
X139900775Y-71850901D01*
X139796599Y-71849537D01*
X139693886Y-71848192D01*
X139693881Y-71848192D01*
X139689346Y-71848133D01*
X139684873Y-71848902D01*
X139684868Y-71848902D01*
X139581601Y-71866647D01*
X139480953Y-71883941D01*
X139282575Y-71957127D01*
X139278676Y-71959446D01*
X139278671Y-71959449D01*
X139141650Y-72040968D01*
X139100856Y-72065238D01*
X139097441Y-72068233D01*
X139097438Y-72068235D01*
X138994262Y-72158718D01*
X138941881Y-72204655D01*
X138939073Y-72208217D01*
X138820699Y-72358375D01*
X138810976Y-72370708D01*
X138808862Y-72374726D01*
X138720634Y-72542420D01*
X138712523Y-72557836D01*
X138698860Y-72601837D01*
X138671347Y-72690446D01*
X138649820Y-72759773D01*
X138624967Y-72969754D01*
X138392650Y-72969754D01*
X138376496Y-72793960D01*
X138376081Y-72789440D01*
X138318686Y-72585931D01*
X138225165Y-72396290D01*
X138114960Y-72248707D01*
X138101367Y-72230504D01*
X138101366Y-72230503D01*
X138098651Y-72226867D01*
X137943381Y-72083337D01*
X137936752Y-72079154D01*
X137768391Y-71972926D01*
X137764554Y-71970505D01*
X137568160Y-71892152D01*
X137360775Y-71850901D01*
X137256599Y-71849537D01*
X137153886Y-71848192D01*
X137153881Y-71848192D01*
X137149346Y-71848133D01*
X137144873Y-71848902D01*
X137144868Y-71848902D01*
X137041601Y-71866647D01*
X136940953Y-71883941D01*
X136742575Y-71957127D01*
X136738676Y-71959446D01*
X136738671Y-71959449D01*
X136601650Y-72040968D01*
X136560856Y-72065238D01*
X136557441Y-72068233D01*
X136557438Y-72068235D01*
X136454262Y-72158718D01*
X136401881Y-72204655D01*
X136399073Y-72208217D01*
X136280699Y-72358375D01*
X136270976Y-72370708D01*
X136268862Y-72374726D01*
X136180634Y-72542420D01*
X136172523Y-72557836D01*
X136158860Y-72601837D01*
X136131347Y-72690446D01*
X136109820Y-72759773D01*
X136084967Y-72969754D01*
X135852650Y-72969754D01*
X135836496Y-72793960D01*
X135836081Y-72789440D01*
X135778686Y-72585931D01*
X135685165Y-72396290D01*
X135574960Y-72248707D01*
X135561367Y-72230504D01*
X135561366Y-72230503D01*
X135558651Y-72226867D01*
X135403381Y-72083337D01*
X135396752Y-72079154D01*
X135228391Y-71972926D01*
X135224554Y-71970505D01*
X135028160Y-71892152D01*
X134820775Y-71850901D01*
X134716599Y-71849537D01*
X134613886Y-71848192D01*
X134613881Y-71848192D01*
X134609346Y-71848133D01*
X134604873Y-71848902D01*
X134604868Y-71848902D01*
X134501601Y-71866647D01*
X134400953Y-71883941D01*
X134202575Y-71957127D01*
X134198676Y-71959446D01*
X134198671Y-71959449D01*
X134061650Y-72040968D01*
X134020856Y-72065238D01*
X134017441Y-72068233D01*
X134017438Y-72068235D01*
X133914262Y-72158718D01*
X133861881Y-72204655D01*
X133859073Y-72208217D01*
X133740699Y-72358375D01*
X133730976Y-72370708D01*
X133728862Y-72374726D01*
X133640634Y-72542420D01*
X133632523Y-72557836D01*
X133618860Y-72601837D01*
X133591347Y-72690446D01*
X133569820Y-72759773D01*
X133544967Y-72969754D01*
X133312650Y-72969754D01*
X133296496Y-72793960D01*
X133296081Y-72789440D01*
X133238686Y-72585931D01*
X133145165Y-72396290D01*
X133034960Y-72248707D01*
X133021367Y-72230504D01*
X133021366Y-72230503D01*
X133018651Y-72226867D01*
X132863381Y-72083337D01*
X132856752Y-72079154D01*
X132688391Y-71972926D01*
X132684554Y-71970505D01*
X132488160Y-71892152D01*
X132280775Y-71850901D01*
X132176599Y-71849537D01*
X132073886Y-71848192D01*
X132073881Y-71848192D01*
X132069346Y-71848133D01*
X132064873Y-71848902D01*
X132064868Y-71848902D01*
X131961601Y-71866647D01*
X131860953Y-71883941D01*
X131662575Y-71957127D01*
X131658676Y-71959446D01*
X131658671Y-71959449D01*
X131521650Y-72040968D01*
X131480856Y-72065238D01*
X131477441Y-72068233D01*
X131477438Y-72068235D01*
X131374262Y-72158718D01*
X131321881Y-72204655D01*
X131319073Y-72208217D01*
X131200699Y-72358375D01*
X131190976Y-72370708D01*
X131188862Y-72374726D01*
X131100634Y-72542420D01*
X131092523Y-72557836D01*
X131078860Y-72601837D01*
X131051347Y-72690446D01*
X131029820Y-72759773D01*
X131004967Y-72969754D01*
X130772650Y-72969754D01*
X130756496Y-72793960D01*
X130756081Y-72789440D01*
X130698686Y-72585931D01*
X130605165Y-72396290D01*
X130494960Y-72248707D01*
X130481367Y-72230504D01*
X130481366Y-72230503D01*
X130478651Y-72226867D01*
X130323381Y-72083337D01*
X130316752Y-72079154D01*
X130148391Y-71972926D01*
X130144554Y-71970505D01*
X129948160Y-71892152D01*
X129740775Y-71850901D01*
X129636599Y-71849537D01*
X129533886Y-71848192D01*
X129533881Y-71848192D01*
X129529346Y-71848133D01*
X129524873Y-71848902D01*
X129524868Y-71848902D01*
X129421601Y-71866647D01*
X129320953Y-71883941D01*
X129122575Y-71957127D01*
X129118676Y-71959446D01*
X129118671Y-71959449D01*
X128981650Y-72040968D01*
X128940856Y-72065238D01*
X128937441Y-72068233D01*
X128937438Y-72068235D01*
X128834262Y-72158718D01*
X128781881Y-72204655D01*
X128779073Y-72208217D01*
X128660699Y-72358375D01*
X128650976Y-72370708D01*
X128648862Y-72374726D01*
X128560634Y-72542420D01*
X128552523Y-72557836D01*
X128538860Y-72601837D01*
X128511347Y-72690446D01*
X128489820Y-72759773D01*
X128464967Y-72969754D01*
X128232650Y-72969754D01*
X128216496Y-72793960D01*
X128216081Y-72789440D01*
X128158686Y-72585931D01*
X128065165Y-72396290D01*
X127954960Y-72248707D01*
X127941367Y-72230504D01*
X127941366Y-72230503D01*
X127938651Y-72226867D01*
X127783381Y-72083337D01*
X127776752Y-72079154D01*
X127608391Y-71972926D01*
X127604554Y-71970505D01*
X127408160Y-71892152D01*
X127200775Y-71850901D01*
X127096599Y-71849537D01*
X126993886Y-71848192D01*
X126993881Y-71848192D01*
X126989346Y-71848133D01*
X126984873Y-71848902D01*
X126984868Y-71848902D01*
X126881601Y-71866647D01*
X126780953Y-71883941D01*
X126582575Y-71957127D01*
X126578676Y-71959446D01*
X126578671Y-71959449D01*
X126441650Y-72040968D01*
X126400856Y-72065238D01*
X126397441Y-72068233D01*
X126397438Y-72068235D01*
X126294262Y-72158718D01*
X126241881Y-72204655D01*
X126239073Y-72208217D01*
X126120699Y-72358375D01*
X126110976Y-72370708D01*
X126108862Y-72374726D01*
X126020634Y-72542420D01*
X126012523Y-72557836D01*
X125998860Y-72601837D01*
X125971347Y-72690446D01*
X125949820Y-72759773D01*
X125924967Y-72969754D01*
X125692650Y-72969754D01*
X125676496Y-72793960D01*
X125676081Y-72789440D01*
X125618686Y-72585931D01*
X125525165Y-72396290D01*
X125414960Y-72248707D01*
X125401367Y-72230504D01*
X125401366Y-72230503D01*
X125398651Y-72226867D01*
X125243381Y-72083337D01*
X125236752Y-72079154D01*
X125068391Y-71972926D01*
X125064554Y-71970505D01*
X124868160Y-71892152D01*
X124660775Y-71850901D01*
X124556599Y-71849537D01*
X124453886Y-71848192D01*
X124453881Y-71848192D01*
X124449346Y-71848133D01*
X124444873Y-71848902D01*
X124444868Y-71848902D01*
X124341601Y-71866647D01*
X124240953Y-71883941D01*
X124042575Y-71957127D01*
X124038676Y-71959446D01*
X124038671Y-71959449D01*
X123901650Y-72040968D01*
X123860856Y-72065238D01*
X123857441Y-72068233D01*
X123857438Y-72068235D01*
X123754262Y-72158718D01*
X123701881Y-72204655D01*
X123699073Y-72208217D01*
X123580699Y-72358375D01*
X123570976Y-72370708D01*
X123568862Y-72374726D01*
X123480634Y-72542420D01*
X123472523Y-72557836D01*
X123458860Y-72601837D01*
X123431347Y-72690446D01*
X123409820Y-72759773D01*
X123384967Y-72969754D01*
X123150500Y-72969754D01*
X123150500Y-72105354D01*
X123147382Y-72079154D01*
X123101939Y-71976847D01*
X123022713Y-71897759D01*
X122987203Y-71882060D01*
X122927136Y-71855504D01*
X122927134Y-71855504D01*
X122920327Y-71852494D01*
X122906157Y-71850842D01*
X122897494Y-71849832D01*
X122897493Y-71849832D01*
X122894646Y-71849500D01*
X121105354Y-71849500D01*
X121088951Y-71851452D01*
X121086531Y-71851740D01*
X121086530Y-71851740D01*
X121079154Y-71852618D01*
X120976847Y-71898061D01*
X120897759Y-71977287D01*
X120894064Y-71985645D01*
X120858876Y-72065238D01*
X120852494Y-72079673D01*
X120849500Y-72105354D01*
X120849500Y-73894646D01*
X117798837Y-73894646D01*
X117699983Y-73662888D01*
X117697459Y-73657802D01*
X117528407Y-73361421D01*
X117525311Y-73356654D01*
X117323319Y-73081676D01*
X117319696Y-73077296D01*
X117312172Y-73069199D01*
X117300517Y-73062713D01*
X117296258Y-73063228D01*
X117295344Y-73063867D01*
X115370296Y-74988914D01*
X115364242Y-75000797D01*
X114634946Y-75000797D01*
X114635758Y-74999203D01*
X114634962Y-74994172D01*
X112710648Y-73069859D01*
X112698765Y-73063805D01*
X112696715Y-73064129D01*
X112692902Y-73067267D01*
X112527552Y-73278145D01*
X112524305Y-73282818D01*
X112346038Y-73573723D01*
X112343343Y-73578749D01*
X112199697Y-73888208D01*
X112197594Y-73893520D01*
X112090465Y-74217450D01*
X112088994Y-74222940D01*
X112019805Y-74557042D01*
X112018972Y-74562681D01*
X111988642Y-74902517D01*
X111988464Y-74908205D01*
X111300500Y-74908205D01*
X111300500Y-73034953D01*
X111302004Y-73017761D01*
X111303632Y-73008528D01*
X111305136Y-73000000D01*
X111303632Y-72991470D01*
X111303632Y-72986944D01*
X111302711Y-72969093D01*
X111317293Y-72765194D01*
X111319304Y-72751212D01*
X111327837Y-72711990D01*
X111330098Y-72701596D01*
X113064376Y-72701596D01*
X113064487Y-72703945D01*
X113066912Y-72707701D01*
X114988914Y-74629704D01*
X115000797Y-74635758D01*
X115005828Y-74634962D01*
X116928800Y-72711990D01*
X116934854Y-72700107D01*
X116934356Y-72696963D01*
X116932471Y-72694571D01*
X116823894Y-72601837D01*
X116819341Y-72598381D01*
X116536159Y-72408091D01*
X116531256Y-72405191D01*
X116228073Y-72248707D01*
X116222870Y-72246390D01*
X115903711Y-72125790D01*
X115898266Y-72124083D01*
X115567368Y-72040968D01*
X115561769Y-72039900D01*
X115223502Y-71995366D01*
X115217824Y-71994949D01*
X114876667Y-71989590D01*
X114871000Y-71989827D01*
X114531486Y-72023715D01*
X114525853Y-72024607D01*
X114192506Y-72097289D01*
X114187019Y-72098821D01*
X113864232Y-72209336D01*
X113858955Y-72211489D01*
X113551002Y-72358375D01*
X113546010Y-72361119D01*
X113256992Y-72542420D01*
X113252335Y-72545730D01*
X113071700Y-72690446D01*
X113064376Y-72701596D01*
X111330098Y-72701596D01*
X111367837Y-72528116D01*
X111371815Y-72514565D01*
X111451606Y-72300636D01*
X111457474Y-72287787D01*
X111566897Y-72087396D01*
X111574533Y-72075514D01*
X111711358Y-71892736D01*
X111720608Y-71882060D01*
X111882060Y-71720608D01*
X111892736Y-71711358D01*
X112075514Y-71574533D01*
X112087396Y-71566897D01*
X112287787Y-71457474D01*
X112300636Y-71451606D01*
X112431516Y-71402791D01*
X112514568Y-71371814D01*
X112528116Y-71367837D01*
X112751215Y-71319304D01*
X112765191Y-71317293D01*
X112847107Y-71311435D01*
X112969093Y-71302711D01*
X112986944Y-71303632D01*
X112991470Y-71303632D01*
X113000000Y-71305136D01*
X113017764Y-71302004D01*
X113034953Y-71300500D01*
X158965047Y-71300500D01*
X158982236Y-71302004D01*
G37*
G04 #@! TD.AperFunction*
M02*
