G04 #@! TF.GenerationSoftware,KiCad,Pcbnew,(5.1.8)-1*
G04 #@! TF.CreationDate,2021-01-19T07:53:21+02:00*
G04 #@! TF.ProjectId,link,6c696e6b-2e6b-4696-9361-645f70636258,rev?*
G04 #@! TF.SameCoordinates,Original*
G04 #@! TF.FileFunction,Copper,L2,Bot*
G04 #@! TF.FilePolarity,Positive*
%FSLAX46Y46*%
G04 Gerber Fmt 4.6, Leading zero omitted, Abs format (unit mm)*
G04 Created by KiCad (PCBNEW (5.1.8)-1) date 2021-01-19 07:53:21*
%MOMM*%
%LPD*%
G01*
G04 APERTURE LIST*
G04 #@! TA.AperFunction,ComponentPad*
%ADD10O,1.700000X1.700000*%
G04 #@! TD*
G04 #@! TA.AperFunction,ComponentPad*
%ADD11R,1.700000X1.700000*%
G04 #@! TD*
G04 #@! TA.AperFunction,ComponentPad*
%ADD12C,5.000000*%
G04 #@! TD*
G04 #@! TA.AperFunction,ViaPad*
%ADD13C,0.600000*%
G04 #@! TD*
G04 #@! TA.AperFunction,Conductor*
%ADD14C,0.300000*%
G04 #@! TD*
G04 #@! TA.AperFunction,Conductor*
%ADD15C,0.200000*%
G04 #@! TD*
G04 #@! TA.AperFunction,Conductor*
%ADD16C,0.100000*%
G04 #@! TD*
G04 APERTURE END LIST*
D10*
X156700000Y-92350000D03*
X156700000Y-89810000D03*
X156700000Y-87270000D03*
X156700000Y-84730000D03*
X156700000Y-82190000D03*
D11*
X156700000Y-79650000D03*
D10*
X139780000Y-73000000D03*
X137240000Y-73000000D03*
X134700000Y-73000000D03*
X132160000Y-73000000D03*
X129620000Y-73000000D03*
X127080000Y-73000000D03*
X124540000Y-73000000D03*
D11*
X122000000Y-73000000D03*
D10*
X139660000Y-99000000D03*
X137120000Y-99000000D03*
X134580000Y-99000000D03*
X132040000Y-99000000D03*
X129500000Y-99000000D03*
X126960000Y-99000000D03*
X124420000Y-99000000D03*
D11*
X121880000Y-99000000D03*
G04 #@! TA.AperFunction,ComponentPad*
G36*
G01*
X112200000Y-81180000D02*
X112800000Y-81180000D01*
G75*
G02*
X113300000Y-81680000I0J-500000D01*
G01*
X113300000Y-81680000D01*
G75*
G02*
X112800000Y-82180000I-500000J0D01*
G01*
X112200000Y-82180000D01*
G75*
G02*
X111700000Y-81680000I0J500000D01*
G01*
X111700000Y-81680000D01*
G75*
G02*
X112200000Y-81180000I500000J0D01*
G01*
G37*
G04 #@! TD.AperFunction*
G04 #@! TA.AperFunction,ComponentPad*
G36*
G01*
X112200000Y-89820000D02*
X112800000Y-89820000D01*
G75*
G02*
X113300000Y-90320000I0J-500000D01*
G01*
X113300000Y-90320000D01*
G75*
G02*
X112800000Y-90820000I-500000J0D01*
G01*
X112200000Y-90820000D01*
G75*
G02*
X111700000Y-90320000I0J500000D01*
G01*
X111700000Y-90320000D01*
G75*
G02*
X112200000Y-89820000I500000J0D01*
G01*
G37*
G04 #@! TD.AperFunction*
G04 #@! TA.AperFunction,ComponentPad*
G36*
G01*
X116380000Y-89820000D02*
X116980000Y-89820000D01*
G75*
G02*
X117480000Y-90320000I0J-500000D01*
G01*
X117480000Y-90320000D01*
G75*
G02*
X116980000Y-90820000I-500000J0D01*
G01*
X116380000Y-90820000D01*
G75*
G02*
X115880000Y-90320000I0J500000D01*
G01*
X115880000Y-90320000D01*
G75*
G02*
X116380000Y-89820000I500000J0D01*
G01*
G37*
G04 #@! TD.AperFunction*
G04 #@! TA.AperFunction,ComponentPad*
G36*
G01*
X116380000Y-81180000D02*
X116980000Y-81180000D01*
G75*
G02*
X117480000Y-81680000I0J-500000D01*
G01*
X117480000Y-81680000D01*
G75*
G02*
X116980000Y-82180000I-500000J0D01*
G01*
X116380000Y-82180000D01*
G75*
G02*
X115880000Y-81680000I0J500000D01*
G01*
X115880000Y-81680000D01*
G75*
G02*
X116380000Y-81180000I500000J0D01*
G01*
G37*
G04 #@! TD.AperFunction*
D12*
X157000000Y-75000000D03*
X157000000Y-97000000D03*
X115000000Y-97000000D03*
X115000000Y-75000000D03*
D13*
X133000000Y-86000000D03*
X124000000Y-83400000D03*
X118600000Y-90000000D03*
X118600000Y-90600000D03*
X118600000Y-91200000D03*
X122500000Y-87600000D03*
X121300000Y-83300000D03*
X129800000Y-84800000D03*
X118900000Y-82500000D03*
X119500000Y-82500000D03*
X118900000Y-81900000D03*
X119500000Y-81900000D03*
X126700000Y-87500000D03*
X126700000Y-89000000D03*
X137000000Y-83000000D03*
X159900000Y-86000000D03*
X145000000Y-90700000D03*
X143100000Y-76600000D03*
X127600000Y-94200000D03*
X131700000Y-77200000D03*
X136800000Y-91300000D03*
X137000000Y-95100000D03*
X126800000Y-84300000D03*
X124000000Y-80500000D03*
X128600000Y-76400000D03*
X124000000Y-79000000D03*
X130300000Y-89000000D03*
X135700000Y-89500000D03*
X143848691Y-83273524D03*
X144300000Y-89000000D03*
X122250000Y-84750000D03*
X122250000Y-86750000D03*
X133500000Y-80250000D03*
X142600000Y-86600000D03*
X133247018Y-79491052D03*
X142465578Y-85557371D03*
X144559620Y-83640380D03*
X144400000Y-87300000D03*
X122700000Y-90500000D03*
X122700000Y-88500000D03*
X131500000Y-81900000D03*
X135750000Y-81250000D03*
X137850000Y-86900000D03*
X138300000Y-81200000D03*
X135000000Y-82000000D03*
X135250000Y-84000000D03*
X136500000Y-84887500D03*
X136949997Y-80000000D03*
X136500000Y-86250000D03*
X137750000Y-80000000D03*
D14*
X130300000Y-89000000D02*
X135200000Y-89000000D01*
X135200000Y-89000000D02*
X135700000Y-89500000D01*
X143749999Y-83796480D02*
X143749999Y-87949999D01*
X143848691Y-83273524D02*
X143848691Y-83697788D01*
X143848691Y-83697788D02*
X143749999Y-83796480D01*
X143749999Y-87949999D02*
X144300000Y-88500000D01*
X144300000Y-88500000D02*
X144300000Y-89000000D01*
D15*
X122250000Y-84750000D02*
X122250000Y-86750000D01*
D14*
X141100000Y-86600000D02*
X142175736Y-86600000D01*
X133500000Y-80250000D02*
X134400001Y-79349999D01*
X134400001Y-79349999D02*
X138062001Y-79349999D01*
X138062001Y-79349999D02*
X139250000Y-80537998D01*
X142175736Y-86600000D02*
X142600000Y-86600000D01*
X139250000Y-84750000D02*
X141100000Y-86600000D01*
X139250000Y-80537998D02*
X139250000Y-84750000D01*
X138269111Y-78849989D02*
X139750000Y-80330878D01*
X133247018Y-79491052D02*
X133888081Y-78849989D01*
X133888081Y-78849989D02*
X138269111Y-78849989D01*
X139750000Y-80330878D02*
X139750000Y-84500000D01*
X139750000Y-84500000D02*
X140807371Y-85557371D01*
X140807371Y-85557371D02*
X142465578Y-85557371D01*
X144559620Y-87140380D02*
X144400000Y-87300000D01*
X144559620Y-83640380D02*
X144559620Y-87140380D01*
D15*
X122700000Y-90500000D02*
X122700000Y-88500000D01*
D14*
X134750000Y-81250000D02*
X135750000Y-81250000D01*
X131500000Y-81900000D02*
X134100000Y-81900000D01*
X134100000Y-81900000D02*
X134750000Y-81250000D01*
X138750000Y-81650000D02*
X138300000Y-81200000D01*
X137850000Y-86900000D02*
X138750000Y-86000000D01*
X138750000Y-86000000D02*
X138750000Y-81650000D01*
X135000000Y-82000000D02*
X135000000Y-83750000D01*
X135000000Y-83750000D02*
X135250000Y-84000000D01*
X136799999Y-84587501D02*
X137412499Y-84587501D01*
X136500000Y-84887500D02*
X136799999Y-84587501D01*
X137412499Y-84587501D02*
X137749980Y-84250020D01*
X137749980Y-84250020D02*
X137749980Y-83000000D01*
X137749980Y-83000000D02*
X137749980Y-82319102D01*
X137749980Y-82319102D02*
X136949997Y-81519119D01*
X136949997Y-81519119D02*
X136949997Y-80000000D01*
X136924264Y-86250000D02*
X138249990Y-84924274D01*
X136500000Y-86250000D02*
X136924264Y-86250000D01*
X138249990Y-84924274D02*
X138249990Y-82111992D01*
X137649999Y-80100001D02*
X137750000Y-80000000D01*
X138249990Y-82111992D02*
X137649999Y-81512001D01*
X137649999Y-81512001D02*
X137649999Y-80100001D01*
D15*
X159325040Y-71358429D02*
X159637699Y-71452827D01*
X159926068Y-71606156D01*
X160179167Y-71812578D01*
X160387345Y-72064223D01*
X160542685Y-72351518D01*
X160639261Y-72663508D01*
X160675001Y-73003549D01*
X160675000Y-98984103D01*
X160641571Y-99325041D01*
X160547173Y-99637700D01*
X160393843Y-99926070D01*
X160187422Y-100179167D01*
X159935780Y-100387344D01*
X159648481Y-100542685D01*
X159336497Y-100639260D01*
X158996460Y-100675000D01*
X113015897Y-100675000D01*
X112674959Y-100641571D01*
X112362300Y-100547173D01*
X112073930Y-100393843D01*
X111820833Y-100187422D01*
X111612656Y-99935780D01*
X111457315Y-99648481D01*
X111360740Y-99336497D01*
X111347120Y-99206911D01*
X113010878Y-99206911D01*
X113291146Y-99614036D01*
X113833954Y-99897189D01*
X114421573Y-100069005D01*
X115031420Y-100122881D01*
X115640060Y-100056746D01*
X116224102Y-99873142D01*
X116708854Y-99614036D01*
X116989122Y-99206911D01*
X115000000Y-97217789D01*
X113010878Y-99206911D01*
X111347120Y-99206911D01*
X111325000Y-98996460D01*
X111325000Y-97031420D01*
X111877119Y-97031420D01*
X111943254Y-97640060D01*
X112126858Y-98224102D01*
X112385964Y-98708854D01*
X112793089Y-98989122D01*
X114782211Y-97000000D01*
X115217789Y-97000000D01*
X117206911Y-98989122D01*
X117614036Y-98708854D01*
X117897189Y-98166046D01*
X117901880Y-98150000D01*
X120728549Y-98150000D01*
X120728549Y-99850000D01*
X120734341Y-99908810D01*
X120751496Y-99965360D01*
X120779353Y-100017477D01*
X120816842Y-100063158D01*
X120862523Y-100100647D01*
X120914640Y-100128504D01*
X120971190Y-100145659D01*
X121030000Y-100151451D01*
X122730000Y-100151451D01*
X122788810Y-100145659D01*
X122845360Y-100128504D01*
X122897477Y-100100647D01*
X122943158Y-100063158D01*
X122980647Y-100017477D01*
X123008504Y-99965360D01*
X123025659Y-99908810D01*
X123031451Y-99850000D01*
X123031451Y-98886735D01*
X123270000Y-98886735D01*
X123270000Y-99113265D01*
X123314194Y-99335443D01*
X123400884Y-99544729D01*
X123526737Y-99733082D01*
X123686918Y-99893263D01*
X123875271Y-100019116D01*
X124084557Y-100105806D01*
X124306735Y-100150000D01*
X124533265Y-100150000D01*
X124755443Y-100105806D01*
X124964729Y-100019116D01*
X125153082Y-99893263D01*
X125313263Y-99733082D01*
X125439116Y-99544729D01*
X125525806Y-99335443D01*
X125561897Y-99154002D01*
X125662149Y-99154002D01*
X125552091Y-99378911D01*
X125653065Y-99646300D01*
X125804264Y-99888852D01*
X125999878Y-100097246D01*
X126232389Y-100263473D01*
X126492861Y-100381146D01*
X126581090Y-100407903D01*
X126806000Y-100296889D01*
X126806000Y-99154000D01*
X126786000Y-99154000D01*
X126786000Y-98846000D01*
X126806000Y-98846000D01*
X126806000Y-97703111D01*
X127114000Y-97703111D01*
X127114000Y-98846000D01*
X127134000Y-98846000D01*
X127134000Y-99154000D01*
X127114000Y-99154000D01*
X127114000Y-100296889D01*
X127338910Y-100407903D01*
X127427139Y-100381146D01*
X127687611Y-100263473D01*
X127920122Y-100097246D01*
X128115736Y-99888852D01*
X128266935Y-99646300D01*
X128367909Y-99378911D01*
X128257851Y-99154002D01*
X128358103Y-99154002D01*
X128394194Y-99335443D01*
X128480884Y-99544729D01*
X128606737Y-99733082D01*
X128766918Y-99893263D01*
X128955271Y-100019116D01*
X129164557Y-100105806D01*
X129386735Y-100150000D01*
X129613265Y-100150000D01*
X129835443Y-100105806D01*
X130044729Y-100019116D01*
X130233082Y-99893263D01*
X130393263Y-99733082D01*
X130519116Y-99544729D01*
X130605806Y-99335443D01*
X130650000Y-99113265D01*
X130650000Y-98886735D01*
X130890000Y-98886735D01*
X130890000Y-99113265D01*
X130934194Y-99335443D01*
X131020884Y-99544729D01*
X131146737Y-99733082D01*
X131306918Y-99893263D01*
X131495271Y-100019116D01*
X131704557Y-100105806D01*
X131926735Y-100150000D01*
X132153265Y-100150000D01*
X132375443Y-100105806D01*
X132584729Y-100019116D01*
X132773082Y-99893263D01*
X132933263Y-99733082D01*
X133059116Y-99544729D01*
X133145806Y-99335443D01*
X133190000Y-99113265D01*
X133190000Y-98886735D01*
X133430000Y-98886735D01*
X133430000Y-99113265D01*
X133474194Y-99335443D01*
X133560884Y-99544729D01*
X133686737Y-99733082D01*
X133846918Y-99893263D01*
X134035271Y-100019116D01*
X134244557Y-100105806D01*
X134466735Y-100150000D01*
X134693265Y-100150000D01*
X134915443Y-100105806D01*
X135124729Y-100019116D01*
X135313082Y-99893263D01*
X135473263Y-99733082D01*
X135599116Y-99544729D01*
X135685806Y-99335443D01*
X135730000Y-99113265D01*
X135730000Y-98886735D01*
X135970000Y-98886735D01*
X135970000Y-99113265D01*
X136014194Y-99335443D01*
X136100884Y-99544729D01*
X136226737Y-99733082D01*
X136386918Y-99893263D01*
X136575271Y-100019116D01*
X136784557Y-100105806D01*
X137006735Y-100150000D01*
X137233265Y-100150000D01*
X137455443Y-100105806D01*
X137664729Y-100019116D01*
X137853082Y-99893263D01*
X138013263Y-99733082D01*
X138139116Y-99544729D01*
X138225806Y-99335443D01*
X138261897Y-99154002D01*
X138362149Y-99154002D01*
X138252091Y-99378911D01*
X138353065Y-99646300D01*
X138504264Y-99888852D01*
X138699878Y-100097246D01*
X138932389Y-100263473D01*
X139192861Y-100381146D01*
X139281090Y-100407903D01*
X139506000Y-100296889D01*
X139506000Y-99154000D01*
X139814000Y-99154000D01*
X139814000Y-100296889D01*
X140038910Y-100407903D01*
X140127139Y-100381146D01*
X140387611Y-100263473D01*
X140620122Y-100097246D01*
X140815736Y-99888852D01*
X140966935Y-99646300D01*
X141067909Y-99378911D01*
X140983742Y-99206911D01*
X155010878Y-99206911D01*
X155291146Y-99614036D01*
X155833954Y-99897189D01*
X156421573Y-100069005D01*
X157031420Y-100122881D01*
X157640060Y-100056746D01*
X158224102Y-99873142D01*
X158708854Y-99614036D01*
X158989122Y-99206911D01*
X157000000Y-97217789D01*
X155010878Y-99206911D01*
X140983742Y-99206911D01*
X140957850Y-99154000D01*
X139814000Y-99154000D01*
X139506000Y-99154000D01*
X139486000Y-99154000D01*
X139486000Y-98846000D01*
X139506000Y-98846000D01*
X139506000Y-97703111D01*
X139814000Y-97703111D01*
X139814000Y-98846000D01*
X140957850Y-98846000D01*
X141067909Y-98621089D01*
X140966935Y-98353700D01*
X140815736Y-98111148D01*
X140620122Y-97902754D01*
X140387611Y-97736527D01*
X140127139Y-97618854D01*
X140038910Y-97592097D01*
X139814000Y-97703111D01*
X139506000Y-97703111D01*
X139281090Y-97592097D01*
X139192861Y-97618854D01*
X138932389Y-97736527D01*
X138699878Y-97902754D01*
X138504264Y-98111148D01*
X138353065Y-98353700D01*
X138252091Y-98621089D01*
X138362149Y-98845998D01*
X138261897Y-98845998D01*
X138225806Y-98664557D01*
X138139116Y-98455271D01*
X138013263Y-98266918D01*
X137853082Y-98106737D01*
X137664729Y-97980884D01*
X137455443Y-97894194D01*
X137233265Y-97850000D01*
X137006735Y-97850000D01*
X136784557Y-97894194D01*
X136575271Y-97980884D01*
X136386918Y-98106737D01*
X136226737Y-98266918D01*
X136100884Y-98455271D01*
X136014194Y-98664557D01*
X135970000Y-98886735D01*
X135730000Y-98886735D01*
X135685806Y-98664557D01*
X135599116Y-98455271D01*
X135473263Y-98266918D01*
X135313082Y-98106737D01*
X135124729Y-97980884D01*
X134915443Y-97894194D01*
X134693265Y-97850000D01*
X134466735Y-97850000D01*
X134244557Y-97894194D01*
X134035271Y-97980884D01*
X133846918Y-98106737D01*
X133686737Y-98266918D01*
X133560884Y-98455271D01*
X133474194Y-98664557D01*
X133430000Y-98886735D01*
X133190000Y-98886735D01*
X133145806Y-98664557D01*
X133059116Y-98455271D01*
X132933263Y-98266918D01*
X132773082Y-98106737D01*
X132584729Y-97980884D01*
X132375443Y-97894194D01*
X132153265Y-97850000D01*
X131926735Y-97850000D01*
X131704557Y-97894194D01*
X131495271Y-97980884D01*
X131306918Y-98106737D01*
X131146737Y-98266918D01*
X131020884Y-98455271D01*
X130934194Y-98664557D01*
X130890000Y-98886735D01*
X130650000Y-98886735D01*
X130605806Y-98664557D01*
X130519116Y-98455271D01*
X130393263Y-98266918D01*
X130233082Y-98106737D01*
X130044729Y-97980884D01*
X129835443Y-97894194D01*
X129613265Y-97850000D01*
X129386735Y-97850000D01*
X129164557Y-97894194D01*
X128955271Y-97980884D01*
X128766918Y-98106737D01*
X128606737Y-98266918D01*
X128480884Y-98455271D01*
X128394194Y-98664557D01*
X128358103Y-98845998D01*
X128257851Y-98845998D01*
X128367909Y-98621089D01*
X128266935Y-98353700D01*
X128115736Y-98111148D01*
X127920122Y-97902754D01*
X127687611Y-97736527D01*
X127427139Y-97618854D01*
X127338910Y-97592097D01*
X127114000Y-97703111D01*
X126806000Y-97703111D01*
X126581090Y-97592097D01*
X126492861Y-97618854D01*
X126232389Y-97736527D01*
X125999878Y-97902754D01*
X125804264Y-98111148D01*
X125653065Y-98353700D01*
X125552091Y-98621089D01*
X125662149Y-98845998D01*
X125561897Y-98845998D01*
X125525806Y-98664557D01*
X125439116Y-98455271D01*
X125313263Y-98266918D01*
X125153082Y-98106737D01*
X124964729Y-97980884D01*
X124755443Y-97894194D01*
X124533265Y-97850000D01*
X124306735Y-97850000D01*
X124084557Y-97894194D01*
X123875271Y-97980884D01*
X123686918Y-98106737D01*
X123526737Y-98266918D01*
X123400884Y-98455271D01*
X123314194Y-98664557D01*
X123270000Y-98886735D01*
X123031451Y-98886735D01*
X123031451Y-98150000D01*
X123025659Y-98091190D01*
X123008504Y-98034640D01*
X122980647Y-97982523D01*
X122943158Y-97936842D01*
X122897477Y-97899353D01*
X122845360Y-97871496D01*
X122788810Y-97854341D01*
X122730000Y-97848549D01*
X121030000Y-97848549D01*
X120971190Y-97854341D01*
X120914640Y-97871496D01*
X120862523Y-97899353D01*
X120816842Y-97936842D01*
X120779353Y-97982523D01*
X120751496Y-98034640D01*
X120734341Y-98091190D01*
X120728549Y-98150000D01*
X117901880Y-98150000D01*
X118069005Y-97578427D01*
X118117329Y-97031420D01*
X153877119Y-97031420D01*
X153943254Y-97640060D01*
X154126858Y-98224102D01*
X154385964Y-98708854D01*
X154793089Y-98989122D01*
X156782211Y-97000000D01*
X157217789Y-97000000D01*
X159206911Y-98989122D01*
X159614036Y-98708854D01*
X159897189Y-98166046D01*
X160069005Y-97578427D01*
X160122881Y-96968580D01*
X160056746Y-96359940D01*
X159873142Y-95775898D01*
X159614036Y-95291146D01*
X159206911Y-95010878D01*
X157217789Y-97000000D01*
X156782211Y-97000000D01*
X154793089Y-95010878D01*
X154385964Y-95291146D01*
X154102811Y-95833954D01*
X153930995Y-96421573D01*
X153877119Y-97031420D01*
X118117329Y-97031420D01*
X118122881Y-96968580D01*
X118056746Y-96359940D01*
X117873142Y-95775898D01*
X117614036Y-95291146D01*
X117206911Y-95010878D01*
X115217789Y-97000000D01*
X114782211Y-97000000D01*
X112793089Y-95010878D01*
X112385964Y-95291146D01*
X112102811Y-95833954D01*
X111930995Y-96421573D01*
X111877119Y-97031420D01*
X111325000Y-97031420D01*
X111325000Y-94793089D01*
X113010878Y-94793089D01*
X115000000Y-96782211D01*
X116989122Y-94793089D01*
X155010878Y-94793089D01*
X157000000Y-96782211D01*
X158989122Y-94793089D01*
X158708854Y-94385964D01*
X158166046Y-94102811D01*
X157578427Y-93930995D01*
X156968580Y-93877119D01*
X156359940Y-93943254D01*
X155775898Y-94126858D01*
X155291146Y-94385964D01*
X155010878Y-94793089D01*
X116989122Y-94793089D01*
X116708854Y-94385964D01*
X116166046Y-94102811D01*
X115578427Y-93930995D01*
X114968580Y-93877119D01*
X114359940Y-93943254D01*
X113775898Y-94126858D01*
X113291146Y-94385964D01*
X113010878Y-94793089D01*
X111325000Y-94793089D01*
X111325000Y-90319999D01*
X111398549Y-90319999D01*
X111398549Y-90320001D01*
X111413949Y-90476356D01*
X111459556Y-90626703D01*
X111533618Y-90765263D01*
X111633289Y-90886712D01*
X111754738Y-90986383D01*
X111893298Y-91060445D01*
X112043645Y-91106052D01*
X112200000Y-91121452D01*
X112800000Y-91121452D01*
X112956355Y-91106052D01*
X113106702Y-91060445D01*
X113245262Y-90986383D01*
X113366711Y-90886712D01*
X113466382Y-90765263D01*
X113540444Y-90626703D01*
X113586051Y-90476356D01*
X113601451Y-90320001D01*
X113601451Y-90319999D01*
X115578549Y-90319999D01*
X115578549Y-90320001D01*
X115593949Y-90476356D01*
X115639556Y-90626703D01*
X115713618Y-90765263D01*
X115813289Y-90886712D01*
X115934738Y-90986383D01*
X116073298Y-91060445D01*
X116223645Y-91106052D01*
X116380000Y-91121452D01*
X116980000Y-91121452D01*
X117136355Y-91106052D01*
X117286702Y-91060445D01*
X117425262Y-90986383D01*
X117546711Y-90886712D01*
X117646382Y-90765263D01*
X117720444Y-90626703D01*
X117766051Y-90476356D01*
X117781451Y-90320001D01*
X117781451Y-90319999D01*
X117766051Y-90163644D01*
X117720444Y-90013297D01*
X117646382Y-89874737D01*
X117546711Y-89753288D01*
X117425262Y-89653617D01*
X117286702Y-89579555D01*
X117136355Y-89533948D01*
X116980000Y-89518548D01*
X116380000Y-89518548D01*
X116223645Y-89533948D01*
X116073298Y-89579555D01*
X115934738Y-89653617D01*
X115813289Y-89753288D01*
X115713618Y-89874737D01*
X115639556Y-90013297D01*
X115593949Y-90163644D01*
X115578549Y-90319999D01*
X113601451Y-90319999D01*
X113586051Y-90163644D01*
X113540444Y-90013297D01*
X113466382Y-89874737D01*
X113366711Y-89753288D01*
X113245262Y-89653617D01*
X113106702Y-89579555D01*
X112956355Y-89533948D01*
X112800000Y-89518548D01*
X112200000Y-89518548D01*
X112043645Y-89533948D01*
X111893298Y-89579555D01*
X111754738Y-89653617D01*
X111633289Y-89753288D01*
X111533618Y-89874737D01*
X111459556Y-90013297D01*
X111413949Y-90163644D01*
X111398549Y-90319999D01*
X111325000Y-90319999D01*
X111325000Y-88838443D01*
X115525000Y-88838443D01*
X115525000Y-88961557D01*
X115549019Y-89082306D01*
X115596132Y-89196048D01*
X115664531Y-89298414D01*
X115751586Y-89385469D01*
X115853952Y-89453868D01*
X115967694Y-89500981D01*
X116088443Y-89525000D01*
X116211557Y-89525000D01*
X116332306Y-89500981D01*
X116446048Y-89453868D01*
X116548414Y-89385469D01*
X116635469Y-89298414D01*
X116703868Y-89196048D01*
X116750981Y-89082306D01*
X116775000Y-88961557D01*
X116775000Y-88838443D01*
X116750981Y-88717694D01*
X116703868Y-88603952D01*
X116635469Y-88501586D01*
X116574788Y-88440905D01*
X122100000Y-88440905D01*
X122100000Y-88559095D01*
X122123058Y-88675014D01*
X122168287Y-88784207D01*
X122233950Y-88882478D01*
X122300001Y-88948529D01*
X122300000Y-90051472D01*
X122233950Y-90117522D01*
X122168287Y-90215793D01*
X122123058Y-90324986D01*
X122100000Y-90440905D01*
X122100000Y-90559095D01*
X122123058Y-90675014D01*
X122168287Y-90784207D01*
X122233950Y-90882478D01*
X122317522Y-90966050D01*
X122415793Y-91031713D01*
X122524986Y-91076942D01*
X122640905Y-91100000D01*
X122759095Y-91100000D01*
X122875014Y-91076942D01*
X122984207Y-91031713D01*
X123082478Y-90966050D01*
X123166050Y-90882478D01*
X123231713Y-90784207D01*
X123276942Y-90675014D01*
X123300000Y-90559095D01*
X123300000Y-90440905D01*
X123276942Y-90324986D01*
X123231713Y-90215793D01*
X123213751Y-90188910D01*
X155292097Y-90188910D01*
X155318854Y-90277139D01*
X155436527Y-90537611D01*
X155602754Y-90770122D01*
X155811148Y-90965736D01*
X156053700Y-91116935D01*
X156321089Y-91217909D01*
X156545998Y-91107851D01*
X156545998Y-91208103D01*
X156364557Y-91244194D01*
X156155271Y-91330884D01*
X155966918Y-91456737D01*
X155806737Y-91616918D01*
X155680884Y-91805271D01*
X155594194Y-92014557D01*
X155550000Y-92236735D01*
X155550000Y-92463265D01*
X155594194Y-92685443D01*
X155680884Y-92894729D01*
X155806737Y-93083082D01*
X155966918Y-93243263D01*
X156155271Y-93369116D01*
X156364557Y-93455806D01*
X156586735Y-93500000D01*
X156813265Y-93500000D01*
X157035443Y-93455806D01*
X157244729Y-93369116D01*
X157433082Y-93243263D01*
X157593263Y-93083082D01*
X157719116Y-92894729D01*
X157805806Y-92685443D01*
X157850000Y-92463265D01*
X157850000Y-92236735D01*
X157805806Y-92014557D01*
X157719116Y-91805271D01*
X157593263Y-91616918D01*
X157433082Y-91456737D01*
X157244729Y-91330884D01*
X157035443Y-91244194D01*
X156854002Y-91208103D01*
X156854002Y-91107851D01*
X157078911Y-91217909D01*
X157346300Y-91116935D01*
X157588852Y-90965736D01*
X157797246Y-90770122D01*
X157963473Y-90537611D01*
X158081146Y-90277139D01*
X158107903Y-90188910D01*
X157996889Y-89964000D01*
X156854000Y-89964000D01*
X156854000Y-89984000D01*
X156546000Y-89984000D01*
X156546000Y-89964000D01*
X155403111Y-89964000D01*
X155292097Y-90188910D01*
X123213751Y-90188910D01*
X123166050Y-90117522D01*
X123100000Y-90051472D01*
X123100000Y-88948528D01*
X123107623Y-88940905D01*
X129700000Y-88940905D01*
X129700000Y-89059095D01*
X129723058Y-89175014D01*
X129768287Y-89284207D01*
X129833950Y-89382478D01*
X129917522Y-89466050D01*
X130015793Y-89531713D01*
X130124986Y-89576942D01*
X130240905Y-89600000D01*
X130359095Y-89600000D01*
X130475014Y-89576942D01*
X130584207Y-89531713D01*
X130682478Y-89466050D01*
X130698528Y-89450000D01*
X135013605Y-89450000D01*
X135100000Y-89536395D01*
X135100000Y-89559095D01*
X135123058Y-89675014D01*
X135168287Y-89784207D01*
X135233950Y-89882478D01*
X135317522Y-89966050D01*
X135415793Y-90031713D01*
X135524986Y-90076942D01*
X135640905Y-90100000D01*
X135759095Y-90100000D01*
X135875014Y-90076942D01*
X135984207Y-90031713D01*
X136082478Y-89966050D01*
X136166050Y-89882478D01*
X136231713Y-89784207D01*
X136276942Y-89675014D01*
X136300000Y-89559095D01*
X136300000Y-89440905D01*
X136276942Y-89324986D01*
X136231713Y-89215793D01*
X136166050Y-89117522D01*
X136082478Y-89033950D01*
X135984207Y-88968287D01*
X135875014Y-88923058D01*
X135759095Y-88900000D01*
X135736395Y-88900000D01*
X135533828Y-88697433D01*
X135519737Y-88680263D01*
X135451216Y-88624029D01*
X135373041Y-88582243D01*
X135288215Y-88556511D01*
X135222105Y-88550000D01*
X135222094Y-88550000D01*
X135200000Y-88547824D01*
X135177906Y-88550000D01*
X130698528Y-88550000D01*
X130682478Y-88533950D01*
X130584207Y-88468287D01*
X130475014Y-88423058D01*
X130359095Y-88400000D01*
X130240905Y-88400000D01*
X130124986Y-88423058D01*
X130015793Y-88468287D01*
X129917522Y-88533950D01*
X129833950Y-88617522D01*
X129768287Y-88715793D01*
X129723058Y-88824986D01*
X129700000Y-88940905D01*
X123107623Y-88940905D01*
X123166050Y-88882478D01*
X123231713Y-88784207D01*
X123276942Y-88675014D01*
X123300000Y-88559095D01*
X123300000Y-88440905D01*
X123276942Y-88324986D01*
X123231713Y-88215793D01*
X123166050Y-88117522D01*
X123082478Y-88033950D01*
X122984207Y-87968287D01*
X122875014Y-87923058D01*
X122759095Y-87900000D01*
X122640905Y-87900000D01*
X122524986Y-87923058D01*
X122415793Y-87968287D01*
X122317522Y-88033950D01*
X122233950Y-88117522D01*
X122168287Y-88215793D01*
X122123058Y-88324986D01*
X122100000Y-88440905D01*
X116574788Y-88440905D01*
X116548414Y-88414531D01*
X116446048Y-88346132D01*
X116332306Y-88299019D01*
X116211557Y-88275000D01*
X116088443Y-88275000D01*
X115967694Y-88299019D01*
X115853952Y-88346132D01*
X115751586Y-88414531D01*
X115664531Y-88501586D01*
X115596132Y-88603952D01*
X115549019Y-88717694D01*
X115525000Y-88838443D01*
X111325000Y-88838443D01*
X111325000Y-84690905D01*
X121650000Y-84690905D01*
X121650000Y-84809095D01*
X121673058Y-84925014D01*
X121718287Y-85034207D01*
X121783950Y-85132478D01*
X121850000Y-85198528D01*
X121850001Y-86301471D01*
X121783950Y-86367522D01*
X121718287Y-86465793D01*
X121673058Y-86574986D01*
X121650000Y-86690905D01*
X121650000Y-86809095D01*
X121673058Y-86925014D01*
X121718287Y-87034207D01*
X121783950Y-87132478D01*
X121867522Y-87216050D01*
X121965793Y-87281713D01*
X122074986Y-87326942D01*
X122190905Y-87350000D01*
X122309095Y-87350000D01*
X122425014Y-87326942D01*
X122534207Y-87281713D01*
X122632478Y-87216050D01*
X122716050Y-87132478D01*
X122781713Y-87034207D01*
X122826942Y-86925014D01*
X122850000Y-86809095D01*
X122850000Y-86690905D01*
X122826942Y-86574986D01*
X122781713Y-86465793D01*
X122716050Y-86367522D01*
X122650000Y-86301472D01*
X122650000Y-85198528D01*
X122716050Y-85132478D01*
X122781713Y-85034207D01*
X122826942Y-84925014D01*
X122850000Y-84809095D01*
X122850000Y-84690905D01*
X122826942Y-84574986D01*
X122781713Y-84465793D01*
X122716050Y-84367522D01*
X122632478Y-84283950D01*
X122534207Y-84218287D01*
X122425014Y-84173058D01*
X122309095Y-84150000D01*
X122190905Y-84150000D01*
X122074986Y-84173058D01*
X121965793Y-84218287D01*
X121867522Y-84283950D01*
X121783950Y-84367522D01*
X121718287Y-84465793D01*
X121673058Y-84574986D01*
X121650000Y-84690905D01*
X111325000Y-84690905D01*
X111325000Y-83038443D01*
X115525000Y-83038443D01*
X115525000Y-83161557D01*
X115549019Y-83282306D01*
X115596132Y-83396048D01*
X115664531Y-83498414D01*
X115751586Y-83585469D01*
X115853952Y-83653868D01*
X115967694Y-83700981D01*
X116088443Y-83725000D01*
X116211557Y-83725000D01*
X116332306Y-83700981D01*
X116446048Y-83653868D01*
X116548414Y-83585469D01*
X116635469Y-83498414D01*
X116703868Y-83396048D01*
X116750981Y-83282306D01*
X116775000Y-83161557D01*
X116775000Y-83038443D01*
X116750981Y-82917694D01*
X116703868Y-82803952D01*
X116635469Y-82701586D01*
X116548414Y-82614531D01*
X116446048Y-82546132D01*
X116332306Y-82499019D01*
X116211557Y-82475000D01*
X116088443Y-82475000D01*
X115967694Y-82499019D01*
X115853952Y-82546132D01*
X115751586Y-82614531D01*
X115664531Y-82701586D01*
X115596132Y-82803952D01*
X115549019Y-82917694D01*
X115525000Y-83038443D01*
X111325000Y-83038443D01*
X111325000Y-81679999D01*
X111398549Y-81679999D01*
X111398549Y-81680001D01*
X111413949Y-81836356D01*
X111459556Y-81986703D01*
X111533618Y-82125263D01*
X111633289Y-82246712D01*
X111754738Y-82346383D01*
X111893298Y-82420445D01*
X112043645Y-82466052D01*
X112200000Y-82481452D01*
X112800000Y-82481452D01*
X112956355Y-82466052D01*
X113106702Y-82420445D01*
X113245262Y-82346383D01*
X113366711Y-82246712D01*
X113466382Y-82125263D01*
X113540444Y-81986703D01*
X113586051Y-81836356D01*
X113601451Y-81680001D01*
X113601451Y-81679999D01*
X115578549Y-81679999D01*
X115578549Y-81680001D01*
X115593949Y-81836356D01*
X115639556Y-81986703D01*
X115713618Y-82125263D01*
X115813289Y-82246712D01*
X115934738Y-82346383D01*
X116073298Y-82420445D01*
X116223645Y-82466052D01*
X116380000Y-82481452D01*
X116980000Y-82481452D01*
X117136355Y-82466052D01*
X117286702Y-82420445D01*
X117425262Y-82346383D01*
X117546711Y-82246712D01*
X117646382Y-82125263D01*
X117720444Y-81986703D01*
X117764671Y-81840905D01*
X130900000Y-81840905D01*
X130900000Y-81959095D01*
X130923058Y-82075014D01*
X130968287Y-82184207D01*
X131033950Y-82282478D01*
X131117522Y-82366050D01*
X131215793Y-82431713D01*
X131324986Y-82476942D01*
X131440905Y-82500000D01*
X131559095Y-82500000D01*
X131675014Y-82476942D01*
X131784207Y-82431713D01*
X131882478Y-82366050D01*
X131898528Y-82350000D01*
X134077906Y-82350000D01*
X134100000Y-82352176D01*
X134122094Y-82350000D01*
X134122105Y-82350000D01*
X134188215Y-82343489D01*
X134273041Y-82317757D01*
X134351216Y-82275971D01*
X134419737Y-82219737D01*
X134433828Y-82202567D01*
X134434283Y-82202113D01*
X134468287Y-82284207D01*
X134533950Y-82382478D01*
X134550000Y-82398528D01*
X134550001Y-83727896D01*
X134547824Y-83750000D01*
X134556512Y-83838215D01*
X134582243Y-83923040D01*
X134624029Y-84001216D01*
X134650000Y-84032862D01*
X134650000Y-84059095D01*
X134673058Y-84175014D01*
X134718287Y-84284207D01*
X134783950Y-84382478D01*
X134867522Y-84466050D01*
X134965793Y-84531713D01*
X135074986Y-84576942D01*
X135190905Y-84600000D01*
X135309095Y-84600000D01*
X135425014Y-84576942D01*
X135534207Y-84531713D01*
X135632478Y-84466050D01*
X135716050Y-84382478D01*
X135781713Y-84284207D01*
X135826942Y-84175014D01*
X135850000Y-84059095D01*
X135850000Y-83940905D01*
X135826942Y-83824986D01*
X135781713Y-83715793D01*
X135716050Y-83617522D01*
X135632478Y-83533950D01*
X135534207Y-83468287D01*
X135450000Y-83433407D01*
X135450000Y-82398528D01*
X135466050Y-82382478D01*
X135531713Y-82284207D01*
X135576942Y-82175014D01*
X135600000Y-82059095D01*
X135600000Y-81940905D01*
X135577428Y-81827428D01*
X135690905Y-81850000D01*
X135809095Y-81850000D01*
X135925014Y-81826942D01*
X136034207Y-81781713D01*
X136132478Y-81716050D01*
X136216050Y-81632478D01*
X136281713Y-81534207D01*
X136326942Y-81425014D01*
X136350000Y-81309095D01*
X136350000Y-81190905D01*
X136326942Y-81074986D01*
X136281713Y-80965793D01*
X136216050Y-80867522D01*
X136132478Y-80783950D01*
X136034207Y-80718287D01*
X135925014Y-80673058D01*
X135809095Y-80650000D01*
X135690905Y-80650000D01*
X135574986Y-80673058D01*
X135465793Y-80718287D01*
X135367522Y-80783950D01*
X135351472Y-80800000D01*
X134772094Y-80800000D01*
X134750000Y-80797824D01*
X134727906Y-80800000D01*
X134727895Y-80800000D01*
X134661785Y-80806511D01*
X134576959Y-80832243D01*
X134498783Y-80874029D01*
X134447432Y-80916172D01*
X134447428Y-80916176D01*
X134430263Y-80930263D01*
X134416176Y-80947428D01*
X133913605Y-81450000D01*
X131898528Y-81450000D01*
X131882478Y-81433950D01*
X131784207Y-81368287D01*
X131675014Y-81323058D01*
X131559095Y-81300000D01*
X131440905Y-81300000D01*
X131324986Y-81323058D01*
X131215793Y-81368287D01*
X131117522Y-81433950D01*
X131033950Y-81517522D01*
X130968287Y-81615793D01*
X130923058Y-81724986D01*
X130900000Y-81840905D01*
X117764671Y-81840905D01*
X117766051Y-81836356D01*
X117781451Y-81680001D01*
X117781451Y-81679999D01*
X117766051Y-81523644D01*
X117720444Y-81373297D01*
X117646382Y-81234737D01*
X117546711Y-81113288D01*
X117425262Y-81013617D01*
X117286702Y-80939555D01*
X117136355Y-80893948D01*
X116980000Y-80878548D01*
X116380000Y-80878548D01*
X116223645Y-80893948D01*
X116073298Y-80939555D01*
X115934738Y-81013617D01*
X115813289Y-81113288D01*
X115713618Y-81234737D01*
X115639556Y-81373297D01*
X115593949Y-81523644D01*
X115578549Y-81679999D01*
X113601451Y-81679999D01*
X113586051Y-81523644D01*
X113540444Y-81373297D01*
X113466382Y-81234737D01*
X113366711Y-81113288D01*
X113245262Y-81013617D01*
X113106702Y-80939555D01*
X112956355Y-80893948D01*
X112800000Y-80878548D01*
X112200000Y-80878548D01*
X112043645Y-80893948D01*
X111893298Y-80939555D01*
X111754738Y-81013617D01*
X111633289Y-81113288D01*
X111533618Y-81234737D01*
X111459556Y-81373297D01*
X111413949Y-81523644D01*
X111398549Y-81679999D01*
X111325000Y-81679999D01*
X111325000Y-79431957D01*
X132647018Y-79431957D01*
X132647018Y-79550147D01*
X132670076Y-79666066D01*
X132715305Y-79775259D01*
X132780968Y-79873530D01*
X132864540Y-79957102D01*
X132948617Y-80013281D01*
X132923058Y-80074986D01*
X132900000Y-80190905D01*
X132900000Y-80309095D01*
X132923058Y-80425014D01*
X132968287Y-80534207D01*
X133033950Y-80632478D01*
X133117522Y-80716050D01*
X133215793Y-80781713D01*
X133324986Y-80826942D01*
X133440905Y-80850000D01*
X133559095Y-80850000D01*
X133675014Y-80826942D01*
X133784207Y-80781713D01*
X133882478Y-80716050D01*
X133966050Y-80632478D01*
X134031713Y-80534207D01*
X134076942Y-80425014D01*
X134100000Y-80309095D01*
X134100000Y-80286395D01*
X134586397Y-79799999D01*
X136383405Y-79799999D01*
X136373055Y-79824986D01*
X136349997Y-79940905D01*
X136349997Y-80059095D01*
X136373055Y-80175014D01*
X136418284Y-80284207D01*
X136483947Y-80382478D01*
X136499998Y-80398529D01*
X136499997Y-81497024D01*
X136497821Y-81519119D01*
X136499997Y-81541213D01*
X136499997Y-81541223D01*
X136506508Y-81607333D01*
X136524320Y-81666050D01*
X136532240Y-81692159D01*
X136574026Y-81770335D01*
X136616169Y-81821686D01*
X136630260Y-81838856D01*
X136647430Y-81852948D01*
X137299981Y-82505499D01*
X137299980Y-83022104D01*
X137299981Y-83022114D01*
X137299980Y-84063624D01*
X137226104Y-84137501D01*
X136822093Y-84137501D01*
X136799999Y-84135325D01*
X136777905Y-84137501D01*
X136777894Y-84137501D01*
X136711784Y-84144012D01*
X136633508Y-84167757D01*
X136626958Y-84169744D01*
X136548782Y-84211530D01*
X136514131Y-84239968D01*
X136480262Y-84267764D01*
X136466171Y-84284934D01*
X136463605Y-84287500D01*
X136440905Y-84287500D01*
X136324986Y-84310558D01*
X136215793Y-84355787D01*
X136117522Y-84421450D01*
X136033950Y-84505022D01*
X135968287Y-84603293D01*
X135923058Y-84712486D01*
X135900000Y-84828405D01*
X135900000Y-84946595D01*
X135923058Y-85062514D01*
X135968287Y-85171707D01*
X136033950Y-85269978D01*
X136117522Y-85353550D01*
X136215793Y-85419213D01*
X136324986Y-85464442D01*
X136440905Y-85487500D01*
X136559095Y-85487500D01*
X136675014Y-85464442D01*
X136784207Y-85419213D01*
X136882478Y-85353550D01*
X136966050Y-85269978D01*
X137031713Y-85171707D01*
X137076942Y-85062514D01*
X137081917Y-85037501D01*
X137390405Y-85037501D01*
X137412499Y-85039677D01*
X137434593Y-85037501D01*
X137434604Y-85037501D01*
X137500714Y-85030990D01*
X137509563Y-85028306D01*
X136805413Y-85732456D01*
X136784207Y-85718287D01*
X136675014Y-85673058D01*
X136559095Y-85650000D01*
X136440905Y-85650000D01*
X136324986Y-85673058D01*
X136215793Y-85718287D01*
X136117522Y-85783950D01*
X136033950Y-85867522D01*
X135968287Y-85965793D01*
X135923058Y-86074986D01*
X135900000Y-86190905D01*
X135900000Y-86309095D01*
X135923058Y-86425014D01*
X135968287Y-86534207D01*
X136033950Y-86632478D01*
X136117522Y-86716050D01*
X136215793Y-86781713D01*
X136324986Y-86826942D01*
X136440905Y-86850000D01*
X136559095Y-86850000D01*
X136675014Y-86826942D01*
X136784207Y-86781713D01*
X136882478Y-86716050D01*
X136898528Y-86700000D01*
X136902170Y-86700000D01*
X136924264Y-86702176D01*
X136946358Y-86700000D01*
X136946369Y-86700000D01*
X137012479Y-86693489D01*
X137097305Y-86667757D01*
X137175480Y-86625971D01*
X137244001Y-86569737D01*
X137258093Y-86552566D01*
X138300000Y-85510660D01*
X138300000Y-85813604D01*
X137813605Y-86300000D01*
X137790905Y-86300000D01*
X137674986Y-86323058D01*
X137565793Y-86368287D01*
X137467522Y-86433950D01*
X137383950Y-86517522D01*
X137318287Y-86615793D01*
X137273058Y-86724986D01*
X137250000Y-86840905D01*
X137250000Y-86959095D01*
X137273058Y-87075014D01*
X137318287Y-87184207D01*
X137383950Y-87282478D01*
X137467522Y-87366050D01*
X137565793Y-87431713D01*
X137674986Y-87476942D01*
X137790905Y-87500000D01*
X137909095Y-87500000D01*
X138025014Y-87476942D01*
X138134207Y-87431713D01*
X138232478Y-87366050D01*
X138316050Y-87282478D01*
X138381713Y-87184207D01*
X138426942Y-87075014D01*
X138450000Y-86959095D01*
X138450000Y-86936395D01*
X139052573Y-86333823D01*
X139069737Y-86319737D01*
X139083824Y-86302572D01*
X139083828Y-86302568D01*
X139125971Y-86251217D01*
X139167757Y-86173041D01*
X139170441Y-86164194D01*
X139193489Y-86088215D01*
X139200000Y-86022105D01*
X139200000Y-86022095D01*
X139202176Y-86000001D01*
X139200000Y-85977907D01*
X139200000Y-85336395D01*
X140766176Y-86902572D01*
X140780263Y-86919737D01*
X140797428Y-86933824D01*
X140797432Y-86933828D01*
X140848783Y-86975971D01*
X140888936Y-86997433D01*
X140926959Y-87017757D01*
X141011785Y-87043489D01*
X141077895Y-87050000D01*
X141077905Y-87050000D01*
X141099999Y-87052176D01*
X141122094Y-87050000D01*
X142201472Y-87050000D01*
X142217522Y-87066050D01*
X142315793Y-87131713D01*
X142424986Y-87176942D01*
X142540905Y-87200000D01*
X142659095Y-87200000D01*
X142775014Y-87176942D01*
X142884207Y-87131713D01*
X142982478Y-87066050D01*
X143066050Y-86982478D01*
X143131713Y-86884207D01*
X143176942Y-86775014D01*
X143200000Y-86659095D01*
X143200000Y-86540905D01*
X143176942Y-86424986D01*
X143131713Y-86315793D01*
X143066050Y-86217522D01*
X142982478Y-86133950D01*
X142884207Y-86068287D01*
X142820440Y-86041874D01*
X142848056Y-86023421D01*
X142931628Y-85939849D01*
X142997291Y-85841578D01*
X143042520Y-85732385D01*
X143065578Y-85616466D01*
X143065578Y-85498276D01*
X143042520Y-85382357D01*
X142997291Y-85273164D01*
X142931628Y-85174893D01*
X142848056Y-85091321D01*
X142749785Y-85025658D01*
X142640592Y-84980429D01*
X142524673Y-84957371D01*
X142406483Y-84957371D01*
X142290564Y-84980429D01*
X142181371Y-85025658D01*
X142083100Y-85091321D01*
X142067050Y-85107371D01*
X140993767Y-85107371D01*
X140200000Y-84313605D01*
X140200000Y-83214429D01*
X143248691Y-83214429D01*
X143248691Y-83332619D01*
X143271749Y-83448538D01*
X143316978Y-83557731D01*
X143344971Y-83599626D01*
X143332242Y-83623440D01*
X143306510Y-83708266D01*
X143299999Y-83774376D01*
X143299999Y-83774386D01*
X143297823Y-83796480D01*
X143299999Y-83818574D01*
X143300000Y-87927895D01*
X143297823Y-87949999D01*
X143306511Y-88038214D01*
X143332242Y-88123039D01*
X143374028Y-88201215D01*
X143416171Y-88252566D01*
X143416176Y-88252571D01*
X143430263Y-88269736D01*
X143447428Y-88283823D01*
X143812792Y-88649187D01*
X143768287Y-88715793D01*
X143723058Y-88824986D01*
X143700000Y-88940905D01*
X143700000Y-89059095D01*
X143723058Y-89175014D01*
X143768287Y-89284207D01*
X143833950Y-89382478D01*
X143917522Y-89466050D01*
X144015793Y-89531713D01*
X144124986Y-89576942D01*
X144240905Y-89600000D01*
X144359095Y-89600000D01*
X144475014Y-89576942D01*
X144584207Y-89531713D01*
X144682478Y-89466050D01*
X144717438Y-89431090D01*
X155292097Y-89431090D01*
X155403111Y-89656000D01*
X156546000Y-89656000D01*
X156546000Y-89636000D01*
X156854000Y-89636000D01*
X156854000Y-89656000D01*
X157996889Y-89656000D01*
X158107903Y-89431090D01*
X158081146Y-89342861D01*
X157963473Y-89082389D01*
X157797246Y-88849878D01*
X157588852Y-88654264D01*
X157346300Y-88503065D01*
X157078911Y-88402091D01*
X156854002Y-88512149D01*
X156854002Y-88411897D01*
X157035443Y-88375806D01*
X157244729Y-88289116D01*
X157433082Y-88163263D01*
X157593263Y-88003082D01*
X157719116Y-87814729D01*
X157805806Y-87605443D01*
X157850000Y-87383265D01*
X157850000Y-87156735D01*
X157805806Y-86934557D01*
X157719116Y-86725271D01*
X157593263Y-86536918D01*
X157433082Y-86376737D01*
X157244729Y-86250884D01*
X157035443Y-86164194D01*
X156813265Y-86120000D01*
X156586735Y-86120000D01*
X156364557Y-86164194D01*
X156155271Y-86250884D01*
X155966918Y-86376737D01*
X155806737Y-86536918D01*
X155680884Y-86725271D01*
X155594194Y-86934557D01*
X155550000Y-87156735D01*
X155550000Y-87383265D01*
X155594194Y-87605443D01*
X155680884Y-87814729D01*
X155806737Y-88003082D01*
X155966918Y-88163263D01*
X156155271Y-88289116D01*
X156364557Y-88375806D01*
X156545998Y-88411897D01*
X156545998Y-88512149D01*
X156321089Y-88402091D01*
X156053700Y-88503065D01*
X155811148Y-88654264D01*
X155602754Y-88849878D01*
X155436527Y-89082389D01*
X155318854Y-89342861D01*
X155292097Y-89431090D01*
X144717438Y-89431090D01*
X144766050Y-89382478D01*
X144831713Y-89284207D01*
X144876942Y-89175014D01*
X144900000Y-89059095D01*
X144900000Y-88940905D01*
X144876942Y-88824986D01*
X144831713Y-88715793D01*
X144766050Y-88617522D01*
X144750000Y-88601472D01*
X144750000Y-88522094D01*
X144752176Y-88500000D01*
X144750000Y-88477905D01*
X144750000Y-88477895D01*
X144743489Y-88411785D01*
X144717757Y-88326959D01*
X144689984Y-88275000D01*
X144675971Y-88248783D01*
X144633828Y-88197432D01*
X144633824Y-88197428D01*
X144619737Y-88180263D01*
X144602573Y-88166177D01*
X144335276Y-87898880D01*
X144340905Y-87900000D01*
X144459095Y-87900000D01*
X144575014Y-87876942D01*
X144684207Y-87831713D01*
X144782478Y-87766050D01*
X144866050Y-87682478D01*
X144931713Y-87584207D01*
X144976942Y-87475014D01*
X145000000Y-87359095D01*
X145000000Y-87240905D01*
X144999752Y-87239660D01*
X145003109Y-87228595D01*
X145009620Y-87162485D01*
X145009620Y-87162474D01*
X145011796Y-87140380D01*
X145009620Y-87118286D01*
X145009620Y-84616735D01*
X155550000Y-84616735D01*
X155550000Y-84843265D01*
X155594194Y-85065443D01*
X155680884Y-85274729D01*
X155806737Y-85463082D01*
X155966918Y-85623263D01*
X156155271Y-85749116D01*
X156364557Y-85835806D01*
X156586735Y-85880000D01*
X156813265Y-85880000D01*
X157035443Y-85835806D01*
X157244729Y-85749116D01*
X157433082Y-85623263D01*
X157593263Y-85463082D01*
X157719116Y-85274729D01*
X157805806Y-85065443D01*
X157850000Y-84843265D01*
X157850000Y-84616735D01*
X157805806Y-84394557D01*
X157719116Y-84185271D01*
X157593263Y-83996918D01*
X157433082Y-83836737D01*
X157244729Y-83710884D01*
X157035443Y-83624194D01*
X156813265Y-83580000D01*
X156586735Y-83580000D01*
X156364557Y-83624194D01*
X156155271Y-83710884D01*
X155966918Y-83836737D01*
X155806737Y-83996918D01*
X155680884Y-84185271D01*
X155594194Y-84394557D01*
X155550000Y-84616735D01*
X145009620Y-84616735D01*
X145009620Y-84038908D01*
X145025670Y-84022858D01*
X145091333Y-83924587D01*
X145136562Y-83815394D01*
X145159620Y-83699475D01*
X145159620Y-83581285D01*
X145136562Y-83465366D01*
X145091333Y-83356173D01*
X145025670Y-83257902D01*
X144942098Y-83174330D01*
X144843827Y-83108667D01*
X144734634Y-83063438D01*
X144618715Y-83040380D01*
X144500525Y-83040380D01*
X144409089Y-83058568D01*
X144380404Y-82989317D01*
X144314741Y-82891046D01*
X144231169Y-82807474D01*
X144132898Y-82741811D01*
X144023705Y-82696582D01*
X143907786Y-82673524D01*
X143789596Y-82673524D01*
X143673677Y-82696582D01*
X143564484Y-82741811D01*
X143466213Y-82807474D01*
X143382641Y-82891046D01*
X143316978Y-82989317D01*
X143271749Y-83098510D01*
X143248691Y-83214429D01*
X140200000Y-83214429D01*
X140200000Y-82076735D01*
X155550000Y-82076735D01*
X155550000Y-82303265D01*
X155594194Y-82525443D01*
X155680884Y-82734729D01*
X155806737Y-82923082D01*
X155966918Y-83083263D01*
X156155271Y-83209116D01*
X156364557Y-83295806D01*
X156586735Y-83340000D01*
X156813265Y-83340000D01*
X157035443Y-83295806D01*
X157244729Y-83209116D01*
X157433082Y-83083263D01*
X157593263Y-82923082D01*
X157719116Y-82734729D01*
X157805806Y-82525443D01*
X157850000Y-82303265D01*
X157850000Y-82076735D01*
X157805806Y-81854557D01*
X157719116Y-81645271D01*
X157593263Y-81456918D01*
X157433082Y-81296737D01*
X157244729Y-81170884D01*
X157035443Y-81084194D01*
X156813265Y-81040000D01*
X156586735Y-81040000D01*
X156364557Y-81084194D01*
X156155271Y-81170884D01*
X155966918Y-81296737D01*
X155806737Y-81456918D01*
X155680884Y-81645271D01*
X155594194Y-81854557D01*
X155550000Y-82076735D01*
X140200000Y-82076735D01*
X140200000Y-80352969D01*
X140202176Y-80330877D01*
X140200000Y-80308785D01*
X140200000Y-80308773D01*
X140193489Y-80242663D01*
X140167757Y-80157837D01*
X140133907Y-80094509D01*
X140125971Y-80079661D01*
X140083828Y-80028310D01*
X140083824Y-80028306D01*
X140069737Y-80011141D01*
X140052573Y-79997055D01*
X138855518Y-78800000D01*
X155548549Y-78800000D01*
X155548549Y-80500000D01*
X155554341Y-80558810D01*
X155571496Y-80615360D01*
X155599353Y-80667477D01*
X155636842Y-80713158D01*
X155682523Y-80750647D01*
X155734640Y-80778504D01*
X155791190Y-80795659D01*
X155850000Y-80801451D01*
X157550000Y-80801451D01*
X157608810Y-80795659D01*
X157665360Y-80778504D01*
X157717477Y-80750647D01*
X157763158Y-80713158D01*
X157800647Y-80667477D01*
X157828504Y-80615360D01*
X157845659Y-80558810D01*
X157851451Y-80500000D01*
X157851451Y-78800000D01*
X157845659Y-78741190D01*
X157828504Y-78684640D01*
X157800647Y-78632523D01*
X157763158Y-78586842D01*
X157717477Y-78549353D01*
X157665360Y-78521496D01*
X157608810Y-78504341D01*
X157550000Y-78498549D01*
X155850000Y-78498549D01*
X155791190Y-78504341D01*
X155734640Y-78521496D01*
X155682523Y-78549353D01*
X155636842Y-78586842D01*
X155599353Y-78632523D01*
X155571496Y-78684640D01*
X155554341Y-78741190D01*
X155548549Y-78800000D01*
X138855518Y-78800000D01*
X138602940Y-78547423D01*
X138588848Y-78530252D01*
X138520327Y-78474018D01*
X138442152Y-78432232D01*
X138357326Y-78406500D01*
X138291216Y-78399989D01*
X138291205Y-78399989D01*
X138269111Y-78397813D01*
X138247017Y-78399989D01*
X133910175Y-78399989D01*
X133888081Y-78397813D01*
X133865986Y-78399989D01*
X133865976Y-78399989D01*
X133799866Y-78406500D01*
X133715040Y-78432232D01*
X133636864Y-78474018D01*
X133585513Y-78516161D01*
X133585509Y-78516165D01*
X133568344Y-78530252D01*
X133554257Y-78547417D01*
X133210623Y-78891052D01*
X133187923Y-78891052D01*
X133072004Y-78914110D01*
X132962811Y-78959339D01*
X132864540Y-79025002D01*
X132780968Y-79108574D01*
X132715305Y-79206845D01*
X132670076Y-79316038D01*
X132647018Y-79431957D01*
X111325000Y-79431957D01*
X111325000Y-77206911D01*
X113010878Y-77206911D01*
X113291146Y-77614036D01*
X113833954Y-77897189D01*
X114421573Y-78069005D01*
X115031420Y-78122881D01*
X115640060Y-78056746D01*
X116224102Y-77873142D01*
X116708854Y-77614036D01*
X116989122Y-77206911D01*
X155010878Y-77206911D01*
X155291146Y-77614036D01*
X155833954Y-77897189D01*
X156421573Y-78069005D01*
X157031420Y-78122881D01*
X157640060Y-78056746D01*
X158224102Y-77873142D01*
X158708854Y-77614036D01*
X158989122Y-77206911D01*
X157000000Y-75217789D01*
X155010878Y-77206911D01*
X116989122Y-77206911D01*
X115000000Y-75217789D01*
X113010878Y-77206911D01*
X111325000Y-77206911D01*
X111325000Y-75031420D01*
X111877119Y-75031420D01*
X111943254Y-75640060D01*
X112126858Y-76224102D01*
X112385964Y-76708854D01*
X112793089Y-76989122D01*
X114782211Y-75000000D01*
X115217789Y-75000000D01*
X117206911Y-76989122D01*
X117614036Y-76708854D01*
X117897189Y-76166046D01*
X118069005Y-75578427D01*
X118117329Y-75031420D01*
X153877119Y-75031420D01*
X153943254Y-75640060D01*
X154126858Y-76224102D01*
X154385964Y-76708854D01*
X154793089Y-76989122D01*
X156782211Y-75000000D01*
X157217789Y-75000000D01*
X159206911Y-76989122D01*
X159614036Y-76708854D01*
X159897189Y-76166046D01*
X160069005Y-75578427D01*
X160122881Y-74968580D01*
X160056746Y-74359940D01*
X159873142Y-73775898D01*
X159614036Y-73291146D01*
X159206911Y-73010878D01*
X157217789Y-75000000D01*
X156782211Y-75000000D01*
X154793089Y-73010878D01*
X154385964Y-73291146D01*
X154102811Y-73833954D01*
X153930995Y-74421573D01*
X153877119Y-75031420D01*
X118117329Y-75031420D01*
X118122881Y-74968580D01*
X118056746Y-74359940D01*
X117873142Y-73775898D01*
X117614036Y-73291146D01*
X117206911Y-73010878D01*
X115217789Y-75000000D01*
X114782211Y-75000000D01*
X112793089Y-73010878D01*
X112385964Y-73291146D01*
X112102811Y-73833954D01*
X111930995Y-74421573D01*
X111877119Y-75031420D01*
X111325000Y-75031420D01*
X111325000Y-73015897D01*
X111346846Y-72793089D01*
X113010878Y-72793089D01*
X115000000Y-74782211D01*
X116989122Y-72793089D01*
X116708854Y-72385964D01*
X116256508Y-72150000D01*
X120848549Y-72150000D01*
X120848549Y-73850000D01*
X120854341Y-73908810D01*
X120871496Y-73965360D01*
X120899353Y-74017477D01*
X120936842Y-74063158D01*
X120982523Y-74100647D01*
X121034640Y-74128504D01*
X121091190Y-74145659D01*
X121150000Y-74151451D01*
X122850000Y-74151451D01*
X122908810Y-74145659D01*
X122965360Y-74128504D01*
X123017477Y-74100647D01*
X123063158Y-74063158D01*
X123100647Y-74017477D01*
X123128504Y-73965360D01*
X123145659Y-73908810D01*
X123151451Y-73850000D01*
X123151451Y-72886735D01*
X123390000Y-72886735D01*
X123390000Y-73113265D01*
X123434194Y-73335443D01*
X123520884Y-73544729D01*
X123646737Y-73733082D01*
X123806918Y-73893263D01*
X123995271Y-74019116D01*
X124204557Y-74105806D01*
X124426735Y-74150000D01*
X124653265Y-74150000D01*
X124875443Y-74105806D01*
X125084729Y-74019116D01*
X125273082Y-73893263D01*
X125433263Y-73733082D01*
X125559116Y-73544729D01*
X125645806Y-73335443D01*
X125690000Y-73113265D01*
X125690000Y-72886735D01*
X125930000Y-72886735D01*
X125930000Y-73113265D01*
X125974194Y-73335443D01*
X126060884Y-73544729D01*
X126186737Y-73733082D01*
X126346918Y-73893263D01*
X126535271Y-74019116D01*
X126744557Y-74105806D01*
X126966735Y-74150000D01*
X127193265Y-74150000D01*
X127415443Y-74105806D01*
X127624729Y-74019116D01*
X127813082Y-73893263D01*
X127973263Y-73733082D01*
X128099116Y-73544729D01*
X128185806Y-73335443D01*
X128230000Y-73113265D01*
X128230000Y-72886735D01*
X128470000Y-72886735D01*
X128470000Y-73113265D01*
X128514194Y-73335443D01*
X128600884Y-73544729D01*
X128726737Y-73733082D01*
X128886918Y-73893263D01*
X129075271Y-74019116D01*
X129284557Y-74105806D01*
X129506735Y-74150000D01*
X129733265Y-74150000D01*
X129955443Y-74105806D01*
X130164729Y-74019116D01*
X130353082Y-73893263D01*
X130513263Y-73733082D01*
X130639116Y-73544729D01*
X130725806Y-73335443D01*
X130770000Y-73113265D01*
X130770000Y-72886735D01*
X131010000Y-72886735D01*
X131010000Y-73113265D01*
X131054194Y-73335443D01*
X131140884Y-73544729D01*
X131266737Y-73733082D01*
X131426918Y-73893263D01*
X131615271Y-74019116D01*
X131824557Y-74105806D01*
X132046735Y-74150000D01*
X132273265Y-74150000D01*
X132495443Y-74105806D01*
X132704729Y-74019116D01*
X132893082Y-73893263D01*
X133053263Y-73733082D01*
X133179116Y-73544729D01*
X133265806Y-73335443D01*
X133310000Y-73113265D01*
X133310000Y-72886735D01*
X133550000Y-72886735D01*
X133550000Y-73113265D01*
X133594194Y-73335443D01*
X133680884Y-73544729D01*
X133806737Y-73733082D01*
X133966918Y-73893263D01*
X134155271Y-74019116D01*
X134364557Y-74105806D01*
X134586735Y-74150000D01*
X134813265Y-74150000D01*
X135035443Y-74105806D01*
X135244729Y-74019116D01*
X135433082Y-73893263D01*
X135593263Y-73733082D01*
X135719116Y-73544729D01*
X135805806Y-73335443D01*
X135850000Y-73113265D01*
X135850000Y-72886735D01*
X136090000Y-72886735D01*
X136090000Y-73113265D01*
X136134194Y-73335443D01*
X136220884Y-73544729D01*
X136346737Y-73733082D01*
X136506918Y-73893263D01*
X136695271Y-74019116D01*
X136904557Y-74105806D01*
X137126735Y-74150000D01*
X137353265Y-74150000D01*
X137575443Y-74105806D01*
X137784729Y-74019116D01*
X137973082Y-73893263D01*
X138133263Y-73733082D01*
X138259116Y-73544729D01*
X138345806Y-73335443D01*
X138390000Y-73113265D01*
X138390000Y-72886735D01*
X138630000Y-72886735D01*
X138630000Y-73113265D01*
X138674194Y-73335443D01*
X138760884Y-73544729D01*
X138886737Y-73733082D01*
X139046918Y-73893263D01*
X139235271Y-74019116D01*
X139444557Y-74105806D01*
X139666735Y-74150000D01*
X139893265Y-74150000D01*
X140115443Y-74105806D01*
X140324729Y-74019116D01*
X140513082Y-73893263D01*
X140673263Y-73733082D01*
X140799116Y-73544729D01*
X140885806Y-73335443D01*
X140930000Y-73113265D01*
X140930000Y-72886735D01*
X140911373Y-72793089D01*
X155010878Y-72793089D01*
X157000000Y-74782211D01*
X158989122Y-72793089D01*
X158708854Y-72385964D01*
X158166046Y-72102811D01*
X157578427Y-71930995D01*
X156968580Y-71877119D01*
X156359940Y-71943254D01*
X155775898Y-72126858D01*
X155291146Y-72385964D01*
X155010878Y-72793089D01*
X140911373Y-72793089D01*
X140885806Y-72664557D01*
X140799116Y-72455271D01*
X140673263Y-72266918D01*
X140513082Y-72106737D01*
X140324729Y-71980884D01*
X140115443Y-71894194D01*
X139893265Y-71850000D01*
X139666735Y-71850000D01*
X139444557Y-71894194D01*
X139235271Y-71980884D01*
X139046918Y-72106737D01*
X138886737Y-72266918D01*
X138760884Y-72455271D01*
X138674194Y-72664557D01*
X138630000Y-72886735D01*
X138390000Y-72886735D01*
X138345806Y-72664557D01*
X138259116Y-72455271D01*
X138133263Y-72266918D01*
X137973082Y-72106737D01*
X137784729Y-71980884D01*
X137575443Y-71894194D01*
X137353265Y-71850000D01*
X137126735Y-71850000D01*
X136904557Y-71894194D01*
X136695271Y-71980884D01*
X136506918Y-72106737D01*
X136346737Y-72266918D01*
X136220884Y-72455271D01*
X136134194Y-72664557D01*
X136090000Y-72886735D01*
X135850000Y-72886735D01*
X135805806Y-72664557D01*
X135719116Y-72455271D01*
X135593263Y-72266918D01*
X135433082Y-72106737D01*
X135244729Y-71980884D01*
X135035443Y-71894194D01*
X134813265Y-71850000D01*
X134586735Y-71850000D01*
X134364557Y-71894194D01*
X134155271Y-71980884D01*
X133966918Y-72106737D01*
X133806737Y-72266918D01*
X133680884Y-72455271D01*
X133594194Y-72664557D01*
X133550000Y-72886735D01*
X133310000Y-72886735D01*
X133265806Y-72664557D01*
X133179116Y-72455271D01*
X133053263Y-72266918D01*
X132893082Y-72106737D01*
X132704729Y-71980884D01*
X132495443Y-71894194D01*
X132273265Y-71850000D01*
X132046735Y-71850000D01*
X131824557Y-71894194D01*
X131615271Y-71980884D01*
X131426918Y-72106737D01*
X131266737Y-72266918D01*
X131140884Y-72455271D01*
X131054194Y-72664557D01*
X131010000Y-72886735D01*
X130770000Y-72886735D01*
X130725806Y-72664557D01*
X130639116Y-72455271D01*
X130513263Y-72266918D01*
X130353082Y-72106737D01*
X130164729Y-71980884D01*
X129955443Y-71894194D01*
X129733265Y-71850000D01*
X129506735Y-71850000D01*
X129284557Y-71894194D01*
X129075271Y-71980884D01*
X128886918Y-72106737D01*
X128726737Y-72266918D01*
X128600884Y-72455271D01*
X128514194Y-72664557D01*
X128470000Y-72886735D01*
X128230000Y-72886735D01*
X128185806Y-72664557D01*
X128099116Y-72455271D01*
X127973263Y-72266918D01*
X127813082Y-72106737D01*
X127624729Y-71980884D01*
X127415443Y-71894194D01*
X127193265Y-71850000D01*
X126966735Y-71850000D01*
X126744557Y-71894194D01*
X126535271Y-71980884D01*
X126346918Y-72106737D01*
X126186737Y-72266918D01*
X126060884Y-72455271D01*
X125974194Y-72664557D01*
X125930000Y-72886735D01*
X125690000Y-72886735D01*
X125645806Y-72664557D01*
X125559116Y-72455271D01*
X125433263Y-72266918D01*
X125273082Y-72106737D01*
X125084729Y-71980884D01*
X124875443Y-71894194D01*
X124653265Y-71850000D01*
X124426735Y-71850000D01*
X124204557Y-71894194D01*
X123995271Y-71980884D01*
X123806918Y-72106737D01*
X123646737Y-72266918D01*
X123520884Y-72455271D01*
X123434194Y-72664557D01*
X123390000Y-72886735D01*
X123151451Y-72886735D01*
X123151451Y-72150000D01*
X123145659Y-72091190D01*
X123128504Y-72034640D01*
X123100647Y-71982523D01*
X123063158Y-71936842D01*
X123017477Y-71899353D01*
X122965360Y-71871496D01*
X122908810Y-71854341D01*
X122850000Y-71848549D01*
X121150000Y-71848549D01*
X121091190Y-71854341D01*
X121034640Y-71871496D01*
X120982523Y-71899353D01*
X120936842Y-71936842D01*
X120899353Y-71982523D01*
X120871496Y-72034640D01*
X120854341Y-72091190D01*
X120848549Y-72150000D01*
X116256508Y-72150000D01*
X116166046Y-72102811D01*
X115578427Y-71930995D01*
X114968580Y-71877119D01*
X114359940Y-71943254D01*
X113775898Y-72126858D01*
X113291146Y-72385964D01*
X113010878Y-72793089D01*
X111346846Y-72793089D01*
X111358429Y-72674960D01*
X111452827Y-72362301D01*
X111606156Y-72073932D01*
X111812578Y-71820833D01*
X112064223Y-71612655D01*
X112351518Y-71457315D01*
X112663508Y-71360739D01*
X113003540Y-71325000D01*
X158984103Y-71325000D01*
X159325040Y-71358429D01*
G04 #@! TA.AperFunction,Conductor*
D16*
G36*
X159325040Y-71358429D02*
G01*
X159637699Y-71452827D01*
X159926068Y-71606156D01*
X160179167Y-71812578D01*
X160387345Y-72064223D01*
X160542685Y-72351518D01*
X160639261Y-72663508D01*
X160675001Y-73003549D01*
X160675000Y-98984103D01*
X160641571Y-99325041D01*
X160547173Y-99637700D01*
X160393843Y-99926070D01*
X160187422Y-100179167D01*
X159935780Y-100387344D01*
X159648481Y-100542685D01*
X159336497Y-100639260D01*
X158996460Y-100675000D01*
X113015897Y-100675000D01*
X112674959Y-100641571D01*
X112362300Y-100547173D01*
X112073930Y-100393843D01*
X111820833Y-100187422D01*
X111612656Y-99935780D01*
X111457315Y-99648481D01*
X111360740Y-99336497D01*
X111347120Y-99206911D01*
X113010878Y-99206911D01*
X113291146Y-99614036D01*
X113833954Y-99897189D01*
X114421573Y-100069005D01*
X115031420Y-100122881D01*
X115640060Y-100056746D01*
X116224102Y-99873142D01*
X116708854Y-99614036D01*
X116989122Y-99206911D01*
X115000000Y-97217789D01*
X113010878Y-99206911D01*
X111347120Y-99206911D01*
X111325000Y-98996460D01*
X111325000Y-97031420D01*
X111877119Y-97031420D01*
X111943254Y-97640060D01*
X112126858Y-98224102D01*
X112385964Y-98708854D01*
X112793089Y-98989122D01*
X114782211Y-97000000D01*
X115217789Y-97000000D01*
X117206911Y-98989122D01*
X117614036Y-98708854D01*
X117897189Y-98166046D01*
X117901880Y-98150000D01*
X120728549Y-98150000D01*
X120728549Y-99850000D01*
X120734341Y-99908810D01*
X120751496Y-99965360D01*
X120779353Y-100017477D01*
X120816842Y-100063158D01*
X120862523Y-100100647D01*
X120914640Y-100128504D01*
X120971190Y-100145659D01*
X121030000Y-100151451D01*
X122730000Y-100151451D01*
X122788810Y-100145659D01*
X122845360Y-100128504D01*
X122897477Y-100100647D01*
X122943158Y-100063158D01*
X122980647Y-100017477D01*
X123008504Y-99965360D01*
X123025659Y-99908810D01*
X123031451Y-99850000D01*
X123031451Y-98886735D01*
X123270000Y-98886735D01*
X123270000Y-99113265D01*
X123314194Y-99335443D01*
X123400884Y-99544729D01*
X123526737Y-99733082D01*
X123686918Y-99893263D01*
X123875271Y-100019116D01*
X124084557Y-100105806D01*
X124306735Y-100150000D01*
X124533265Y-100150000D01*
X124755443Y-100105806D01*
X124964729Y-100019116D01*
X125153082Y-99893263D01*
X125313263Y-99733082D01*
X125439116Y-99544729D01*
X125525806Y-99335443D01*
X125561897Y-99154002D01*
X125662149Y-99154002D01*
X125552091Y-99378911D01*
X125653065Y-99646300D01*
X125804264Y-99888852D01*
X125999878Y-100097246D01*
X126232389Y-100263473D01*
X126492861Y-100381146D01*
X126581090Y-100407903D01*
X126806000Y-100296889D01*
X126806000Y-99154000D01*
X126786000Y-99154000D01*
X126786000Y-98846000D01*
X126806000Y-98846000D01*
X126806000Y-97703111D01*
X127114000Y-97703111D01*
X127114000Y-98846000D01*
X127134000Y-98846000D01*
X127134000Y-99154000D01*
X127114000Y-99154000D01*
X127114000Y-100296889D01*
X127338910Y-100407903D01*
X127427139Y-100381146D01*
X127687611Y-100263473D01*
X127920122Y-100097246D01*
X128115736Y-99888852D01*
X128266935Y-99646300D01*
X128367909Y-99378911D01*
X128257851Y-99154002D01*
X128358103Y-99154002D01*
X128394194Y-99335443D01*
X128480884Y-99544729D01*
X128606737Y-99733082D01*
X128766918Y-99893263D01*
X128955271Y-100019116D01*
X129164557Y-100105806D01*
X129386735Y-100150000D01*
X129613265Y-100150000D01*
X129835443Y-100105806D01*
X130044729Y-100019116D01*
X130233082Y-99893263D01*
X130393263Y-99733082D01*
X130519116Y-99544729D01*
X130605806Y-99335443D01*
X130650000Y-99113265D01*
X130650000Y-98886735D01*
X130890000Y-98886735D01*
X130890000Y-99113265D01*
X130934194Y-99335443D01*
X131020884Y-99544729D01*
X131146737Y-99733082D01*
X131306918Y-99893263D01*
X131495271Y-100019116D01*
X131704557Y-100105806D01*
X131926735Y-100150000D01*
X132153265Y-100150000D01*
X132375443Y-100105806D01*
X132584729Y-100019116D01*
X132773082Y-99893263D01*
X132933263Y-99733082D01*
X133059116Y-99544729D01*
X133145806Y-99335443D01*
X133190000Y-99113265D01*
X133190000Y-98886735D01*
X133430000Y-98886735D01*
X133430000Y-99113265D01*
X133474194Y-99335443D01*
X133560884Y-99544729D01*
X133686737Y-99733082D01*
X133846918Y-99893263D01*
X134035271Y-100019116D01*
X134244557Y-100105806D01*
X134466735Y-100150000D01*
X134693265Y-100150000D01*
X134915443Y-100105806D01*
X135124729Y-100019116D01*
X135313082Y-99893263D01*
X135473263Y-99733082D01*
X135599116Y-99544729D01*
X135685806Y-99335443D01*
X135730000Y-99113265D01*
X135730000Y-98886735D01*
X135970000Y-98886735D01*
X135970000Y-99113265D01*
X136014194Y-99335443D01*
X136100884Y-99544729D01*
X136226737Y-99733082D01*
X136386918Y-99893263D01*
X136575271Y-100019116D01*
X136784557Y-100105806D01*
X137006735Y-100150000D01*
X137233265Y-100150000D01*
X137455443Y-100105806D01*
X137664729Y-100019116D01*
X137853082Y-99893263D01*
X138013263Y-99733082D01*
X138139116Y-99544729D01*
X138225806Y-99335443D01*
X138261897Y-99154002D01*
X138362149Y-99154002D01*
X138252091Y-99378911D01*
X138353065Y-99646300D01*
X138504264Y-99888852D01*
X138699878Y-100097246D01*
X138932389Y-100263473D01*
X139192861Y-100381146D01*
X139281090Y-100407903D01*
X139506000Y-100296889D01*
X139506000Y-99154000D01*
X139814000Y-99154000D01*
X139814000Y-100296889D01*
X140038910Y-100407903D01*
X140127139Y-100381146D01*
X140387611Y-100263473D01*
X140620122Y-100097246D01*
X140815736Y-99888852D01*
X140966935Y-99646300D01*
X141067909Y-99378911D01*
X140983742Y-99206911D01*
X155010878Y-99206911D01*
X155291146Y-99614036D01*
X155833954Y-99897189D01*
X156421573Y-100069005D01*
X157031420Y-100122881D01*
X157640060Y-100056746D01*
X158224102Y-99873142D01*
X158708854Y-99614036D01*
X158989122Y-99206911D01*
X157000000Y-97217789D01*
X155010878Y-99206911D01*
X140983742Y-99206911D01*
X140957850Y-99154000D01*
X139814000Y-99154000D01*
X139506000Y-99154000D01*
X139486000Y-99154000D01*
X139486000Y-98846000D01*
X139506000Y-98846000D01*
X139506000Y-97703111D01*
X139814000Y-97703111D01*
X139814000Y-98846000D01*
X140957850Y-98846000D01*
X141067909Y-98621089D01*
X140966935Y-98353700D01*
X140815736Y-98111148D01*
X140620122Y-97902754D01*
X140387611Y-97736527D01*
X140127139Y-97618854D01*
X140038910Y-97592097D01*
X139814000Y-97703111D01*
X139506000Y-97703111D01*
X139281090Y-97592097D01*
X139192861Y-97618854D01*
X138932389Y-97736527D01*
X138699878Y-97902754D01*
X138504264Y-98111148D01*
X138353065Y-98353700D01*
X138252091Y-98621089D01*
X138362149Y-98845998D01*
X138261897Y-98845998D01*
X138225806Y-98664557D01*
X138139116Y-98455271D01*
X138013263Y-98266918D01*
X137853082Y-98106737D01*
X137664729Y-97980884D01*
X137455443Y-97894194D01*
X137233265Y-97850000D01*
X137006735Y-97850000D01*
X136784557Y-97894194D01*
X136575271Y-97980884D01*
X136386918Y-98106737D01*
X136226737Y-98266918D01*
X136100884Y-98455271D01*
X136014194Y-98664557D01*
X135970000Y-98886735D01*
X135730000Y-98886735D01*
X135685806Y-98664557D01*
X135599116Y-98455271D01*
X135473263Y-98266918D01*
X135313082Y-98106737D01*
X135124729Y-97980884D01*
X134915443Y-97894194D01*
X134693265Y-97850000D01*
X134466735Y-97850000D01*
X134244557Y-97894194D01*
X134035271Y-97980884D01*
X133846918Y-98106737D01*
X133686737Y-98266918D01*
X133560884Y-98455271D01*
X133474194Y-98664557D01*
X133430000Y-98886735D01*
X133190000Y-98886735D01*
X133145806Y-98664557D01*
X133059116Y-98455271D01*
X132933263Y-98266918D01*
X132773082Y-98106737D01*
X132584729Y-97980884D01*
X132375443Y-97894194D01*
X132153265Y-97850000D01*
X131926735Y-97850000D01*
X131704557Y-97894194D01*
X131495271Y-97980884D01*
X131306918Y-98106737D01*
X131146737Y-98266918D01*
X131020884Y-98455271D01*
X130934194Y-98664557D01*
X130890000Y-98886735D01*
X130650000Y-98886735D01*
X130605806Y-98664557D01*
X130519116Y-98455271D01*
X130393263Y-98266918D01*
X130233082Y-98106737D01*
X130044729Y-97980884D01*
X129835443Y-97894194D01*
X129613265Y-97850000D01*
X129386735Y-97850000D01*
X129164557Y-97894194D01*
X128955271Y-97980884D01*
X128766918Y-98106737D01*
X128606737Y-98266918D01*
X128480884Y-98455271D01*
X128394194Y-98664557D01*
X128358103Y-98845998D01*
X128257851Y-98845998D01*
X128367909Y-98621089D01*
X128266935Y-98353700D01*
X128115736Y-98111148D01*
X127920122Y-97902754D01*
X127687611Y-97736527D01*
X127427139Y-97618854D01*
X127338910Y-97592097D01*
X127114000Y-97703111D01*
X126806000Y-97703111D01*
X126581090Y-97592097D01*
X126492861Y-97618854D01*
X126232389Y-97736527D01*
X125999878Y-97902754D01*
X125804264Y-98111148D01*
X125653065Y-98353700D01*
X125552091Y-98621089D01*
X125662149Y-98845998D01*
X125561897Y-98845998D01*
X125525806Y-98664557D01*
X125439116Y-98455271D01*
X125313263Y-98266918D01*
X125153082Y-98106737D01*
X124964729Y-97980884D01*
X124755443Y-97894194D01*
X124533265Y-97850000D01*
X124306735Y-97850000D01*
X124084557Y-97894194D01*
X123875271Y-97980884D01*
X123686918Y-98106737D01*
X123526737Y-98266918D01*
X123400884Y-98455271D01*
X123314194Y-98664557D01*
X123270000Y-98886735D01*
X123031451Y-98886735D01*
X123031451Y-98150000D01*
X123025659Y-98091190D01*
X123008504Y-98034640D01*
X122980647Y-97982523D01*
X122943158Y-97936842D01*
X122897477Y-97899353D01*
X122845360Y-97871496D01*
X122788810Y-97854341D01*
X122730000Y-97848549D01*
X121030000Y-97848549D01*
X120971190Y-97854341D01*
X120914640Y-97871496D01*
X120862523Y-97899353D01*
X120816842Y-97936842D01*
X120779353Y-97982523D01*
X120751496Y-98034640D01*
X120734341Y-98091190D01*
X120728549Y-98150000D01*
X117901880Y-98150000D01*
X118069005Y-97578427D01*
X118117329Y-97031420D01*
X153877119Y-97031420D01*
X153943254Y-97640060D01*
X154126858Y-98224102D01*
X154385964Y-98708854D01*
X154793089Y-98989122D01*
X156782211Y-97000000D01*
X157217789Y-97000000D01*
X159206911Y-98989122D01*
X159614036Y-98708854D01*
X159897189Y-98166046D01*
X160069005Y-97578427D01*
X160122881Y-96968580D01*
X160056746Y-96359940D01*
X159873142Y-95775898D01*
X159614036Y-95291146D01*
X159206911Y-95010878D01*
X157217789Y-97000000D01*
X156782211Y-97000000D01*
X154793089Y-95010878D01*
X154385964Y-95291146D01*
X154102811Y-95833954D01*
X153930995Y-96421573D01*
X153877119Y-97031420D01*
X118117329Y-97031420D01*
X118122881Y-96968580D01*
X118056746Y-96359940D01*
X117873142Y-95775898D01*
X117614036Y-95291146D01*
X117206911Y-95010878D01*
X115217789Y-97000000D01*
X114782211Y-97000000D01*
X112793089Y-95010878D01*
X112385964Y-95291146D01*
X112102811Y-95833954D01*
X111930995Y-96421573D01*
X111877119Y-97031420D01*
X111325000Y-97031420D01*
X111325000Y-94793089D01*
X113010878Y-94793089D01*
X115000000Y-96782211D01*
X116989122Y-94793089D01*
X155010878Y-94793089D01*
X157000000Y-96782211D01*
X158989122Y-94793089D01*
X158708854Y-94385964D01*
X158166046Y-94102811D01*
X157578427Y-93930995D01*
X156968580Y-93877119D01*
X156359940Y-93943254D01*
X155775898Y-94126858D01*
X155291146Y-94385964D01*
X155010878Y-94793089D01*
X116989122Y-94793089D01*
X116708854Y-94385964D01*
X116166046Y-94102811D01*
X115578427Y-93930995D01*
X114968580Y-93877119D01*
X114359940Y-93943254D01*
X113775898Y-94126858D01*
X113291146Y-94385964D01*
X113010878Y-94793089D01*
X111325000Y-94793089D01*
X111325000Y-90319999D01*
X111398549Y-90319999D01*
X111398549Y-90320001D01*
X111413949Y-90476356D01*
X111459556Y-90626703D01*
X111533618Y-90765263D01*
X111633289Y-90886712D01*
X111754738Y-90986383D01*
X111893298Y-91060445D01*
X112043645Y-91106052D01*
X112200000Y-91121452D01*
X112800000Y-91121452D01*
X112956355Y-91106052D01*
X113106702Y-91060445D01*
X113245262Y-90986383D01*
X113366711Y-90886712D01*
X113466382Y-90765263D01*
X113540444Y-90626703D01*
X113586051Y-90476356D01*
X113601451Y-90320001D01*
X113601451Y-90319999D01*
X115578549Y-90319999D01*
X115578549Y-90320001D01*
X115593949Y-90476356D01*
X115639556Y-90626703D01*
X115713618Y-90765263D01*
X115813289Y-90886712D01*
X115934738Y-90986383D01*
X116073298Y-91060445D01*
X116223645Y-91106052D01*
X116380000Y-91121452D01*
X116980000Y-91121452D01*
X117136355Y-91106052D01*
X117286702Y-91060445D01*
X117425262Y-90986383D01*
X117546711Y-90886712D01*
X117646382Y-90765263D01*
X117720444Y-90626703D01*
X117766051Y-90476356D01*
X117781451Y-90320001D01*
X117781451Y-90319999D01*
X117766051Y-90163644D01*
X117720444Y-90013297D01*
X117646382Y-89874737D01*
X117546711Y-89753288D01*
X117425262Y-89653617D01*
X117286702Y-89579555D01*
X117136355Y-89533948D01*
X116980000Y-89518548D01*
X116380000Y-89518548D01*
X116223645Y-89533948D01*
X116073298Y-89579555D01*
X115934738Y-89653617D01*
X115813289Y-89753288D01*
X115713618Y-89874737D01*
X115639556Y-90013297D01*
X115593949Y-90163644D01*
X115578549Y-90319999D01*
X113601451Y-90319999D01*
X113586051Y-90163644D01*
X113540444Y-90013297D01*
X113466382Y-89874737D01*
X113366711Y-89753288D01*
X113245262Y-89653617D01*
X113106702Y-89579555D01*
X112956355Y-89533948D01*
X112800000Y-89518548D01*
X112200000Y-89518548D01*
X112043645Y-89533948D01*
X111893298Y-89579555D01*
X111754738Y-89653617D01*
X111633289Y-89753288D01*
X111533618Y-89874737D01*
X111459556Y-90013297D01*
X111413949Y-90163644D01*
X111398549Y-90319999D01*
X111325000Y-90319999D01*
X111325000Y-88838443D01*
X115525000Y-88838443D01*
X115525000Y-88961557D01*
X115549019Y-89082306D01*
X115596132Y-89196048D01*
X115664531Y-89298414D01*
X115751586Y-89385469D01*
X115853952Y-89453868D01*
X115967694Y-89500981D01*
X116088443Y-89525000D01*
X116211557Y-89525000D01*
X116332306Y-89500981D01*
X116446048Y-89453868D01*
X116548414Y-89385469D01*
X116635469Y-89298414D01*
X116703868Y-89196048D01*
X116750981Y-89082306D01*
X116775000Y-88961557D01*
X116775000Y-88838443D01*
X116750981Y-88717694D01*
X116703868Y-88603952D01*
X116635469Y-88501586D01*
X116574788Y-88440905D01*
X122100000Y-88440905D01*
X122100000Y-88559095D01*
X122123058Y-88675014D01*
X122168287Y-88784207D01*
X122233950Y-88882478D01*
X122300001Y-88948529D01*
X122300000Y-90051472D01*
X122233950Y-90117522D01*
X122168287Y-90215793D01*
X122123058Y-90324986D01*
X122100000Y-90440905D01*
X122100000Y-90559095D01*
X122123058Y-90675014D01*
X122168287Y-90784207D01*
X122233950Y-90882478D01*
X122317522Y-90966050D01*
X122415793Y-91031713D01*
X122524986Y-91076942D01*
X122640905Y-91100000D01*
X122759095Y-91100000D01*
X122875014Y-91076942D01*
X122984207Y-91031713D01*
X123082478Y-90966050D01*
X123166050Y-90882478D01*
X123231713Y-90784207D01*
X123276942Y-90675014D01*
X123300000Y-90559095D01*
X123300000Y-90440905D01*
X123276942Y-90324986D01*
X123231713Y-90215793D01*
X123213751Y-90188910D01*
X155292097Y-90188910D01*
X155318854Y-90277139D01*
X155436527Y-90537611D01*
X155602754Y-90770122D01*
X155811148Y-90965736D01*
X156053700Y-91116935D01*
X156321089Y-91217909D01*
X156545998Y-91107851D01*
X156545998Y-91208103D01*
X156364557Y-91244194D01*
X156155271Y-91330884D01*
X155966918Y-91456737D01*
X155806737Y-91616918D01*
X155680884Y-91805271D01*
X155594194Y-92014557D01*
X155550000Y-92236735D01*
X155550000Y-92463265D01*
X155594194Y-92685443D01*
X155680884Y-92894729D01*
X155806737Y-93083082D01*
X155966918Y-93243263D01*
X156155271Y-93369116D01*
X156364557Y-93455806D01*
X156586735Y-93500000D01*
X156813265Y-93500000D01*
X157035443Y-93455806D01*
X157244729Y-93369116D01*
X157433082Y-93243263D01*
X157593263Y-93083082D01*
X157719116Y-92894729D01*
X157805806Y-92685443D01*
X157850000Y-92463265D01*
X157850000Y-92236735D01*
X157805806Y-92014557D01*
X157719116Y-91805271D01*
X157593263Y-91616918D01*
X157433082Y-91456737D01*
X157244729Y-91330884D01*
X157035443Y-91244194D01*
X156854002Y-91208103D01*
X156854002Y-91107851D01*
X157078911Y-91217909D01*
X157346300Y-91116935D01*
X157588852Y-90965736D01*
X157797246Y-90770122D01*
X157963473Y-90537611D01*
X158081146Y-90277139D01*
X158107903Y-90188910D01*
X157996889Y-89964000D01*
X156854000Y-89964000D01*
X156854000Y-89984000D01*
X156546000Y-89984000D01*
X156546000Y-89964000D01*
X155403111Y-89964000D01*
X155292097Y-90188910D01*
X123213751Y-90188910D01*
X123166050Y-90117522D01*
X123100000Y-90051472D01*
X123100000Y-88948528D01*
X123107623Y-88940905D01*
X129700000Y-88940905D01*
X129700000Y-89059095D01*
X129723058Y-89175014D01*
X129768287Y-89284207D01*
X129833950Y-89382478D01*
X129917522Y-89466050D01*
X130015793Y-89531713D01*
X130124986Y-89576942D01*
X130240905Y-89600000D01*
X130359095Y-89600000D01*
X130475014Y-89576942D01*
X130584207Y-89531713D01*
X130682478Y-89466050D01*
X130698528Y-89450000D01*
X135013605Y-89450000D01*
X135100000Y-89536395D01*
X135100000Y-89559095D01*
X135123058Y-89675014D01*
X135168287Y-89784207D01*
X135233950Y-89882478D01*
X135317522Y-89966050D01*
X135415793Y-90031713D01*
X135524986Y-90076942D01*
X135640905Y-90100000D01*
X135759095Y-90100000D01*
X135875014Y-90076942D01*
X135984207Y-90031713D01*
X136082478Y-89966050D01*
X136166050Y-89882478D01*
X136231713Y-89784207D01*
X136276942Y-89675014D01*
X136300000Y-89559095D01*
X136300000Y-89440905D01*
X136276942Y-89324986D01*
X136231713Y-89215793D01*
X136166050Y-89117522D01*
X136082478Y-89033950D01*
X135984207Y-88968287D01*
X135875014Y-88923058D01*
X135759095Y-88900000D01*
X135736395Y-88900000D01*
X135533828Y-88697433D01*
X135519737Y-88680263D01*
X135451216Y-88624029D01*
X135373041Y-88582243D01*
X135288215Y-88556511D01*
X135222105Y-88550000D01*
X135222094Y-88550000D01*
X135200000Y-88547824D01*
X135177906Y-88550000D01*
X130698528Y-88550000D01*
X130682478Y-88533950D01*
X130584207Y-88468287D01*
X130475014Y-88423058D01*
X130359095Y-88400000D01*
X130240905Y-88400000D01*
X130124986Y-88423058D01*
X130015793Y-88468287D01*
X129917522Y-88533950D01*
X129833950Y-88617522D01*
X129768287Y-88715793D01*
X129723058Y-88824986D01*
X129700000Y-88940905D01*
X123107623Y-88940905D01*
X123166050Y-88882478D01*
X123231713Y-88784207D01*
X123276942Y-88675014D01*
X123300000Y-88559095D01*
X123300000Y-88440905D01*
X123276942Y-88324986D01*
X123231713Y-88215793D01*
X123166050Y-88117522D01*
X123082478Y-88033950D01*
X122984207Y-87968287D01*
X122875014Y-87923058D01*
X122759095Y-87900000D01*
X122640905Y-87900000D01*
X122524986Y-87923058D01*
X122415793Y-87968287D01*
X122317522Y-88033950D01*
X122233950Y-88117522D01*
X122168287Y-88215793D01*
X122123058Y-88324986D01*
X122100000Y-88440905D01*
X116574788Y-88440905D01*
X116548414Y-88414531D01*
X116446048Y-88346132D01*
X116332306Y-88299019D01*
X116211557Y-88275000D01*
X116088443Y-88275000D01*
X115967694Y-88299019D01*
X115853952Y-88346132D01*
X115751586Y-88414531D01*
X115664531Y-88501586D01*
X115596132Y-88603952D01*
X115549019Y-88717694D01*
X115525000Y-88838443D01*
X111325000Y-88838443D01*
X111325000Y-84690905D01*
X121650000Y-84690905D01*
X121650000Y-84809095D01*
X121673058Y-84925014D01*
X121718287Y-85034207D01*
X121783950Y-85132478D01*
X121850000Y-85198528D01*
X121850001Y-86301471D01*
X121783950Y-86367522D01*
X121718287Y-86465793D01*
X121673058Y-86574986D01*
X121650000Y-86690905D01*
X121650000Y-86809095D01*
X121673058Y-86925014D01*
X121718287Y-87034207D01*
X121783950Y-87132478D01*
X121867522Y-87216050D01*
X121965793Y-87281713D01*
X122074986Y-87326942D01*
X122190905Y-87350000D01*
X122309095Y-87350000D01*
X122425014Y-87326942D01*
X122534207Y-87281713D01*
X122632478Y-87216050D01*
X122716050Y-87132478D01*
X122781713Y-87034207D01*
X122826942Y-86925014D01*
X122850000Y-86809095D01*
X122850000Y-86690905D01*
X122826942Y-86574986D01*
X122781713Y-86465793D01*
X122716050Y-86367522D01*
X122650000Y-86301472D01*
X122650000Y-85198528D01*
X122716050Y-85132478D01*
X122781713Y-85034207D01*
X122826942Y-84925014D01*
X122850000Y-84809095D01*
X122850000Y-84690905D01*
X122826942Y-84574986D01*
X122781713Y-84465793D01*
X122716050Y-84367522D01*
X122632478Y-84283950D01*
X122534207Y-84218287D01*
X122425014Y-84173058D01*
X122309095Y-84150000D01*
X122190905Y-84150000D01*
X122074986Y-84173058D01*
X121965793Y-84218287D01*
X121867522Y-84283950D01*
X121783950Y-84367522D01*
X121718287Y-84465793D01*
X121673058Y-84574986D01*
X121650000Y-84690905D01*
X111325000Y-84690905D01*
X111325000Y-83038443D01*
X115525000Y-83038443D01*
X115525000Y-83161557D01*
X115549019Y-83282306D01*
X115596132Y-83396048D01*
X115664531Y-83498414D01*
X115751586Y-83585469D01*
X115853952Y-83653868D01*
X115967694Y-83700981D01*
X116088443Y-83725000D01*
X116211557Y-83725000D01*
X116332306Y-83700981D01*
X116446048Y-83653868D01*
X116548414Y-83585469D01*
X116635469Y-83498414D01*
X116703868Y-83396048D01*
X116750981Y-83282306D01*
X116775000Y-83161557D01*
X116775000Y-83038443D01*
X116750981Y-82917694D01*
X116703868Y-82803952D01*
X116635469Y-82701586D01*
X116548414Y-82614531D01*
X116446048Y-82546132D01*
X116332306Y-82499019D01*
X116211557Y-82475000D01*
X116088443Y-82475000D01*
X115967694Y-82499019D01*
X115853952Y-82546132D01*
X115751586Y-82614531D01*
X115664531Y-82701586D01*
X115596132Y-82803952D01*
X115549019Y-82917694D01*
X115525000Y-83038443D01*
X111325000Y-83038443D01*
X111325000Y-81679999D01*
X111398549Y-81679999D01*
X111398549Y-81680001D01*
X111413949Y-81836356D01*
X111459556Y-81986703D01*
X111533618Y-82125263D01*
X111633289Y-82246712D01*
X111754738Y-82346383D01*
X111893298Y-82420445D01*
X112043645Y-82466052D01*
X112200000Y-82481452D01*
X112800000Y-82481452D01*
X112956355Y-82466052D01*
X113106702Y-82420445D01*
X113245262Y-82346383D01*
X113366711Y-82246712D01*
X113466382Y-82125263D01*
X113540444Y-81986703D01*
X113586051Y-81836356D01*
X113601451Y-81680001D01*
X113601451Y-81679999D01*
X115578549Y-81679999D01*
X115578549Y-81680001D01*
X115593949Y-81836356D01*
X115639556Y-81986703D01*
X115713618Y-82125263D01*
X115813289Y-82246712D01*
X115934738Y-82346383D01*
X116073298Y-82420445D01*
X116223645Y-82466052D01*
X116380000Y-82481452D01*
X116980000Y-82481452D01*
X117136355Y-82466052D01*
X117286702Y-82420445D01*
X117425262Y-82346383D01*
X117546711Y-82246712D01*
X117646382Y-82125263D01*
X117720444Y-81986703D01*
X117764671Y-81840905D01*
X130900000Y-81840905D01*
X130900000Y-81959095D01*
X130923058Y-82075014D01*
X130968287Y-82184207D01*
X131033950Y-82282478D01*
X131117522Y-82366050D01*
X131215793Y-82431713D01*
X131324986Y-82476942D01*
X131440905Y-82500000D01*
X131559095Y-82500000D01*
X131675014Y-82476942D01*
X131784207Y-82431713D01*
X131882478Y-82366050D01*
X131898528Y-82350000D01*
X134077906Y-82350000D01*
X134100000Y-82352176D01*
X134122094Y-82350000D01*
X134122105Y-82350000D01*
X134188215Y-82343489D01*
X134273041Y-82317757D01*
X134351216Y-82275971D01*
X134419737Y-82219737D01*
X134433828Y-82202567D01*
X134434283Y-82202113D01*
X134468287Y-82284207D01*
X134533950Y-82382478D01*
X134550000Y-82398528D01*
X134550001Y-83727896D01*
X134547824Y-83750000D01*
X134556512Y-83838215D01*
X134582243Y-83923040D01*
X134624029Y-84001216D01*
X134650000Y-84032862D01*
X134650000Y-84059095D01*
X134673058Y-84175014D01*
X134718287Y-84284207D01*
X134783950Y-84382478D01*
X134867522Y-84466050D01*
X134965793Y-84531713D01*
X135074986Y-84576942D01*
X135190905Y-84600000D01*
X135309095Y-84600000D01*
X135425014Y-84576942D01*
X135534207Y-84531713D01*
X135632478Y-84466050D01*
X135716050Y-84382478D01*
X135781713Y-84284207D01*
X135826942Y-84175014D01*
X135850000Y-84059095D01*
X135850000Y-83940905D01*
X135826942Y-83824986D01*
X135781713Y-83715793D01*
X135716050Y-83617522D01*
X135632478Y-83533950D01*
X135534207Y-83468287D01*
X135450000Y-83433407D01*
X135450000Y-82398528D01*
X135466050Y-82382478D01*
X135531713Y-82284207D01*
X135576942Y-82175014D01*
X135600000Y-82059095D01*
X135600000Y-81940905D01*
X135577428Y-81827428D01*
X135690905Y-81850000D01*
X135809095Y-81850000D01*
X135925014Y-81826942D01*
X136034207Y-81781713D01*
X136132478Y-81716050D01*
X136216050Y-81632478D01*
X136281713Y-81534207D01*
X136326942Y-81425014D01*
X136350000Y-81309095D01*
X136350000Y-81190905D01*
X136326942Y-81074986D01*
X136281713Y-80965793D01*
X136216050Y-80867522D01*
X136132478Y-80783950D01*
X136034207Y-80718287D01*
X135925014Y-80673058D01*
X135809095Y-80650000D01*
X135690905Y-80650000D01*
X135574986Y-80673058D01*
X135465793Y-80718287D01*
X135367522Y-80783950D01*
X135351472Y-80800000D01*
X134772094Y-80800000D01*
X134750000Y-80797824D01*
X134727906Y-80800000D01*
X134727895Y-80800000D01*
X134661785Y-80806511D01*
X134576959Y-80832243D01*
X134498783Y-80874029D01*
X134447432Y-80916172D01*
X134447428Y-80916176D01*
X134430263Y-80930263D01*
X134416176Y-80947428D01*
X133913605Y-81450000D01*
X131898528Y-81450000D01*
X131882478Y-81433950D01*
X131784207Y-81368287D01*
X131675014Y-81323058D01*
X131559095Y-81300000D01*
X131440905Y-81300000D01*
X131324986Y-81323058D01*
X131215793Y-81368287D01*
X131117522Y-81433950D01*
X131033950Y-81517522D01*
X130968287Y-81615793D01*
X130923058Y-81724986D01*
X130900000Y-81840905D01*
X117764671Y-81840905D01*
X117766051Y-81836356D01*
X117781451Y-81680001D01*
X117781451Y-81679999D01*
X117766051Y-81523644D01*
X117720444Y-81373297D01*
X117646382Y-81234737D01*
X117546711Y-81113288D01*
X117425262Y-81013617D01*
X117286702Y-80939555D01*
X117136355Y-80893948D01*
X116980000Y-80878548D01*
X116380000Y-80878548D01*
X116223645Y-80893948D01*
X116073298Y-80939555D01*
X115934738Y-81013617D01*
X115813289Y-81113288D01*
X115713618Y-81234737D01*
X115639556Y-81373297D01*
X115593949Y-81523644D01*
X115578549Y-81679999D01*
X113601451Y-81679999D01*
X113586051Y-81523644D01*
X113540444Y-81373297D01*
X113466382Y-81234737D01*
X113366711Y-81113288D01*
X113245262Y-81013617D01*
X113106702Y-80939555D01*
X112956355Y-80893948D01*
X112800000Y-80878548D01*
X112200000Y-80878548D01*
X112043645Y-80893948D01*
X111893298Y-80939555D01*
X111754738Y-81013617D01*
X111633289Y-81113288D01*
X111533618Y-81234737D01*
X111459556Y-81373297D01*
X111413949Y-81523644D01*
X111398549Y-81679999D01*
X111325000Y-81679999D01*
X111325000Y-79431957D01*
X132647018Y-79431957D01*
X132647018Y-79550147D01*
X132670076Y-79666066D01*
X132715305Y-79775259D01*
X132780968Y-79873530D01*
X132864540Y-79957102D01*
X132948617Y-80013281D01*
X132923058Y-80074986D01*
X132900000Y-80190905D01*
X132900000Y-80309095D01*
X132923058Y-80425014D01*
X132968287Y-80534207D01*
X133033950Y-80632478D01*
X133117522Y-80716050D01*
X133215793Y-80781713D01*
X133324986Y-80826942D01*
X133440905Y-80850000D01*
X133559095Y-80850000D01*
X133675014Y-80826942D01*
X133784207Y-80781713D01*
X133882478Y-80716050D01*
X133966050Y-80632478D01*
X134031713Y-80534207D01*
X134076942Y-80425014D01*
X134100000Y-80309095D01*
X134100000Y-80286395D01*
X134586397Y-79799999D01*
X136383405Y-79799999D01*
X136373055Y-79824986D01*
X136349997Y-79940905D01*
X136349997Y-80059095D01*
X136373055Y-80175014D01*
X136418284Y-80284207D01*
X136483947Y-80382478D01*
X136499998Y-80398529D01*
X136499997Y-81497024D01*
X136497821Y-81519119D01*
X136499997Y-81541213D01*
X136499997Y-81541223D01*
X136506508Y-81607333D01*
X136524320Y-81666050D01*
X136532240Y-81692159D01*
X136574026Y-81770335D01*
X136616169Y-81821686D01*
X136630260Y-81838856D01*
X136647430Y-81852948D01*
X137299981Y-82505499D01*
X137299980Y-83022104D01*
X137299981Y-83022114D01*
X137299980Y-84063624D01*
X137226104Y-84137501D01*
X136822093Y-84137501D01*
X136799999Y-84135325D01*
X136777905Y-84137501D01*
X136777894Y-84137501D01*
X136711784Y-84144012D01*
X136633508Y-84167757D01*
X136626958Y-84169744D01*
X136548782Y-84211530D01*
X136514131Y-84239968D01*
X136480262Y-84267764D01*
X136466171Y-84284934D01*
X136463605Y-84287500D01*
X136440905Y-84287500D01*
X136324986Y-84310558D01*
X136215793Y-84355787D01*
X136117522Y-84421450D01*
X136033950Y-84505022D01*
X135968287Y-84603293D01*
X135923058Y-84712486D01*
X135900000Y-84828405D01*
X135900000Y-84946595D01*
X135923058Y-85062514D01*
X135968287Y-85171707D01*
X136033950Y-85269978D01*
X136117522Y-85353550D01*
X136215793Y-85419213D01*
X136324986Y-85464442D01*
X136440905Y-85487500D01*
X136559095Y-85487500D01*
X136675014Y-85464442D01*
X136784207Y-85419213D01*
X136882478Y-85353550D01*
X136966050Y-85269978D01*
X137031713Y-85171707D01*
X137076942Y-85062514D01*
X137081917Y-85037501D01*
X137390405Y-85037501D01*
X137412499Y-85039677D01*
X137434593Y-85037501D01*
X137434604Y-85037501D01*
X137500714Y-85030990D01*
X137509563Y-85028306D01*
X136805413Y-85732456D01*
X136784207Y-85718287D01*
X136675014Y-85673058D01*
X136559095Y-85650000D01*
X136440905Y-85650000D01*
X136324986Y-85673058D01*
X136215793Y-85718287D01*
X136117522Y-85783950D01*
X136033950Y-85867522D01*
X135968287Y-85965793D01*
X135923058Y-86074986D01*
X135900000Y-86190905D01*
X135900000Y-86309095D01*
X135923058Y-86425014D01*
X135968287Y-86534207D01*
X136033950Y-86632478D01*
X136117522Y-86716050D01*
X136215793Y-86781713D01*
X136324986Y-86826942D01*
X136440905Y-86850000D01*
X136559095Y-86850000D01*
X136675014Y-86826942D01*
X136784207Y-86781713D01*
X136882478Y-86716050D01*
X136898528Y-86700000D01*
X136902170Y-86700000D01*
X136924264Y-86702176D01*
X136946358Y-86700000D01*
X136946369Y-86700000D01*
X137012479Y-86693489D01*
X137097305Y-86667757D01*
X137175480Y-86625971D01*
X137244001Y-86569737D01*
X137258093Y-86552566D01*
X138300000Y-85510660D01*
X138300000Y-85813604D01*
X137813605Y-86300000D01*
X137790905Y-86300000D01*
X137674986Y-86323058D01*
X137565793Y-86368287D01*
X137467522Y-86433950D01*
X137383950Y-86517522D01*
X137318287Y-86615793D01*
X137273058Y-86724986D01*
X137250000Y-86840905D01*
X137250000Y-86959095D01*
X137273058Y-87075014D01*
X137318287Y-87184207D01*
X137383950Y-87282478D01*
X137467522Y-87366050D01*
X137565793Y-87431713D01*
X137674986Y-87476942D01*
X137790905Y-87500000D01*
X137909095Y-87500000D01*
X138025014Y-87476942D01*
X138134207Y-87431713D01*
X138232478Y-87366050D01*
X138316050Y-87282478D01*
X138381713Y-87184207D01*
X138426942Y-87075014D01*
X138450000Y-86959095D01*
X138450000Y-86936395D01*
X139052573Y-86333823D01*
X139069737Y-86319737D01*
X139083824Y-86302572D01*
X139083828Y-86302568D01*
X139125971Y-86251217D01*
X139167757Y-86173041D01*
X139170441Y-86164194D01*
X139193489Y-86088215D01*
X139200000Y-86022105D01*
X139200000Y-86022095D01*
X139202176Y-86000001D01*
X139200000Y-85977907D01*
X139200000Y-85336395D01*
X140766176Y-86902572D01*
X140780263Y-86919737D01*
X140797428Y-86933824D01*
X140797432Y-86933828D01*
X140848783Y-86975971D01*
X140888936Y-86997433D01*
X140926959Y-87017757D01*
X141011785Y-87043489D01*
X141077895Y-87050000D01*
X141077905Y-87050000D01*
X141099999Y-87052176D01*
X141122094Y-87050000D01*
X142201472Y-87050000D01*
X142217522Y-87066050D01*
X142315793Y-87131713D01*
X142424986Y-87176942D01*
X142540905Y-87200000D01*
X142659095Y-87200000D01*
X142775014Y-87176942D01*
X142884207Y-87131713D01*
X142982478Y-87066050D01*
X143066050Y-86982478D01*
X143131713Y-86884207D01*
X143176942Y-86775014D01*
X143200000Y-86659095D01*
X143200000Y-86540905D01*
X143176942Y-86424986D01*
X143131713Y-86315793D01*
X143066050Y-86217522D01*
X142982478Y-86133950D01*
X142884207Y-86068287D01*
X142820440Y-86041874D01*
X142848056Y-86023421D01*
X142931628Y-85939849D01*
X142997291Y-85841578D01*
X143042520Y-85732385D01*
X143065578Y-85616466D01*
X143065578Y-85498276D01*
X143042520Y-85382357D01*
X142997291Y-85273164D01*
X142931628Y-85174893D01*
X142848056Y-85091321D01*
X142749785Y-85025658D01*
X142640592Y-84980429D01*
X142524673Y-84957371D01*
X142406483Y-84957371D01*
X142290564Y-84980429D01*
X142181371Y-85025658D01*
X142083100Y-85091321D01*
X142067050Y-85107371D01*
X140993767Y-85107371D01*
X140200000Y-84313605D01*
X140200000Y-83214429D01*
X143248691Y-83214429D01*
X143248691Y-83332619D01*
X143271749Y-83448538D01*
X143316978Y-83557731D01*
X143344971Y-83599626D01*
X143332242Y-83623440D01*
X143306510Y-83708266D01*
X143299999Y-83774376D01*
X143299999Y-83774386D01*
X143297823Y-83796480D01*
X143299999Y-83818574D01*
X143300000Y-87927895D01*
X143297823Y-87949999D01*
X143306511Y-88038214D01*
X143332242Y-88123039D01*
X143374028Y-88201215D01*
X143416171Y-88252566D01*
X143416176Y-88252571D01*
X143430263Y-88269736D01*
X143447428Y-88283823D01*
X143812792Y-88649187D01*
X143768287Y-88715793D01*
X143723058Y-88824986D01*
X143700000Y-88940905D01*
X143700000Y-89059095D01*
X143723058Y-89175014D01*
X143768287Y-89284207D01*
X143833950Y-89382478D01*
X143917522Y-89466050D01*
X144015793Y-89531713D01*
X144124986Y-89576942D01*
X144240905Y-89600000D01*
X144359095Y-89600000D01*
X144475014Y-89576942D01*
X144584207Y-89531713D01*
X144682478Y-89466050D01*
X144717438Y-89431090D01*
X155292097Y-89431090D01*
X155403111Y-89656000D01*
X156546000Y-89656000D01*
X156546000Y-89636000D01*
X156854000Y-89636000D01*
X156854000Y-89656000D01*
X157996889Y-89656000D01*
X158107903Y-89431090D01*
X158081146Y-89342861D01*
X157963473Y-89082389D01*
X157797246Y-88849878D01*
X157588852Y-88654264D01*
X157346300Y-88503065D01*
X157078911Y-88402091D01*
X156854002Y-88512149D01*
X156854002Y-88411897D01*
X157035443Y-88375806D01*
X157244729Y-88289116D01*
X157433082Y-88163263D01*
X157593263Y-88003082D01*
X157719116Y-87814729D01*
X157805806Y-87605443D01*
X157850000Y-87383265D01*
X157850000Y-87156735D01*
X157805806Y-86934557D01*
X157719116Y-86725271D01*
X157593263Y-86536918D01*
X157433082Y-86376737D01*
X157244729Y-86250884D01*
X157035443Y-86164194D01*
X156813265Y-86120000D01*
X156586735Y-86120000D01*
X156364557Y-86164194D01*
X156155271Y-86250884D01*
X155966918Y-86376737D01*
X155806737Y-86536918D01*
X155680884Y-86725271D01*
X155594194Y-86934557D01*
X155550000Y-87156735D01*
X155550000Y-87383265D01*
X155594194Y-87605443D01*
X155680884Y-87814729D01*
X155806737Y-88003082D01*
X155966918Y-88163263D01*
X156155271Y-88289116D01*
X156364557Y-88375806D01*
X156545998Y-88411897D01*
X156545998Y-88512149D01*
X156321089Y-88402091D01*
X156053700Y-88503065D01*
X155811148Y-88654264D01*
X155602754Y-88849878D01*
X155436527Y-89082389D01*
X155318854Y-89342861D01*
X155292097Y-89431090D01*
X144717438Y-89431090D01*
X144766050Y-89382478D01*
X144831713Y-89284207D01*
X144876942Y-89175014D01*
X144900000Y-89059095D01*
X144900000Y-88940905D01*
X144876942Y-88824986D01*
X144831713Y-88715793D01*
X144766050Y-88617522D01*
X144750000Y-88601472D01*
X144750000Y-88522094D01*
X144752176Y-88500000D01*
X144750000Y-88477905D01*
X144750000Y-88477895D01*
X144743489Y-88411785D01*
X144717757Y-88326959D01*
X144689984Y-88275000D01*
X144675971Y-88248783D01*
X144633828Y-88197432D01*
X144633824Y-88197428D01*
X144619737Y-88180263D01*
X144602573Y-88166177D01*
X144335276Y-87898880D01*
X144340905Y-87900000D01*
X144459095Y-87900000D01*
X144575014Y-87876942D01*
X144684207Y-87831713D01*
X144782478Y-87766050D01*
X144866050Y-87682478D01*
X144931713Y-87584207D01*
X144976942Y-87475014D01*
X145000000Y-87359095D01*
X145000000Y-87240905D01*
X144999752Y-87239660D01*
X145003109Y-87228595D01*
X145009620Y-87162485D01*
X145009620Y-87162474D01*
X145011796Y-87140380D01*
X145009620Y-87118286D01*
X145009620Y-84616735D01*
X155550000Y-84616735D01*
X155550000Y-84843265D01*
X155594194Y-85065443D01*
X155680884Y-85274729D01*
X155806737Y-85463082D01*
X155966918Y-85623263D01*
X156155271Y-85749116D01*
X156364557Y-85835806D01*
X156586735Y-85880000D01*
X156813265Y-85880000D01*
X157035443Y-85835806D01*
X157244729Y-85749116D01*
X157433082Y-85623263D01*
X157593263Y-85463082D01*
X157719116Y-85274729D01*
X157805806Y-85065443D01*
X157850000Y-84843265D01*
X157850000Y-84616735D01*
X157805806Y-84394557D01*
X157719116Y-84185271D01*
X157593263Y-83996918D01*
X157433082Y-83836737D01*
X157244729Y-83710884D01*
X157035443Y-83624194D01*
X156813265Y-83580000D01*
X156586735Y-83580000D01*
X156364557Y-83624194D01*
X156155271Y-83710884D01*
X155966918Y-83836737D01*
X155806737Y-83996918D01*
X155680884Y-84185271D01*
X155594194Y-84394557D01*
X155550000Y-84616735D01*
X145009620Y-84616735D01*
X145009620Y-84038908D01*
X145025670Y-84022858D01*
X145091333Y-83924587D01*
X145136562Y-83815394D01*
X145159620Y-83699475D01*
X145159620Y-83581285D01*
X145136562Y-83465366D01*
X145091333Y-83356173D01*
X145025670Y-83257902D01*
X144942098Y-83174330D01*
X144843827Y-83108667D01*
X144734634Y-83063438D01*
X144618715Y-83040380D01*
X144500525Y-83040380D01*
X144409089Y-83058568D01*
X144380404Y-82989317D01*
X144314741Y-82891046D01*
X144231169Y-82807474D01*
X144132898Y-82741811D01*
X144023705Y-82696582D01*
X143907786Y-82673524D01*
X143789596Y-82673524D01*
X143673677Y-82696582D01*
X143564484Y-82741811D01*
X143466213Y-82807474D01*
X143382641Y-82891046D01*
X143316978Y-82989317D01*
X143271749Y-83098510D01*
X143248691Y-83214429D01*
X140200000Y-83214429D01*
X140200000Y-82076735D01*
X155550000Y-82076735D01*
X155550000Y-82303265D01*
X155594194Y-82525443D01*
X155680884Y-82734729D01*
X155806737Y-82923082D01*
X155966918Y-83083263D01*
X156155271Y-83209116D01*
X156364557Y-83295806D01*
X156586735Y-83340000D01*
X156813265Y-83340000D01*
X157035443Y-83295806D01*
X157244729Y-83209116D01*
X157433082Y-83083263D01*
X157593263Y-82923082D01*
X157719116Y-82734729D01*
X157805806Y-82525443D01*
X157850000Y-82303265D01*
X157850000Y-82076735D01*
X157805806Y-81854557D01*
X157719116Y-81645271D01*
X157593263Y-81456918D01*
X157433082Y-81296737D01*
X157244729Y-81170884D01*
X157035443Y-81084194D01*
X156813265Y-81040000D01*
X156586735Y-81040000D01*
X156364557Y-81084194D01*
X156155271Y-81170884D01*
X155966918Y-81296737D01*
X155806737Y-81456918D01*
X155680884Y-81645271D01*
X155594194Y-81854557D01*
X155550000Y-82076735D01*
X140200000Y-82076735D01*
X140200000Y-80352969D01*
X140202176Y-80330877D01*
X140200000Y-80308785D01*
X140200000Y-80308773D01*
X140193489Y-80242663D01*
X140167757Y-80157837D01*
X140133907Y-80094509D01*
X140125971Y-80079661D01*
X140083828Y-80028310D01*
X140083824Y-80028306D01*
X140069737Y-80011141D01*
X140052573Y-79997055D01*
X138855518Y-78800000D01*
X155548549Y-78800000D01*
X155548549Y-80500000D01*
X155554341Y-80558810D01*
X155571496Y-80615360D01*
X155599353Y-80667477D01*
X155636842Y-80713158D01*
X155682523Y-80750647D01*
X155734640Y-80778504D01*
X155791190Y-80795659D01*
X155850000Y-80801451D01*
X157550000Y-80801451D01*
X157608810Y-80795659D01*
X157665360Y-80778504D01*
X157717477Y-80750647D01*
X157763158Y-80713158D01*
X157800647Y-80667477D01*
X157828504Y-80615360D01*
X157845659Y-80558810D01*
X157851451Y-80500000D01*
X157851451Y-78800000D01*
X157845659Y-78741190D01*
X157828504Y-78684640D01*
X157800647Y-78632523D01*
X157763158Y-78586842D01*
X157717477Y-78549353D01*
X157665360Y-78521496D01*
X157608810Y-78504341D01*
X157550000Y-78498549D01*
X155850000Y-78498549D01*
X155791190Y-78504341D01*
X155734640Y-78521496D01*
X155682523Y-78549353D01*
X155636842Y-78586842D01*
X155599353Y-78632523D01*
X155571496Y-78684640D01*
X155554341Y-78741190D01*
X155548549Y-78800000D01*
X138855518Y-78800000D01*
X138602940Y-78547423D01*
X138588848Y-78530252D01*
X138520327Y-78474018D01*
X138442152Y-78432232D01*
X138357326Y-78406500D01*
X138291216Y-78399989D01*
X138291205Y-78399989D01*
X138269111Y-78397813D01*
X138247017Y-78399989D01*
X133910175Y-78399989D01*
X133888081Y-78397813D01*
X133865986Y-78399989D01*
X133865976Y-78399989D01*
X133799866Y-78406500D01*
X133715040Y-78432232D01*
X133636864Y-78474018D01*
X133585513Y-78516161D01*
X133585509Y-78516165D01*
X133568344Y-78530252D01*
X133554257Y-78547417D01*
X133210623Y-78891052D01*
X133187923Y-78891052D01*
X133072004Y-78914110D01*
X132962811Y-78959339D01*
X132864540Y-79025002D01*
X132780968Y-79108574D01*
X132715305Y-79206845D01*
X132670076Y-79316038D01*
X132647018Y-79431957D01*
X111325000Y-79431957D01*
X111325000Y-77206911D01*
X113010878Y-77206911D01*
X113291146Y-77614036D01*
X113833954Y-77897189D01*
X114421573Y-78069005D01*
X115031420Y-78122881D01*
X115640060Y-78056746D01*
X116224102Y-77873142D01*
X116708854Y-77614036D01*
X116989122Y-77206911D01*
X155010878Y-77206911D01*
X155291146Y-77614036D01*
X155833954Y-77897189D01*
X156421573Y-78069005D01*
X157031420Y-78122881D01*
X157640060Y-78056746D01*
X158224102Y-77873142D01*
X158708854Y-77614036D01*
X158989122Y-77206911D01*
X157000000Y-75217789D01*
X155010878Y-77206911D01*
X116989122Y-77206911D01*
X115000000Y-75217789D01*
X113010878Y-77206911D01*
X111325000Y-77206911D01*
X111325000Y-75031420D01*
X111877119Y-75031420D01*
X111943254Y-75640060D01*
X112126858Y-76224102D01*
X112385964Y-76708854D01*
X112793089Y-76989122D01*
X114782211Y-75000000D01*
X115217789Y-75000000D01*
X117206911Y-76989122D01*
X117614036Y-76708854D01*
X117897189Y-76166046D01*
X118069005Y-75578427D01*
X118117329Y-75031420D01*
X153877119Y-75031420D01*
X153943254Y-75640060D01*
X154126858Y-76224102D01*
X154385964Y-76708854D01*
X154793089Y-76989122D01*
X156782211Y-75000000D01*
X157217789Y-75000000D01*
X159206911Y-76989122D01*
X159614036Y-76708854D01*
X159897189Y-76166046D01*
X160069005Y-75578427D01*
X160122881Y-74968580D01*
X160056746Y-74359940D01*
X159873142Y-73775898D01*
X159614036Y-73291146D01*
X159206911Y-73010878D01*
X157217789Y-75000000D01*
X156782211Y-75000000D01*
X154793089Y-73010878D01*
X154385964Y-73291146D01*
X154102811Y-73833954D01*
X153930995Y-74421573D01*
X153877119Y-75031420D01*
X118117329Y-75031420D01*
X118122881Y-74968580D01*
X118056746Y-74359940D01*
X117873142Y-73775898D01*
X117614036Y-73291146D01*
X117206911Y-73010878D01*
X115217789Y-75000000D01*
X114782211Y-75000000D01*
X112793089Y-73010878D01*
X112385964Y-73291146D01*
X112102811Y-73833954D01*
X111930995Y-74421573D01*
X111877119Y-75031420D01*
X111325000Y-75031420D01*
X111325000Y-73015897D01*
X111346846Y-72793089D01*
X113010878Y-72793089D01*
X115000000Y-74782211D01*
X116989122Y-72793089D01*
X116708854Y-72385964D01*
X116256508Y-72150000D01*
X120848549Y-72150000D01*
X120848549Y-73850000D01*
X120854341Y-73908810D01*
X120871496Y-73965360D01*
X120899353Y-74017477D01*
X120936842Y-74063158D01*
X120982523Y-74100647D01*
X121034640Y-74128504D01*
X121091190Y-74145659D01*
X121150000Y-74151451D01*
X122850000Y-74151451D01*
X122908810Y-74145659D01*
X122965360Y-74128504D01*
X123017477Y-74100647D01*
X123063158Y-74063158D01*
X123100647Y-74017477D01*
X123128504Y-73965360D01*
X123145659Y-73908810D01*
X123151451Y-73850000D01*
X123151451Y-72886735D01*
X123390000Y-72886735D01*
X123390000Y-73113265D01*
X123434194Y-73335443D01*
X123520884Y-73544729D01*
X123646737Y-73733082D01*
X123806918Y-73893263D01*
X123995271Y-74019116D01*
X124204557Y-74105806D01*
X124426735Y-74150000D01*
X124653265Y-74150000D01*
X124875443Y-74105806D01*
X125084729Y-74019116D01*
X125273082Y-73893263D01*
X125433263Y-73733082D01*
X125559116Y-73544729D01*
X125645806Y-73335443D01*
X125690000Y-73113265D01*
X125690000Y-72886735D01*
X125930000Y-72886735D01*
X125930000Y-73113265D01*
X125974194Y-73335443D01*
X126060884Y-73544729D01*
X126186737Y-73733082D01*
X126346918Y-73893263D01*
X126535271Y-74019116D01*
X126744557Y-74105806D01*
X126966735Y-74150000D01*
X127193265Y-74150000D01*
X127415443Y-74105806D01*
X127624729Y-74019116D01*
X127813082Y-73893263D01*
X127973263Y-73733082D01*
X128099116Y-73544729D01*
X128185806Y-73335443D01*
X128230000Y-73113265D01*
X128230000Y-72886735D01*
X128470000Y-72886735D01*
X128470000Y-73113265D01*
X128514194Y-73335443D01*
X128600884Y-73544729D01*
X128726737Y-73733082D01*
X128886918Y-73893263D01*
X129075271Y-74019116D01*
X129284557Y-74105806D01*
X129506735Y-74150000D01*
X129733265Y-74150000D01*
X129955443Y-74105806D01*
X130164729Y-74019116D01*
X130353082Y-73893263D01*
X130513263Y-73733082D01*
X130639116Y-73544729D01*
X130725806Y-73335443D01*
X130770000Y-73113265D01*
X130770000Y-72886735D01*
X131010000Y-72886735D01*
X131010000Y-73113265D01*
X131054194Y-73335443D01*
X131140884Y-73544729D01*
X131266737Y-73733082D01*
X131426918Y-73893263D01*
X131615271Y-74019116D01*
X131824557Y-74105806D01*
X132046735Y-74150000D01*
X132273265Y-74150000D01*
X132495443Y-74105806D01*
X132704729Y-74019116D01*
X132893082Y-73893263D01*
X133053263Y-73733082D01*
X133179116Y-73544729D01*
X133265806Y-73335443D01*
X133310000Y-73113265D01*
X133310000Y-72886735D01*
X133550000Y-72886735D01*
X133550000Y-73113265D01*
X133594194Y-73335443D01*
X133680884Y-73544729D01*
X133806737Y-73733082D01*
X133966918Y-73893263D01*
X134155271Y-74019116D01*
X134364557Y-74105806D01*
X134586735Y-74150000D01*
X134813265Y-74150000D01*
X135035443Y-74105806D01*
X135244729Y-74019116D01*
X135433082Y-73893263D01*
X135593263Y-73733082D01*
X135719116Y-73544729D01*
X135805806Y-73335443D01*
X135850000Y-73113265D01*
X135850000Y-72886735D01*
X136090000Y-72886735D01*
X136090000Y-73113265D01*
X136134194Y-73335443D01*
X136220884Y-73544729D01*
X136346737Y-73733082D01*
X136506918Y-73893263D01*
X136695271Y-74019116D01*
X136904557Y-74105806D01*
X137126735Y-74150000D01*
X137353265Y-74150000D01*
X137575443Y-74105806D01*
X137784729Y-74019116D01*
X137973082Y-73893263D01*
X138133263Y-73733082D01*
X138259116Y-73544729D01*
X138345806Y-73335443D01*
X138390000Y-73113265D01*
X138390000Y-72886735D01*
X138630000Y-72886735D01*
X138630000Y-73113265D01*
X138674194Y-73335443D01*
X138760884Y-73544729D01*
X138886737Y-73733082D01*
X139046918Y-73893263D01*
X139235271Y-74019116D01*
X139444557Y-74105806D01*
X139666735Y-74150000D01*
X139893265Y-74150000D01*
X140115443Y-74105806D01*
X140324729Y-74019116D01*
X140513082Y-73893263D01*
X140673263Y-73733082D01*
X140799116Y-73544729D01*
X140885806Y-73335443D01*
X140930000Y-73113265D01*
X140930000Y-72886735D01*
X140911373Y-72793089D01*
X155010878Y-72793089D01*
X157000000Y-74782211D01*
X158989122Y-72793089D01*
X158708854Y-72385964D01*
X158166046Y-72102811D01*
X157578427Y-71930995D01*
X156968580Y-71877119D01*
X156359940Y-71943254D01*
X155775898Y-72126858D01*
X155291146Y-72385964D01*
X155010878Y-72793089D01*
X140911373Y-72793089D01*
X140885806Y-72664557D01*
X140799116Y-72455271D01*
X140673263Y-72266918D01*
X140513082Y-72106737D01*
X140324729Y-71980884D01*
X140115443Y-71894194D01*
X139893265Y-71850000D01*
X139666735Y-71850000D01*
X139444557Y-71894194D01*
X139235271Y-71980884D01*
X139046918Y-72106737D01*
X138886737Y-72266918D01*
X138760884Y-72455271D01*
X138674194Y-72664557D01*
X138630000Y-72886735D01*
X138390000Y-72886735D01*
X138345806Y-72664557D01*
X138259116Y-72455271D01*
X138133263Y-72266918D01*
X137973082Y-72106737D01*
X137784729Y-71980884D01*
X137575443Y-71894194D01*
X137353265Y-71850000D01*
X137126735Y-71850000D01*
X136904557Y-71894194D01*
X136695271Y-71980884D01*
X136506918Y-72106737D01*
X136346737Y-72266918D01*
X136220884Y-72455271D01*
X136134194Y-72664557D01*
X136090000Y-72886735D01*
X135850000Y-72886735D01*
X135805806Y-72664557D01*
X135719116Y-72455271D01*
X135593263Y-72266918D01*
X135433082Y-72106737D01*
X135244729Y-71980884D01*
X135035443Y-71894194D01*
X134813265Y-71850000D01*
X134586735Y-71850000D01*
X134364557Y-71894194D01*
X134155271Y-71980884D01*
X133966918Y-72106737D01*
X133806737Y-72266918D01*
X133680884Y-72455271D01*
X133594194Y-72664557D01*
X133550000Y-72886735D01*
X133310000Y-72886735D01*
X133265806Y-72664557D01*
X133179116Y-72455271D01*
X133053263Y-72266918D01*
X132893082Y-72106737D01*
X132704729Y-71980884D01*
X132495443Y-71894194D01*
X132273265Y-71850000D01*
X132046735Y-71850000D01*
X131824557Y-71894194D01*
X131615271Y-71980884D01*
X131426918Y-72106737D01*
X131266737Y-72266918D01*
X131140884Y-72455271D01*
X131054194Y-72664557D01*
X131010000Y-72886735D01*
X130770000Y-72886735D01*
X130725806Y-72664557D01*
X130639116Y-72455271D01*
X130513263Y-72266918D01*
X130353082Y-72106737D01*
X130164729Y-71980884D01*
X129955443Y-71894194D01*
X129733265Y-71850000D01*
X129506735Y-71850000D01*
X129284557Y-71894194D01*
X129075271Y-71980884D01*
X128886918Y-72106737D01*
X128726737Y-72266918D01*
X128600884Y-72455271D01*
X128514194Y-72664557D01*
X128470000Y-72886735D01*
X128230000Y-72886735D01*
X128185806Y-72664557D01*
X128099116Y-72455271D01*
X127973263Y-72266918D01*
X127813082Y-72106737D01*
X127624729Y-71980884D01*
X127415443Y-71894194D01*
X127193265Y-71850000D01*
X126966735Y-71850000D01*
X126744557Y-71894194D01*
X126535271Y-71980884D01*
X126346918Y-72106737D01*
X126186737Y-72266918D01*
X126060884Y-72455271D01*
X125974194Y-72664557D01*
X125930000Y-72886735D01*
X125690000Y-72886735D01*
X125645806Y-72664557D01*
X125559116Y-72455271D01*
X125433263Y-72266918D01*
X125273082Y-72106737D01*
X125084729Y-71980884D01*
X124875443Y-71894194D01*
X124653265Y-71850000D01*
X124426735Y-71850000D01*
X124204557Y-71894194D01*
X123995271Y-71980884D01*
X123806918Y-72106737D01*
X123646737Y-72266918D01*
X123520884Y-72455271D01*
X123434194Y-72664557D01*
X123390000Y-72886735D01*
X123151451Y-72886735D01*
X123151451Y-72150000D01*
X123145659Y-72091190D01*
X123128504Y-72034640D01*
X123100647Y-71982523D01*
X123063158Y-71936842D01*
X123017477Y-71899353D01*
X122965360Y-71871496D01*
X122908810Y-71854341D01*
X122850000Y-71848549D01*
X121150000Y-71848549D01*
X121091190Y-71854341D01*
X121034640Y-71871496D01*
X120982523Y-71899353D01*
X120936842Y-71936842D01*
X120899353Y-71982523D01*
X120871496Y-72034640D01*
X120854341Y-72091190D01*
X120848549Y-72150000D01*
X116256508Y-72150000D01*
X116166046Y-72102811D01*
X115578427Y-71930995D01*
X114968580Y-71877119D01*
X114359940Y-71943254D01*
X113775898Y-72126858D01*
X113291146Y-72385964D01*
X113010878Y-72793089D01*
X111346846Y-72793089D01*
X111358429Y-72674960D01*
X111452827Y-72362301D01*
X111606156Y-72073932D01*
X111812578Y-71820833D01*
X112064223Y-71612655D01*
X112351518Y-71457315D01*
X112663508Y-71360739D01*
X113003540Y-71325000D01*
X158984103Y-71325000D01*
X159325040Y-71358429D01*
G37*
G04 #@! TD.AperFunction*
M02*
