M48
; DRILL file {KiCad (5.1.8)-1} date 01/19/21 07:53:25
; FORMAT={-:-/ absolute / inch / decimal}
; #@! TF.CreationDate,2021-01-19T07:53:25+02:00
; #@! TF.GenerationSoftware,Kicad,Pcbnew,(5.1.8)-1
; #@! TF.FileFunction,Plated,1,2,PTH
FMAT,2
INCH
T1C0.0118
T2C0.0236
T3C0.0394
T4C0.0984
%
G90
G05
T1
X4.6693Y-3.5433
X4.6693Y-3.5669
X4.6693Y-3.5906
X4.6811Y-3.2244
X4.6811Y-3.248
X4.7047Y-3.2244
X4.7047Y-3.248
X4.7756Y-3.2795
X4.813Y-3.3366
X4.813Y-3.4154
X4.8228Y-3.4488
X4.8307Y-3.4843
X4.8307Y-3.563
X4.8819Y-3.1102
X4.8819Y-3.1693
X4.8819Y-3.2835
X4.9882Y-3.4449
X4.9882Y-3.5039
X4.9921Y-3.3189
X5.0236Y-3.7087
X5.063Y-3.0079
X5.1102Y-3.3386
X5.1299Y-3.5039
X5.1772Y-3.2244
X5.185Y-3.0394
X5.2362Y-3.3858
X5.2459Y-3.1296
X5.2559Y-3.1594
X5.315Y-3.2283
X5.3248Y-3.3071
X5.3425Y-3.5236
X5.3445Y-3.1988
X5.374Y-3.342
X5.374Y-3.3957
X5.3858Y-3.5945
X5.3917Y-3.1496
X5.3937Y-3.2677
X5.3937Y-3.7441
X5.4232Y-3.1496
X5.4272Y-3.4213
X5.4449Y-3.1969
X5.6089Y-3.3684
X5.6142Y-3.4094
X5.6339Y-3.0157
X5.6633Y-3.2785
X5.6811Y-3.5039
X5.685Y-3.437
X5.6913Y-3.2929
X5.7087Y-3.5709
X6.2953Y-3.3858
T3
X4.7984Y-3.8976
X4.8984Y-3.8976
X4.9984Y-3.8976
X5.0984Y-3.8976
X5.1984Y-3.8976
X5.2984Y-3.8976
X5.3984Y-3.8976
X5.4984Y-3.8976
X4.8031Y-2.874
X4.9031Y-2.874
X5.0031Y-2.874
X5.1031Y-2.874
X5.2031Y-2.874
X5.3031Y-2.874
X5.4031Y-2.874
X5.5031Y-2.874
X6.1693Y-3.1358
X6.1693Y-3.2358
X6.1693Y-3.3358
X6.1693Y-3.4358
X6.1693Y-3.5358
X6.1693Y-3.6358
T4
X4.5276Y-2.9528
X6.1811Y-2.9528
X4.5276Y-3.8189
X6.1811Y-3.8189
T2
G00X4.4409Y-3.2157
M15
G01X4.4173Y-3.2157
M16
G05
G00X4.4409Y-3.5559
M15
G01X4.4173Y-3.5559
M16
G05
G00X4.6055Y-3.2157
M15
G01X4.5819Y-3.2157
M16
G05
G00X4.6055Y-3.5559
M15
G01X4.5819Y-3.5559
M16
G05
T0
M30
