M48
; DRILL file {KiCad 7.0.9} date Wed Feb 28 09:18:11 2024
; FORMAT={-:-/ absolute / metric / decimal}
; #@! TF.CreationDate,2024-02-28T09:18:11+02:00
; #@! TF.GenerationSoftware,Kicad,Pcbnew,7.0.9
; #@! TF.FileFunction,Plated,1,2,PTH
FMAT,2
METRIC
; #@! TA.AperFunction,Plated,PTH,ViaDrill
T1C0.300
; #@! TA.AperFunction,Plated,PTH,ViaDrill
T2C0.400
; #@! TA.AperFunction,Plated,PTH,ComponentDrill
T3C0.600
; #@! TA.AperFunction,Plated,PTH,ComponentDrill
T4C1.000
; #@! TA.AperFunction,Plated,PTH,ComponentDrill
T5C2.500
%
G90
G05
T1
X118.6Y-90.0
X118.6Y-90.6
X118.6Y-91.2
X118.9Y-81.9
X118.9Y-82.5
X119.2Y-90.6
X119.2Y-91.2
X119.5Y-81.9
X119.5Y-82.5
X120.5Y-85.15
X120.5Y-86.7
X120.5Y-93.75
X122.037Y-93.75
X122.5Y-87.6
X122.6Y-83.8
X122.6Y-85.6
X123.2Y-77.6
X123.25Y-80.0
X123.75Y-91.25
X124.5Y-94.5
X125.5Y-81.0
X126.5Y-87.5
X126.5Y-89.0
X127.0Y-82.15
X127.0Y-94.5
X127.5Y-86.5
X129.5Y-91.25
X129.5Y-94.5
X130.25Y-90.599
X130.5Y-82.25
X131.5Y-80.75
X132.0Y-94.5
X133.0Y-85.75
X133.4Y-77.2
X133.424Y-78.024
X133.6Y-81.25
X134.5Y-94.5
X135.75Y-90.75
X135.75Y-95.0
X136.036Y-91.496
X136.75Y-79.25
X137.0Y-81.25
X137.0Y-82.25
X137.75Y-78.0
X137.753Y-77.2
X138.25Y-95.0
X142.5Y-83.0
X142.5Y-84.25
X143.1Y-87.8
X143.5Y-80.75
X144.0Y-100.25
X144.75Y-100.25
X145.0Y-90.7
X145.1Y-94.7
X145.1Y-95.4
X145.1Y-96.1
X145.1Y-96.8
X145.1Y-97.5
X145.5Y-100.25
X145.8Y-94.7
X146.2Y-87.5
X146.5Y-94.7
X147.2Y-94.7
X147.9Y-94.7
X147.9Y-95.4
X147.9Y-96.1
X147.9Y-96.8
X147.9Y-97.5
X149.1Y-87.5
X149.2Y-100.4
X149.85Y-100.4
X150.5Y-100.4
X159.9Y-86.0
T2
X130.0Y-88.3
X138.25Y-90.5
T4
X121.88Y-99.0
X122.0Y-73.0
X124.42Y-99.0
X124.54Y-73.0
X126.96Y-99.0
X127.08Y-73.0
X129.5Y-99.0
X129.62Y-73.0
X132.04Y-99.0
X132.16Y-73.0
X134.58Y-99.0
X134.7Y-73.0
X137.12Y-99.0
X137.24Y-73.0
X139.66Y-99.0
X139.78Y-73.0
X156.7Y-79.65
X156.7Y-82.19
X156.7Y-84.73
X156.7Y-87.27
X156.7Y-89.81
X156.7Y-92.35
T5
X115.0Y-75.0
X115.0Y-97.0
X157.0Y-75.0
X157.0Y-97.0
T3
G00X112.8Y-81.68
M15
G01X112.2Y-81.68
M16
G05
G00X112.8Y-90.32
M15
G01X112.2Y-90.32
M16
G05
G00X116.98Y-81.68
M15
G01X116.38Y-81.68
M16
G05
G00X116.98Y-90.32
M15
G01X116.38Y-90.32
M16
G05
T0
M30
