G04 #@! TF.GenerationSoftware,KiCad,Pcbnew,(5.1.8)-1*
G04 #@! TF.CreationDate,2021-01-19T07:53:21+02:00*
G04 #@! TF.ProjectId,link,6c696e6b-2e6b-4696-9361-645f70636258,rev?*
G04 #@! TF.SameCoordinates,Original*
G04 #@! TF.FileFunction,Paste,Top*
G04 #@! TF.FilePolarity,Positive*
%FSLAX46Y46*%
G04 Gerber Fmt 4.6, Leading zero omitted, Abs format (unit mm)*
G04 Created by KiCad (PCBNEW (5.1.8)-1) date 2021-01-19 07:53:21*
%MOMM*%
%LPD*%
G01*
G04 APERTURE LIST*
%ADD10R,0.900000X0.800000*%
%ADD11R,1.450000X0.300000*%
%ADD12R,0.650000X1.060000*%
G04 APERTURE END LIST*
G36*
G01*
X149549999Y-89200000D02*
X150850001Y-89200000D01*
G75*
G02*
X151100000Y-89449999I0J-249999D01*
G01*
X151100000Y-90150001D01*
G75*
G02*
X150850001Y-90400000I-249999J0D01*
G01*
X149549999Y-90400000D01*
G75*
G02*
X149300000Y-90150001I0J249999D01*
G01*
X149300000Y-89449999D01*
G75*
G02*
X149549999Y-89200000I249999J0D01*
G01*
G37*
G36*
G01*
X149549999Y-81600000D02*
X150850001Y-81600000D01*
G75*
G02*
X151100000Y-81849999I0J-249999D01*
G01*
X151100000Y-82550001D01*
G75*
G02*
X150850001Y-82800000I-249999J0D01*
G01*
X149549999Y-82800000D01*
G75*
G02*
X149300000Y-82550001I0J249999D01*
G01*
X149300000Y-81849999D01*
G75*
G02*
X149549999Y-81600000I249999J0D01*
G01*
G37*
G36*
G01*
X147050000Y-88200000D02*
X148300000Y-88200000D01*
G75*
G02*
X148450000Y-88350000I0J-150000D01*
G01*
X148450000Y-88650000D01*
G75*
G02*
X148300000Y-88800000I-150000J0D01*
G01*
X147050000Y-88800000D01*
G75*
G02*
X146900000Y-88650000I0J150000D01*
G01*
X146900000Y-88350000D01*
G75*
G02*
X147050000Y-88200000I150000J0D01*
G01*
G37*
G36*
G01*
X147050000Y-87200000D02*
X148300000Y-87200000D01*
G75*
G02*
X148450000Y-87350000I0J-150000D01*
G01*
X148450000Y-87650000D01*
G75*
G02*
X148300000Y-87800000I-150000J0D01*
G01*
X147050000Y-87800000D01*
G75*
G02*
X146900000Y-87650000I0J150000D01*
G01*
X146900000Y-87350000D01*
G75*
G02*
X147050000Y-87200000I150000J0D01*
G01*
G37*
G36*
G01*
X147050000Y-86200000D02*
X148300000Y-86200000D01*
G75*
G02*
X148450000Y-86350000I0J-150000D01*
G01*
X148450000Y-86650000D01*
G75*
G02*
X148300000Y-86800000I-150000J0D01*
G01*
X147050000Y-86800000D01*
G75*
G02*
X146900000Y-86650000I0J150000D01*
G01*
X146900000Y-86350000D01*
G75*
G02*
X147050000Y-86200000I150000J0D01*
G01*
G37*
G36*
G01*
X147050000Y-85200000D02*
X148300000Y-85200000D01*
G75*
G02*
X148450000Y-85350000I0J-150000D01*
G01*
X148450000Y-85650000D01*
G75*
G02*
X148300000Y-85800000I-150000J0D01*
G01*
X147050000Y-85800000D01*
G75*
G02*
X146900000Y-85650000I0J150000D01*
G01*
X146900000Y-85350000D01*
G75*
G02*
X147050000Y-85200000I150000J0D01*
G01*
G37*
G36*
G01*
X147050000Y-84200000D02*
X148300000Y-84200000D01*
G75*
G02*
X148450000Y-84350000I0J-150000D01*
G01*
X148450000Y-84650000D01*
G75*
G02*
X148300000Y-84800000I-150000J0D01*
G01*
X147050000Y-84800000D01*
G75*
G02*
X146900000Y-84650000I0J150000D01*
G01*
X146900000Y-84350000D01*
G75*
G02*
X147050000Y-84200000I150000J0D01*
G01*
G37*
G36*
G01*
X147050000Y-83200000D02*
X148300000Y-83200000D01*
G75*
G02*
X148450000Y-83350000I0J-150000D01*
G01*
X148450000Y-83650000D01*
G75*
G02*
X148300000Y-83800000I-150000J0D01*
G01*
X147050000Y-83800000D01*
G75*
G02*
X146900000Y-83650000I0J150000D01*
G01*
X146900000Y-83350000D01*
G75*
G02*
X147050000Y-83200000I150000J0D01*
G01*
G37*
G36*
G01*
X131625000Y-84412500D02*
X131625000Y-83712500D01*
G75*
G02*
X131687500Y-83650000I62500J0D01*
G01*
X131812500Y-83650000D01*
G75*
G02*
X131875000Y-83712500I0J-62500D01*
G01*
X131875000Y-84412500D01*
G75*
G02*
X131812500Y-84475000I-62500J0D01*
G01*
X131687500Y-84475000D01*
G75*
G02*
X131625000Y-84412500I0J62500D01*
G01*
G37*
G36*
G01*
X132125000Y-84412500D02*
X132125000Y-83712500D01*
G75*
G02*
X132187500Y-83650000I62500J0D01*
G01*
X132312500Y-83650000D01*
G75*
G02*
X132375000Y-83712500I0J-62500D01*
G01*
X132375000Y-84412500D01*
G75*
G02*
X132312500Y-84475000I-62500J0D01*
G01*
X132187500Y-84475000D01*
G75*
G02*
X132125000Y-84412500I0J62500D01*
G01*
G37*
G36*
G01*
X132625000Y-84412500D02*
X132625000Y-83712500D01*
G75*
G02*
X132687500Y-83650000I62500J0D01*
G01*
X132812500Y-83650000D01*
G75*
G02*
X132875000Y-83712500I0J-62500D01*
G01*
X132875000Y-84412500D01*
G75*
G02*
X132812500Y-84475000I-62500J0D01*
G01*
X132687500Y-84475000D01*
G75*
G02*
X132625000Y-84412500I0J62500D01*
G01*
G37*
G36*
G01*
X133125000Y-84412500D02*
X133125000Y-83712500D01*
G75*
G02*
X133187500Y-83650000I62500J0D01*
G01*
X133312500Y-83650000D01*
G75*
G02*
X133375000Y-83712500I0J-62500D01*
G01*
X133375000Y-84412500D01*
G75*
G02*
X133312500Y-84475000I-62500J0D01*
G01*
X133187500Y-84475000D01*
G75*
G02*
X133125000Y-84412500I0J62500D01*
G01*
G37*
G36*
G01*
X133625000Y-84412500D02*
X133625000Y-83712500D01*
G75*
G02*
X133687500Y-83650000I62500J0D01*
G01*
X133812500Y-83650000D01*
G75*
G02*
X133875000Y-83712500I0J-62500D01*
G01*
X133875000Y-84412500D01*
G75*
G02*
X133812500Y-84475000I-62500J0D01*
G01*
X133687500Y-84475000D01*
G75*
G02*
X133625000Y-84412500I0J62500D01*
G01*
G37*
G36*
G01*
X134125000Y-84412500D02*
X134125000Y-83712500D01*
G75*
G02*
X134187500Y-83650000I62500J0D01*
G01*
X134312500Y-83650000D01*
G75*
G02*
X134375000Y-83712500I0J-62500D01*
G01*
X134375000Y-84412500D01*
G75*
G02*
X134312500Y-84475000I-62500J0D01*
G01*
X134187500Y-84475000D01*
G75*
G02*
X134125000Y-84412500I0J62500D01*
G01*
G37*
G36*
G01*
X134525000Y-84812500D02*
X134525000Y-84687500D01*
G75*
G02*
X134587500Y-84625000I62500J0D01*
G01*
X135287500Y-84625000D01*
G75*
G02*
X135350000Y-84687500I0J-62500D01*
G01*
X135350000Y-84812500D01*
G75*
G02*
X135287500Y-84875000I-62500J0D01*
G01*
X134587500Y-84875000D01*
G75*
G02*
X134525000Y-84812500I0J62500D01*
G01*
G37*
G36*
G01*
X134525000Y-85312500D02*
X134525000Y-85187500D01*
G75*
G02*
X134587500Y-85125000I62500J0D01*
G01*
X135287500Y-85125000D01*
G75*
G02*
X135350000Y-85187500I0J-62500D01*
G01*
X135350000Y-85312500D01*
G75*
G02*
X135287500Y-85375000I-62500J0D01*
G01*
X134587500Y-85375000D01*
G75*
G02*
X134525000Y-85312500I0J62500D01*
G01*
G37*
G36*
G01*
X134525000Y-85812500D02*
X134525000Y-85687500D01*
G75*
G02*
X134587500Y-85625000I62500J0D01*
G01*
X135287500Y-85625000D01*
G75*
G02*
X135350000Y-85687500I0J-62500D01*
G01*
X135350000Y-85812500D01*
G75*
G02*
X135287500Y-85875000I-62500J0D01*
G01*
X134587500Y-85875000D01*
G75*
G02*
X134525000Y-85812500I0J62500D01*
G01*
G37*
G36*
G01*
X134525000Y-86312500D02*
X134525000Y-86187500D01*
G75*
G02*
X134587500Y-86125000I62500J0D01*
G01*
X135287500Y-86125000D01*
G75*
G02*
X135350000Y-86187500I0J-62500D01*
G01*
X135350000Y-86312500D01*
G75*
G02*
X135287500Y-86375000I-62500J0D01*
G01*
X134587500Y-86375000D01*
G75*
G02*
X134525000Y-86312500I0J62500D01*
G01*
G37*
G36*
G01*
X134525000Y-86812500D02*
X134525000Y-86687500D01*
G75*
G02*
X134587500Y-86625000I62500J0D01*
G01*
X135287500Y-86625000D01*
G75*
G02*
X135350000Y-86687500I0J-62500D01*
G01*
X135350000Y-86812500D01*
G75*
G02*
X135287500Y-86875000I-62500J0D01*
G01*
X134587500Y-86875000D01*
G75*
G02*
X134525000Y-86812500I0J62500D01*
G01*
G37*
G36*
G01*
X134525000Y-87312500D02*
X134525000Y-87187500D01*
G75*
G02*
X134587500Y-87125000I62500J0D01*
G01*
X135287500Y-87125000D01*
G75*
G02*
X135350000Y-87187500I0J-62500D01*
G01*
X135350000Y-87312500D01*
G75*
G02*
X135287500Y-87375000I-62500J0D01*
G01*
X134587500Y-87375000D01*
G75*
G02*
X134525000Y-87312500I0J62500D01*
G01*
G37*
G36*
G01*
X134125000Y-88287500D02*
X134125000Y-87587500D01*
G75*
G02*
X134187500Y-87525000I62500J0D01*
G01*
X134312500Y-87525000D01*
G75*
G02*
X134375000Y-87587500I0J-62500D01*
G01*
X134375000Y-88287500D01*
G75*
G02*
X134312500Y-88350000I-62500J0D01*
G01*
X134187500Y-88350000D01*
G75*
G02*
X134125000Y-88287500I0J62500D01*
G01*
G37*
G36*
G01*
X133625000Y-88287500D02*
X133625000Y-87587500D01*
G75*
G02*
X133687500Y-87525000I62500J0D01*
G01*
X133812500Y-87525000D01*
G75*
G02*
X133875000Y-87587500I0J-62500D01*
G01*
X133875000Y-88287500D01*
G75*
G02*
X133812500Y-88350000I-62500J0D01*
G01*
X133687500Y-88350000D01*
G75*
G02*
X133625000Y-88287500I0J62500D01*
G01*
G37*
G36*
G01*
X133125000Y-88287500D02*
X133125000Y-87587500D01*
G75*
G02*
X133187500Y-87525000I62500J0D01*
G01*
X133312500Y-87525000D01*
G75*
G02*
X133375000Y-87587500I0J-62500D01*
G01*
X133375000Y-88287500D01*
G75*
G02*
X133312500Y-88350000I-62500J0D01*
G01*
X133187500Y-88350000D01*
G75*
G02*
X133125000Y-88287500I0J62500D01*
G01*
G37*
G36*
G01*
X132625000Y-88287500D02*
X132625000Y-87587500D01*
G75*
G02*
X132687500Y-87525000I62500J0D01*
G01*
X132812500Y-87525000D01*
G75*
G02*
X132875000Y-87587500I0J-62500D01*
G01*
X132875000Y-88287500D01*
G75*
G02*
X132812500Y-88350000I-62500J0D01*
G01*
X132687500Y-88350000D01*
G75*
G02*
X132625000Y-88287500I0J62500D01*
G01*
G37*
G36*
G01*
X132125000Y-88287500D02*
X132125000Y-87587500D01*
G75*
G02*
X132187500Y-87525000I62500J0D01*
G01*
X132312500Y-87525000D01*
G75*
G02*
X132375000Y-87587500I0J-62500D01*
G01*
X132375000Y-88287500D01*
G75*
G02*
X132312500Y-88350000I-62500J0D01*
G01*
X132187500Y-88350000D01*
G75*
G02*
X132125000Y-88287500I0J62500D01*
G01*
G37*
G36*
G01*
X131625000Y-88287500D02*
X131625000Y-87587500D01*
G75*
G02*
X131687500Y-87525000I62500J0D01*
G01*
X131812500Y-87525000D01*
G75*
G02*
X131875000Y-87587500I0J-62500D01*
G01*
X131875000Y-88287500D01*
G75*
G02*
X131812500Y-88350000I-62500J0D01*
G01*
X131687500Y-88350000D01*
G75*
G02*
X131625000Y-88287500I0J62500D01*
G01*
G37*
G36*
G01*
X130650000Y-87312500D02*
X130650000Y-87187500D01*
G75*
G02*
X130712500Y-87125000I62500J0D01*
G01*
X131412500Y-87125000D01*
G75*
G02*
X131475000Y-87187500I0J-62500D01*
G01*
X131475000Y-87312500D01*
G75*
G02*
X131412500Y-87375000I-62500J0D01*
G01*
X130712500Y-87375000D01*
G75*
G02*
X130650000Y-87312500I0J62500D01*
G01*
G37*
G36*
G01*
X130650000Y-86812500D02*
X130650000Y-86687500D01*
G75*
G02*
X130712500Y-86625000I62500J0D01*
G01*
X131412500Y-86625000D01*
G75*
G02*
X131475000Y-86687500I0J-62500D01*
G01*
X131475000Y-86812500D01*
G75*
G02*
X131412500Y-86875000I-62500J0D01*
G01*
X130712500Y-86875000D01*
G75*
G02*
X130650000Y-86812500I0J62500D01*
G01*
G37*
G36*
G01*
X130650000Y-86312500D02*
X130650000Y-86187500D01*
G75*
G02*
X130712500Y-86125000I62500J0D01*
G01*
X131412500Y-86125000D01*
G75*
G02*
X131475000Y-86187500I0J-62500D01*
G01*
X131475000Y-86312500D01*
G75*
G02*
X131412500Y-86375000I-62500J0D01*
G01*
X130712500Y-86375000D01*
G75*
G02*
X130650000Y-86312500I0J62500D01*
G01*
G37*
G36*
G01*
X130650000Y-85812500D02*
X130650000Y-85687500D01*
G75*
G02*
X130712500Y-85625000I62500J0D01*
G01*
X131412500Y-85625000D01*
G75*
G02*
X131475000Y-85687500I0J-62500D01*
G01*
X131475000Y-85812500D01*
G75*
G02*
X131412500Y-85875000I-62500J0D01*
G01*
X130712500Y-85875000D01*
G75*
G02*
X130650000Y-85812500I0J62500D01*
G01*
G37*
G36*
G01*
X130650000Y-85312500D02*
X130650000Y-85187500D01*
G75*
G02*
X130712500Y-85125000I62500J0D01*
G01*
X131412500Y-85125000D01*
G75*
G02*
X131475000Y-85187500I0J-62500D01*
G01*
X131475000Y-85312500D01*
G75*
G02*
X131412500Y-85375000I-62500J0D01*
G01*
X130712500Y-85375000D01*
G75*
G02*
X130650000Y-85312500I0J62500D01*
G01*
G37*
G36*
G01*
X130650000Y-84812500D02*
X130650000Y-84687500D01*
G75*
G02*
X130712500Y-84625000I62500J0D01*
G01*
X131412500Y-84625000D01*
G75*
G02*
X131475000Y-84687500I0J-62500D01*
G01*
X131475000Y-84812500D01*
G75*
G02*
X131412500Y-84875000I-62500J0D01*
G01*
X130712500Y-84875000D01*
G75*
G02*
X130650000Y-84812500I0J62500D01*
G01*
G37*
G36*
G01*
X133125000Y-86925001D02*
X133125000Y-86374999D01*
G75*
G02*
X133374999Y-86125000I249999J0D01*
G01*
X133925001Y-86125000D01*
G75*
G02*
X134175000Y-86374999I0J-249999D01*
G01*
X134175000Y-86925001D01*
G75*
G02*
X133925001Y-87175000I-249999J0D01*
G01*
X133374999Y-87175000D01*
G75*
G02*
X133125000Y-86925001I0J249999D01*
G01*
G37*
G36*
G01*
X133125000Y-85625001D02*
X133125000Y-85074999D01*
G75*
G02*
X133374999Y-84825000I249999J0D01*
G01*
X133925001Y-84825000D01*
G75*
G02*
X134175000Y-85074999I0J-249999D01*
G01*
X134175000Y-85625001D01*
G75*
G02*
X133925001Y-85875000I-249999J0D01*
G01*
X133374999Y-85875000D01*
G75*
G02*
X133125000Y-85625001I0J249999D01*
G01*
G37*
G36*
G01*
X131825000Y-86925001D02*
X131825000Y-86374999D01*
G75*
G02*
X132074999Y-86125000I249999J0D01*
G01*
X132625001Y-86125000D01*
G75*
G02*
X132875000Y-86374999I0J-249999D01*
G01*
X132875000Y-86925001D01*
G75*
G02*
X132625001Y-87175000I-249999J0D01*
G01*
X132074999Y-87175000D01*
G75*
G02*
X131825000Y-86925001I0J249999D01*
G01*
G37*
G36*
G01*
X131825000Y-85625001D02*
X131825000Y-85074999D01*
G75*
G02*
X132074999Y-84825000I249999J0D01*
G01*
X132625001Y-84825000D01*
G75*
G02*
X132875000Y-85074999I0J-249999D01*
G01*
X132875000Y-85625001D01*
G75*
G02*
X132625001Y-85875000I-249999J0D01*
G01*
X132074999Y-85875000D01*
G75*
G02*
X131825000Y-85625001I0J249999D01*
G01*
G37*
G36*
G01*
X140150000Y-85243750D02*
X140150000Y-85756250D01*
G75*
G02*
X139931250Y-85975000I-218750J0D01*
G01*
X139493750Y-85975000D01*
G75*
G02*
X139275000Y-85756250I0J218750D01*
G01*
X139275000Y-85243750D01*
G75*
G02*
X139493750Y-85025000I218750J0D01*
G01*
X139931250Y-85025000D01*
G75*
G02*
X140150000Y-85243750I0J-218750D01*
G01*
G37*
G36*
G01*
X141725000Y-85243750D02*
X141725000Y-85756250D01*
G75*
G02*
X141506250Y-85975000I-218750J0D01*
G01*
X141068750Y-85975000D01*
G75*
G02*
X140850000Y-85756250I0J218750D01*
G01*
X140850000Y-85243750D01*
G75*
G02*
X141068750Y-85025000I218750J0D01*
G01*
X141506250Y-85025000D01*
G75*
G02*
X141725000Y-85243750I0J-218750D01*
G01*
G37*
G36*
G01*
X140850000Y-87256250D02*
X140850000Y-86743750D01*
G75*
G02*
X141068750Y-86525000I218750J0D01*
G01*
X141506250Y-86525000D01*
G75*
G02*
X141725000Y-86743750I0J-218750D01*
G01*
X141725000Y-87256250D01*
G75*
G02*
X141506250Y-87475000I-218750J0D01*
G01*
X141068750Y-87475000D01*
G75*
G02*
X140850000Y-87256250I0J218750D01*
G01*
G37*
G36*
G01*
X139275000Y-87256250D02*
X139275000Y-86743750D01*
G75*
G02*
X139493750Y-86525000I218750J0D01*
G01*
X139931250Y-86525000D01*
G75*
G02*
X140150000Y-86743750I0J-218750D01*
G01*
X140150000Y-87256250D01*
G75*
G02*
X139931250Y-87475000I-218750J0D01*
G01*
X139493750Y-87475000D01*
G75*
G02*
X139275000Y-87256250I0J218750D01*
G01*
G37*
G36*
G01*
X124150000Y-90243750D02*
X124150000Y-90756250D01*
G75*
G02*
X123931250Y-90975000I-218750J0D01*
G01*
X123493750Y-90975000D01*
G75*
G02*
X123275000Y-90756250I0J218750D01*
G01*
X123275000Y-90243750D01*
G75*
G02*
X123493750Y-90025000I218750J0D01*
G01*
X123931250Y-90025000D01*
G75*
G02*
X124150000Y-90243750I0J-218750D01*
G01*
G37*
G36*
G01*
X125725000Y-90243750D02*
X125725000Y-90756250D01*
G75*
G02*
X125506250Y-90975000I-218750J0D01*
G01*
X125068750Y-90975000D01*
G75*
G02*
X124850000Y-90756250I0J218750D01*
G01*
X124850000Y-90243750D01*
G75*
G02*
X125068750Y-90025000I218750J0D01*
G01*
X125506250Y-90025000D01*
G75*
G02*
X125725000Y-90243750I0J-218750D01*
G01*
G37*
G36*
G01*
X140150000Y-80243750D02*
X140150000Y-80756250D01*
G75*
G02*
X139931250Y-80975000I-218750J0D01*
G01*
X139493750Y-80975000D01*
G75*
G02*
X139275000Y-80756250I0J218750D01*
G01*
X139275000Y-80243750D01*
G75*
G02*
X139493750Y-80025000I218750J0D01*
G01*
X139931250Y-80025000D01*
G75*
G02*
X140150000Y-80243750I0J-218750D01*
G01*
G37*
G36*
G01*
X141725000Y-80243750D02*
X141725000Y-80756250D01*
G75*
G02*
X141506250Y-80975000I-218750J0D01*
G01*
X141068750Y-80975000D01*
G75*
G02*
X140850000Y-80756250I0J218750D01*
G01*
X140850000Y-80243750D01*
G75*
G02*
X141068750Y-80025000I218750J0D01*
G01*
X141506250Y-80025000D01*
G75*
G02*
X141725000Y-80243750I0J-218750D01*
G01*
G37*
G36*
G01*
X140150000Y-91743750D02*
X140150000Y-92256250D01*
G75*
G02*
X139931250Y-92475000I-218750J0D01*
G01*
X139493750Y-92475000D01*
G75*
G02*
X139275000Y-92256250I0J218750D01*
G01*
X139275000Y-91743750D01*
G75*
G02*
X139493750Y-91525000I218750J0D01*
G01*
X139931250Y-91525000D01*
G75*
G02*
X140150000Y-91743750I0J-218750D01*
G01*
G37*
G36*
G01*
X141725000Y-91743750D02*
X141725000Y-92256250D01*
G75*
G02*
X141506250Y-92475000I-218750J0D01*
G01*
X141068750Y-92475000D01*
G75*
G02*
X140850000Y-92256250I0J218750D01*
G01*
X140850000Y-91743750D01*
G75*
G02*
X141068750Y-91525000I218750J0D01*
G01*
X141506250Y-91525000D01*
G75*
G02*
X141725000Y-91743750I0J-218750D01*
G01*
G37*
G36*
G01*
X120850000Y-84506250D02*
X120850000Y-83993750D01*
G75*
G02*
X121068750Y-83775000I218750J0D01*
G01*
X121506250Y-83775000D01*
G75*
G02*
X121725000Y-83993750I0J-218750D01*
G01*
X121725000Y-84506250D01*
G75*
G02*
X121506250Y-84725000I-218750J0D01*
G01*
X121068750Y-84725000D01*
G75*
G02*
X120850000Y-84506250I0J218750D01*
G01*
G37*
G36*
G01*
X119275000Y-84506250D02*
X119275000Y-83993750D01*
G75*
G02*
X119493750Y-83775000I218750J0D01*
G01*
X119931250Y-83775000D01*
G75*
G02*
X120150000Y-83993750I0J-218750D01*
G01*
X120150000Y-84506250D01*
G75*
G02*
X119931250Y-84725000I-218750J0D01*
G01*
X119493750Y-84725000D01*
G75*
G02*
X119275000Y-84506250I0J218750D01*
G01*
G37*
G36*
G01*
X120850000Y-87756250D02*
X120850000Y-87243750D01*
G75*
G02*
X121068750Y-87025000I218750J0D01*
G01*
X121506250Y-87025000D01*
G75*
G02*
X121725000Y-87243750I0J-218750D01*
G01*
X121725000Y-87756250D01*
G75*
G02*
X121506250Y-87975000I-218750J0D01*
G01*
X121068750Y-87975000D01*
G75*
G02*
X120850000Y-87756250I0J218750D01*
G01*
G37*
G36*
G01*
X119275000Y-87756250D02*
X119275000Y-87243750D01*
G75*
G02*
X119493750Y-87025000I218750J0D01*
G01*
X119931250Y-87025000D01*
G75*
G02*
X120150000Y-87243750I0J-218750D01*
G01*
X120150000Y-87756250D01*
G75*
G02*
X119931250Y-87975000I-218750J0D01*
G01*
X119493750Y-87975000D01*
G75*
G02*
X119275000Y-87756250I0J218750D01*
G01*
G37*
G36*
G01*
X120850000Y-80756250D02*
X120850000Y-80243750D01*
G75*
G02*
X121068750Y-80025000I218750J0D01*
G01*
X121506250Y-80025000D01*
G75*
G02*
X121725000Y-80243750I0J-218750D01*
G01*
X121725000Y-80756250D01*
G75*
G02*
X121506250Y-80975000I-218750J0D01*
G01*
X121068750Y-80975000D01*
G75*
G02*
X120850000Y-80756250I0J218750D01*
G01*
G37*
G36*
G01*
X119275000Y-80756250D02*
X119275000Y-80243750D01*
G75*
G02*
X119493750Y-80025000I218750J0D01*
G01*
X119931250Y-80025000D01*
G75*
G02*
X120150000Y-80243750I0J-218750D01*
G01*
X120150000Y-80756250D01*
G75*
G02*
X119931250Y-80975000I-218750J0D01*
G01*
X119493750Y-80975000D01*
G75*
G02*
X119275000Y-80756250I0J218750D01*
G01*
G37*
D10*
X141500000Y-83000000D03*
X139500000Y-83950000D03*
X139500000Y-82050000D03*
X141500000Y-89500000D03*
X139500000Y-90450000D03*
X139500000Y-88550000D03*
D11*
X117600000Y-82600000D03*
X117600000Y-83400000D03*
X117600000Y-84250000D03*
X117600000Y-82900000D03*
X117600000Y-83700000D03*
X117600000Y-84750000D03*
X117600000Y-87750000D03*
X117600000Y-88600000D03*
X117600000Y-89400000D03*
X117600000Y-89100000D03*
X117600000Y-88300000D03*
X117600000Y-87250000D03*
X117600000Y-86750000D03*
X117600000Y-86250000D03*
X117600000Y-85750000D03*
X117600000Y-85250000D03*
G36*
G01*
X120150000Y-88743750D02*
X120150000Y-89256250D01*
G75*
G02*
X119931250Y-89475000I-218750J0D01*
G01*
X119493750Y-89475000D01*
G75*
G02*
X119275000Y-89256250I0J218750D01*
G01*
X119275000Y-88743750D01*
G75*
G02*
X119493750Y-88525000I218750J0D01*
G01*
X119931250Y-88525000D01*
G75*
G02*
X120150000Y-88743750I0J-218750D01*
G01*
G37*
G36*
G01*
X121725000Y-88743750D02*
X121725000Y-89256250D01*
G75*
G02*
X121506250Y-89475000I-218750J0D01*
G01*
X121068750Y-89475000D01*
G75*
G02*
X120850000Y-89256250I0J218750D01*
G01*
X120850000Y-88743750D01*
G75*
G02*
X121068750Y-88525000I218750J0D01*
G01*
X121506250Y-88525000D01*
G75*
G02*
X121725000Y-88743750I0J-218750D01*
G01*
G37*
G36*
G01*
X140150000Y-78743750D02*
X140150000Y-79256250D01*
G75*
G02*
X139931250Y-79475000I-218750J0D01*
G01*
X139493750Y-79475000D01*
G75*
G02*
X139275000Y-79256250I0J218750D01*
G01*
X139275000Y-78743750D01*
G75*
G02*
X139493750Y-78525000I218750J0D01*
G01*
X139931250Y-78525000D01*
G75*
G02*
X140150000Y-78743750I0J-218750D01*
G01*
G37*
G36*
G01*
X141725000Y-78743750D02*
X141725000Y-79256250D01*
G75*
G02*
X141506250Y-79475000I-218750J0D01*
G01*
X141068750Y-79475000D01*
G75*
G02*
X140850000Y-79256250I0J218750D01*
G01*
X140850000Y-78743750D01*
G75*
G02*
X141068750Y-78525000I218750J0D01*
G01*
X141506250Y-78525000D01*
G75*
G02*
X141725000Y-78743750I0J-218750D01*
G01*
G37*
G36*
G01*
X140150000Y-93243750D02*
X140150000Y-93756250D01*
G75*
G02*
X139931250Y-93975000I-218750J0D01*
G01*
X139493750Y-93975000D01*
G75*
G02*
X139275000Y-93756250I0J218750D01*
G01*
X139275000Y-93243750D01*
G75*
G02*
X139493750Y-93025000I218750J0D01*
G01*
X139931250Y-93025000D01*
G75*
G02*
X140150000Y-93243750I0J-218750D01*
G01*
G37*
G36*
G01*
X141725000Y-93243750D02*
X141725000Y-93756250D01*
G75*
G02*
X141506250Y-93975000I-218750J0D01*
G01*
X141068750Y-93975000D01*
G75*
G02*
X140850000Y-93756250I0J218750D01*
G01*
X140850000Y-93243750D01*
G75*
G02*
X141068750Y-93025000I218750J0D01*
G01*
X141506250Y-93025000D01*
G75*
G02*
X141725000Y-93243750I0J-218750D01*
G01*
G37*
D12*
X123050000Y-82400000D03*
X124950000Y-82400000D03*
X124950000Y-84600000D03*
X124000000Y-84600000D03*
X123050000Y-84600000D03*
G36*
G01*
X137756250Y-84400000D02*
X137243750Y-84400000D01*
G75*
G02*
X137025000Y-84181250I0J218750D01*
G01*
X137025000Y-83743750D01*
G75*
G02*
X137243750Y-83525000I218750J0D01*
G01*
X137756250Y-83525000D01*
G75*
G02*
X137975000Y-83743750I0J-218750D01*
G01*
X137975000Y-84181250D01*
G75*
G02*
X137756250Y-84400000I-218750J0D01*
G01*
G37*
G36*
G01*
X137756250Y-85975000D02*
X137243750Y-85975000D01*
G75*
G02*
X137025000Y-85756250I0J218750D01*
G01*
X137025000Y-85318750D01*
G75*
G02*
X137243750Y-85100000I218750J0D01*
G01*
X137756250Y-85100000D01*
G75*
G02*
X137975000Y-85318750I0J-218750D01*
G01*
X137975000Y-85756250D01*
G75*
G02*
X137756250Y-85975000I-218750J0D01*
G01*
G37*
G36*
G01*
X127900000Y-87243750D02*
X127900000Y-87756250D01*
G75*
G02*
X127681250Y-87975000I-218750J0D01*
G01*
X127243750Y-87975000D01*
G75*
G02*
X127025000Y-87756250I0J218750D01*
G01*
X127025000Y-87243750D01*
G75*
G02*
X127243750Y-87025000I218750J0D01*
G01*
X127681250Y-87025000D01*
G75*
G02*
X127900000Y-87243750I0J-218750D01*
G01*
G37*
G36*
G01*
X129475000Y-87243750D02*
X129475000Y-87756250D01*
G75*
G02*
X129256250Y-87975000I-218750J0D01*
G01*
X128818750Y-87975000D01*
G75*
G02*
X128600000Y-87756250I0J218750D01*
G01*
X128600000Y-87243750D01*
G75*
G02*
X128818750Y-87025000I218750J0D01*
G01*
X129256250Y-87025000D01*
G75*
G02*
X129475000Y-87243750I0J-218750D01*
G01*
G37*
G36*
G01*
X127900000Y-88743750D02*
X127900000Y-89256250D01*
G75*
G02*
X127681250Y-89475000I-218750J0D01*
G01*
X127243750Y-89475000D01*
G75*
G02*
X127025000Y-89256250I0J218750D01*
G01*
X127025000Y-88743750D01*
G75*
G02*
X127243750Y-88525000I218750J0D01*
G01*
X127681250Y-88525000D01*
G75*
G02*
X127900000Y-88743750I0J-218750D01*
G01*
G37*
G36*
G01*
X129475000Y-88743750D02*
X129475000Y-89256250D01*
G75*
G02*
X129256250Y-89475000I-218750J0D01*
G01*
X128818750Y-89475000D01*
G75*
G02*
X128600000Y-89256250I0J218750D01*
G01*
X128600000Y-88743750D01*
G75*
G02*
X128818750Y-88525000I218750J0D01*
G01*
X129256250Y-88525000D01*
G75*
G02*
X129475000Y-88743750I0J-218750D01*
G01*
G37*
G36*
G01*
X120150000Y-90243750D02*
X120150000Y-90756250D01*
G75*
G02*
X119931250Y-90975000I-218750J0D01*
G01*
X119493750Y-90975000D01*
G75*
G02*
X119275000Y-90756250I0J218750D01*
G01*
X119275000Y-90243750D01*
G75*
G02*
X119493750Y-90025000I218750J0D01*
G01*
X119931250Y-90025000D01*
G75*
G02*
X120150000Y-90243750I0J-218750D01*
G01*
G37*
G36*
G01*
X121725000Y-90243750D02*
X121725000Y-90756250D01*
G75*
G02*
X121506250Y-90975000I-218750J0D01*
G01*
X121068750Y-90975000D01*
G75*
G02*
X120850000Y-90756250I0J218750D01*
G01*
X120850000Y-90243750D01*
G75*
G02*
X121068750Y-90025000I218750J0D01*
G01*
X121506250Y-90025000D01*
G75*
G02*
X121725000Y-90243750I0J-218750D01*
G01*
G37*
G36*
G01*
X120850000Y-79256250D02*
X120850000Y-78743750D01*
G75*
G02*
X121068750Y-78525000I218750J0D01*
G01*
X121506250Y-78525000D01*
G75*
G02*
X121725000Y-78743750I0J-218750D01*
G01*
X121725000Y-79256250D01*
G75*
G02*
X121506250Y-79475000I-218750J0D01*
G01*
X121068750Y-79475000D01*
G75*
G02*
X120850000Y-79256250I0J218750D01*
G01*
G37*
G36*
G01*
X119275000Y-79256250D02*
X119275000Y-78743750D01*
G75*
G02*
X119493750Y-78525000I218750J0D01*
G01*
X119931250Y-78525000D01*
G75*
G02*
X120150000Y-78743750I0J-218750D01*
G01*
X120150000Y-79256250D01*
G75*
G02*
X119931250Y-79475000I-218750J0D01*
G01*
X119493750Y-79475000D01*
G75*
G02*
X119275000Y-79256250I0J218750D01*
G01*
G37*
M02*
