G04 #@! TF.GenerationSoftware,KiCad,Pcbnew,7.0.9*
G04 #@! TF.CreationDate,2024-02-28T09:18:08+02:00*
G04 #@! TF.ProjectId,link,6c696e6b-2e6b-4696-9361-645f70636258,rev?*
G04 #@! TF.SameCoordinates,Original*
G04 #@! TF.FileFunction,Copper,L1,Top*
G04 #@! TF.FilePolarity,Positive*
%FSLAX46Y46*%
G04 Gerber Fmt 4.6, Leading zero omitted, Abs format (unit mm)*
G04 Created by KiCad (PCBNEW 7.0.9) date 2024-02-28 09:18:08*
%MOMM*%
%LPD*%
G01*
G04 APERTURE LIST*
G04 Aperture macros list*
%AMRoundRect*
0 Rectangle with rounded corners*
0 $1 Rounding radius*
0 $2 $3 $4 $5 $6 $7 $8 $9 X,Y pos of 4 corners*
0 Add a 4 corners polygon primitive as box body*
4,1,4,$2,$3,$4,$5,$6,$7,$8,$9,$2,$3,0*
0 Add four circle primitives for the rounded corners*
1,1,$1+$1,$2,$3*
1,1,$1+$1,$4,$5*
1,1,$1+$1,$6,$7*
1,1,$1+$1,$8,$9*
0 Add four rect primitives between the rounded corners*
20,1,$1+$1,$2,$3,$4,$5,0*
20,1,$1+$1,$4,$5,$6,$7,0*
20,1,$1+$1,$6,$7,$8,$9,0*
20,1,$1+$1,$8,$9,$2,$3,0*%
%AMFreePoly0*
4,1,9,3.862500,-0.866500,0.737500,-0.866500,0.737500,-0.450000,-0.737500,-0.450000,-0.737500,0.450000,0.737500,0.450000,0.737500,0.866500,3.862500,0.866500,3.862500,-0.866500,3.862500,-0.866500,$1*%
G04 Aperture macros list end*
G04 #@! TA.AperFunction,SMDPad,CuDef*
%ADD10RoundRect,0.249999X-0.325001X-0.650001X0.325001X-0.650001X0.325001X0.650001X-0.325001X0.650001X0*%
G04 #@! TD*
G04 #@! TA.AperFunction,SMDPad,CuDef*
%ADD11RoundRect,0.218750X-0.256250X0.218750X-0.256250X-0.218750X0.256250X-0.218750X0.256250X0.218750X0*%
G04 #@! TD*
G04 #@! TA.AperFunction,SMDPad,CuDef*
%ADD12RoundRect,0.218750X0.218750X0.256250X-0.218750X0.256250X-0.218750X-0.256250X0.218750X-0.256250X0*%
G04 #@! TD*
G04 #@! TA.AperFunction,ComponentPad*
%ADD13C,5.000000*%
G04 #@! TD*
G04 #@! TA.AperFunction,SMDPad,CuDef*
%ADD14RoundRect,0.150000X-0.625000X0.150000X-0.625000X-0.150000X0.625000X-0.150000X0.625000X0.150000X0*%
G04 #@! TD*
G04 #@! TA.AperFunction,SMDPad,CuDef*
%ADD15RoundRect,0.249999X-0.650001X0.350001X-0.650001X-0.350001X0.650001X-0.350001X0.650001X0.350001X0*%
G04 #@! TD*
G04 #@! TA.AperFunction,SMDPad,CuDef*
%ADD16R,1.450000X0.300000*%
G04 #@! TD*
G04 #@! TA.AperFunction,ComponentPad*
%ADD17RoundRect,0.500000X-0.300000X0.000000X-0.300000X0.000000X0.300000X0.000000X0.300000X0.000000X0*%
G04 #@! TD*
G04 #@! TA.AperFunction,SMDPad,CuDef*
%ADD18RoundRect,0.218750X-0.218750X-0.256250X0.218750X-0.256250X0.218750X0.256250X-0.218750X0.256250X0*%
G04 #@! TD*
G04 #@! TA.AperFunction,SMDPad,CuDef*
%ADD19RoundRect,0.249999X-0.312501X-0.625001X0.312501X-0.625001X0.312501X0.625001X-0.312501X0.625001X0*%
G04 #@! TD*
G04 #@! TA.AperFunction,ComponentPad*
%ADD20R,1.700000X1.700000*%
G04 #@! TD*
G04 #@! TA.AperFunction,ComponentPad*
%ADD21O,1.700000X1.700000*%
G04 #@! TD*
G04 #@! TA.AperFunction,SMDPad,CuDef*
%ADD22RoundRect,0.225000X0.225000X0.250000X-0.225000X0.250000X-0.225000X-0.250000X0.225000X-0.250000X0*%
G04 #@! TD*
G04 #@! TA.AperFunction,SMDPad,CuDef*
%ADD23RoundRect,0.200000X-0.200000X-0.275000X0.200000X-0.275000X0.200000X0.275000X-0.200000X0.275000X0*%
G04 #@! TD*
G04 #@! TA.AperFunction,SMDPad,CuDef*
%ADD24RoundRect,0.062500X-0.337500X-0.062500X0.337500X-0.062500X0.337500X0.062500X-0.337500X0.062500X0*%
G04 #@! TD*
G04 #@! TA.AperFunction,SMDPad,CuDef*
%ADD25RoundRect,0.062500X-0.062500X-0.337500X0.062500X-0.337500X0.062500X0.337500X-0.062500X0.337500X0*%
G04 #@! TD*
G04 #@! TA.AperFunction,SMDPad,CuDef*
%ADD26R,3.350000X3.350000*%
G04 #@! TD*
G04 #@! TA.AperFunction,SMDPad,CuDef*
%ADD27R,0.900000X1.300000*%
G04 #@! TD*
G04 #@! TA.AperFunction,SMDPad,CuDef*
%ADD28FreePoly0,90.000000*%
G04 #@! TD*
G04 #@! TA.AperFunction,SMDPad,CuDef*
%ADD29R,0.650000X0.400000*%
G04 #@! TD*
G04 #@! TA.AperFunction,SMDPad,CuDef*
%ADD30R,0.800000X0.500000*%
G04 #@! TD*
G04 #@! TA.AperFunction,SMDPad,CuDef*
%ADD31R,0.800000X0.400000*%
G04 #@! TD*
G04 #@! TA.AperFunction,SMDPad,CuDef*
%ADD32R,0.500000X0.375000*%
G04 #@! TD*
G04 #@! TA.AperFunction,SMDPad,CuDef*
%ADD33R,0.650000X0.300000*%
G04 #@! TD*
G04 #@! TA.AperFunction,ViaPad*
%ADD34C,0.600000*%
G04 #@! TD*
G04 #@! TA.AperFunction,ViaPad*
%ADD35C,0.800000*%
G04 #@! TD*
G04 #@! TA.AperFunction,Conductor*
%ADD36C,0.200000*%
G04 #@! TD*
G04 #@! TA.AperFunction,Conductor*
%ADD37C,0.300000*%
G04 #@! TD*
G04 #@! TA.AperFunction,Conductor*
%ADD38C,0.500000*%
G04 #@! TD*
G04 #@! TA.AperFunction,Conductor*
%ADD39C,0.250000*%
G04 #@! TD*
G04 #@! TA.AperFunction,Conductor*
%ADD40C,0.400000*%
G04 #@! TD*
G04 APERTURE END LIST*
D10*
X118925000Y-80000000D03*
X121875000Y-80000000D03*
D11*
X143000000Y-97812500D03*
X143000000Y-99387500D03*
D12*
X129037500Y-87500000D03*
X127462500Y-87500000D03*
D11*
X150000000Y-97812500D03*
X150000000Y-99387500D03*
D12*
X121287500Y-89000000D03*
X119712500Y-89000000D03*
D13*
X115000000Y-75000000D03*
X115000000Y-97000000D03*
X157000000Y-97000000D03*
X157000000Y-75000000D03*
D14*
X147675000Y-83500000D03*
X147675000Y-84500000D03*
X147675000Y-85500000D03*
X147675000Y-86500000D03*
X147675000Y-87500000D03*
X147675000Y-88500000D03*
D15*
X150200000Y-82200000D03*
X150200000Y-89800000D03*
D16*
X117600000Y-82600000D03*
X117600000Y-83400000D03*
X117600000Y-84750000D03*
X117600000Y-85750000D03*
X117600000Y-86250000D03*
X117600000Y-87250000D03*
X117600000Y-88600000D03*
X117600000Y-89400000D03*
X117600000Y-89100000D03*
X117600000Y-88300000D03*
X117600000Y-87750000D03*
X117600000Y-86750000D03*
X117600000Y-85250000D03*
X117600000Y-84250000D03*
X117600000Y-83700000D03*
X117600000Y-82900000D03*
D17*
X116680000Y-81680000D03*
X112500000Y-81680000D03*
X116680000Y-90320000D03*
X112500000Y-90320000D03*
D18*
X119712500Y-87500000D03*
X121287500Y-87500000D03*
X119712500Y-84250000D03*
X121287500Y-84250000D03*
D19*
X118937500Y-77600000D03*
X121862500Y-77600000D03*
D12*
X141287500Y-79500000D03*
X139712500Y-79500000D03*
D20*
X121880000Y-99000000D03*
D21*
X124420000Y-99000000D03*
X126960000Y-99000000D03*
X129500000Y-99000000D03*
X132040000Y-99000000D03*
X134580000Y-99000000D03*
X137120000Y-99000000D03*
X139660000Y-99000000D03*
D20*
X122000000Y-73000000D03*
D21*
X124540000Y-73000000D03*
X127080000Y-73000000D03*
X129620000Y-73000000D03*
X132160000Y-73000000D03*
X134700000Y-73000000D03*
X137240000Y-73000000D03*
X139780000Y-73000000D03*
D20*
X156700000Y-79650000D03*
D21*
X156700000Y-82190000D03*
X156700000Y-84730000D03*
X156700000Y-87270000D03*
X156700000Y-89810000D03*
X156700000Y-92350000D03*
D22*
X141275000Y-81250000D03*
X139725000Y-81250000D03*
D23*
X123675000Y-89000000D03*
X125325000Y-89000000D03*
X123675000Y-87500000D03*
X125325000Y-87500000D03*
D24*
X130550000Y-84250000D03*
X130550000Y-84750000D03*
X130550000Y-85250000D03*
X130550000Y-85750000D03*
X130550000Y-86250000D03*
X130550000Y-86750000D03*
X130550000Y-87250000D03*
D25*
X131500000Y-88200000D03*
X132000000Y-88200000D03*
X132500000Y-88200000D03*
X133000000Y-88200000D03*
X133500000Y-88200000D03*
X134000000Y-88200000D03*
X134500000Y-88200000D03*
D24*
X135450000Y-87250000D03*
X135450000Y-86750000D03*
X135450000Y-86250000D03*
X135450000Y-85750000D03*
X135450000Y-85250000D03*
X135450000Y-84750000D03*
X135450000Y-84250000D03*
D25*
X134500000Y-83300000D03*
X134000000Y-83300000D03*
X133500000Y-83300000D03*
X133000000Y-83300000D03*
X132500000Y-83300000D03*
X132000000Y-83300000D03*
X131500000Y-83300000D03*
D26*
X133000000Y-85750000D03*
D27*
X145000000Y-99150000D03*
D28*
X146500000Y-99062500D03*
D27*
X148000000Y-99150000D03*
D12*
X129037500Y-89000000D03*
X127462500Y-89000000D03*
X141287500Y-92500000D03*
X139712500Y-92500000D03*
D29*
X141450000Y-84400000D03*
X141450000Y-83750000D03*
X141450000Y-83100000D03*
X139550000Y-83100000D03*
X139550000Y-83750000D03*
X139550000Y-84400000D03*
D30*
X139600000Y-86300000D03*
D31*
X139600000Y-87100000D03*
X139600000Y-87900000D03*
D30*
X139600000Y-88700000D03*
X141400000Y-88700000D03*
D31*
X141400000Y-87900000D03*
X141400000Y-87100000D03*
D30*
X141400000Y-86300000D03*
D18*
X115712500Y-92500000D03*
X117287500Y-92500000D03*
D32*
X123650000Y-84712500D03*
D33*
X123575000Y-85250000D03*
D32*
X123650000Y-85787500D03*
X125350000Y-85787500D03*
D33*
X125425000Y-85250000D03*
D32*
X125350000Y-84712500D03*
D34*
X133000000Y-85750000D03*
X127500000Y-86500000D03*
X125500000Y-81000000D03*
X123750000Y-91250000D03*
X119200000Y-90600000D03*
X127000000Y-82150000D03*
X118600000Y-90600000D03*
X122500000Y-87600000D03*
X135750000Y-95000000D03*
X118900000Y-82500000D03*
X122600000Y-85600000D03*
X136750000Y-79250000D03*
X146200000Y-87500000D03*
X144750000Y-100250000D03*
X119500000Y-82500000D03*
X143500000Y-80750000D03*
X149200000Y-100400000D03*
X118600000Y-90000000D03*
X143100000Y-87800000D03*
X144000000Y-100250000D03*
X119500000Y-81900000D03*
X122600000Y-83800000D03*
X118600000Y-91200000D03*
X126499992Y-87500000D03*
X159900000Y-86000000D03*
X150500000Y-100400000D03*
X123200000Y-77600000D03*
X145000000Y-90700000D03*
X149850000Y-100400000D03*
X149100000Y-87500000D03*
X123250000Y-80000000D03*
X119200000Y-91200000D03*
X145500000Y-100250000D03*
X126500000Y-89000000D03*
X131500000Y-80750000D03*
X138250000Y-95000000D03*
X118900000Y-81900000D03*
X120500000Y-86700000D03*
X120500000Y-85150500D03*
X122037000Y-93750000D03*
X136036487Y-91496411D03*
X129500000Y-91250000D03*
X120500000Y-93750000D03*
X133424265Y-78024265D03*
X137750000Y-78000000D03*
X133400000Y-77200000D03*
X137753147Y-77199994D03*
X142500000Y-84250000D03*
X133600000Y-81250000D03*
X137000000Y-81250000D03*
X130500000Y-82250000D03*
X137000000Y-82250000D03*
X129500000Y-94500000D03*
X127000000Y-94500000D03*
X134500000Y-94500000D03*
X132000000Y-94500000D03*
X124500000Y-94500000D03*
X135750000Y-90750000D03*
X130250000Y-90599500D03*
X145100000Y-96800000D03*
X145100000Y-96100000D03*
X145100000Y-95400000D03*
X145100000Y-94700000D03*
X145800000Y-94700000D03*
X146500000Y-94700000D03*
X147200000Y-94700000D03*
X147900000Y-94700000D03*
X147900000Y-96100000D03*
X147900000Y-95400000D03*
X147900000Y-97500000D03*
X147900000Y-96800000D03*
X145100000Y-97500000D03*
D35*
X130000000Y-88300000D03*
X138250000Y-90500000D03*
D34*
X142500000Y-83000000D03*
D36*
X132500000Y-85250000D02*
X133000000Y-85750000D01*
X130550000Y-85250000D02*
X132500000Y-85250000D01*
D37*
X123575000Y-85250000D02*
X122950000Y-85250000D01*
X127462500Y-87500000D02*
X126499992Y-87500000D01*
X122200000Y-87500000D02*
X122300000Y-87600000D01*
X127462500Y-89000000D02*
X126500000Y-89000000D01*
X122950000Y-85250000D02*
X122600000Y-85600000D01*
X121287500Y-87500000D02*
X122200000Y-87500000D01*
D38*
X118815000Y-80110000D02*
X118925000Y-80000000D01*
X118925000Y-77612500D02*
X118937500Y-77600000D01*
X116680000Y-81680000D02*
X118250000Y-80110000D01*
X118250000Y-80110000D02*
X118815000Y-80110000D01*
X118925000Y-80000000D02*
X118925000Y-77612500D01*
D39*
X124500000Y-84949022D02*
X124800978Y-85250000D01*
X124800978Y-85250000D02*
X125425000Y-85250000D01*
X124500000Y-83800000D02*
X124500000Y-84949022D01*
X117600000Y-83400000D02*
X121600000Y-83400000D01*
X121600000Y-83400000D02*
X122100000Y-82900000D01*
X122100000Y-82900000D02*
X123600000Y-82900000D01*
X123600000Y-82900000D02*
X124500000Y-83800000D01*
D36*
X116675000Y-86750000D02*
X116500000Y-86575000D01*
X121550000Y-85750000D02*
X122587500Y-84712500D01*
X116500000Y-85925000D02*
X116675000Y-85750000D01*
X116675000Y-85750000D02*
X117600000Y-85750000D01*
X117600000Y-86750000D02*
X116675000Y-86750000D01*
X117600000Y-85750000D02*
X121550000Y-85750000D01*
X122587500Y-84712500D02*
X123650000Y-84712500D01*
X116500000Y-86575000D02*
X116500000Y-85925000D01*
X122850000Y-86250000D02*
X123312500Y-85787500D01*
X120500000Y-86700000D02*
X120500000Y-86300000D01*
X120550000Y-86250000D02*
X122850000Y-86250000D01*
X120500000Y-86300000D02*
X120550000Y-86250000D01*
X117600000Y-85250000D02*
X120400500Y-85250000D01*
X117600000Y-86250000D02*
X120550000Y-86250000D01*
X120400500Y-85250000D02*
X120500000Y-85150500D01*
X123312500Y-85787500D02*
X123650000Y-85787500D01*
X118500000Y-92500000D02*
X117287500Y-92500000D01*
X124684994Y-93750000D02*
X122037000Y-93750000D01*
X136503589Y-91496411D02*
X136036487Y-91496411D01*
X139600000Y-88700000D02*
X138115006Y-88700000D01*
X120500000Y-93750000D02*
X119750000Y-93750000D01*
X124717497Y-93717497D02*
X124684994Y-93750000D01*
X138115006Y-88700000D02*
X136750000Y-90065006D01*
X128250000Y-91850480D02*
X126584514Y-91850480D01*
X119750000Y-93750000D02*
X118500000Y-92500000D01*
X128899520Y-91850480D02*
X128250000Y-91850480D01*
X136750000Y-90065006D02*
X136750000Y-91250000D01*
X126584514Y-91850480D02*
X124717497Y-93717497D01*
X136750000Y-91250000D02*
X136503589Y-91496411D01*
X129500000Y-91250000D02*
X128899520Y-91850480D01*
X137250000Y-90250000D02*
X137250000Y-92750000D01*
X138000000Y-89500000D02*
X137250000Y-90250000D01*
X140800000Y-87100000D02*
X140500000Y-87400000D01*
X140000000Y-89500000D02*
X138000000Y-89500000D01*
X140500000Y-87400000D02*
X140500000Y-89000000D01*
X137250000Y-92750000D02*
X138000000Y-93500000D01*
X140500000Y-89000000D02*
X140000000Y-89500000D01*
X140287500Y-93500000D02*
X141287500Y-92500000D01*
X138000000Y-93500000D02*
X140287500Y-93500000D01*
X141400000Y-87100000D02*
X140800000Y-87100000D01*
X137841143Y-78000000D02*
X137750000Y-78000000D01*
X138241143Y-77600000D02*
X137841143Y-78000000D01*
D37*
X147775000Y-86400000D02*
X154500000Y-86400000D01*
X156150000Y-87250000D02*
X157000000Y-87250000D01*
X155370000Y-87270000D02*
X156700000Y-87270000D01*
D36*
X133424265Y-78024265D02*
X133000000Y-78448530D01*
X146900000Y-86500000D02*
X145800000Y-85400000D01*
D37*
X154500000Y-86400000D02*
X155370000Y-87270000D01*
D36*
X147675000Y-86500000D02*
X146900000Y-86500000D01*
X144234302Y-77600000D02*
X138241143Y-77600000D01*
D37*
X147675000Y-86500000D02*
X147775000Y-86400000D01*
D36*
X145800000Y-79165698D02*
X144234302Y-77600000D01*
X133000000Y-78448530D02*
X133000000Y-83300000D01*
X145800000Y-85400000D02*
X145800000Y-79165698D01*
D37*
X156390000Y-84710000D02*
X157000000Y-84710000D01*
D36*
X146200000Y-79000000D02*
X144399994Y-77199994D01*
X144399994Y-77199994D02*
X137753147Y-77199994D01*
D37*
X155370000Y-84730000D02*
X156700000Y-84730000D01*
X147675000Y-85500000D02*
X147775000Y-85600000D01*
X154500000Y-85600000D02*
X155370000Y-84730000D01*
D36*
X146200000Y-85200000D02*
X146200000Y-79000000D01*
X147675000Y-85500000D02*
X146500000Y-85500000D01*
X132500000Y-78100000D02*
X132500000Y-83300000D01*
X146500000Y-85500000D02*
X146200000Y-85200000D01*
D37*
X147775000Y-85600000D02*
X154500000Y-85600000D01*
D36*
X133400000Y-77200000D02*
X132500000Y-78100000D01*
X140500000Y-85000000D02*
X142000000Y-85000000D01*
D37*
X154390000Y-84500000D02*
X156700000Y-82190000D01*
D36*
X139550000Y-84400000D02*
X139900000Y-84400000D01*
D37*
X147675000Y-84500000D02*
X154390000Y-84500000D01*
D36*
X139900000Y-84400000D02*
X140500000Y-85000000D01*
X142000000Y-85000000D02*
X142500000Y-84500000D01*
X142500000Y-84500000D02*
X142500000Y-84250000D01*
X142250000Y-80000000D02*
X142250000Y-81750000D01*
X143250000Y-82750000D02*
X143250000Y-85250000D01*
X141750000Y-79500000D02*
X142250000Y-80000000D01*
X142200000Y-86300000D02*
X141400000Y-86300000D01*
X141287500Y-79500000D02*
X141750000Y-79500000D01*
X143250000Y-85250000D02*
X142200000Y-86300000D01*
X142250000Y-81750000D02*
X143250000Y-82750000D01*
X118525000Y-84750000D02*
X117600000Y-84750000D01*
X119712500Y-84250000D02*
X119275000Y-84250000D01*
X119275000Y-84250000D02*
X118775000Y-84750000D01*
X118775000Y-84750000D02*
X118525000Y-84750000D01*
X119462500Y-87750000D02*
X119712500Y-87500000D01*
X117600000Y-87750000D02*
X119462500Y-87750000D01*
X133600000Y-81250000D02*
X134000000Y-81250000D01*
X137350000Y-81250000D02*
X137600000Y-81500000D01*
X134100001Y-75600001D02*
X132160000Y-73660000D01*
X140674022Y-83750000D02*
X141450000Y-83750000D01*
X138100000Y-83100000D02*
X139550000Y-83100000D01*
X134100001Y-81149999D02*
X134100001Y-75600001D01*
X133500000Y-83300000D02*
X133500000Y-82250000D01*
X140024022Y-83100000D02*
X140674022Y-83750000D01*
X134000000Y-81250000D02*
X134100001Y-81149999D01*
X139550000Y-83100000D02*
X140024022Y-83100000D01*
X137000000Y-81250000D02*
X137350000Y-81250000D01*
X137600000Y-81500000D02*
X137600000Y-82600000D01*
X133500000Y-82250000D02*
X134100001Y-81649999D01*
X134100001Y-81649999D02*
X134100001Y-81149999D01*
X137600000Y-82600000D02*
X138100000Y-83100000D01*
X132160000Y-73660000D02*
X132160000Y-73000000D01*
X129900008Y-82900008D02*
X130300000Y-83300000D01*
X130550000Y-83300000D02*
X131500000Y-83300000D01*
X137000000Y-82565006D02*
X138184994Y-83750000D01*
X130300000Y-83300000D02*
X130550000Y-83300000D01*
X139550000Y-83750000D02*
X140109016Y-83750000D01*
X140109016Y-83750000D02*
X140759016Y-84400000D01*
X138184994Y-83750000D02*
X139550000Y-83750000D01*
X127080000Y-73000000D02*
X127080000Y-76764302D01*
X129900008Y-79584310D02*
X129900008Y-82900008D01*
X127080000Y-76764302D02*
X129900008Y-79584310D01*
X137000000Y-82250000D02*
X137000000Y-82565006D01*
X130550000Y-83300000D02*
X130550000Y-82300000D01*
X130550000Y-82300000D02*
X130500000Y-82250000D01*
X140759016Y-84400000D02*
X141450000Y-84400000D01*
X136250000Y-85750000D02*
X135450000Y-85750000D01*
X137600000Y-87100000D02*
X136250000Y-85750000D01*
X139600000Y-87100000D02*
X137600000Y-87100000D01*
X137365006Y-86300000D02*
X139600000Y-86300000D01*
X136315006Y-85250000D02*
X137365006Y-86300000D01*
X135450000Y-85250000D02*
X136315006Y-85250000D01*
X129815698Y-84250000D02*
X129500000Y-83934302D01*
X129500000Y-83934302D02*
X129500000Y-79750000D01*
X130550000Y-84250000D02*
X129815698Y-84250000D01*
X124540000Y-74790000D02*
X124540000Y-73000000D01*
X129500000Y-79750000D02*
X124540000Y-74790000D01*
X130300018Y-79418621D02*
X130300018Y-81050018D01*
X132000000Y-82750000D02*
X132000000Y-83300000D01*
X129620000Y-73000000D02*
X129620000Y-78738604D01*
X129620000Y-78738604D02*
X130300018Y-79418621D01*
X130300018Y-81050018D02*
X132000000Y-82750000D01*
X134000000Y-83300000D02*
X134000000Y-82500000D01*
X134000000Y-82500000D02*
X134500011Y-81999989D01*
X134500011Y-81999989D02*
X134500011Y-73199989D01*
X134500011Y-73199989D02*
X134700000Y-73000000D01*
X129500000Y-93500000D02*
X129500000Y-94500000D01*
X133500000Y-88200000D02*
X133500000Y-89500000D01*
X133500000Y-89500000D02*
X129500000Y-93500000D01*
X127934300Y-94500000D02*
X127000000Y-94500000D01*
X133000000Y-89434300D02*
X127934300Y-94500000D01*
X133000000Y-88200000D02*
X133000000Y-89434300D01*
X134500000Y-91065700D02*
X134500000Y-94500000D01*
X136550021Y-89015679D02*
X134500000Y-91065700D01*
X135450000Y-86250000D02*
X136065699Y-86250000D01*
X136550021Y-86734321D02*
X136550021Y-89015679D01*
X136065699Y-86250000D02*
X136550021Y-86734321D01*
X136150010Y-88849990D02*
X132000000Y-93000000D01*
X136150010Y-86900010D02*
X136150010Y-88849990D01*
X135450000Y-86750000D02*
X136000000Y-86750000D01*
X136000000Y-86750000D02*
X136150010Y-86900010D01*
X132000000Y-93000000D02*
X132000000Y-94500000D01*
X129000000Y-84000000D02*
X129000000Y-80000000D01*
X129750000Y-84750000D02*
X129000000Y-84000000D01*
X130550000Y-84750000D02*
X129750000Y-84750000D01*
X129000000Y-80000000D02*
X122000000Y-73000000D01*
X126750000Y-92250000D02*
X128250000Y-92250000D01*
X129618600Y-92250000D02*
X128250000Y-92250000D01*
X135750000Y-90500000D02*
X135750000Y-90750000D01*
X132000000Y-89868600D02*
X130809300Y-91059300D01*
X139600000Y-87900000D02*
X138350000Y-87900000D01*
X130809300Y-91059300D02*
X129618600Y-92250000D01*
X138350000Y-87900000D02*
X135750000Y-90500000D01*
X130709800Y-91059300D02*
X130809300Y-91059300D01*
X124500000Y-94500000D02*
X126750000Y-92250000D01*
X130250000Y-90599500D02*
X130709800Y-91059300D01*
X132000000Y-88200000D02*
X132000000Y-89868600D01*
D38*
X121287500Y-90500000D02*
X121287500Y-96287500D01*
X146500000Y-99062500D02*
X146500000Y-97500000D01*
X121287500Y-96287500D02*
X143212500Y-96287500D01*
D37*
X123675000Y-89000000D02*
X121287500Y-89000000D01*
D38*
X121287500Y-97287500D02*
X121880000Y-97880000D01*
X143212500Y-96287500D02*
X145037500Y-96287500D01*
X121880000Y-97880000D02*
X121880000Y-99000000D01*
X146500000Y-97500000D02*
X147900000Y-97500000D01*
X121287500Y-96287500D02*
X121287500Y-97287500D01*
X121287500Y-89000000D02*
X121287500Y-90500000D01*
X151187500Y-97812500D02*
X152500000Y-96500000D01*
X152500000Y-92500000D02*
X152500000Y-89500000D01*
D37*
X142500000Y-88250000D02*
X142500000Y-88750000D01*
D40*
X129037500Y-87500000D02*
X129037500Y-89000000D01*
D38*
X144500000Y-88500000D02*
X143125000Y-89875000D01*
D37*
X141400000Y-87900000D02*
X142150000Y-87900000D01*
D38*
X152500000Y-96500000D02*
X152500000Y-92500000D01*
X152650000Y-92350000D02*
X152500000Y-92500000D01*
X148662500Y-99150000D02*
X150000000Y-97812500D01*
D37*
X141400000Y-88700000D02*
X142450000Y-88700000D01*
X129750000Y-87050000D02*
X129750000Y-87250000D01*
D38*
X152500000Y-89500000D02*
X151500000Y-88500000D01*
D40*
X129287500Y-87250000D02*
X129037500Y-87500000D01*
D38*
X130000000Y-88300000D02*
X129037500Y-88300000D01*
X139500000Y-90500000D02*
X142500000Y-90500000D01*
X129037500Y-88300000D02*
X129037500Y-89000000D01*
X145250000Y-88500000D02*
X144500000Y-88500000D01*
D36*
X139712500Y-78537500D02*
X140025010Y-78224990D01*
D37*
X142150000Y-87900000D02*
X142500000Y-88250000D01*
D36*
X145399990Y-79399990D02*
X145399990Y-88350010D01*
X139712500Y-79500000D02*
X139712500Y-78537500D01*
D38*
X150000000Y-97812500D02*
X151187500Y-97812500D01*
D37*
X130550000Y-87250000D02*
X129750000Y-87250000D01*
X130550000Y-86750000D02*
X130050000Y-86750000D01*
X130050000Y-86750000D02*
X129750000Y-87050000D01*
D38*
X138250000Y-90500000D02*
X139500000Y-90500000D01*
D37*
X142500000Y-88750000D02*
X142500000Y-89250000D01*
X142500000Y-89250000D02*
X143125000Y-89875000D01*
D38*
X151500000Y-88500000D02*
X147675000Y-88500000D01*
D36*
X140025010Y-78224990D02*
X144224990Y-78224990D01*
D38*
X142500000Y-90500000D02*
X143125000Y-89875000D01*
D36*
X139712500Y-92500000D02*
X139712500Y-90712500D01*
D38*
X148000000Y-99150000D02*
X148662500Y-99150000D01*
D36*
X145399990Y-88350010D02*
X145250000Y-88500000D01*
D38*
X156700000Y-92350000D02*
X152650000Y-92350000D01*
X147675000Y-88500000D02*
X145250000Y-88500000D01*
D40*
X129750000Y-87250000D02*
X129287500Y-87250000D01*
D36*
X144224990Y-78224990D02*
X145399990Y-79399990D01*
X139712500Y-90712500D02*
X139500000Y-90500000D01*
D37*
X142450000Y-88700000D02*
X142500000Y-88750000D01*
X147675000Y-83500000D02*
X153900000Y-83500000D01*
D36*
X142400000Y-83100000D02*
X142500000Y-83000000D01*
X141450000Y-83100000D02*
X142400000Y-83100000D01*
D37*
X155550000Y-79650000D02*
X156700000Y-79650000D01*
X155100000Y-82300000D02*
X155100000Y-80100000D01*
X153900000Y-83500000D02*
X155100000Y-82300000D01*
D36*
X141450000Y-83100000D02*
X141450000Y-81425000D01*
D37*
X155100000Y-80100000D02*
X155550000Y-79650000D01*
D36*
X141450000Y-81425000D02*
X141275000Y-81250000D01*
X137240000Y-73000000D02*
X135000000Y-75240000D01*
X135000000Y-82250000D02*
X134500000Y-82750000D01*
X134500000Y-82750000D02*
X134500000Y-83300000D01*
X135000000Y-75240000D02*
X135000000Y-82250000D01*
X135750000Y-77030000D02*
X139780000Y-73000000D01*
X135450000Y-84250000D02*
X135450000Y-77330000D01*
X135450000Y-77330000D02*
X135750000Y-77030000D01*
D37*
X123675000Y-87500000D02*
X123825000Y-87500000D01*
D36*
X131500000Y-89239259D02*
X131500000Y-88200000D01*
D37*
X123825000Y-87500000D02*
X125325000Y-89000000D01*
D36*
X130964249Y-89775010D02*
X131500000Y-89239259D01*
X126100010Y-89775010D02*
X130964249Y-89775010D01*
X125325000Y-89000000D02*
X126100010Y-89775010D01*
X129187500Y-85787500D02*
X129650000Y-86250000D01*
X125350000Y-85787500D02*
X129187500Y-85787500D01*
X129650000Y-86250000D02*
X130550000Y-86250000D01*
X129715698Y-85750000D02*
X130550000Y-85750000D01*
X125350000Y-84712500D02*
X125961522Y-84712500D01*
X125961522Y-84712500D02*
X126637002Y-85387980D01*
X129353678Y-85387980D02*
X129715698Y-85750000D01*
X126637002Y-85387980D02*
X129353678Y-85387980D01*
G04 #@! TA.AperFunction,Conductor*
G36*
X150358188Y-91501078D02*
G01*
X150462963Y-91514872D01*
X150494735Y-91523385D01*
X150584674Y-91560639D01*
X150613160Y-91577086D01*
X150690393Y-91636349D01*
X150713651Y-91659607D01*
X150772914Y-91736840D01*
X150789361Y-91765326D01*
X150826615Y-91855265D01*
X150835128Y-91887037D01*
X150848922Y-91991812D01*
X150850000Y-92008258D01*
X150850000Y-97236000D01*
X150829998Y-97304121D01*
X150776342Y-97350614D01*
X150724000Y-97362000D01*
X150669599Y-97362000D01*
X150601478Y-97341998D01*
X150580504Y-97325095D01*
X150505751Y-97250342D01*
X150387420Y-97190049D01*
X150289246Y-97174500D01*
X149710754Y-97174500D01*
X149612580Y-97190049D01*
X149494249Y-97250342D01*
X149400342Y-97344249D01*
X149340049Y-97462580D01*
X149324500Y-97560754D01*
X149324500Y-97798705D01*
X149304498Y-97866826D01*
X149287596Y-97887800D01*
X148990991Y-98184406D01*
X148962302Y-98213095D01*
X148899989Y-98247120D01*
X148873206Y-98250000D01*
X142908258Y-98250000D01*
X142891812Y-98248922D01*
X142787037Y-98235128D01*
X142755265Y-98226615D01*
X142665326Y-98189361D01*
X142636840Y-98172914D01*
X142559607Y-98113651D01*
X142536349Y-98090393D01*
X142477086Y-98013160D01*
X142460639Y-97984674D01*
X142423385Y-97894735D01*
X142414872Y-97862963D01*
X142401078Y-97758188D01*
X142400000Y-97741742D01*
X142400000Y-92008258D01*
X142401078Y-91991812D01*
X142414872Y-91887037D01*
X142423385Y-91855265D01*
X142460639Y-91765326D01*
X142477086Y-91736840D01*
X142536349Y-91659607D01*
X142559607Y-91636349D01*
X142636840Y-91577086D01*
X142665326Y-91560639D01*
X142755265Y-91523385D01*
X142787037Y-91514872D01*
X142891812Y-91501078D01*
X142908258Y-91500000D01*
X150341742Y-91500000D01*
X150358188Y-91501078D01*
G37*
G04 #@! TD.AperFunction*
G04 #@! TA.AperFunction,Conductor*
G36*
X117507148Y-80701422D02*
G01*
X117527097Y-80705390D01*
X117562102Y-80712353D01*
X117588773Y-80723400D01*
X117629184Y-80750402D01*
X117649597Y-80770815D01*
X117676600Y-80811227D01*
X117687648Y-80837900D01*
X117698578Y-80892852D01*
X117700000Y-80907288D01*
X117700000Y-82092712D01*
X117698578Y-82107148D01*
X117693051Y-82134936D01*
X117666792Y-82178211D01*
X117620473Y-82194500D01*
X116800000Y-82194500D01*
X116779540Y-82196805D01*
X116760473Y-82198953D01*
X116760471Y-82198954D01*
X116754272Y-82199652D01*
X116748650Y-82202359D01*
X116748648Y-82202360D01*
X116699463Y-82226047D01*
X116671873Y-82239334D01*
X116666677Y-82245850D01*
X116645713Y-82272138D01*
X116602520Y-82298533D01*
X116587857Y-82300000D01*
X115800000Y-82300000D01*
X115800000Y-82606670D01*
X115782687Y-82654236D01*
X115771049Y-82665378D01*
X115739549Y-82689549D01*
X115647302Y-82809767D01*
X115589313Y-82949764D01*
X115569534Y-83100000D01*
X115589313Y-83250236D01*
X115647302Y-83390233D01*
X115666132Y-83414773D01*
X115681353Y-83463046D01*
X115661982Y-83509812D01*
X115653843Y-83517449D01*
X115628063Y-83538213D01*
X115607272Y-83558668D01*
X115581224Y-83589952D01*
X115553706Y-83630599D01*
X115552828Y-83632222D01*
X115552826Y-83632225D01*
X115535217Y-83664768D01*
X115535213Y-83664777D01*
X115534341Y-83666388D01*
X115523071Y-83693285D01*
X115522536Y-83695029D01*
X115522534Y-83695035D01*
X115511675Y-83730443D01*
X115511673Y-83730453D01*
X115511137Y-83732199D01*
X115499982Y-83787687D01*
X115496961Y-83807844D01*
X115495510Y-83822428D01*
X115494500Y-83842773D01*
X115494500Y-88083825D01*
X115496048Y-88109003D01*
X115498270Y-88127002D01*
X115502894Y-88151810D01*
X115514405Y-88197712D01*
X115519821Y-88219313D01*
X115537968Y-88266303D01*
X115548242Y-88285499D01*
X115553589Y-88295490D01*
X115554955Y-88298043D01*
X115583982Y-88339201D01*
X115585511Y-88340886D01*
X115585514Y-88340889D01*
X115615169Y-88373556D01*
X115630763Y-88390734D01*
X115648834Y-88408336D01*
X115662577Y-88420169D01*
X115663485Y-88420858D01*
X115663493Y-88420865D01*
X115669604Y-88425505D01*
X115682671Y-88435428D01*
X115683614Y-88436057D01*
X115683849Y-88436224D01*
X115712559Y-88477913D01*
X115707755Y-88528304D01*
X115699646Y-88541551D01*
X115647302Y-88609767D01*
X115589313Y-88749764D01*
X115569534Y-88900000D01*
X115589313Y-89050236D01*
X115647302Y-89190233D01*
X115739549Y-89310451D01*
X115743396Y-89313403D01*
X115743397Y-89313404D01*
X115771049Y-89334622D01*
X115798246Y-89377314D01*
X115800000Y-89393330D01*
X115800000Y-89700000D01*
X116716153Y-89700000D01*
X116757265Y-89712471D01*
X116796769Y-89738867D01*
X116803914Y-89740288D01*
X116803916Y-89740289D01*
X116851682Y-89749790D01*
X116851683Y-89749790D01*
X116855252Y-89750500D01*
X117596470Y-89750500D01*
X117644036Y-89767813D01*
X117657996Y-89783385D01*
X117676599Y-89811226D01*
X117687648Y-89837900D01*
X117698578Y-89892852D01*
X117700000Y-89907288D01*
X117700000Y-91092712D01*
X117698578Y-91107148D01*
X117687648Y-91162100D01*
X117676600Y-91188773D01*
X117649598Y-91229184D01*
X117629185Y-91249597D01*
X117588773Y-91276600D01*
X117562102Y-91287647D01*
X117527097Y-91294610D01*
X117507148Y-91298578D01*
X117492712Y-91300000D01*
X111224500Y-91300000D01*
X111176934Y-91282687D01*
X111151624Y-91238850D01*
X111150500Y-91226000D01*
X111150500Y-80774000D01*
X111167813Y-80726434D01*
X111211650Y-80701124D01*
X111224500Y-80700000D01*
X117492712Y-80700000D01*
X117507148Y-80701422D01*
G37*
G04 #@! TD.AperFunction*
G04 #@! TA.AperFunction,Conductor*
G36*
X158982236Y-71302004D02*
G01*
X159000000Y-71305136D01*
X159008530Y-71303632D01*
X159013056Y-71303632D01*
X159030907Y-71302711D01*
X159152893Y-71311435D01*
X159234809Y-71317293D01*
X159248785Y-71319304D01*
X159471884Y-71367837D01*
X159485432Y-71371814D01*
X159568484Y-71402791D01*
X159699364Y-71451606D01*
X159712213Y-71457474D01*
X159912604Y-71566897D01*
X159924486Y-71574533D01*
X160107264Y-71711358D01*
X160117940Y-71720608D01*
X160279392Y-71882060D01*
X160288642Y-71892736D01*
X160425467Y-72075514D01*
X160433103Y-72087396D01*
X160542526Y-72287787D01*
X160548394Y-72300636D01*
X160628185Y-72514565D01*
X160632163Y-72528116D01*
X160672164Y-72711990D01*
X160680696Y-72751212D01*
X160682707Y-72765194D01*
X160697289Y-72969093D01*
X160696368Y-72986944D01*
X160696368Y-72991470D01*
X160694864Y-73000000D01*
X160696368Y-73008528D01*
X160697996Y-73017761D01*
X160699500Y-73034953D01*
X160699500Y-98965047D01*
X160697996Y-98982236D01*
X160694864Y-99000000D01*
X160696368Y-99008530D01*
X160696368Y-99013056D01*
X160697289Y-99030907D01*
X160682707Y-99234806D01*
X160680696Y-99248785D01*
X160649625Y-99391615D01*
X160632164Y-99471882D01*
X160628185Y-99485435D01*
X160548394Y-99699364D01*
X160542526Y-99712213D01*
X160433103Y-99912604D01*
X160425467Y-99924486D01*
X160288642Y-100107264D01*
X160279392Y-100117940D01*
X160117940Y-100279392D01*
X160107264Y-100288642D01*
X159924486Y-100425467D01*
X159912604Y-100433103D01*
X159712213Y-100542526D01*
X159699364Y-100548394D01*
X159568484Y-100597209D01*
X159485432Y-100628186D01*
X159471884Y-100632163D01*
X159248785Y-100680696D01*
X159234809Y-100682707D01*
X159152893Y-100688565D01*
X159030907Y-100697289D01*
X159013056Y-100696368D01*
X159008530Y-100696368D01*
X159000000Y-100694864D01*
X158982236Y-100697996D01*
X158965047Y-100699500D01*
X113034953Y-100699500D01*
X113017764Y-100697996D01*
X113000000Y-100694864D01*
X112991470Y-100696368D01*
X112986944Y-100696368D01*
X112969093Y-100697289D01*
X112847107Y-100688565D01*
X112765191Y-100682707D01*
X112751215Y-100680696D01*
X112528116Y-100632163D01*
X112514568Y-100628186D01*
X112431516Y-100597209D01*
X112300636Y-100548394D01*
X112287787Y-100542526D01*
X112087396Y-100433103D01*
X112075514Y-100425467D01*
X111892736Y-100288642D01*
X111882060Y-100279392D01*
X111720608Y-100117940D01*
X111711358Y-100107264D01*
X111574533Y-99924486D01*
X111566897Y-99912604D01*
X111457474Y-99712213D01*
X111451606Y-99699364D01*
X111371815Y-99485435D01*
X111367836Y-99471882D01*
X111350375Y-99391615D01*
X111330738Y-99301346D01*
X113063694Y-99301346D01*
X113064321Y-99305310D01*
X113065292Y-99306582D01*
X113101687Y-99339698D01*
X113106112Y-99343281D01*
X113383182Y-99542377D01*
X113388000Y-99545434D01*
X113686117Y-99711363D01*
X113691234Y-99713837D01*
X114006461Y-99844409D01*
X114011836Y-99846280D01*
X114339974Y-99939753D01*
X114345517Y-99940992D01*
X114682235Y-99996132D01*
X114687893Y-99996726D01*
X115028697Y-100012798D01*
X115034402Y-100012739D01*
X115374794Y-99989533D01*
X115380452Y-99988818D01*
X115715915Y-99926644D01*
X115721458Y-99925282D01*
X116047548Y-99824963D01*
X116052894Y-99822976D01*
X116365313Y-99685834D01*
X116370380Y-99683252D01*
X116664964Y-99511110D01*
X116669696Y-99507966D01*
X116930777Y-99311941D01*
X116938446Y-99301030D01*
X116938422Y-99299512D01*
X116935309Y-99294520D01*
X115011086Y-97370296D01*
X114999203Y-97364242D01*
X114994172Y-97365038D01*
X113069748Y-99289463D01*
X113063694Y-99301346D01*
X111330738Y-99301346D01*
X111319304Y-99248785D01*
X111317293Y-99234806D01*
X111302711Y-99030907D01*
X111303632Y-99013056D01*
X111303632Y-99008530D01*
X111305136Y-99000000D01*
X111302004Y-98982236D01*
X111300500Y-98965047D01*
X111300500Y-96908205D01*
X111988464Y-96908205D01*
X111997394Y-97249270D01*
X111997872Y-97254965D01*
X112045943Y-97592725D01*
X112047074Y-97598333D01*
X112133651Y-97928342D01*
X112135406Y-97933744D01*
X112259349Y-98251644D01*
X112261715Y-98256812D01*
X112421368Y-98558343D01*
X112424324Y-98563223D01*
X112617562Y-98844385D01*
X112621068Y-98848906D01*
X112690345Y-98928319D01*
X112701791Y-98935170D01*
X112705239Y-98934862D01*
X112707361Y-98933428D01*
X114629704Y-97011086D01*
X114634946Y-97000797D01*
X115364242Y-97000797D01*
X115365038Y-97005828D01*
X117287994Y-98928783D01*
X117299877Y-98934837D01*
X117302748Y-98934383D01*
X117305503Y-98932187D01*
X117417135Y-98798676D01*
X117420535Y-98794099D01*
X117607855Y-98508929D01*
X117610697Y-98504008D01*
X117764009Y-98199183D01*
X117766263Y-98193973D01*
X117883515Y-97873565D01*
X117885163Y-97868108D01*
X117964813Y-97536343D01*
X117965821Y-97530743D01*
X118006887Y-97191385D01*
X118007221Y-97186987D01*
X118013028Y-97002214D01*
X118012971Y-96997793D01*
X117993293Y-96656529D01*
X117992639Y-96650875D01*
X117933980Y-96314767D01*
X117932678Y-96309218D01*
X117835777Y-95982086D01*
X117833846Y-95976723D01*
X117699983Y-95662888D01*
X117697459Y-95657802D01*
X117528407Y-95361421D01*
X117525311Y-95356654D01*
X117323319Y-95081676D01*
X117319696Y-95077296D01*
X117312172Y-95069199D01*
X117300517Y-95062713D01*
X117296258Y-95063228D01*
X117295344Y-95063867D01*
X115370296Y-96988914D01*
X115364242Y-97000797D01*
X114634946Y-97000797D01*
X114635758Y-96999203D01*
X114634962Y-96994172D01*
X112710648Y-95069859D01*
X112698765Y-95063805D01*
X112696715Y-95064129D01*
X112692902Y-95067267D01*
X112527552Y-95278145D01*
X112524305Y-95282818D01*
X112346038Y-95573723D01*
X112343343Y-95578749D01*
X112199697Y-95888208D01*
X112197594Y-95893520D01*
X112090465Y-96217450D01*
X112088994Y-96222940D01*
X112019805Y-96557042D01*
X112018972Y-96562681D01*
X111988642Y-96902517D01*
X111988464Y-96908205D01*
X111300500Y-96908205D01*
X111300500Y-94701596D01*
X113064376Y-94701596D01*
X113064487Y-94703945D01*
X113066912Y-94707701D01*
X114988914Y-96629704D01*
X115000797Y-96635758D01*
X115005828Y-96634962D01*
X116928800Y-94711990D01*
X116934854Y-94700107D01*
X116934356Y-94696963D01*
X116932471Y-94694571D01*
X116823894Y-94601837D01*
X116819341Y-94598381D01*
X116536159Y-94408091D01*
X116531256Y-94405191D01*
X116228073Y-94248707D01*
X116222870Y-94246390D01*
X115903711Y-94125790D01*
X115898266Y-94124083D01*
X115567368Y-94040968D01*
X115561769Y-94039900D01*
X115223502Y-93995366D01*
X115217824Y-93994949D01*
X114876667Y-93989590D01*
X114871000Y-93989827D01*
X114531486Y-94023715D01*
X114525853Y-94024607D01*
X114192506Y-94097289D01*
X114187019Y-94098821D01*
X113864232Y-94209336D01*
X113858955Y-94211489D01*
X113551002Y-94358375D01*
X113546010Y-94361119D01*
X113256992Y-94542420D01*
X113252335Y-94545730D01*
X113071700Y-94690446D01*
X113064376Y-94701596D01*
X111300500Y-94701596D01*
X111300500Y-92801963D01*
X114767000Y-92801963D01*
X114767265Y-92807090D01*
X114776956Y-92900487D01*
X114779232Y-92911023D01*
X114829327Y-93061177D01*
X114834174Y-93071526D01*
X114917299Y-93205853D01*
X114924393Y-93214804D01*
X115036191Y-93326407D01*
X115045154Y-93333486D01*
X115179626Y-93416376D01*
X115189980Y-93421204D01*
X115340238Y-93471042D01*
X115350752Y-93473295D01*
X115442944Y-93482741D01*
X115443524Y-93482771D01*
X115455505Y-93478878D01*
X115458500Y-93474757D01*
X115458500Y-92769680D01*
X115454378Y-92756995D01*
X115450257Y-92754000D01*
X114782680Y-92754000D01*
X114769995Y-92758122D01*
X114767000Y-92762243D01*
X114767000Y-92801963D01*
X111300500Y-92801963D01*
X111300500Y-91704500D01*
X111319407Y-91646309D01*
X111368907Y-91610345D01*
X111399500Y-91605500D01*
X114865256Y-91605500D01*
X114923447Y-91624407D01*
X114959411Y-91673907D01*
X114959411Y-91735093D01*
X114935322Y-91774442D01*
X114923590Y-91786195D01*
X114916514Y-91795154D01*
X114833624Y-91929626D01*
X114828796Y-91939980D01*
X114778958Y-92090238D01*
X114776705Y-92100752D01*
X114767259Y-92192944D01*
X114767000Y-92198001D01*
X114767000Y-92230320D01*
X114771122Y-92243005D01*
X114775243Y-92246000D01*
X115867500Y-92246000D01*
X115925691Y-92264907D01*
X115961655Y-92314407D01*
X115966500Y-92345000D01*
X115966500Y-93467320D01*
X115970622Y-93480005D01*
X115974743Y-93483000D01*
X115976963Y-93483000D01*
X115982090Y-93482735D01*
X116075487Y-93473044D01*
X116086023Y-93470768D01*
X116236177Y-93420673D01*
X116246526Y-93415826D01*
X116380853Y-93332701D01*
X116389804Y-93325607D01*
X116501407Y-93213809D01*
X116508488Y-93204843D01*
X116545320Y-93145091D01*
X116591949Y-93105477D01*
X116652959Y-93100836D01*
X116697267Y-93125726D01*
X116698133Y-93126867D01*
X116703516Y-93130953D01*
X116803574Y-93206901D01*
X116811452Y-93212881D01*
X116817723Y-93215364D01*
X116817725Y-93215365D01*
X116868173Y-93235339D01*
X116943727Y-93265253D01*
X116950036Y-93266016D01*
X116950038Y-93266017D01*
X117025439Y-93275141D01*
X117028406Y-93275500D01*
X117546594Y-93275500D01*
X117549561Y-93275141D01*
X117624962Y-93266017D01*
X117624964Y-93266016D01*
X117631273Y-93265253D01*
X117706827Y-93235339D01*
X117757275Y-93215365D01*
X117757277Y-93215364D01*
X117763548Y-93212881D01*
X117771427Y-93206901D01*
X117871484Y-93130953D01*
X117876867Y-93126867D01*
X117896626Y-93100836D01*
X117958800Y-93018925D01*
X117958801Y-93018923D01*
X117962881Y-93013548D01*
X117982872Y-92963055D01*
X118021873Y-92915912D01*
X118074920Y-92900500D01*
X118293099Y-92900500D01*
X118351290Y-92919407D01*
X118363103Y-92929496D01*
X119489091Y-94055484D01*
X119489095Y-94055487D01*
X119511658Y-94078050D01*
X119533154Y-94089002D01*
X119546393Y-94097116D01*
X119565910Y-94111296D01*
X119573321Y-94113704D01*
X119588857Y-94118752D01*
X119603203Y-94124695D01*
X119624696Y-94135646D01*
X119632389Y-94136864D01*
X119632391Y-94136865D01*
X119648519Y-94139419D01*
X119663620Y-94143044D01*
X119686567Y-94150500D01*
X120004127Y-94150500D01*
X120062318Y-94169407D01*
X120069833Y-94175825D01*
X120071718Y-94178282D01*
X120197159Y-94274536D01*
X120343238Y-94335044D01*
X120500000Y-94355682D01*
X120625079Y-94339215D01*
X120685239Y-94350365D01*
X120727356Y-94394747D01*
X120737000Y-94437368D01*
X120737000Y-96263206D01*
X120736734Y-96270457D01*
X120733480Y-96314767D01*
X120732920Y-96322391D01*
X120734254Y-96329007D01*
X120735047Y-96332939D01*
X120737000Y-96352508D01*
X120737000Y-97273065D01*
X120736913Y-97277211D01*
X120734290Y-97339794D01*
X120735832Y-97346367D01*
X120735832Y-97346370D01*
X120744516Y-97383393D01*
X120746216Y-97392563D01*
X120752294Y-97436932D01*
X120759224Y-97452946D01*
X120764747Y-97469644D01*
X120768732Y-97486636D01*
X120771983Y-97492549D01*
X120771985Y-97492555D01*
X120790309Y-97525887D01*
X120794411Y-97534260D01*
X120809514Y-97569161D01*
X120809516Y-97569165D01*
X120812195Y-97575355D01*
X120816440Y-97580598D01*
X120816441Y-97580599D01*
X120823171Y-97588910D01*
X120832984Y-97603514D01*
X120838895Y-97614265D01*
X120841393Y-97618808D01*
X120848397Y-97626922D01*
X120873944Y-97652469D01*
X120880876Y-97660169D01*
X120907114Y-97692570D01*
X120912615Y-97696480D01*
X120912620Y-97696484D01*
X120924097Y-97704641D01*
X120960577Y-97753762D01*
X120961216Y-97814944D01*
X120925772Y-97864817D01*
X120906937Y-97875812D01*
X120856847Y-97898061D01*
X120777759Y-97977287D01*
X120774064Y-97985645D01*
X120738876Y-98065238D01*
X120732494Y-98079673D01*
X120731632Y-98087067D01*
X120729940Y-98101584D01*
X120729500Y-98105354D01*
X120729500Y-99894646D01*
X120732618Y-99920846D01*
X120778061Y-100023153D01*
X120784529Y-100029610D01*
X120784530Y-100029611D01*
X120810615Y-100055650D01*
X120857287Y-100102241D01*
X120865645Y-100105936D01*
X120952864Y-100144496D01*
X120952866Y-100144496D01*
X120959673Y-100147506D01*
X120967067Y-100148368D01*
X120982378Y-100150153D01*
X120985354Y-100150500D01*
X122774646Y-100150500D01*
X122792561Y-100148368D01*
X122793469Y-100148260D01*
X122793470Y-100148260D01*
X122800846Y-100147382D01*
X122903153Y-100101939D01*
X122982241Y-100022713D01*
X122997226Y-99988818D01*
X123024496Y-99927136D01*
X123024496Y-99927134D01*
X123027506Y-99920327D01*
X123030500Y-99894646D01*
X123030500Y-98969754D01*
X123264967Y-98969754D01*
X123278796Y-99180749D01*
X123279912Y-99185142D01*
X123279912Y-99185144D01*
X123302487Y-99274032D01*
X123330845Y-99385690D01*
X123332747Y-99389815D01*
X123332747Y-99389816D01*
X123397551Y-99530386D01*
X123419369Y-99577714D01*
X123541405Y-99750391D01*
X123692865Y-99897937D01*
X123696638Y-99900458D01*
X123864899Y-100012887D01*
X123864902Y-100012889D01*
X123868677Y-100015411D01*
X123963002Y-100055936D01*
X124058774Y-100097083D01*
X124058778Y-100097084D01*
X124062953Y-100098878D01*
X124087361Y-100104401D01*
X124264760Y-100144543D01*
X124264765Y-100144544D01*
X124269186Y-100145544D01*
X124374828Y-100149695D01*
X124475937Y-100153668D01*
X124475938Y-100153668D01*
X124480470Y-100153846D01*
X124689730Y-100123504D01*
X124694029Y-100122045D01*
X124694032Y-100122044D01*
X124885654Y-100056997D01*
X124889955Y-100055537D01*
X124895841Y-100052241D01*
X125009090Y-99988818D01*
X125074442Y-99952219D01*
X125237012Y-99817012D01*
X125372219Y-99654442D01*
X125434979Y-99542377D01*
X125473319Y-99473916D01*
X125473320Y-99473914D01*
X125475537Y-99469955D01*
X125487329Y-99435217D01*
X125542044Y-99274032D01*
X125542045Y-99274029D01*
X125543504Y-99269730D01*
X125573846Y-99060470D01*
X125574940Y-99018705D01*
X125575353Y-99002914D01*
X125575353Y-99002909D01*
X125575429Y-99000000D01*
X125574646Y-98991472D01*
X125572650Y-98969754D01*
X125804967Y-98969754D01*
X125818796Y-99180749D01*
X125819912Y-99185142D01*
X125819912Y-99185144D01*
X125842487Y-99274032D01*
X125870845Y-99385690D01*
X125872747Y-99389815D01*
X125872747Y-99389816D01*
X125937551Y-99530386D01*
X125959369Y-99577714D01*
X126081405Y-99750391D01*
X126232865Y-99897937D01*
X126236638Y-99900458D01*
X126404899Y-100012887D01*
X126404902Y-100012889D01*
X126408677Y-100015411D01*
X126503002Y-100055936D01*
X126598774Y-100097083D01*
X126598778Y-100097084D01*
X126602953Y-100098878D01*
X126627361Y-100104401D01*
X126804760Y-100144543D01*
X126804765Y-100144544D01*
X126809186Y-100145544D01*
X126914828Y-100149695D01*
X127015937Y-100153668D01*
X127015938Y-100153668D01*
X127020470Y-100153846D01*
X127229730Y-100123504D01*
X127234029Y-100122045D01*
X127234032Y-100122044D01*
X127425654Y-100056997D01*
X127429955Y-100055537D01*
X127435841Y-100052241D01*
X127549090Y-99988818D01*
X127614442Y-99952219D01*
X127777012Y-99817012D01*
X127912219Y-99654442D01*
X127974979Y-99542377D01*
X128013319Y-99473916D01*
X128013320Y-99473914D01*
X128015537Y-99469955D01*
X128027329Y-99435217D01*
X128082044Y-99274032D01*
X128082045Y-99274029D01*
X128083504Y-99269730D01*
X128113846Y-99060470D01*
X128114940Y-99018705D01*
X128115353Y-99002914D01*
X128115353Y-99002909D01*
X128115429Y-99000000D01*
X128114646Y-98991472D01*
X128112650Y-98969754D01*
X128344967Y-98969754D01*
X128358796Y-99180749D01*
X128359912Y-99185142D01*
X128359912Y-99185144D01*
X128382487Y-99274032D01*
X128410845Y-99385690D01*
X128412747Y-99389815D01*
X128412747Y-99389816D01*
X128477551Y-99530386D01*
X128499369Y-99577714D01*
X128621405Y-99750391D01*
X128772865Y-99897937D01*
X128776638Y-99900458D01*
X128944899Y-100012887D01*
X128944902Y-100012889D01*
X128948677Y-100015411D01*
X129043002Y-100055936D01*
X129138774Y-100097083D01*
X129138778Y-100097084D01*
X129142953Y-100098878D01*
X129167361Y-100104401D01*
X129344760Y-100144543D01*
X129344765Y-100144544D01*
X129349186Y-100145544D01*
X129454828Y-100149695D01*
X129555937Y-100153668D01*
X129555938Y-100153668D01*
X129560470Y-100153846D01*
X129769730Y-100123504D01*
X129774029Y-100122045D01*
X129774032Y-100122044D01*
X129965654Y-100056997D01*
X129969955Y-100055537D01*
X129975841Y-100052241D01*
X130089090Y-99988818D01*
X130154442Y-99952219D01*
X130317012Y-99817012D01*
X130452219Y-99654442D01*
X130514979Y-99542377D01*
X130553319Y-99473916D01*
X130553320Y-99473914D01*
X130555537Y-99469955D01*
X130567329Y-99435217D01*
X130622044Y-99274032D01*
X130622045Y-99274029D01*
X130623504Y-99269730D01*
X130653846Y-99060470D01*
X130654940Y-99018705D01*
X130655353Y-99002914D01*
X130655353Y-99002909D01*
X130655429Y-99000000D01*
X130654646Y-98991472D01*
X130652650Y-98969754D01*
X130884967Y-98969754D01*
X130898796Y-99180749D01*
X130899912Y-99185142D01*
X130899912Y-99185144D01*
X130922487Y-99274032D01*
X130950845Y-99385690D01*
X130952747Y-99389815D01*
X130952747Y-99389816D01*
X131017551Y-99530386D01*
X131039369Y-99577714D01*
X131161405Y-99750391D01*
X131312865Y-99897937D01*
X131316638Y-99900458D01*
X131484899Y-100012887D01*
X131484902Y-100012889D01*
X131488677Y-100015411D01*
X131583002Y-100055936D01*
X131678774Y-100097083D01*
X131678778Y-100097084D01*
X131682953Y-100098878D01*
X131707361Y-100104401D01*
X131884760Y-100144543D01*
X131884765Y-100144544D01*
X131889186Y-100145544D01*
X131994828Y-100149695D01*
X132095937Y-100153668D01*
X132095938Y-100153668D01*
X132100470Y-100153846D01*
X132309730Y-100123504D01*
X132314029Y-100122045D01*
X132314032Y-100122044D01*
X132505654Y-100056997D01*
X132509955Y-100055537D01*
X132515841Y-100052241D01*
X132629090Y-99988818D01*
X132694442Y-99952219D01*
X132857012Y-99817012D01*
X132992219Y-99654442D01*
X133054979Y-99542377D01*
X133093319Y-99473916D01*
X133093320Y-99473914D01*
X133095537Y-99469955D01*
X133107329Y-99435217D01*
X133162044Y-99274032D01*
X133162045Y-99274029D01*
X133163504Y-99269730D01*
X133193846Y-99060470D01*
X133194940Y-99018705D01*
X133195353Y-99002914D01*
X133195353Y-99002909D01*
X133195429Y-99000000D01*
X133194646Y-98991472D01*
X133192650Y-98969754D01*
X133424967Y-98969754D01*
X133438796Y-99180749D01*
X133439912Y-99185142D01*
X133439912Y-99185144D01*
X133462487Y-99274032D01*
X133490845Y-99385690D01*
X133492747Y-99389815D01*
X133492747Y-99389816D01*
X133557551Y-99530386D01*
X133579369Y-99577714D01*
X133701405Y-99750391D01*
X133852865Y-99897937D01*
X133856638Y-99900458D01*
X134024899Y-100012887D01*
X134024902Y-100012889D01*
X134028677Y-100015411D01*
X134123002Y-100055936D01*
X134218774Y-100097083D01*
X134218778Y-100097084D01*
X134222953Y-100098878D01*
X134247361Y-100104401D01*
X134424760Y-100144543D01*
X134424765Y-100144544D01*
X134429186Y-100145544D01*
X134534828Y-100149695D01*
X134635937Y-100153668D01*
X134635938Y-100153668D01*
X134640470Y-100153846D01*
X134849730Y-100123504D01*
X134854029Y-100122045D01*
X134854032Y-100122044D01*
X135045654Y-100056997D01*
X135049955Y-100055537D01*
X135055841Y-100052241D01*
X135169090Y-99988818D01*
X135234442Y-99952219D01*
X135397012Y-99817012D01*
X135532219Y-99654442D01*
X135594979Y-99542377D01*
X135633319Y-99473916D01*
X135633320Y-99473914D01*
X135635537Y-99469955D01*
X135647329Y-99435217D01*
X135702044Y-99274032D01*
X135702045Y-99274029D01*
X135703504Y-99269730D01*
X135733846Y-99060470D01*
X135734940Y-99018705D01*
X135735353Y-99002914D01*
X135735353Y-99002909D01*
X135735429Y-99000000D01*
X135734646Y-98991472D01*
X135732650Y-98969754D01*
X135964967Y-98969754D01*
X135978796Y-99180749D01*
X135979912Y-99185142D01*
X135979912Y-99185144D01*
X136002487Y-99274032D01*
X136030845Y-99385690D01*
X136032747Y-99389815D01*
X136032747Y-99389816D01*
X136097551Y-99530386D01*
X136119369Y-99577714D01*
X136241405Y-99750391D01*
X136392865Y-99897937D01*
X136396638Y-99900458D01*
X136564899Y-100012887D01*
X136564902Y-100012889D01*
X136568677Y-100015411D01*
X136663002Y-100055936D01*
X136758774Y-100097083D01*
X136758778Y-100097084D01*
X136762953Y-100098878D01*
X136787361Y-100104401D01*
X136964760Y-100144543D01*
X136964765Y-100144544D01*
X136969186Y-100145544D01*
X137074828Y-100149695D01*
X137175937Y-100153668D01*
X137175938Y-100153668D01*
X137180470Y-100153846D01*
X137389730Y-100123504D01*
X137394029Y-100122045D01*
X137394032Y-100122044D01*
X137585654Y-100056997D01*
X137589955Y-100055537D01*
X137595841Y-100052241D01*
X137709090Y-99988818D01*
X137774442Y-99952219D01*
X137937012Y-99817012D01*
X138072219Y-99654442D01*
X138134979Y-99542377D01*
X138173319Y-99473916D01*
X138173320Y-99473914D01*
X138175537Y-99469955D01*
X138185488Y-99440640D01*
X138222097Y-99391615D01*
X138280531Y-99373471D01*
X138338469Y-99393139D01*
X138370960Y-99435217D01*
X138442183Y-99610620D01*
X138445840Y-99617860D01*
X138558266Y-99801322D01*
X138563056Y-99807867D01*
X138703935Y-99970502D01*
X138709729Y-99976176D01*
X138875292Y-100113629D01*
X138881921Y-100118270D01*
X139067713Y-100226838D01*
X139075008Y-100230334D01*
X139276038Y-100307099D01*
X139283808Y-100309357D01*
X139390637Y-100331091D01*
X139403846Y-100329586D01*
X139406000Y-100321405D01*
X139406000Y-100320952D01*
X139914000Y-100320952D01*
X139918122Y-100333637D01*
X139919650Y-100334748D01*
X139924884Y-100335238D01*
X139939291Y-100333392D01*
X139947200Y-100331710D01*
X140153304Y-100269876D01*
X140160852Y-100266918D01*
X140354087Y-100172253D01*
X140361046Y-100168104D01*
X140536231Y-100043148D01*
X140542412Y-100037924D01*
X140694831Y-99886035D01*
X140700088Y-99879858D01*
X140825651Y-99705119D01*
X140829823Y-99698176D01*
X140925164Y-99505268D01*
X140928144Y-99497744D01*
X140990701Y-99291843D01*
X140992410Y-99283936D01*
X140994304Y-99269547D01*
X140991873Y-99256431D01*
X140990571Y-99255195D01*
X140985290Y-99254000D01*
X139929680Y-99254000D01*
X139916995Y-99258122D01*
X139914000Y-99262243D01*
X139914000Y-100320952D01*
X139406000Y-100320952D01*
X139406000Y-98730320D01*
X139914000Y-98730320D01*
X139918122Y-98743005D01*
X139922243Y-98746000D01*
X140980779Y-98746000D01*
X140992730Y-98742117D01*
X140993058Y-98732462D01*
X140950946Y-98564809D01*
X140948333Y-98557133D01*
X140862534Y-98359807D01*
X140858701Y-98352660D01*
X140741826Y-98171997D01*
X140736880Y-98165575D01*
X140592065Y-98006426D01*
X140586139Y-98000899D01*
X140417269Y-97867534D01*
X140410525Y-97863054D01*
X140222141Y-97759060D01*
X140214749Y-97755738D01*
X140011920Y-97683912D01*
X140004081Y-97681841D01*
X139929436Y-97668545D01*
X139916226Y-97670378D01*
X139915805Y-97670782D01*
X139914000Y-97677996D01*
X139914000Y-98730320D01*
X139406000Y-98730320D01*
X139406000Y-97680667D01*
X139401878Y-97667982D01*
X139400877Y-97667254D01*
X139394549Y-97666739D01*
X139348220Y-97673829D01*
X139340348Y-97675705D01*
X139135807Y-97742558D01*
X139128350Y-97745693D01*
X138937479Y-97845054D01*
X138930627Y-97849369D01*
X138758544Y-97978573D01*
X138752491Y-97983947D01*
X138603830Y-98139513D01*
X138598727Y-98145814D01*
X138477466Y-98323575D01*
X138473468Y-98330613D01*
X138382871Y-98525790D01*
X138380073Y-98533394D01*
X138374832Y-98552292D01*
X138341062Y-98603314D01*
X138283751Y-98624741D01*
X138224791Y-98608389D01*
X138190643Y-98569622D01*
X138188270Y-98564809D01*
X138105165Y-98396290D01*
X137992127Y-98244914D01*
X137981367Y-98230504D01*
X137981366Y-98230503D01*
X137978651Y-98226867D01*
X137823381Y-98083337D01*
X137816752Y-98079154D01*
X137648391Y-97972926D01*
X137644554Y-97970505D01*
X137448160Y-97892152D01*
X137240775Y-97850901D01*
X137136599Y-97849537D01*
X137033886Y-97848192D01*
X137033881Y-97848192D01*
X137029346Y-97848133D01*
X137024873Y-97848902D01*
X137024868Y-97848902D01*
X136921601Y-97866647D01*
X136820953Y-97883941D01*
X136622575Y-97957127D01*
X136618676Y-97959446D01*
X136618671Y-97959449D01*
X136444762Y-98062914D01*
X136440856Y-98065238D01*
X136437441Y-98068233D01*
X136437438Y-98068235D01*
X136395112Y-98105354D01*
X136281881Y-98204655D01*
X136279073Y-98208217D01*
X136156132Y-98364168D01*
X136150976Y-98370708D01*
X136148862Y-98374726D01*
X136056383Y-98550500D01*
X136052523Y-98557836D01*
X136030158Y-98629863D01*
X135994097Y-98746000D01*
X135989820Y-98759773D01*
X135989286Y-98764283D01*
X135989286Y-98764284D01*
X135985216Y-98798676D01*
X135964967Y-98969754D01*
X135732650Y-98969754D01*
X135721130Y-98844385D01*
X135716081Y-98789440D01*
X135676646Y-98649612D01*
X135659920Y-98590306D01*
X135659920Y-98590305D01*
X135658686Y-98585931D01*
X135565165Y-98396290D01*
X135452127Y-98244914D01*
X135441367Y-98230504D01*
X135441366Y-98230503D01*
X135438651Y-98226867D01*
X135283381Y-98083337D01*
X135276752Y-98079154D01*
X135108391Y-97972926D01*
X135104554Y-97970505D01*
X134908160Y-97892152D01*
X134700775Y-97850901D01*
X134596599Y-97849537D01*
X134493886Y-97848192D01*
X134493881Y-97848192D01*
X134489346Y-97848133D01*
X134484873Y-97848902D01*
X134484868Y-97848902D01*
X134381601Y-97866647D01*
X134280953Y-97883941D01*
X134082575Y-97957127D01*
X134078676Y-97959446D01*
X134078671Y-97959449D01*
X133904762Y-98062914D01*
X133900856Y-98065238D01*
X133897441Y-98068233D01*
X133897438Y-98068235D01*
X133855112Y-98105354D01*
X133741881Y-98204655D01*
X133739073Y-98208217D01*
X133616132Y-98364168D01*
X133610976Y-98370708D01*
X133608862Y-98374726D01*
X133516383Y-98550500D01*
X133512523Y-98557836D01*
X133490158Y-98629863D01*
X133454097Y-98746000D01*
X133449820Y-98759773D01*
X133449286Y-98764283D01*
X133449286Y-98764284D01*
X133445216Y-98798676D01*
X133424967Y-98969754D01*
X133192650Y-98969754D01*
X133181130Y-98844385D01*
X133176081Y-98789440D01*
X133136646Y-98649612D01*
X133119920Y-98590306D01*
X133119920Y-98590305D01*
X133118686Y-98585931D01*
X133025165Y-98396290D01*
X132912127Y-98244914D01*
X132901367Y-98230504D01*
X132901366Y-98230503D01*
X132898651Y-98226867D01*
X132743381Y-98083337D01*
X132736752Y-98079154D01*
X132568391Y-97972926D01*
X132564554Y-97970505D01*
X132368160Y-97892152D01*
X132160775Y-97850901D01*
X132056599Y-97849537D01*
X131953886Y-97848192D01*
X131953881Y-97848192D01*
X131949346Y-97848133D01*
X131944873Y-97848902D01*
X131944868Y-97848902D01*
X131841601Y-97866647D01*
X131740953Y-97883941D01*
X131542575Y-97957127D01*
X131538676Y-97959446D01*
X131538671Y-97959449D01*
X131364762Y-98062914D01*
X131360856Y-98065238D01*
X131357441Y-98068233D01*
X131357438Y-98068235D01*
X131315112Y-98105354D01*
X131201881Y-98204655D01*
X131199073Y-98208217D01*
X131076132Y-98364168D01*
X131070976Y-98370708D01*
X131068862Y-98374726D01*
X130976383Y-98550500D01*
X130972523Y-98557836D01*
X130950158Y-98629863D01*
X130914097Y-98746000D01*
X130909820Y-98759773D01*
X130909286Y-98764283D01*
X130909286Y-98764284D01*
X130905216Y-98798676D01*
X130884967Y-98969754D01*
X130652650Y-98969754D01*
X130641130Y-98844385D01*
X130636081Y-98789440D01*
X130596646Y-98649612D01*
X130579920Y-98590306D01*
X130579920Y-98590305D01*
X130578686Y-98585931D01*
X130485165Y-98396290D01*
X130372127Y-98244914D01*
X130361367Y-98230504D01*
X130361366Y-98230503D01*
X130358651Y-98226867D01*
X130203381Y-98083337D01*
X130196752Y-98079154D01*
X130028391Y-97972926D01*
X130024554Y-97970505D01*
X129828160Y-97892152D01*
X129620775Y-97850901D01*
X129516599Y-97849537D01*
X129413886Y-97848192D01*
X129413881Y-97848192D01*
X129409346Y-97848133D01*
X129404873Y-97848902D01*
X129404868Y-97848902D01*
X129301601Y-97866647D01*
X129200953Y-97883941D01*
X129002575Y-97957127D01*
X128998676Y-97959446D01*
X128998671Y-97959449D01*
X128824762Y-98062914D01*
X128820856Y-98065238D01*
X128817441Y-98068233D01*
X128817438Y-98068235D01*
X128775112Y-98105354D01*
X128661881Y-98204655D01*
X128659073Y-98208217D01*
X128536132Y-98364168D01*
X128530976Y-98370708D01*
X128528862Y-98374726D01*
X128436383Y-98550500D01*
X128432523Y-98557836D01*
X128410158Y-98629863D01*
X128374097Y-98746000D01*
X128369820Y-98759773D01*
X128369286Y-98764283D01*
X128369286Y-98764284D01*
X128365216Y-98798676D01*
X128344967Y-98969754D01*
X128112650Y-98969754D01*
X128101130Y-98844385D01*
X128096081Y-98789440D01*
X128056646Y-98649612D01*
X128039920Y-98590306D01*
X128039920Y-98590305D01*
X128038686Y-98585931D01*
X127945165Y-98396290D01*
X127832127Y-98244914D01*
X127821367Y-98230504D01*
X127821366Y-98230503D01*
X127818651Y-98226867D01*
X127663381Y-98083337D01*
X127656752Y-98079154D01*
X127488391Y-97972926D01*
X127484554Y-97970505D01*
X127288160Y-97892152D01*
X127080775Y-97850901D01*
X126976599Y-97849537D01*
X126873886Y-97848192D01*
X126873881Y-97848192D01*
X126869346Y-97848133D01*
X126864873Y-97848902D01*
X126864868Y-97848902D01*
X126761601Y-97866647D01*
X126660953Y-97883941D01*
X126462575Y-97957127D01*
X126458676Y-97959446D01*
X126458671Y-97959449D01*
X126284762Y-98062914D01*
X126280856Y-98065238D01*
X126277441Y-98068233D01*
X126277438Y-98068235D01*
X126235112Y-98105354D01*
X126121881Y-98204655D01*
X126119073Y-98208217D01*
X125996132Y-98364168D01*
X125990976Y-98370708D01*
X125988862Y-98374726D01*
X125896383Y-98550500D01*
X125892523Y-98557836D01*
X125870158Y-98629863D01*
X125834097Y-98746000D01*
X125829820Y-98759773D01*
X125829286Y-98764283D01*
X125829286Y-98764284D01*
X125825216Y-98798676D01*
X125804967Y-98969754D01*
X125572650Y-98969754D01*
X125561130Y-98844385D01*
X125556081Y-98789440D01*
X125516646Y-98649612D01*
X125499920Y-98590306D01*
X125499920Y-98590305D01*
X125498686Y-98585931D01*
X125405165Y-98396290D01*
X125292127Y-98244914D01*
X125281367Y-98230504D01*
X125281366Y-98230503D01*
X125278651Y-98226867D01*
X125123381Y-98083337D01*
X125116752Y-98079154D01*
X124948391Y-97972926D01*
X124944554Y-97970505D01*
X124748160Y-97892152D01*
X124540775Y-97850901D01*
X124436599Y-97849537D01*
X124333886Y-97848192D01*
X124333881Y-97848192D01*
X124329346Y-97848133D01*
X124324873Y-97848902D01*
X124324868Y-97848902D01*
X124221601Y-97866647D01*
X124120953Y-97883941D01*
X123922575Y-97957127D01*
X123918676Y-97959446D01*
X123918671Y-97959449D01*
X123744762Y-98062914D01*
X123740856Y-98065238D01*
X123737441Y-98068233D01*
X123737438Y-98068235D01*
X123695112Y-98105354D01*
X123581881Y-98204655D01*
X123579073Y-98208217D01*
X123456132Y-98364168D01*
X123450976Y-98370708D01*
X123448862Y-98374726D01*
X123356383Y-98550500D01*
X123352523Y-98557836D01*
X123330158Y-98629863D01*
X123294097Y-98746000D01*
X123289820Y-98759773D01*
X123289286Y-98764283D01*
X123289286Y-98764284D01*
X123285216Y-98798676D01*
X123264967Y-98969754D01*
X123030500Y-98969754D01*
X123030500Y-98105354D01*
X123027382Y-98079154D01*
X122981939Y-97976847D01*
X122945471Y-97940442D01*
X122909496Y-97904530D01*
X122902713Y-97897759D01*
X122835645Y-97868108D01*
X122807136Y-97855504D01*
X122807134Y-97855504D01*
X122800327Y-97852494D01*
X122774646Y-97849500D01*
X122517861Y-97849500D01*
X122459670Y-97830593D01*
X122423706Y-97781093D01*
X122419777Y-97763936D01*
X122416849Y-97742558D01*
X122415206Y-97730568D01*
X122412527Y-97724377D01*
X122412525Y-97724370D01*
X122408279Y-97714559D01*
X122402753Y-97697851D01*
X122402433Y-97696484D01*
X122398769Y-97680864D01*
X122377185Y-97641604D01*
X122373087Y-97633238D01*
X122370904Y-97628192D01*
X122355305Y-97592145D01*
X122344326Y-97578587D01*
X122334517Y-97563989D01*
X122326107Y-97548693D01*
X122322721Y-97544770D01*
X122322719Y-97544767D01*
X122320287Y-97541949D01*
X122320277Y-97541938D01*
X122319103Y-97540578D01*
X122293556Y-97515031D01*
X122286623Y-97507330D01*
X122264633Y-97480175D01*
X122260386Y-97474930D01*
X122254884Y-97471020D01*
X122254882Y-97471018D01*
X122243205Y-97462719D01*
X122230551Y-97452026D01*
X121866997Y-97088473D01*
X121839219Y-97033956D01*
X121838000Y-97018469D01*
X121838000Y-96937000D01*
X121856907Y-96878809D01*
X121906407Y-96842845D01*
X121937000Y-96838000D01*
X141995500Y-96838000D01*
X142053691Y-96856907D01*
X142089655Y-96906407D01*
X142094500Y-96937000D01*
X142094500Y-97741742D01*
X142095154Y-97761724D01*
X142096232Y-97778170D01*
X142098192Y-97798064D01*
X142098296Y-97798855D01*
X142098299Y-97798880D01*
X142108132Y-97873565D01*
X142111986Y-97902839D01*
X142119781Y-97942030D01*
X142120200Y-97943592D01*
X142120200Y-97943594D01*
X142127411Y-97970505D01*
X142128294Y-97973802D01*
X142141140Y-98011645D01*
X142178394Y-98101584D01*
X142196071Y-98137428D01*
X142196871Y-98138813D01*
X142196876Y-98138823D01*
X142200913Y-98145814D01*
X142212518Y-98165914D01*
X142214534Y-98168931D01*
X142233809Y-98197779D01*
X142233818Y-98197792D01*
X142234717Y-98199137D01*
X142235713Y-98200435D01*
X142261426Y-98233945D01*
X142274932Y-98257766D01*
X142287119Y-98288548D01*
X142291199Y-98293923D01*
X142291200Y-98293925D01*
X142343631Y-98363000D01*
X142373133Y-98401867D01*
X142486452Y-98487881D01*
X142492723Y-98490364D01*
X142492725Y-98490365D01*
X142543173Y-98510339D01*
X142618727Y-98540253D01*
X142625036Y-98541016D01*
X142625038Y-98541017D01*
X142700439Y-98550141D01*
X142703406Y-98550500D01*
X142835512Y-98550500D01*
X142848433Y-98551347D01*
X142851111Y-98551700D01*
X142851147Y-98551704D01*
X142851936Y-98551808D01*
X142871830Y-98553768D01*
X142888276Y-98554846D01*
X142889101Y-98554873D01*
X142907432Y-98555473D01*
X142907434Y-98555473D01*
X142908258Y-98555500D01*
X145406779Y-98555500D01*
X145458896Y-98570328D01*
X145523067Y-98610061D01*
X145532082Y-98611746D01*
X145532084Y-98611747D01*
X145628994Y-98629863D01*
X145628998Y-98629863D01*
X145633500Y-98630705D01*
X145645295Y-98630705D01*
X145703486Y-98649612D01*
X145739450Y-98699112D01*
X145744295Y-98729705D01*
X145744295Y-99800000D01*
X145745599Y-99828207D01*
X145747165Y-99833711D01*
X145771810Y-99920327D01*
X145776344Y-99936264D01*
X145844048Y-100025919D01*
X145939567Y-100085061D01*
X145948582Y-100086746D01*
X145948584Y-100086747D01*
X146045494Y-100104863D01*
X146045498Y-100104863D01*
X146050000Y-100105705D01*
X146950000Y-100105705D01*
X146978207Y-100104401D01*
X146991918Y-100100500D01*
X147077443Y-100076166D01*
X147077444Y-100076166D01*
X147086264Y-100073656D01*
X147175919Y-100005952D01*
X147179756Y-99999754D01*
X147231957Y-99970043D01*
X147292767Y-99976812D01*
X147321887Y-99996939D01*
X147370818Y-100045784D01*
X147370820Y-100045786D01*
X147377287Y-100052241D01*
X147385645Y-100055936D01*
X147472864Y-100094496D01*
X147472866Y-100094496D01*
X147479673Y-100097506D01*
X147487067Y-100098368D01*
X147502378Y-100100153D01*
X147505354Y-100100500D01*
X148494646Y-100100500D01*
X148512561Y-100098368D01*
X148513469Y-100098260D01*
X148513470Y-100098260D01*
X148520846Y-100097382D01*
X148623153Y-100051939D01*
X148657827Y-100017205D01*
X148695786Y-99979179D01*
X148702241Y-99972713D01*
X148723562Y-99924486D01*
X148744496Y-99877136D01*
X148744496Y-99877134D01*
X148747506Y-99870327D01*
X148750500Y-99844646D01*
X148750500Y-99776552D01*
X148769407Y-99718361D01*
X148813126Y-99687968D01*
X148811931Y-99685206D01*
X148811932Y-99685206D01*
X148827946Y-99678276D01*
X148844644Y-99672753D01*
X148861636Y-99668768D01*
X148867549Y-99665517D01*
X148867555Y-99665515D01*
X148900887Y-99647191D01*
X148909260Y-99643089D01*
X148944161Y-99627986D01*
X148944165Y-99627984D01*
X148950355Y-99625305D01*
X148959550Y-99617860D01*
X148963910Y-99614329D01*
X148978514Y-99604516D01*
X148989265Y-99598605D01*
X148989268Y-99598603D01*
X148993808Y-99596107D01*
X149001922Y-99589103D01*
X149027469Y-99563556D01*
X149035170Y-99556623D01*
X149062325Y-99534633D01*
X149067570Y-99530386D01*
X149079778Y-99513208D01*
X149090471Y-99500554D01*
X149289679Y-99301346D01*
X155063694Y-99301346D01*
X155064321Y-99305310D01*
X155065292Y-99306582D01*
X155101687Y-99339698D01*
X155106112Y-99343281D01*
X155383182Y-99542377D01*
X155388000Y-99545434D01*
X155686117Y-99711363D01*
X155691234Y-99713837D01*
X156006461Y-99844409D01*
X156011836Y-99846280D01*
X156339974Y-99939753D01*
X156345517Y-99940992D01*
X156682235Y-99996132D01*
X156687893Y-99996726D01*
X157028697Y-100012798D01*
X157034402Y-100012739D01*
X157374794Y-99989533D01*
X157380452Y-99988818D01*
X157715915Y-99926644D01*
X157721458Y-99925282D01*
X158047548Y-99824963D01*
X158052894Y-99822976D01*
X158365313Y-99685834D01*
X158370380Y-99683252D01*
X158664964Y-99511110D01*
X158669696Y-99507966D01*
X158930777Y-99311941D01*
X158938446Y-99301030D01*
X158938422Y-99299512D01*
X158935309Y-99294520D01*
X157011086Y-97370296D01*
X156999203Y-97364242D01*
X156994172Y-97365038D01*
X155069748Y-99289463D01*
X155063694Y-99301346D01*
X149289679Y-99301346D01*
X150011529Y-98579496D01*
X150066046Y-98551719D01*
X150081533Y-98550500D01*
X150296594Y-98550500D01*
X150299561Y-98550141D01*
X150374962Y-98541017D01*
X150374964Y-98541016D01*
X150381273Y-98540253D01*
X150456827Y-98510339D01*
X150507275Y-98490365D01*
X150507277Y-98490364D01*
X150513548Y-98487881D01*
X150518925Y-98483800D01*
X150621490Y-98405949D01*
X150621493Y-98405946D01*
X150626867Y-98401867D01*
X150630947Y-98396492D01*
X150635444Y-98391995D01*
X150689962Y-98364218D01*
X150705446Y-98363000D01*
X151173065Y-98363000D01*
X151177211Y-98363087D01*
X151239794Y-98365710D01*
X151246367Y-98364168D01*
X151246370Y-98364168D01*
X151283393Y-98355484D01*
X151292563Y-98353784D01*
X151301977Y-98352494D01*
X151336932Y-98347706D01*
X151352946Y-98340776D01*
X151369644Y-98335253D01*
X151386636Y-98331268D01*
X151392549Y-98328017D01*
X151392555Y-98328015D01*
X151425887Y-98309691D01*
X151434260Y-98305589D01*
X151469161Y-98290486D01*
X151469165Y-98290484D01*
X151475355Y-98287805D01*
X151482185Y-98282275D01*
X151488910Y-98276829D01*
X151503514Y-98267016D01*
X151514265Y-98261105D01*
X151514268Y-98261103D01*
X151518808Y-98258607D01*
X151526922Y-98251603D01*
X151552469Y-98226056D01*
X151560170Y-98219123D01*
X151573638Y-98208217D01*
X151592570Y-98192886D01*
X151604778Y-98175708D01*
X151615471Y-98163054D01*
X152870319Y-96908205D01*
X153988464Y-96908205D01*
X153997394Y-97249270D01*
X153997872Y-97254965D01*
X154045943Y-97592725D01*
X154047074Y-97598333D01*
X154133651Y-97928342D01*
X154135406Y-97933744D01*
X154259349Y-98251644D01*
X154261715Y-98256812D01*
X154421368Y-98558343D01*
X154424324Y-98563223D01*
X154617562Y-98844385D01*
X154621068Y-98848906D01*
X154690345Y-98928319D01*
X154701791Y-98935170D01*
X154705239Y-98934862D01*
X154707361Y-98933428D01*
X156629704Y-97011086D01*
X156634946Y-97000797D01*
X157364242Y-97000797D01*
X157365038Y-97005828D01*
X159287994Y-98928783D01*
X159299877Y-98934837D01*
X159302748Y-98934383D01*
X159305503Y-98932187D01*
X159417135Y-98798676D01*
X159420535Y-98794099D01*
X159607855Y-98508929D01*
X159610697Y-98504008D01*
X159764009Y-98199183D01*
X159766263Y-98193973D01*
X159883515Y-97873565D01*
X159885163Y-97868108D01*
X159964813Y-97536343D01*
X159965821Y-97530743D01*
X160006887Y-97191385D01*
X160007221Y-97186987D01*
X160013028Y-97002214D01*
X160012971Y-96997793D01*
X159993293Y-96656529D01*
X159992639Y-96650875D01*
X159933980Y-96314767D01*
X159932678Y-96309218D01*
X159835777Y-95982086D01*
X159833846Y-95976723D01*
X159699983Y-95662888D01*
X159697459Y-95657802D01*
X159528407Y-95361421D01*
X159525311Y-95356654D01*
X159323319Y-95081676D01*
X159319696Y-95077296D01*
X159312172Y-95069199D01*
X159300517Y-95062713D01*
X159296258Y-95063228D01*
X159295344Y-95063867D01*
X157370296Y-96988914D01*
X157364242Y-97000797D01*
X156634946Y-97000797D01*
X156635758Y-96999203D01*
X156634962Y-96994172D01*
X154710648Y-95069859D01*
X154698765Y-95063805D01*
X154696715Y-95064129D01*
X154692902Y-95067267D01*
X154527552Y-95278145D01*
X154524305Y-95282818D01*
X154346038Y-95573723D01*
X154343343Y-95578749D01*
X154199697Y-95888208D01*
X154197594Y-95893520D01*
X154090465Y-96217450D01*
X154088994Y-96222940D01*
X154019805Y-96557042D01*
X154018972Y-96562681D01*
X153988642Y-96902517D01*
X153988464Y-96908205D01*
X152870319Y-96908205D01*
X152879048Y-96899476D01*
X152882041Y-96896606D01*
X152923188Y-96858769D01*
X152928156Y-96854201D01*
X152931711Y-96848468D01*
X152931713Y-96848465D01*
X152951756Y-96816137D01*
X152957040Y-96808449D01*
X152980031Y-96778160D01*
X152984112Y-96772784D01*
X152990537Y-96756558D01*
X152998438Y-96740847D01*
X153007635Y-96726014D01*
X153020133Y-96682997D01*
X153023150Y-96674185D01*
X153039635Y-96632547D01*
X153040340Y-96625838D01*
X153040341Y-96625834D01*
X153041457Y-96615209D01*
X153044847Y-96597931D01*
X153048266Y-96586163D01*
X153048266Y-96586161D01*
X153049715Y-96581175D01*
X153050500Y-96570485D01*
X153050500Y-96534367D01*
X153051042Y-96524018D01*
X153054696Y-96489254D01*
X153055401Y-96482546D01*
X153051886Y-96461763D01*
X153050500Y-96445254D01*
X153050500Y-94701596D01*
X155064376Y-94701596D01*
X155064487Y-94703945D01*
X155066912Y-94707701D01*
X156988914Y-96629704D01*
X157000797Y-96635758D01*
X157005828Y-96634962D01*
X158928800Y-94711990D01*
X158934854Y-94700107D01*
X158934356Y-94696963D01*
X158932471Y-94694571D01*
X158823894Y-94601837D01*
X158819341Y-94598381D01*
X158536159Y-94408091D01*
X158531256Y-94405191D01*
X158228073Y-94248707D01*
X158222870Y-94246390D01*
X157903711Y-94125790D01*
X157898266Y-94124083D01*
X157567368Y-94040968D01*
X157561769Y-94039900D01*
X157223502Y-93995366D01*
X157217824Y-93994949D01*
X156876667Y-93989590D01*
X156871000Y-93989827D01*
X156531486Y-94023715D01*
X156525853Y-94024607D01*
X156192506Y-94097289D01*
X156187019Y-94098821D01*
X155864232Y-94209336D01*
X155858955Y-94211489D01*
X155551002Y-94358375D01*
X155546010Y-94361119D01*
X155256992Y-94542420D01*
X155252335Y-94545730D01*
X155071700Y-94690446D01*
X155064376Y-94701596D01*
X153050500Y-94701596D01*
X153050500Y-92999500D01*
X153069407Y-92941309D01*
X153118907Y-92905345D01*
X153149500Y-92900500D01*
X155628874Y-92900500D01*
X155687065Y-92919407D01*
X155709722Y-92942363D01*
X155821405Y-93100391D01*
X155972865Y-93247937D01*
X155976638Y-93250458D01*
X156144899Y-93362887D01*
X156144902Y-93362889D01*
X156148677Y-93365411D01*
X156245472Y-93406997D01*
X156338774Y-93447083D01*
X156338778Y-93447084D01*
X156342953Y-93448878D01*
X156347387Y-93449881D01*
X156347386Y-93449881D01*
X156544760Y-93494543D01*
X156544765Y-93494544D01*
X156549186Y-93495544D01*
X156654828Y-93499695D01*
X156755937Y-93503668D01*
X156755938Y-93503668D01*
X156760470Y-93503846D01*
X156969730Y-93473504D01*
X156974029Y-93472045D01*
X156974032Y-93472044D01*
X157165654Y-93406997D01*
X157169955Y-93405537D01*
X157354442Y-93302219D01*
X157517012Y-93167012D01*
X157652219Y-93004442D01*
X157708616Y-92903738D01*
X157753319Y-92823916D01*
X157753320Y-92823914D01*
X157755537Y-92819955D01*
X157775326Y-92761658D01*
X157822044Y-92624032D01*
X157822045Y-92624029D01*
X157823504Y-92619730D01*
X157832370Y-92558586D01*
X157853426Y-92413369D01*
X157853426Y-92413363D01*
X157853846Y-92410470D01*
X157855429Y-92350000D01*
X157852159Y-92314407D01*
X157841142Y-92194516D01*
X157836081Y-92139440D01*
X157794704Y-91992726D01*
X157779920Y-91940306D01*
X157779920Y-91940305D01*
X157778686Y-91935931D01*
X157685165Y-91746290D01*
X157558651Y-91576867D01*
X157403381Y-91433337D01*
X157384577Y-91421472D01*
X157228391Y-91322926D01*
X157224554Y-91320505D01*
X157170962Y-91299124D01*
X157130560Y-91283005D01*
X157083518Y-91243881D01*
X157068457Y-91184578D01*
X157091130Y-91127748D01*
X157138797Y-91096228D01*
X157193312Y-91079873D01*
X157200852Y-91076918D01*
X157394087Y-90982253D01*
X157401046Y-90978104D01*
X157576231Y-90853148D01*
X157582412Y-90847924D01*
X157734831Y-90696035D01*
X157740088Y-90689858D01*
X157865651Y-90515119D01*
X157869823Y-90508176D01*
X157965164Y-90315268D01*
X157968144Y-90307744D01*
X158030701Y-90101843D01*
X158032410Y-90093938D01*
X158034304Y-90079547D01*
X158031873Y-90066431D01*
X158030571Y-90065195D01*
X158025290Y-90064000D01*
X155380790Y-90064000D01*
X155368460Y-90068006D01*
X155368043Y-90077014D01*
X155398807Y-90213524D01*
X155401231Y-90221258D01*
X155482183Y-90420620D01*
X155485840Y-90427860D01*
X155598266Y-90611322D01*
X155603056Y-90617867D01*
X155743935Y-90780502D01*
X155749729Y-90786176D01*
X155915292Y-90923629D01*
X155921921Y-90928270D01*
X156107713Y-91036838D01*
X156115009Y-91040334D01*
X156267009Y-91098377D01*
X156314626Y-91136799D01*
X156330565Y-91195872D01*
X156308738Y-91253031D01*
X156265957Y-91283744D01*
X156206837Y-91305554D01*
X156206831Y-91305557D01*
X156202575Y-91307127D01*
X156198676Y-91309446D01*
X156198671Y-91309449D01*
X156045134Y-91400794D01*
X156020856Y-91415238D01*
X156017441Y-91418233D01*
X156017438Y-91418235D01*
X155935632Y-91489977D01*
X155861881Y-91554655D01*
X155859073Y-91558217D01*
X155742649Y-91705901D01*
X155730976Y-91720708D01*
X155728862Y-91724726D01*
X155717354Y-91746598D01*
X155673526Y-91789291D01*
X155629741Y-91799500D01*
X153149500Y-91799500D01*
X153091309Y-91780593D01*
X153055345Y-91731093D01*
X153050500Y-91700500D01*
X153050500Y-89514435D01*
X153050587Y-89510289D01*
X153050764Y-89506070D01*
X153053210Y-89447706D01*
X153044417Y-89410215D01*
X153042984Y-89404107D01*
X153041284Y-89394937D01*
X153038771Y-89376593D01*
X153035206Y-89350568D01*
X153028276Y-89334554D01*
X153022753Y-89317856D01*
X153018768Y-89300864D01*
X153015517Y-89294951D01*
X153015515Y-89294945D01*
X152997191Y-89261613D01*
X152993089Y-89253240D01*
X152977986Y-89218339D01*
X152977984Y-89218335D01*
X152975305Y-89212145D01*
X152964329Y-89198590D01*
X152954516Y-89183986D01*
X152948605Y-89173235D01*
X152948603Y-89173232D01*
X152946107Y-89168692D01*
X152939103Y-89160578D01*
X152913556Y-89135031D01*
X152906623Y-89127330D01*
X152899802Y-89118907D01*
X152880386Y-89094930D01*
X152863208Y-89082722D01*
X152850554Y-89072029D01*
X151899475Y-88120951D01*
X151896605Y-88117958D01*
X151883587Y-88103801D01*
X151854201Y-88071844D01*
X151816134Y-88048242D01*
X151808449Y-88042959D01*
X151778166Y-88019973D01*
X151778161Y-88019970D01*
X151772783Y-88015888D01*
X151756566Y-88009467D01*
X151740845Y-88001560D01*
X151731752Y-87995922D01*
X151731747Y-87995920D01*
X151726014Y-87992365D01*
X151683010Y-87979871D01*
X151674187Y-87976850D01*
X151638826Y-87962849D01*
X151638819Y-87962847D01*
X151632547Y-87960364D01*
X151615194Y-87958540D01*
X151597932Y-87955153D01*
X151581175Y-87950285D01*
X151576002Y-87949905D01*
X151576001Y-87949905D01*
X151572286Y-87949632D01*
X151572279Y-87949632D01*
X151570485Y-87949500D01*
X151534369Y-87949500D01*
X151524021Y-87948958D01*
X151489255Y-87945304D01*
X151489254Y-87945304D01*
X151482546Y-87944599D01*
X151461764Y-87948114D01*
X151445254Y-87949500D01*
X149030050Y-87949500D01*
X148971859Y-87930593D01*
X148935895Y-87881093D01*
X148934981Y-87822879D01*
X148950618Y-87769057D01*
X148950243Y-87757118D01*
X148940108Y-87754000D01*
X146410687Y-87754000D01*
X146399326Y-87757691D01*
X146399160Y-87768293D01*
X146415019Y-87822879D01*
X146413098Y-87884034D01*
X146375597Y-87932380D01*
X146319950Y-87949500D01*
X145899490Y-87949500D01*
X145841299Y-87930593D01*
X145805335Y-87881093D01*
X145800490Y-87850500D01*
X145800490Y-86205891D01*
X145819397Y-86147700D01*
X145868897Y-86111736D01*
X145930083Y-86111736D01*
X145969494Y-86135887D01*
X146581523Y-86747916D01*
X146609300Y-86802433D01*
X146599729Y-86862865D01*
X146581523Y-86887924D01*
X146530346Y-86939101D01*
X146522776Y-86948860D01*
X146444487Y-87081241D01*
X146439581Y-87092579D01*
X146399382Y-87230943D01*
X146399757Y-87242882D01*
X146409892Y-87246000D01*
X148939313Y-87246000D01*
X148950674Y-87242309D01*
X148950840Y-87231707D01*
X148910419Y-87092579D01*
X148905513Y-87081241D01*
X148857405Y-86999895D01*
X148844058Y-86940183D01*
X148868358Y-86884030D01*
X148921023Y-86852884D01*
X148942619Y-86850500D01*
X154272389Y-86850500D01*
X154330580Y-86869407D01*
X154342393Y-86879496D01*
X155028381Y-87565484D01*
X155036122Y-87574196D01*
X155058128Y-87602110D01*
X155064215Y-87606317D01*
X155064216Y-87606318D01*
X155106733Y-87635703D01*
X155109263Y-87637511D01*
X155124534Y-87648790D01*
X155156817Y-87672635D01*
X155163634Y-87675029D01*
X155169569Y-87679131D01*
X155176622Y-87681362D01*
X155176625Y-87681363D01*
X155208390Y-87691409D01*
X155225904Y-87696948D01*
X155228841Y-87697928D01*
X155277648Y-87715068D01*
X155277650Y-87715068D01*
X155284631Y-87717520D01*
X155290673Y-87717758D01*
X155293353Y-87718280D01*
X155298730Y-87719980D01*
X155305337Y-87720500D01*
X155358531Y-87720500D01*
X155362417Y-87720576D01*
X155412604Y-87722548D01*
X155412606Y-87722548D01*
X155419994Y-87722838D01*
X155426772Y-87721041D01*
X155436598Y-87720500D01*
X155577349Y-87720500D01*
X155635540Y-87739407D01*
X155667255Y-87778053D01*
X155692972Y-87833837D01*
X155699369Y-87847714D01*
X155821405Y-88020391D01*
X155972865Y-88167937D01*
X155976638Y-88170458D01*
X156144899Y-88282887D01*
X156144902Y-88282889D01*
X156148677Y-88285411D01*
X156267903Y-88336634D01*
X156272507Y-88338612D01*
X156318508Y-88378954D01*
X156332012Y-88438631D01*
X156307859Y-88494847D01*
X156264183Y-88523673D01*
X156175811Y-88552557D01*
X156168350Y-88555693D01*
X155977479Y-88655054D01*
X155970627Y-88659369D01*
X155798544Y-88788573D01*
X155792491Y-88793947D01*
X155643830Y-88949513D01*
X155638727Y-88955814D01*
X155517466Y-89133575D01*
X155513468Y-89140613D01*
X155422871Y-89335790D01*
X155420073Y-89343394D01*
X155364056Y-89545384D01*
X155365756Y-89553462D01*
X155367566Y-89555098D01*
X155371792Y-89556000D01*
X158020779Y-89556000D01*
X158032730Y-89552117D01*
X158033058Y-89542462D01*
X157990946Y-89374809D01*
X157988333Y-89367133D01*
X157902534Y-89169807D01*
X157898701Y-89162660D01*
X157781826Y-88981997D01*
X157776880Y-88975575D01*
X157632065Y-88816426D01*
X157626139Y-88810899D01*
X157457269Y-88677534D01*
X157450525Y-88673054D01*
X157262141Y-88569060D01*
X157254749Y-88565738D01*
X157136040Y-88523701D01*
X157087498Y-88486454D01*
X157070121Y-88427788D01*
X157090545Y-88370112D01*
X157137264Y-88336634D01*
X157165657Y-88326996D01*
X157169955Y-88325537D01*
X157194940Y-88311545D01*
X157291943Y-88257220D01*
X157354442Y-88222219D01*
X157517012Y-88087012D01*
X157652219Y-87924442D01*
X157710878Y-87819699D01*
X157753319Y-87743916D01*
X157753320Y-87743914D01*
X157755537Y-87739955D01*
X157762141Y-87720500D01*
X157822044Y-87544032D01*
X157822045Y-87544029D01*
X157823504Y-87539730D01*
X157829541Y-87498092D01*
X157853426Y-87333369D01*
X157853426Y-87333363D01*
X157853846Y-87330470D01*
X157854417Y-87308691D01*
X157855353Y-87272914D01*
X157855353Y-87272909D01*
X157855429Y-87270000D01*
X157854136Y-87255921D01*
X157842109Y-87125038D01*
X157836081Y-87059440D01*
X157834107Y-87052442D01*
X157779920Y-86860306D01*
X157779920Y-86860305D01*
X157778686Y-86855931D01*
X157765088Y-86828356D01*
X157716012Y-86728842D01*
X157685165Y-86666290D01*
X157582614Y-86528958D01*
X157561367Y-86500504D01*
X157561366Y-86500503D01*
X157558651Y-86496867D01*
X157403381Y-86353337D01*
X157393186Y-86346904D01*
X157228391Y-86242926D01*
X157224554Y-86240505D01*
X157028160Y-86162152D01*
X156820775Y-86120901D01*
X156716599Y-86119537D01*
X156613886Y-86118192D01*
X156613881Y-86118192D01*
X156609346Y-86118133D01*
X156604873Y-86118902D01*
X156604868Y-86118902D01*
X156506022Y-86135887D01*
X156400953Y-86153941D01*
X156202575Y-86227127D01*
X156198676Y-86229446D01*
X156198671Y-86229449D01*
X156024762Y-86332914D01*
X156020856Y-86335238D01*
X156017441Y-86338233D01*
X156017438Y-86338235D01*
X156007553Y-86346904D01*
X155861881Y-86474655D01*
X155859073Y-86478217D01*
X155734006Y-86636865D01*
X155730976Y-86640708D01*
X155728862Y-86644726D01*
X155671804Y-86753175D01*
X155627976Y-86795869D01*
X155567424Y-86804649D01*
X155514186Y-86777083D01*
X154841619Y-86104516D01*
X154833877Y-86095803D01*
X154816451Y-86073699D01*
X154811872Y-86067890D01*
X154810629Y-86067031D01*
X154782518Y-86015895D01*
X154790188Y-85955192D01*
X154809761Y-85927342D01*
X154810460Y-85926643D01*
X154813263Y-85923949D01*
X154850124Y-85889876D01*
X154850126Y-85889873D01*
X154855556Y-85884854D01*
X154859078Y-85878790D01*
X154865638Y-85871465D01*
X155513739Y-85223364D01*
X155568256Y-85195587D01*
X155628688Y-85205158D01*
X155673648Y-85251919D01*
X155699369Y-85307714D01*
X155821405Y-85480391D01*
X155972865Y-85627937D01*
X155976638Y-85630458D01*
X156144899Y-85742887D01*
X156144902Y-85742889D01*
X156148677Y-85745411D01*
X156245472Y-85786997D01*
X156338774Y-85827083D01*
X156338778Y-85827084D01*
X156342953Y-85828878D01*
X156377320Y-85836655D01*
X156544760Y-85874543D01*
X156544765Y-85874544D01*
X156549186Y-85875544D01*
X156651647Y-85879570D01*
X156755937Y-85883668D01*
X156755938Y-85883668D01*
X156760470Y-85883846D01*
X156969730Y-85853504D01*
X156974029Y-85852045D01*
X156974032Y-85852044D01*
X157165654Y-85786997D01*
X157169955Y-85785537D01*
X157177891Y-85781093D01*
X157303671Y-85710652D01*
X157354442Y-85682219D01*
X157517012Y-85547012D01*
X157652219Y-85384442D01*
X157740830Y-85226216D01*
X157753319Y-85203916D01*
X157753320Y-85203914D01*
X157755537Y-85199955D01*
X157767404Y-85164997D01*
X157822044Y-85004032D01*
X157822045Y-85004029D01*
X157823504Y-84999730D01*
X157836376Y-84910956D01*
X157853426Y-84793369D01*
X157853426Y-84793363D01*
X157853846Y-84790470D01*
X157854092Y-84781093D01*
X157855353Y-84732914D01*
X157855353Y-84732909D01*
X157855429Y-84730000D01*
X157849994Y-84670846D01*
X157841806Y-84581746D01*
X157836081Y-84519440D01*
X157804374Y-84407013D01*
X157779920Y-84320306D01*
X157779920Y-84320305D01*
X157778686Y-84315931D01*
X157767424Y-84293093D01*
X157735135Y-84227618D01*
X157685165Y-84126290D01*
X157576381Y-83980610D01*
X157561367Y-83960504D01*
X157561366Y-83960503D01*
X157558651Y-83956867D01*
X157403381Y-83813337D01*
X157358239Y-83784854D01*
X157228391Y-83702926D01*
X157224554Y-83700505D01*
X157028160Y-83622152D01*
X156820775Y-83580901D01*
X156716599Y-83579537D01*
X156613886Y-83578192D01*
X156613881Y-83578192D01*
X156609346Y-83578133D01*
X156604873Y-83578902D01*
X156604868Y-83578902D01*
X156509404Y-83595306D01*
X156400953Y-83613941D01*
X156202575Y-83687127D01*
X156198676Y-83689446D01*
X156198671Y-83689449D01*
X156051572Y-83776964D01*
X156020856Y-83795238D01*
X156017441Y-83798233D01*
X156017438Y-83798235D01*
X155945457Y-83861361D01*
X155889241Y-83885514D01*
X155836233Y-83873519D01*
X155836545Y-83873831D01*
X155846116Y-83934263D01*
X155826082Y-83980066D01*
X155735476Y-84095000D01*
X155730976Y-84100708D01*
X155728862Y-84104726D01*
X155664743Y-84226596D01*
X155620916Y-84269290D01*
X155577129Y-84279500D01*
X155486611Y-84279500D01*
X155428420Y-84260593D01*
X155392456Y-84211093D01*
X155392456Y-84149907D01*
X155416607Y-84110496D01*
X155678331Y-83848772D01*
X155732848Y-83820995D01*
X155793208Y-83830555D01*
X155789222Y-83826009D01*
X155783623Y-83765080D01*
X155810178Y-83716925D01*
X156222258Y-83304845D01*
X156276775Y-83277068D01*
X156331342Y-83283890D01*
X156342953Y-83288878D01*
X156413517Y-83304845D01*
X156544760Y-83334543D01*
X156544765Y-83334544D01*
X156549186Y-83335544D01*
X156654828Y-83339695D01*
X156755937Y-83343668D01*
X156755938Y-83343668D01*
X156760470Y-83343846D01*
X156969730Y-83313504D01*
X156974029Y-83312045D01*
X156974032Y-83312044D01*
X157165654Y-83246997D01*
X157169955Y-83245537D01*
X157354442Y-83142219D01*
X157517012Y-83007012D01*
X157652219Y-82844442D01*
X157734081Y-82698268D01*
X157753319Y-82663916D01*
X157753320Y-82663914D01*
X157755537Y-82659955D01*
X157760134Y-82646414D01*
X157822044Y-82464032D01*
X157822045Y-82464029D01*
X157823504Y-82459730D01*
X157835332Y-82378155D01*
X157853426Y-82253369D01*
X157853426Y-82253363D01*
X157853846Y-82250470D01*
X157854304Y-82233000D01*
X157855353Y-82192914D01*
X157855353Y-82192909D01*
X157855429Y-82190000D01*
X157853603Y-82170121D01*
X157844871Y-82075095D01*
X157836081Y-81979440D01*
X157797601Y-81843000D01*
X157779920Y-81780306D01*
X157779920Y-81780305D01*
X157778686Y-81775931D01*
X157771025Y-81760395D01*
X157687173Y-81590362D01*
X157685165Y-81586290D01*
X157558651Y-81416867D01*
X157403381Y-81273337D01*
X157369449Y-81251927D01*
X157228391Y-81162926D01*
X157224554Y-81160505D01*
X157028160Y-81082152D01*
X156820775Y-81040901D01*
X156716599Y-81039537D01*
X156613886Y-81038192D01*
X156613881Y-81038192D01*
X156609346Y-81038133D01*
X156604873Y-81038902D01*
X156604868Y-81038902D01*
X156506017Y-81055888D01*
X156400953Y-81073941D01*
X156202575Y-81147127D01*
X156198676Y-81149446D01*
X156198671Y-81149449D01*
X156029660Y-81250000D01*
X156020856Y-81255238D01*
X156017441Y-81258233D01*
X156017438Y-81258235D01*
X155943222Y-81323321D01*
X155861881Y-81394655D01*
X155731787Y-81559680D01*
X155731785Y-81559681D01*
X155730976Y-81560708D01*
X155730744Y-81560525D01*
X155684977Y-81597585D01*
X155623876Y-81600786D01*
X155572562Y-81567462D01*
X155550500Y-81505160D01*
X155550500Y-80848200D01*
X155569407Y-80790009D01*
X155618907Y-80754045D01*
X155680093Y-80754045D01*
X155689530Y-80757654D01*
X155772864Y-80794496D01*
X155772866Y-80794496D01*
X155779673Y-80797506D01*
X155787067Y-80798368D01*
X155802378Y-80800153D01*
X155805354Y-80800500D01*
X157594646Y-80800500D01*
X157612561Y-80798368D01*
X157613469Y-80798260D01*
X157613470Y-80798260D01*
X157620846Y-80797382D01*
X157723153Y-80751939D01*
X157802241Y-80672713D01*
X157821889Y-80628270D01*
X157844496Y-80577136D01*
X157844496Y-80577134D01*
X157847506Y-80570327D01*
X157850500Y-80544646D01*
X157850500Y-78755354D01*
X157847382Y-78729154D01*
X157801939Y-78626847D01*
X157793000Y-78617923D01*
X157757575Y-78582560D01*
X157722713Y-78547759D01*
X157675801Y-78527019D01*
X157627136Y-78505504D01*
X157627134Y-78505504D01*
X157620327Y-78502494D01*
X157606322Y-78500861D01*
X157597494Y-78499832D01*
X157597493Y-78499832D01*
X157594646Y-78499500D01*
X155805354Y-78499500D01*
X155788951Y-78501452D01*
X155786531Y-78501740D01*
X155786530Y-78501740D01*
X155779154Y-78502618D01*
X155676847Y-78548061D01*
X155670390Y-78554529D01*
X155670389Y-78554530D01*
X155664694Y-78560235D01*
X155597759Y-78627287D01*
X155594064Y-78635645D01*
X155561584Y-78709113D01*
X155552494Y-78729673D01*
X155549500Y-78755354D01*
X155549500Y-79109257D01*
X155530593Y-79167448D01*
X155481093Y-79203412D01*
X155465221Y-79207156D01*
X155416038Y-79214551D01*
X155409525Y-79217679D01*
X155402427Y-79218975D01*
X155373379Y-79234064D01*
X155350020Y-79246198D01*
X155347238Y-79247588D01*
X155300592Y-79269987D01*
X155300589Y-79269989D01*
X155293921Y-79273191D01*
X155289479Y-79277297D01*
X155287219Y-79278820D01*
X155282212Y-79281421D01*
X155277172Y-79285725D01*
X155239540Y-79323357D01*
X155236737Y-79326051D01*
X155199876Y-79360124D01*
X155199874Y-79360127D01*
X155194444Y-79365146D01*
X155190922Y-79371210D01*
X155184362Y-79378535D01*
X154804516Y-79758381D01*
X154795804Y-79766122D01*
X154767890Y-79788128D01*
X154763683Y-79794215D01*
X154734292Y-79836741D01*
X154732483Y-79839272D01*
X154706122Y-79874962D01*
X154697366Y-79886816D01*
X154694973Y-79893632D01*
X154690869Y-79899569D01*
X154688636Y-79906628D01*
X154688636Y-79906629D01*
X154673049Y-79955915D01*
X154672082Y-79958814D01*
X154652481Y-80014631D01*
X154652244Y-80020673D01*
X154651723Y-80023347D01*
X154650020Y-80028730D01*
X154649500Y-80035337D01*
X154649500Y-80088541D01*
X154649424Y-80092428D01*
X154647677Y-80136897D01*
X154647162Y-80149994D01*
X154648959Y-80156772D01*
X154649500Y-80166597D01*
X154649500Y-82072389D01*
X154630593Y-82130580D01*
X154620504Y-82142393D01*
X153742393Y-83020504D01*
X153687876Y-83048281D01*
X153672389Y-83049500D01*
X151361461Y-83049500D01*
X151303270Y-83030593D01*
X151267306Y-82981093D01*
X151267306Y-82919907D01*
X151282604Y-82890645D01*
X151311553Y-82852506D01*
X151334113Y-82822784D01*
X151389636Y-82682548D01*
X151400500Y-82592773D01*
X151400499Y-81807228D01*
X151397242Y-81780306D01*
X151390400Y-81723765D01*
X151390400Y-81723764D01*
X151389636Y-81717452D01*
X151334113Y-81577216D01*
X151242923Y-81457077D01*
X151122784Y-81365887D01*
X150982548Y-81310364D01*
X150892773Y-81299500D01*
X150200116Y-81299500D01*
X149507228Y-81299501D01*
X149504263Y-81299860D01*
X149504259Y-81299860D01*
X149423765Y-81309600D01*
X149423764Y-81309600D01*
X149417452Y-81310364D01*
X149277216Y-81365887D01*
X149157077Y-81457077D01*
X149065887Y-81577216D01*
X149010364Y-81717452D01*
X148999500Y-81807227D01*
X148999501Y-82592772D01*
X148999860Y-82595737D01*
X148999860Y-82595741D01*
X149008899Y-82670442D01*
X149010364Y-82682548D01*
X149065887Y-82822784D01*
X149088447Y-82852506D01*
X149117396Y-82890645D01*
X149137517Y-82948427D01*
X149119833Y-83007001D01*
X149071097Y-83043993D01*
X149038539Y-83049500D01*
X148683251Y-83049500D01*
X148625060Y-83030593D01*
X148622665Y-83028547D01*
X148622150Y-83027850D01*
X148619922Y-83026204D01*
X148619918Y-83026201D01*
X148519136Y-82951762D01*
X148519135Y-82951761D01*
X148513184Y-82947366D01*
X148385369Y-82902481D01*
X148379362Y-82901913D01*
X148379361Y-82901913D01*
X148356145Y-82899718D01*
X148356135Y-82899718D01*
X148353834Y-82899500D01*
X146996166Y-82899500D01*
X146993865Y-82899718D01*
X146993855Y-82899718D01*
X146970639Y-82901913D01*
X146970638Y-82901913D01*
X146964631Y-82902481D01*
X146836816Y-82947366D01*
X146830865Y-82951761D01*
X146830864Y-82951762D01*
X146811525Y-82966046D01*
X146760792Y-83003519D01*
X146758318Y-83005346D01*
X146700278Y-83024710D01*
X146641940Y-83006260D01*
X146605589Y-82957045D01*
X146600500Y-82925713D01*
X146600500Y-78936567D01*
X146593044Y-78913620D01*
X146589419Y-78898519D01*
X146586865Y-78882391D01*
X146586864Y-78882389D01*
X146585646Y-78874696D01*
X146574695Y-78853203D01*
X146568752Y-78838857D01*
X146563704Y-78823321D01*
X146561296Y-78815910D01*
X146547116Y-78796393D01*
X146539002Y-78783154D01*
X146528050Y-78761658D01*
X146505487Y-78739095D01*
X146505484Y-78739091D01*
X145067739Y-77301346D01*
X155063694Y-77301346D01*
X155064321Y-77305310D01*
X155065292Y-77306582D01*
X155101687Y-77339698D01*
X155106112Y-77343281D01*
X155383182Y-77542377D01*
X155388000Y-77545434D01*
X155686117Y-77711363D01*
X155691234Y-77713837D01*
X156006461Y-77844409D01*
X156011836Y-77846280D01*
X156339974Y-77939753D01*
X156345517Y-77940992D01*
X156682235Y-77996132D01*
X156687893Y-77996726D01*
X157028697Y-78012798D01*
X157034402Y-78012739D01*
X157374794Y-77989533D01*
X157380452Y-77988818D01*
X157715915Y-77926644D01*
X157721458Y-77925282D01*
X158047548Y-77824963D01*
X158052894Y-77822976D01*
X158365313Y-77685834D01*
X158370380Y-77683252D01*
X158664964Y-77511110D01*
X158669696Y-77507966D01*
X158930777Y-77311941D01*
X158938446Y-77301030D01*
X158938422Y-77299512D01*
X158935309Y-77294520D01*
X157011086Y-75370296D01*
X156999203Y-75364242D01*
X156994172Y-75365038D01*
X155069748Y-77289463D01*
X155063694Y-77301346D01*
X145067739Y-77301346D01*
X144660903Y-76894510D01*
X144660899Y-76894507D01*
X144638336Y-76871944D01*
X144616840Y-76860992D01*
X144603599Y-76852877D01*
X144590389Y-76843279D01*
X144584084Y-76838698D01*
X144561137Y-76831242D01*
X144546791Y-76825299D01*
X144525298Y-76814348D01*
X144517605Y-76813130D01*
X144517603Y-76813129D01*
X144501475Y-76810575D01*
X144486374Y-76806950D01*
X144463427Y-76799494D01*
X138249020Y-76799494D01*
X138190829Y-76780587D01*
X138183314Y-76774169D01*
X138181429Y-76771712D01*
X138055988Y-76675458D01*
X137909909Y-76614950D01*
X137778716Y-76597678D01*
X137759581Y-76595159D01*
X137753147Y-76594312D01*
X137746713Y-76595159D01*
X137727578Y-76597678D01*
X137596385Y-76614950D01*
X137450306Y-76675458D01*
X137324865Y-76771712D01*
X137228611Y-76897153D01*
X137168103Y-77043232D01*
X137147465Y-77199994D01*
X137168103Y-77356756D01*
X137228611Y-77502835D01*
X137255349Y-77537681D01*
X137275772Y-77595354D01*
X137255348Y-77658213D01*
X137225464Y-77697159D01*
X137164956Y-77843238D01*
X137144318Y-78000000D01*
X137164956Y-78156762D01*
X137225464Y-78302841D01*
X137321718Y-78428282D01*
X137447159Y-78524536D01*
X137593238Y-78585044D01*
X137750000Y-78605682D01*
X137906762Y-78585044D01*
X138052841Y-78524536D01*
X138178282Y-78428282D01*
X138274536Y-78302841D01*
X138335044Y-78156762D01*
X138343434Y-78093034D01*
X138371583Y-78035952D01*
X138378039Y-78029496D01*
X138432556Y-78001719D01*
X138448043Y-78000500D01*
X139444099Y-78000500D01*
X139502290Y-78019407D01*
X139538254Y-78068907D01*
X139538254Y-78130093D01*
X139514103Y-78169504D01*
X139407016Y-78276591D01*
X139407013Y-78276595D01*
X139384450Y-78299158D01*
X139373498Y-78320654D01*
X139365384Y-78333893D01*
X139351204Y-78353410D01*
X139348796Y-78360821D01*
X139343748Y-78376357D01*
X139337805Y-78390703D01*
X139326854Y-78412196D01*
X139325636Y-78419889D01*
X139325635Y-78419891D01*
X139323081Y-78436019D01*
X139319456Y-78451120D01*
X139312000Y-78474067D01*
X139312000Y-78689927D01*
X139293093Y-78748118D01*
X139249445Y-78781975D01*
X139236452Y-78787119D01*
X139231077Y-78791199D01*
X139231075Y-78791200D01*
X139176737Y-78832445D01*
X139123133Y-78873133D01*
X139119047Y-78878516D01*
X139055334Y-78962455D01*
X139037119Y-78986452D01*
X138984747Y-79118727D01*
X138983984Y-79125036D01*
X138983983Y-79125038D01*
X138974994Y-79199327D01*
X138974500Y-79203406D01*
X138974500Y-79796594D01*
X138974859Y-79799560D01*
X138974859Y-79799561D01*
X138976838Y-79815911D01*
X138984747Y-79881273D01*
X139037119Y-80013548D01*
X139041199Y-80018923D01*
X139041200Y-80018925D01*
X139055136Y-80037285D01*
X139123133Y-80126867D01*
X139185608Y-80174288D01*
X139220527Y-80224530D01*
X139219245Y-80285702D01*
X139177847Y-80337329D01*
X139046488Y-80418616D01*
X139037537Y-80425711D01*
X138924905Y-80538539D01*
X138917826Y-80547503D01*
X138834170Y-80683218D01*
X138829344Y-80693568D01*
X138779044Y-80845217D01*
X138776792Y-80855723D01*
X138767259Y-80948771D01*
X138767000Y-80953830D01*
X138767000Y-80980320D01*
X138771122Y-80993005D01*
X138775243Y-80996000D01*
X139880000Y-80996000D01*
X139938191Y-81014907D01*
X139974155Y-81064407D01*
X139979000Y-81095000D01*
X139979000Y-82217320D01*
X139983122Y-82230005D01*
X139987243Y-82233000D01*
X139996135Y-82233000D01*
X140001262Y-82232735D01*
X140095525Y-82222953D01*
X140106054Y-82220680D01*
X140257600Y-82170121D01*
X140267947Y-82165274D01*
X140403512Y-82081384D01*
X140412463Y-82074289D01*
X140525095Y-81961461D01*
X140532176Y-81952494D01*
X140552945Y-81918801D01*
X140599575Y-81879187D01*
X140660584Y-81874546D01*
X140697076Y-81891894D01*
X140784228Y-81958047D01*
X140784230Y-81958048D01*
X140789605Y-81962128D01*
X140923472Y-82015129D01*
X140962393Y-82019839D01*
X141017891Y-82045600D01*
X141047648Y-82099062D01*
X141049500Y-82118122D01*
X141049500Y-82540332D01*
X141030593Y-82598523D01*
X140990689Y-82630808D01*
X140951847Y-82648061D01*
X140945390Y-82654529D01*
X140945389Y-82654530D01*
X140913408Y-82686567D01*
X140872759Y-82727287D01*
X140863117Y-82749096D01*
X140830540Y-82822784D01*
X140827494Y-82829673D01*
X140824500Y-82855354D01*
X140824500Y-83095077D01*
X140805593Y-83153268D01*
X140756093Y-83189232D01*
X140694907Y-83189232D01*
X140655496Y-83165081D01*
X140284931Y-82794516D01*
X140284927Y-82794513D01*
X140262364Y-82771950D01*
X140240868Y-82760998D01*
X140227627Y-82752883D01*
X140214417Y-82743285D01*
X140208112Y-82738704D01*
X140185165Y-82731248D01*
X140170819Y-82725305D01*
X140149326Y-82714354D01*
X140139562Y-82712808D01*
X140137691Y-82711855D01*
X140134219Y-82710727D01*
X140134397Y-82710179D01*
X140085110Y-82685091D01*
X140071406Y-82671411D01*
X140047713Y-82647759D01*
X140025551Y-82637961D01*
X139952136Y-82605504D01*
X139952134Y-82605504D01*
X139945327Y-82602494D01*
X139931322Y-82600861D01*
X139922494Y-82599832D01*
X139922493Y-82599832D01*
X139919646Y-82599500D01*
X139180354Y-82599500D01*
X139163951Y-82601452D01*
X139161531Y-82601740D01*
X139161530Y-82601740D01*
X139154154Y-82602618D01*
X139051847Y-82648061D01*
X139045392Y-82654527D01*
X139045391Y-82654528D01*
X139029505Y-82670442D01*
X138975012Y-82698268D01*
X138959440Y-82699500D01*
X138306901Y-82699500D01*
X138248710Y-82680593D01*
X138236897Y-82670504D01*
X138029496Y-82463103D01*
X138001719Y-82408586D01*
X138000500Y-82393099D01*
X138000500Y-81546135D01*
X138767000Y-81546135D01*
X138767265Y-81551262D01*
X138777047Y-81645525D01*
X138779320Y-81656054D01*
X138829879Y-81807600D01*
X138834726Y-81817947D01*
X138918616Y-81953512D01*
X138925711Y-81962463D01*
X139038539Y-82075095D01*
X139047503Y-82082174D01*
X139183218Y-82165830D01*
X139193568Y-82170656D01*
X139345217Y-82220956D01*
X139355723Y-82223208D01*
X139448771Y-82232741D01*
X139453829Y-82233000D01*
X139455320Y-82233000D01*
X139468005Y-82228878D01*
X139471000Y-82224757D01*
X139471000Y-81519680D01*
X139466878Y-81506995D01*
X139462757Y-81504000D01*
X138782680Y-81504000D01*
X138769995Y-81508122D01*
X138767000Y-81512243D01*
X138767000Y-81546135D01*
X138000500Y-81546135D01*
X138000500Y-81468481D01*
X138000499Y-81468475D01*
X138000499Y-81436567D01*
X137998093Y-81429160D01*
X137998092Y-81429157D01*
X137993046Y-81413627D01*
X137989420Y-81398524D01*
X137986865Y-81382392D01*
X137985646Y-81374696D01*
X137974695Y-81353204D01*
X137968751Y-81338855D01*
X137968682Y-81338641D01*
X137961296Y-81315910D01*
X137947111Y-81296386D01*
X137939004Y-81283156D01*
X137928050Y-81261658D01*
X137838342Y-81171950D01*
X137610909Y-80944516D01*
X137610905Y-80944513D01*
X137588342Y-80921950D01*
X137566846Y-80910998D01*
X137553605Y-80902883D01*
X137540395Y-80893285D01*
X137534090Y-80888704D01*
X137511143Y-80881248D01*
X137496797Y-80875305D01*
X137475304Y-80864354D01*
X137475303Y-80864354D01*
X137476465Y-80862073D01*
X137438843Y-80835482D01*
X137432234Y-80826869D01*
X137428282Y-80821718D01*
X137302841Y-80725464D01*
X137156762Y-80664956D01*
X137000000Y-80644318D01*
X136843238Y-80664956D01*
X136697159Y-80725464D01*
X136571718Y-80821718D01*
X136475464Y-80947159D01*
X136414956Y-81093238D01*
X136394318Y-81250000D01*
X136414956Y-81406762D01*
X136475464Y-81552841D01*
X136571718Y-81678282D01*
X136575067Y-81680852D01*
X136602408Y-81734513D01*
X136592837Y-81794945D01*
X136575487Y-81818826D01*
X136571718Y-81821718D01*
X136475464Y-81947159D01*
X136414956Y-82093238D01*
X136394318Y-82250000D01*
X136414956Y-82406762D01*
X136475464Y-82552841D01*
X136571718Y-82678282D01*
X136576871Y-82682236D01*
X136606935Y-82705305D01*
X136634877Y-82738901D01*
X136636297Y-82741688D01*
X136638704Y-82749096D01*
X136643282Y-82755397D01*
X136643283Y-82755399D01*
X136652883Y-82768611D01*
X136660998Y-82781852D01*
X136671950Y-82803348D01*
X136694513Y-82825911D01*
X136694516Y-82825915D01*
X137924085Y-84055484D01*
X137924089Y-84055487D01*
X137946652Y-84078050D01*
X137968140Y-84088999D01*
X137981381Y-84097113D01*
X137994600Y-84106717D01*
X137994604Y-84106719D01*
X138000905Y-84111297D01*
X138020332Y-84117609D01*
X138023853Y-84118753D01*
X138038197Y-84124695D01*
X138059690Y-84135646D01*
X138067385Y-84136865D01*
X138067386Y-84136865D01*
X138083511Y-84139419D01*
X138098615Y-84143045D01*
X138114152Y-84148093D01*
X138114154Y-84148093D01*
X138121561Y-84150500D01*
X138825500Y-84150500D01*
X138883691Y-84169407D01*
X138919655Y-84218907D01*
X138924500Y-84249500D01*
X138924500Y-84644646D01*
X138927618Y-84670846D01*
X138973061Y-84773153D01*
X139052287Y-84852241D01*
X139076928Y-84863135D01*
X139147864Y-84894496D01*
X139147866Y-84894496D01*
X139154673Y-84897506D01*
X139180354Y-84900500D01*
X139793100Y-84900500D01*
X139851291Y-84919407D01*
X139863103Y-84929496D01*
X140017716Y-85084108D01*
X140261658Y-85328050D01*
X140283156Y-85339004D01*
X140296386Y-85347111D01*
X140315910Y-85361296D01*
X140323315Y-85363702D01*
X140323319Y-85363704D01*
X140338857Y-85368752D01*
X140353203Y-85374695D01*
X140374696Y-85385646D01*
X140382389Y-85386864D01*
X140382391Y-85386865D01*
X140398519Y-85389419D01*
X140413620Y-85393044D01*
X140436567Y-85400500D01*
X142063433Y-85400500D01*
X142086380Y-85393044D01*
X142101481Y-85389419D01*
X142117609Y-85386865D01*
X142117611Y-85386864D01*
X142125304Y-85385646D01*
X142146797Y-85374695D01*
X142161143Y-85368752D01*
X142176679Y-85363704D01*
X142184090Y-85361296D01*
X142203607Y-85347116D01*
X142216846Y-85339002D01*
X142238342Y-85328050D01*
X142260905Y-85305487D01*
X142260909Y-85305484D01*
X142680496Y-84885897D01*
X142735013Y-84858120D01*
X142795445Y-84867691D01*
X142838710Y-84910956D01*
X142849500Y-84955901D01*
X142849500Y-85043100D01*
X142830593Y-85101291D01*
X142820504Y-85113104D01*
X142124295Y-85809312D01*
X142069778Y-85837089D01*
X142009346Y-85827518D01*
X141984351Y-85809375D01*
X141979183Y-85804217D01*
X141979179Y-85804214D01*
X141972713Y-85797759D01*
X141903451Y-85767138D01*
X141877136Y-85755504D01*
X141877134Y-85755504D01*
X141870327Y-85752494D01*
X141856322Y-85750861D01*
X141847494Y-85749832D01*
X141847493Y-85749832D01*
X141844646Y-85749500D01*
X140955354Y-85749500D01*
X140938951Y-85751452D01*
X140936531Y-85751740D01*
X140936530Y-85751740D01*
X140929154Y-85752618D01*
X140826847Y-85798061D01*
X140820390Y-85804529D01*
X140820389Y-85804530D01*
X140797441Y-85827518D01*
X140747759Y-85877287D01*
X140744064Y-85885645D01*
X140707399Y-85968579D01*
X140702494Y-85979673D01*
X140699500Y-86005354D01*
X140699500Y-86594646D01*
X140701600Y-86612290D01*
X140702618Y-86620846D01*
X140700810Y-86621061D01*
X140698437Y-86672775D01*
X140660242Y-86720575D01*
X140636376Y-86732054D01*
X140628088Y-86734747D01*
X140615910Y-86738704D01*
X140609605Y-86743285D01*
X140596395Y-86752883D01*
X140583154Y-86760998D01*
X140561658Y-86771950D01*
X140539095Y-86794513D01*
X140539091Y-86794516D01*
X140461479Y-86872128D01*
X140406962Y-86899905D01*
X140346530Y-86890334D01*
X140303265Y-86847069D01*
X140297852Y-86833102D01*
X140297382Y-86829154D01*
X140268983Y-86765218D01*
X140262640Y-86704363D01*
X140268910Y-86685008D01*
X140297506Y-86620327D01*
X140300500Y-86594646D01*
X140300500Y-86005354D01*
X140297382Y-85979154D01*
X140251939Y-85876847D01*
X140229209Y-85854156D01*
X140179179Y-85804214D01*
X140172713Y-85797759D01*
X140103451Y-85767138D01*
X140077136Y-85755504D01*
X140077134Y-85755504D01*
X140070327Y-85752494D01*
X140056322Y-85750861D01*
X140047494Y-85749832D01*
X140047493Y-85749832D01*
X140044646Y-85749500D01*
X139155354Y-85749500D01*
X139138951Y-85751452D01*
X139136531Y-85751740D01*
X139136530Y-85751740D01*
X139129154Y-85752618D01*
X139026847Y-85798061D01*
X139020390Y-85804529D01*
X139020389Y-85804530D01*
X138954591Y-85870443D01*
X138900098Y-85898268D01*
X138884526Y-85899500D01*
X137571906Y-85899500D01*
X137513715Y-85880593D01*
X137501902Y-85870504D01*
X137049653Y-85418254D01*
X136575915Y-84944516D01*
X136575911Y-84944513D01*
X136553348Y-84921950D01*
X136531852Y-84910998D01*
X136518611Y-84902883D01*
X136514875Y-84900168D01*
X136499096Y-84888704D01*
X136476149Y-84881248D01*
X136461803Y-84875305D01*
X136440310Y-84864354D01*
X136432617Y-84863136D01*
X136432615Y-84863135D01*
X136416487Y-84860581D01*
X136401386Y-84856956D01*
X136378439Y-84849500D01*
X136249500Y-84849500D01*
X136191309Y-84830593D01*
X136155345Y-84781093D01*
X136150500Y-84750500D01*
X136150500Y-84653096D01*
X136139997Y-84581746D01*
X136136609Y-84574845D01*
X136136607Y-84574839D01*
X136121267Y-84543595D01*
X136112594Y-84483028D01*
X136121191Y-84456489D01*
X136136806Y-84424544D01*
X136136806Y-84424543D01*
X136140181Y-84417639D01*
X136147804Y-84365383D01*
X136149983Y-84350449D01*
X136149983Y-84350447D01*
X136150500Y-84346904D01*
X136150500Y-84153096D01*
X136149021Y-84143045D01*
X136141117Y-84089353D01*
X136141117Y-84089352D01*
X136139997Y-84081746D01*
X136127180Y-84055641D01*
X136090342Y-83980610D01*
X136090341Y-83980609D01*
X136086737Y-83973268D01*
X136001210Y-83887890D01*
X135968511Y-83871906D01*
X135926171Y-83851210D01*
X135906024Y-83841362D01*
X135862048Y-83798821D01*
X135850500Y-83752419D01*
X135850500Y-77536901D01*
X135869407Y-77478710D01*
X135879496Y-77466897D01*
X138438188Y-74908205D01*
X153988464Y-74908205D01*
X153997394Y-75249270D01*
X153997872Y-75254965D01*
X154045943Y-75592725D01*
X154047074Y-75598333D01*
X154133651Y-75928342D01*
X154135406Y-75933744D01*
X154259349Y-76251644D01*
X154261715Y-76256812D01*
X154421368Y-76558343D01*
X154424324Y-76563223D01*
X154617562Y-76844385D01*
X154621068Y-76848906D01*
X154690345Y-76928319D01*
X154701791Y-76935170D01*
X154705239Y-76934862D01*
X154707361Y-76933428D01*
X156629704Y-75011086D01*
X156634946Y-75000797D01*
X157364242Y-75000797D01*
X157365038Y-75005828D01*
X159287994Y-76928783D01*
X159299877Y-76934837D01*
X159302748Y-76934383D01*
X159305503Y-76932187D01*
X159417135Y-76798676D01*
X159420535Y-76794099D01*
X159607855Y-76508929D01*
X159610697Y-76504008D01*
X159764009Y-76199183D01*
X159766263Y-76193973D01*
X159883515Y-75873565D01*
X159885163Y-75868108D01*
X159964813Y-75536343D01*
X159965821Y-75530743D01*
X160006887Y-75191385D01*
X160007221Y-75186987D01*
X160013028Y-75002214D01*
X160012971Y-74997793D01*
X159993293Y-74656529D01*
X159992639Y-74650875D01*
X159933980Y-74314767D01*
X159932678Y-74309218D01*
X159835777Y-73982086D01*
X159833846Y-73976723D01*
X159699983Y-73662888D01*
X159697459Y-73657802D01*
X159528407Y-73361421D01*
X159525311Y-73356654D01*
X159323319Y-73081676D01*
X159319696Y-73077296D01*
X159312172Y-73069199D01*
X159300517Y-73062713D01*
X159296258Y-73063228D01*
X159295344Y-73063867D01*
X157370296Y-74988914D01*
X157364242Y-75000797D01*
X156634946Y-75000797D01*
X156635758Y-74999203D01*
X156634962Y-74994172D01*
X154710648Y-73069859D01*
X154698765Y-73063805D01*
X154696715Y-73064129D01*
X154692902Y-73067267D01*
X154527552Y-73278145D01*
X154524305Y-73282818D01*
X154346038Y-73573723D01*
X154343343Y-73578749D01*
X154199697Y-73888208D01*
X154197594Y-73893520D01*
X154090465Y-74217450D01*
X154088994Y-74222940D01*
X154019805Y-74557042D01*
X154018972Y-74562681D01*
X153988642Y-74902517D01*
X153988464Y-74908205D01*
X138438188Y-74908205D01*
X139252797Y-74093596D01*
X139307314Y-74065819D01*
X139361881Y-74072640D01*
X139418782Y-74097087D01*
X139418791Y-74097090D01*
X139422953Y-74098878D01*
X139427378Y-74099879D01*
X139427377Y-74099879D01*
X139624760Y-74144543D01*
X139624765Y-74144544D01*
X139629186Y-74145544D01*
X139734828Y-74149695D01*
X139835937Y-74153668D01*
X139835938Y-74153668D01*
X139840470Y-74153846D01*
X140049730Y-74123504D01*
X140054029Y-74122045D01*
X140054032Y-74122044D01*
X140245654Y-74056997D01*
X140249955Y-74055537D01*
X140285777Y-74035476D01*
X140430481Y-73954437D01*
X140434442Y-73952219D01*
X140597012Y-73817012D01*
X140732219Y-73654442D01*
X140802862Y-73528300D01*
X140833319Y-73473916D01*
X140833320Y-73473914D01*
X140835537Y-73469955D01*
X140853565Y-73416847D01*
X140902044Y-73274032D01*
X140902045Y-73274029D01*
X140903504Y-73269730D01*
X140917062Y-73176223D01*
X140933426Y-73063369D01*
X140933426Y-73063363D01*
X140933846Y-73060470D01*
X140935429Y-73000000D01*
X140934230Y-72986944D01*
X140916496Y-72793960D01*
X140916081Y-72789440D01*
X140891307Y-72701596D01*
X155064376Y-72701596D01*
X155064487Y-72703945D01*
X155066912Y-72707701D01*
X156988914Y-74629704D01*
X157000797Y-74635758D01*
X157005828Y-74634962D01*
X158928800Y-72711990D01*
X158934854Y-72700107D01*
X158934356Y-72696963D01*
X158932471Y-72694571D01*
X158823894Y-72601837D01*
X158819341Y-72598381D01*
X158536159Y-72408091D01*
X158531256Y-72405191D01*
X158228073Y-72248707D01*
X158222870Y-72246390D01*
X157903711Y-72125790D01*
X157898266Y-72124083D01*
X157567368Y-72040968D01*
X157561769Y-72039900D01*
X157223502Y-71995366D01*
X157217824Y-71994949D01*
X156876667Y-71989590D01*
X156871000Y-71989827D01*
X156531486Y-72023715D01*
X156525853Y-72024607D01*
X156192506Y-72097289D01*
X156187019Y-72098821D01*
X155864232Y-72209336D01*
X155858955Y-72211489D01*
X155551002Y-72358375D01*
X155546010Y-72361119D01*
X155256992Y-72542420D01*
X155252335Y-72545730D01*
X155071700Y-72690446D01*
X155064376Y-72701596D01*
X140891307Y-72701596D01*
X140858686Y-72585931D01*
X140765165Y-72396290D01*
X140654960Y-72248707D01*
X140641367Y-72230504D01*
X140641366Y-72230503D01*
X140638651Y-72226867D01*
X140483381Y-72083337D01*
X140476752Y-72079154D01*
X140308391Y-71972926D01*
X140304554Y-71970505D01*
X140108160Y-71892152D01*
X139900775Y-71850901D01*
X139796599Y-71849537D01*
X139693886Y-71848192D01*
X139693881Y-71848192D01*
X139689346Y-71848133D01*
X139684873Y-71848902D01*
X139684868Y-71848902D01*
X139581601Y-71866647D01*
X139480953Y-71883941D01*
X139282575Y-71957127D01*
X139278676Y-71959446D01*
X139278671Y-71959449D01*
X139141650Y-72040968D01*
X139100856Y-72065238D01*
X139097441Y-72068233D01*
X139097438Y-72068235D01*
X138994262Y-72158718D01*
X138941881Y-72204655D01*
X138939073Y-72208217D01*
X138820699Y-72358375D01*
X138810976Y-72370708D01*
X138808862Y-72374726D01*
X138720634Y-72542420D01*
X138712523Y-72557836D01*
X138698860Y-72601837D01*
X138671347Y-72690446D01*
X138649820Y-72759773D01*
X138624967Y-72969754D01*
X138628673Y-73026292D01*
X138632303Y-73081676D01*
X138638796Y-73180749D01*
X138639912Y-73185142D01*
X138639912Y-73185144D01*
X138683471Y-73356654D01*
X138690845Y-73385690D01*
X138692741Y-73389803D01*
X138692744Y-73389811D01*
X138705209Y-73416849D01*
X138712401Y-73477610D01*
X138685307Y-73528300D01*
X135569504Y-76644103D01*
X135514987Y-76671880D01*
X135454555Y-76662309D01*
X135411290Y-76619044D01*
X135400500Y-76574099D01*
X135400500Y-75446901D01*
X135419407Y-75388710D01*
X135429496Y-75376897D01*
X136712797Y-74093595D01*
X136767314Y-74065818D01*
X136821880Y-74072639D01*
X136836951Y-74079114D01*
X136878783Y-74097087D01*
X136878788Y-74097089D01*
X136882953Y-74098878D01*
X136914145Y-74105936D01*
X137084760Y-74144543D01*
X137084765Y-74144544D01*
X137089186Y-74145544D01*
X137194828Y-74149695D01*
X137295937Y-74153668D01*
X137295938Y-74153668D01*
X137300470Y-74153846D01*
X137509730Y-74123504D01*
X137514029Y-74122045D01*
X137514032Y-74122044D01*
X137705654Y-74056997D01*
X137709955Y-74055537D01*
X137745777Y-74035476D01*
X137890481Y-73954437D01*
X137894442Y-73952219D01*
X138057012Y-73817012D01*
X138192219Y-73654442D01*
X138262862Y-73528300D01*
X138293319Y-73473916D01*
X138293320Y-73473914D01*
X138295537Y-73469955D01*
X138313565Y-73416847D01*
X138362044Y-73274032D01*
X138362045Y-73274029D01*
X138363504Y-73269730D01*
X138377062Y-73176223D01*
X138393426Y-73063369D01*
X138393426Y-73063363D01*
X138393846Y-73060470D01*
X138395429Y-73000000D01*
X138394230Y-72986944D01*
X138376496Y-72793960D01*
X138376081Y-72789440D01*
X138318686Y-72585931D01*
X138225165Y-72396290D01*
X138114960Y-72248707D01*
X138101367Y-72230504D01*
X138101366Y-72230503D01*
X138098651Y-72226867D01*
X137943381Y-72083337D01*
X137936752Y-72079154D01*
X137768391Y-71972926D01*
X137764554Y-71970505D01*
X137568160Y-71892152D01*
X137360775Y-71850901D01*
X137256599Y-71849537D01*
X137153886Y-71848192D01*
X137153881Y-71848192D01*
X137149346Y-71848133D01*
X137144873Y-71848902D01*
X137144868Y-71848902D01*
X137041601Y-71866647D01*
X136940953Y-71883941D01*
X136742575Y-71957127D01*
X136738676Y-71959446D01*
X136738671Y-71959449D01*
X136601650Y-72040968D01*
X136560856Y-72065238D01*
X136557441Y-72068233D01*
X136557438Y-72068235D01*
X136454262Y-72158718D01*
X136401881Y-72204655D01*
X136399073Y-72208217D01*
X136280699Y-72358375D01*
X136270976Y-72370708D01*
X136268862Y-72374726D01*
X136180634Y-72542420D01*
X136172523Y-72557836D01*
X136158860Y-72601837D01*
X136131347Y-72690446D01*
X136109820Y-72759773D01*
X136084967Y-72969754D01*
X136088673Y-73026292D01*
X136092303Y-73081676D01*
X136098796Y-73180749D01*
X136099912Y-73185142D01*
X136099912Y-73185144D01*
X136143471Y-73356654D01*
X136150845Y-73385690D01*
X136165211Y-73416851D01*
X136172402Y-73477609D01*
X136145308Y-73528300D01*
X135069515Y-74604092D01*
X135014998Y-74631869D01*
X134954566Y-74622298D01*
X134911301Y-74579033D01*
X134900511Y-74534088D01*
X134900511Y-74217740D01*
X134919418Y-74159549D01*
X134968855Y-74123631D01*
X134969730Y-74123504D01*
X135169955Y-74055537D01*
X135205777Y-74035476D01*
X135350481Y-73954437D01*
X135354442Y-73952219D01*
X135517012Y-73817012D01*
X135652219Y-73654442D01*
X135722862Y-73528300D01*
X135753319Y-73473916D01*
X135753320Y-73473914D01*
X135755537Y-73469955D01*
X135773565Y-73416847D01*
X135822044Y-73274032D01*
X135822045Y-73274029D01*
X135823504Y-73269730D01*
X135837062Y-73176223D01*
X135853426Y-73063369D01*
X135853426Y-73063363D01*
X135853846Y-73060470D01*
X135855429Y-73000000D01*
X135854230Y-72986944D01*
X135836496Y-72793960D01*
X135836081Y-72789440D01*
X135778686Y-72585931D01*
X135685165Y-72396290D01*
X135574960Y-72248707D01*
X135561367Y-72230504D01*
X135561366Y-72230503D01*
X135558651Y-72226867D01*
X135403381Y-72083337D01*
X135396752Y-72079154D01*
X135228391Y-71972926D01*
X135224554Y-71970505D01*
X135028160Y-71892152D01*
X134820775Y-71850901D01*
X134716599Y-71849537D01*
X134613886Y-71848192D01*
X134613881Y-71848192D01*
X134609346Y-71848133D01*
X134604873Y-71848902D01*
X134604868Y-71848902D01*
X134501601Y-71866647D01*
X134400953Y-71883941D01*
X134202575Y-71957127D01*
X134198676Y-71959446D01*
X134198671Y-71959449D01*
X134061650Y-72040968D01*
X134020856Y-72065238D01*
X134017441Y-72068233D01*
X134017438Y-72068235D01*
X133914262Y-72158718D01*
X133861881Y-72204655D01*
X133859073Y-72208217D01*
X133740699Y-72358375D01*
X133730976Y-72370708D01*
X133728862Y-72374726D01*
X133640634Y-72542420D01*
X133632523Y-72557836D01*
X133618860Y-72601837D01*
X133591347Y-72690446D01*
X133569820Y-72759773D01*
X133544967Y-72969754D01*
X133548673Y-73026292D01*
X133552303Y-73081676D01*
X133558796Y-73180749D01*
X133559912Y-73185142D01*
X133559912Y-73185144D01*
X133603471Y-73356654D01*
X133610845Y-73385690D01*
X133612745Y-73389811D01*
X133612747Y-73389816D01*
X133653221Y-73477610D01*
X133699369Y-73577714D01*
X133821405Y-73750391D01*
X133972865Y-73897937D01*
X133976643Y-73900462D01*
X133976650Y-73900467D01*
X134055512Y-73953161D01*
X134093392Y-74001210D01*
X134099511Y-74035476D01*
X134099511Y-74794110D01*
X134080604Y-74852301D01*
X134031104Y-74888265D01*
X133969918Y-74888265D01*
X133930507Y-74864114D01*
X132998375Y-73931982D01*
X132970598Y-73877465D01*
X132980169Y-73817033D01*
X132992264Y-73798674D01*
X133109312Y-73657939D01*
X133109319Y-73657929D01*
X133112219Y-73654442D01*
X133182862Y-73528300D01*
X133213319Y-73473916D01*
X133213320Y-73473914D01*
X133215537Y-73469955D01*
X133233565Y-73416847D01*
X133282044Y-73274032D01*
X133282045Y-73274029D01*
X133283504Y-73269730D01*
X133297062Y-73176223D01*
X133313426Y-73063369D01*
X133313426Y-73063363D01*
X133313846Y-73060470D01*
X133315429Y-73000000D01*
X133314230Y-72986944D01*
X133296496Y-72793960D01*
X133296081Y-72789440D01*
X133238686Y-72585931D01*
X133145165Y-72396290D01*
X133034960Y-72248707D01*
X133021367Y-72230504D01*
X133021366Y-72230503D01*
X133018651Y-72226867D01*
X132863381Y-72083337D01*
X132856752Y-72079154D01*
X132688391Y-71972926D01*
X132684554Y-71970505D01*
X132488160Y-71892152D01*
X132280775Y-71850901D01*
X132176599Y-71849537D01*
X132073886Y-71848192D01*
X132073881Y-71848192D01*
X132069346Y-71848133D01*
X132064873Y-71848902D01*
X132064868Y-71848902D01*
X131961601Y-71866647D01*
X131860953Y-71883941D01*
X131662575Y-71957127D01*
X131658676Y-71959446D01*
X131658671Y-71959449D01*
X131521650Y-72040968D01*
X131480856Y-72065238D01*
X131477441Y-72068233D01*
X131477438Y-72068235D01*
X131374262Y-72158718D01*
X131321881Y-72204655D01*
X131319073Y-72208217D01*
X131200699Y-72358375D01*
X131190976Y-72370708D01*
X131188862Y-72374726D01*
X131100634Y-72542420D01*
X131092523Y-72557836D01*
X131078860Y-72601837D01*
X131051347Y-72690446D01*
X131029820Y-72759773D01*
X131004967Y-72969754D01*
X131008673Y-73026292D01*
X131012303Y-73081676D01*
X131018796Y-73180749D01*
X131019912Y-73185142D01*
X131019912Y-73185144D01*
X131063471Y-73356654D01*
X131070845Y-73385690D01*
X131072745Y-73389811D01*
X131072747Y-73389816D01*
X131113221Y-73477610D01*
X131159369Y-73577714D01*
X131281405Y-73750391D01*
X131432865Y-73897937D01*
X131436638Y-73900458D01*
X131604899Y-74012887D01*
X131604902Y-74012889D01*
X131608677Y-74015411D01*
X131705472Y-74056997D01*
X131798774Y-74097083D01*
X131798778Y-74097084D01*
X131802953Y-74098878D01*
X132009186Y-74145544D01*
X132043294Y-74146884D01*
X132100697Y-74168061D01*
X132109411Y-74175804D01*
X133670505Y-75736898D01*
X133698282Y-75791415D01*
X133699501Y-75806902D01*
X133699501Y-76525916D01*
X133680594Y-76584107D01*
X133631094Y-76620071D01*
X133569908Y-76620071D01*
X133562830Y-76617459D01*
X133562758Y-76617440D01*
X133556762Y-76614956D01*
X133400000Y-76594318D01*
X133243238Y-76614956D01*
X133097159Y-76675464D01*
X132971718Y-76771718D01*
X132875464Y-76897159D01*
X132872981Y-76903154D01*
X132817443Y-77037235D01*
X132814956Y-77043238D01*
X132794318Y-77200000D01*
X132794322Y-77200030D01*
X132776258Y-77255626D01*
X132766169Y-77267439D01*
X132194516Y-77839091D01*
X132194513Y-77839095D01*
X132171950Y-77861658D01*
X132160998Y-77883154D01*
X132152884Y-77896393D01*
X132138704Y-77915910D01*
X132136296Y-77923321D01*
X132131248Y-77938857D01*
X132125305Y-77953203D01*
X132114354Y-77974696D01*
X132113136Y-77982389D01*
X132113135Y-77982391D01*
X132110581Y-77998519D01*
X132106956Y-78013620D01*
X132099500Y-78036567D01*
X132099500Y-82044099D01*
X132080593Y-82102290D01*
X132031093Y-82138254D01*
X131969907Y-82138254D01*
X131930496Y-82114103D01*
X130729514Y-80913121D01*
X130701737Y-80858604D01*
X130700518Y-80843117D01*
X130700518Y-79355188D01*
X130693062Y-79332241D01*
X130689437Y-79317140D01*
X130686883Y-79301012D01*
X130686882Y-79301010D01*
X130685664Y-79293317D01*
X130674713Y-79271824D01*
X130668770Y-79257478D01*
X130663722Y-79241940D01*
X130663720Y-79241936D01*
X130661314Y-79234531D01*
X130647129Y-79215007D01*
X130639022Y-79201777D01*
X130628068Y-79180279D01*
X130049496Y-78601707D01*
X130021719Y-78547190D01*
X130020500Y-78531703D01*
X130020500Y-74150056D01*
X130039407Y-74091865D01*
X130082186Y-74060358D01*
X130081511Y-74058842D01*
X130085658Y-74056995D01*
X130089955Y-74055537D01*
X130125777Y-74035476D01*
X130157356Y-74017790D01*
X130274442Y-73952219D01*
X130437012Y-73817012D01*
X130572219Y-73654442D01*
X130642862Y-73528300D01*
X130673319Y-73473916D01*
X130673320Y-73473914D01*
X130675537Y-73469955D01*
X130693565Y-73416847D01*
X130742044Y-73274032D01*
X130742045Y-73274029D01*
X130743504Y-73269730D01*
X130757062Y-73176223D01*
X130773426Y-73063369D01*
X130773426Y-73063363D01*
X130773846Y-73060470D01*
X130775429Y-73000000D01*
X130774230Y-72986944D01*
X130756496Y-72793960D01*
X130756081Y-72789440D01*
X130698686Y-72585931D01*
X130605165Y-72396290D01*
X130494960Y-72248707D01*
X130481367Y-72230504D01*
X130481366Y-72230503D01*
X130478651Y-72226867D01*
X130323381Y-72083337D01*
X130316752Y-72079154D01*
X130148391Y-71972926D01*
X130144554Y-71970505D01*
X129948160Y-71892152D01*
X129740775Y-71850901D01*
X129636599Y-71849537D01*
X129533886Y-71848192D01*
X129533881Y-71848192D01*
X129529346Y-71848133D01*
X129524873Y-71848902D01*
X129524868Y-71848902D01*
X129421601Y-71866647D01*
X129320953Y-71883941D01*
X129122575Y-71957127D01*
X129118676Y-71959446D01*
X129118671Y-71959449D01*
X128981650Y-72040968D01*
X128940856Y-72065238D01*
X128937441Y-72068233D01*
X128937438Y-72068235D01*
X128834262Y-72158718D01*
X128781881Y-72204655D01*
X128779073Y-72208217D01*
X128660699Y-72358375D01*
X128650976Y-72370708D01*
X128648862Y-72374726D01*
X128560634Y-72542420D01*
X128552523Y-72557836D01*
X128538860Y-72601837D01*
X128511347Y-72690446D01*
X128489820Y-72759773D01*
X128464967Y-72969754D01*
X128468673Y-73026292D01*
X128472303Y-73081676D01*
X128478796Y-73180749D01*
X128479912Y-73185142D01*
X128479912Y-73185144D01*
X128523471Y-73356654D01*
X128530845Y-73385690D01*
X128532745Y-73389811D01*
X128532747Y-73389816D01*
X128573221Y-73477610D01*
X128619369Y-73577714D01*
X128741405Y-73750391D01*
X128892865Y-73897937D01*
X128896638Y-73900458D01*
X129064899Y-74012887D01*
X129064902Y-74012889D01*
X129068677Y-74015411D01*
X129159582Y-74054466D01*
X129205581Y-74094807D01*
X129219500Y-74145425D01*
X129219500Y-78098401D01*
X129200593Y-78156592D01*
X129151093Y-78192556D01*
X129089907Y-78192556D01*
X129050496Y-78168405D01*
X127509496Y-76627405D01*
X127481719Y-76572888D01*
X127480500Y-76557401D01*
X127480500Y-74150056D01*
X127499407Y-74091865D01*
X127542186Y-74060358D01*
X127541511Y-74058842D01*
X127545658Y-74056995D01*
X127549955Y-74055537D01*
X127585777Y-74035476D01*
X127617356Y-74017790D01*
X127734442Y-73952219D01*
X127897012Y-73817012D01*
X128032219Y-73654442D01*
X128102862Y-73528300D01*
X128133319Y-73473916D01*
X128133320Y-73473914D01*
X128135537Y-73469955D01*
X128153565Y-73416847D01*
X128202044Y-73274032D01*
X128202045Y-73274029D01*
X128203504Y-73269730D01*
X128217062Y-73176223D01*
X128233426Y-73063369D01*
X128233426Y-73063363D01*
X128233846Y-73060470D01*
X128235429Y-73000000D01*
X128234230Y-72986944D01*
X128216496Y-72793960D01*
X128216081Y-72789440D01*
X128158686Y-72585931D01*
X128065165Y-72396290D01*
X127954960Y-72248707D01*
X127941367Y-72230504D01*
X127941366Y-72230503D01*
X127938651Y-72226867D01*
X127783381Y-72083337D01*
X127776752Y-72079154D01*
X127608391Y-71972926D01*
X127604554Y-71970505D01*
X127408160Y-71892152D01*
X127200775Y-71850901D01*
X127096599Y-71849537D01*
X126993886Y-71848192D01*
X126993881Y-71848192D01*
X126989346Y-71848133D01*
X126984873Y-71848902D01*
X126984868Y-71848902D01*
X126881601Y-71866647D01*
X126780953Y-71883941D01*
X126582575Y-71957127D01*
X126578676Y-71959446D01*
X126578671Y-71959449D01*
X126441650Y-72040968D01*
X126400856Y-72065238D01*
X126397441Y-72068233D01*
X126397438Y-72068235D01*
X126294262Y-72158718D01*
X126241881Y-72204655D01*
X126239073Y-72208217D01*
X126120699Y-72358375D01*
X126110976Y-72370708D01*
X126108862Y-72374726D01*
X126020634Y-72542420D01*
X126012523Y-72557836D01*
X125998860Y-72601837D01*
X125971347Y-72690446D01*
X125949820Y-72759773D01*
X125924967Y-72969754D01*
X125928673Y-73026292D01*
X125932303Y-73081676D01*
X125938796Y-73180749D01*
X125939912Y-73185142D01*
X125939912Y-73185144D01*
X125983471Y-73356654D01*
X125990845Y-73385690D01*
X125992745Y-73389811D01*
X125992747Y-73389816D01*
X126033221Y-73477610D01*
X126079369Y-73577714D01*
X126201405Y-73750391D01*
X126352865Y-73897937D01*
X126356638Y-73900458D01*
X126524899Y-74012887D01*
X126524902Y-74012889D01*
X126528677Y-74015411D01*
X126619582Y-74054466D01*
X126665581Y-74094807D01*
X126679500Y-74145425D01*
X126679500Y-76124099D01*
X126660593Y-76182290D01*
X126611093Y-76218254D01*
X126549907Y-76218254D01*
X126510496Y-76194103D01*
X124969496Y-74653103D01*
X124941719Y-74598586D01*
X124940500Y-74583099D01*
X124940500Y-74150056D01*
X124959407Y-74091865D01*
X125002186Y-74060358D01*
X125001511Y-74058842D01*
X125005658Y-74056995D01*
X125009955Y-74055537D01*
X125045777Y-74035476D01*
X125077356Y-74017790D01*
X125194442Y-73952219D01*
X125357012Y-73817012D01*
X125492219Y-73654442D01*
X125562862Y-73528300D01*
X125593319Y-73473916D01*
X125593320Y-73473914D01*
X125595537Y-73469955D01*
X125613565Y-73416847D01*
X125662044Y-73274032D01*
X125662045Y-73274029D01*
X125663504Y-73269730D01*
X125677062Y-73176223D01*
X125693426Y-73063369D01*
X125693426Y-73063363D01*
X125693846Y-73060470D01*
X125695429Y-73000000D01*
X125694230Y-72986944D01*
X125676496Y-72793960D01*
X125676081Y-72789440D01*
X125618686Y-72585931D01*
X125525165Y-72396290D01*
X125414960Y-72248707D01*
X125401367Y-72230504D01*
X125401366Y-72230503D01*
X125398651Y-72226867D01*
X125243381Y-72083337D01*
X125236752Y-72079154D01*
X125068391Y-71972926D01*
X125064554Y-71970505D01*
X124868160Y-71892152D01*
X124660775Y-71850901D01*
X124556599Y-71849537D01*
X124453886Y-71848192D01*
X124453881Y-71848192D01*
X124449346Y-71848133D01*
X124444873Y-71848902D01*
X124444868Y-71848902D01*
X124341601Y-71866647D01*
X124240953Y-71883941D01*
X124042575Y-71957127D01*
X124038676Y-71959446D01*
X124038671Y-71959449D01*
X123901650Y-72040968D01*
X123860856Y-72065238D01*
X123857441Y-72068233D01*
X123857438Y-72068235D01*
X123754262Y-72158718D01*
X123701881Y-72204655D01*
X123699073Y-72208217D01*
X123580699Y-72358375D01*
X123570976Y-72370708D01*
X123568862Y-72374726D01*
X123480634Y-72542420D01*
X123472523Y-72557836D01*
X123458860Y-72601837D01*
X123431347Y-72690446D01*
X123409820Y-72759773D01*
X123384967Y-72969754D01*
X123388673Y-73026292D01*
X123392303Y-73081676D01*
X123398796Y-73180749D01*
X123399912Y-73185142D01*
X123399912Y-73185144D01*
X123443471Y-73356654D01*
X123450845Y-73385690D01*
X123452745Y-73389811D01*
X123452747Y-73389816D01*
X123493221Y-73477610D01*
X123539369Y-73577714D01*
X123661405Y-73750391D01*
X123812865Y-73897937D01*
X123816638Y-73900458D01*
X123984899Y-74012887D01*
X123984902Y-74012889D01*
X123988677Y-74015411D01*
X124079582Y-74054466D01*
X124125581Y-74094807D01*
X124139500Y-74145425D01*
X124139500Y-74334099D01*
X124120593Y-74392290D01*
X124071093Y-74428254D01*
X124009907Y-74428254D01*
X123970496Y-74404103D01*
X123179496Y-73613103D01*
X123151719Y-73558586D01*
X123150500Y-73543099D01*
X123150500Y-72105354D01*
X123147382Y-72079154D01*
X123101939Y-71976847D01*
X123022713Y-71897759D01*
X122987203Y-71882060D01*
X122927136Y-71855504D01*
X122927134Y-71855504D01*
X122920327Y-71852494D01*
X122906157Y-71850842D01*
X122897494Y-71849832D01*
X122897493Y-71849832D01*
X122894646Y-71849500D01*
X121105354Y-71849500D01*
X121088951Y-71851452D01*
X121086531Y-71851740D01*
X121086530Y-71851740D01*
X121079154Y-71852618D01*
X120976847Y-71898061D01*
X120897759Y-71977287D01*
X120894064Y-71985645D01*
X120858876Y-72065238D01*
X120852494Y-72079673D01*
X120849500Y-72105354D01*
X120849500Y-73894646D01*
X120852618Y-73920846D01*
X120898061Y-74023153D01*
X120904529Y-74029610D01*
X120904530Y-74029611D01*
X120931964Y-74056997D01*
X120977287Y-74102241D01*
X120985645Y-74105936D01*
X121072864Y-74144496D01*
X121072866Y-74144496D01*
X121079673Y-74147506D01*
X121087067Y-74148368D01*
X121101546Y-74150056D01*
X121105354Y-74150500D01*
X122543099Y-74150500D01*
X122601290Y-74169407D01*
X122613103Y-74179496D01*
X128570504Y-80136897D01*
X128598281Y-80191414D01*
X128599500Y-80206901D01*
X128599500Y-84063433D01*
X128606955Y-84086375D01*
X128610581Y-84101481D01*
X128612517Y-84113703D01*
X128614354Y-84125304D01*
X128625305Y-84146797D01*
X128631248Y-84161143D01*
X128638704Y-84184090D01*
X128643285Y-84190395D01*
X128652883Y-84203605D01*
X128660998Y-84216846D01*
X128671950Y-84238342D01*
X128694513Y-84260905D01*
X128694516Y-84260909D01*
X129022961Y-84589353D01*
X129252084Y-84818476D01*
X129279861Y-84872993D01*
X129270290Y-84933425D01*
X129227025Y-84976690D01*
X129182080Y-84987480D01*
X126843903Y-84987480D01*
X126785712Y-84968573D01*
X126773899Y-84958484D01*
X126222431Y-84407016D01*
X126222427Y-84407013D01*
X126199864Y-84384450D01*
X126178368Y-84373498D01*
X126165127Y-84365383D01*
X126151917Y-84355785D01*
X126145612Y-84351204D01*
X126122665Y-84343748D01*
X126108319Y-84337805D01*
X126086826Y-84326854D01*
X126079133Y-84325636D01*
X126079131Y-84325635D01*
X126063003Y-84323081D01*
X126047902Y-84319456D01*
X126024955Y-84312000D01*
X125852979Y-84312000D01*
X125794788Y-84293093D01*
X125783037Y-84283065D01*
X125779182Y-84279217D01*
X125779183Y-84279217D01*
X125772713Y-84272759D01*
X125745900Y-84260905D01*
X125677136Y-84230504D01*
X125677134Y-84230504D01*
X125670327Y-84227494D01*
X125656322Y-84225861D01*
X125647494Y-84224832D01*
X125647493Y-84224832D01*
X125644646Y-84224500D01*
X125055354Y-84224500D01*
X125036199Y-84226780D01*
X124976184Y-84214883D01*
X124934621Y-84169981D01*
X124925500Y-84128474D01*
X124925500Y-83732607D01*
X124923094Y-83725202D01*
X124923093Y-83725196D01*
X124917430Y-83707767D01*
X124913804Y-83692665D01*
X124910938Y-83674570D01*
X124909719Y-83666874D01*
X124897860Y-83643598D01*
X124891918Y-83629253D01*
X124889611Y-83622152D01*
X124883849Y-83604419D01*
X124879271Y-83598118D01*
X124879269Y-83598114D01*
X124868500Y-83583293D01*
X124860387Y-83570054D01*
X124848528Y-83546780D01*
X124753220Y-83451472D01*
X124753218Y-83451471D01*
X123877194Y-82575446D01*
X123853220Y-82551472D01*
X123829944Y-82539612D01*
X123816715Y-82531506D01*
X123795581Y-82516151D01*
X123770744Y-82508081D01*
X123756402Y-82502140D01*
X123733126Y-82490281D01*
X123725430Y-82489062D01*
X123707335Y-82486196D01*
X123692233Y-82482570D01*
X123674804Y-82476907D01*
X123674798Y-82476906D01*
X123667393Y-82474500D01*
X122032607Y-82474500D01*
X122007764Y-82482572D01*
X121992665Y-82486196D01*
X121966874Y-82490281D01*
X121959934Y-82493817D01*
X121959931Y-82493818D01*
X121943608Y-82502135D01*
X121929259Y-82508078D01*
X121911833Y-82513740D01*
X121911827Y-82513743D01*
X121904419Y-82516150D01*
X121898116Y-82520729D01*
X121898115Y-82520730D01*
X121883292Y-82531500D01*
X121870045Y-82539618D01*
X121853719Y-82547936D01*
X121853718Y-82547937D01*
X121846780Y-82551472D01*
X121452748Y-82945504D01*
X121398231Y-82973281D01*
X121382744Y-82974500D01*
X119900000Y-82974500D01*
X119900000Y-81500000D01*
X118500000Y-81500000D01*
X118500000Y-81973038D01*
X118441022Y-81950928D01*
X118429033Y-81948077D01*
X118375748Y-81942289D01*
X118370414Y-81942000D01*
X118104500Y-81942000D01*
X118046309Y-81923093D01*
X118010345Y-81873593D01*
X118005500Y-81843000D01*
X118005500Y-81174032D01*
X118024407Y-81115841D01*
X118034496Y-81104028D01*
X118082636Y-81055888D01*
X118137153Y-81028111D01*
X118197585Y-81037682D01*
X118212495Y-81047036D01*
X118321836Y-81130031D01*
X118321844Y-81130036D01*
X118327216Y-81134113D01*
X118467452Y-81189636D01*
X118557227Y-81200500D01*
X118924938Y-81200500D01*
X119292772Y-81200499D01*
X119295737Y-81200140D01*
X119295741Y-81200140D01*
X119376235Y-81190400D01*
X119376236Y-81190400D01*
X119382548Y-81189636D01*
X119522784Y-81134113D01*
X119642923Y-81042923D01*
X119734113Y-80922784D01*
X119789636Y-80782548D01*
X119799892Y-80697795D01*
X120792000Y-80697795D01*
X120792265Y-80702922D01*
X120802409Y-80800673D01*
X120804682Y-80811202D01*
X120857086Y-80968278D01*
X120861933Y-80978625D01*
X120948891Y-81119147D01*
X120955985Y-81128098D01*
X121072939Y-81244847D01*
X121081903Y-81251927D01*
X121222579Y-81338641D01*
X121232933Y-81343469D01*
X121390109Y-81395602D01*
X121400620Y-81397855D01*
X121497111Y-81407741D01*
X121502169Y-81408000D01*
X121605320Y-81408000D01*
X121618005Y-81403878D01*
X121621000Y-81399757D01*
X121621000Y-81392320D01*
X122129000Y-81392320D01*
X122133122Y-81405005D01*
X122137243Y-81408000D01*
X122247795Y-81408000D01*
X122252922Y-81407735D01*
X122350673Y-81397591D01*
X122361202Y-81395318D01*
X122518278Y-81342914D01*
X122528625Y-81338067D01*
X122669147Y-81251109D01*
X122678098Y-81244015D01*
X122794847Y-81127061D01*
X122801927Y-81118097D01*
X122888641Y-80977421D01*
X122893469Y-80967067D01*
X122945602Y-80809891D01*
X122947855Y-80799380D01*
X122957741Y-80702889D01*
X122958000Y-80697831D01*
X122958000Y-80269680D01*
X122953878Y-80256995D01*
X122949757Y-80254000D01*
X122144680Y-80254000D01*
X122131995Y-80258122D01*
X122129000Y-80262243D01*
X122129000Y-81392320D01*
X121621000Y-81392320D01*
X121621000Y-80269680D01*
X121616878Y-80256995D01*
X121612757Y-80254000D01*
X120807680Y-80254000D01*
X120794995Y-80258122D01*
X120792000Y-80262243D01*
X120792000Y-80697795D01*
X119799892Y-80697795D01*
X119800500Y-80692773D01*
X119800499Y-79730320D01*
X120792000Y-79730320D01*
X120796122Y-79743005D01*
X120800243Y-79746000D01*
X121605320Y-79746000D01*
X121618005Y-79741878D01*
X121621000Y-79737757D01*
X121621000Y-79038680D01*
X121613345Y-79015120D01*
X121608500Y-78984528D01*
X121608500Y-78536320D01*
X122116500Y-78536320D01*
X122124155Y-78559880D01*
X122129000Y-78590472D01*
X122129000Y-79730320D01*
X122133122Y-79743005D01*
X122137243Y-79746000D01*
X122942320Y-79746000D01*
X122955005Y-79741878D01*
X122958000Y-79737757D01*
X122958000Y-79302205D01*
X122957735Y-79297078D01*
X122947591Y-79199327D01*
X122945318Y-79188798D01*
X122892914Y-79031722D01*
X122888067Y-79021375D01*
X122801109Y-78880853D01*
X122794015Y-78871902D01*
X122767055Y-78844990D01*
X122739229Y-78790498D01*
X122748747Y-78730057D01*
X122766932Y-78704981D01*
X122769847Y-78702061D01*
X122776927Y-78693096D01*
X122863641Y-78552421D01*
X122868469Y-78542067D01*
X122920602Y-78384891D01*
X122922855Y-78374380D01*
X122932741Y-78277889D01*
X122933000Y-78272831D01*
X122933000Y-77869680D01*
X122928878Y-77856995D01*
X122924757Y-77854000D01*
X122132180Y-77854000D01*
X122119495Y-77858122D01*
X122116500Y-77862243D01*
X122116500Y-78536320D01*
X121608500Y-78536320D01*
X121608500Y-77869680D01*
X121604378Y-77856995D01*
X121600257Y-77854000D01*
X120807680Y-77854000D01*
X120794995Y-77858122D01*
X120792000Y-77862243D01*
X120792000Y-78272795D01*
X120792265Y-78277922D01*
X120802409Y-78375673D01*
X120804682Y-78386202D01*
X120857086Y-78543278D01*
X120861933Y-78553625D01*
X120948891Y-78694147D01*
X120955986Y-78703099D01*
X120970424Y-78717512D01*
X120998249Y-78772004D01*
X120988730Y-78832445D01*
X120970546Y-78857518D01*
X120955155Y-78872936D01*
X120948072Y-78881905D01*
X120861359Y-79022579D01*
X120856531Y-79032933D01*
X120804398Y-79190109D01*
X120802145Y-79200620D01*
X120792259Y-79297111D01*
X120792000Y-79302170D01*
X120792000Y-79730320D01*
X119800499Y-79730320D01*
X119800499Y-79307228D01*
X119797377Y-79281421D01*
X119790400Y-79223765D01*
X119790400Y-79223764D01*
X119789636Y-79217452D01*
X119734113Y-79077216D01*
X119642923Y-78957077D01*
X119523403Y-78866357D01*
X119488483Y-78816114D01*
X119489765Y-78754943D01*
X119523403Y-78708643D01*
X119527273Y-78705706D01*
X119642923Y-78617923D01*
X119734113Y-78497784D01*
X119789636Y-78357548D01*
X119800500Y-78267773D01*
X119800499Y-77330320D01*
X120792000Y-77330320D01*
X120796122Y-77343005D01*
X120800243Y-77346000D01*
X121592820Y-77346000D01*
X121605505Y-77341878D01*
X121608500Y-77337757D01*
X121608500Y-77330320D01*
X122116500Y-77330320D01*
X122120622Y-77343005D01*
X122124743Y-77346000D01*
X122917320Y-77346000D01*
X122930005Y-77341878D01*
X122933000Y-77337757D01*
X122933000Y-76927205D01*
X122932735Y-76922078D01*
X122922591Y-76824327D01*
X122920318Y-76813798D01*
X122867914Y-76656722D01*
X122863067Y-76646375D01*
X122776109Y-76505853D01*
X122769015Y-76496902D01*
X122652061Y-76380153D01*
X122643097Y-76373073D01*
X122502421Y-76286359D01*
X122492067Y-76281531D01*
X122334891Y-76229398D01*
X122324380Y-76227145D01*
X122227889Y-76217259D01*
X122222831Y-76217000D01*
X122132180Y-76217000D01*
X122119495Y-76221122D01*
X122116500Y-76225243D01*
X122116500Y-77330320D01*
X121608500Y-77330320D01*
X121608500Y-76232680D01*
X121604378Y-76219995D01*
X121600257Y-76217000D01*
X121502205Y-76217000D01*
X121497078Y-76217265D01*
X121399327Y-76227409D01*
X121388798Y-76229682D01*
X121231722Y-76282086D01*
X121221375Y-76286933D01*
X121080853Y-76373891D01*
X121071902Y-76380985D01*
X120955153Y-76497939D01*
X120948073Y-76506903D01*
X120861359Y-76647579D01*
X120856531Y-76657933D01*
X120804398Y-76815109D01*
X120802145Y-76825620D01*
X120792259Y-76922111D01*
X120792000Y-76927170D01*
X120792000Y-77330320D01*
X119800499Y-77330320D01*
X119800499Y-76932228D01*
X119790898Y-76852877D01*
X119790400Y-76848765D01*
X119790400Y-76848764D01*
X119789636Y-76842452D01*
X119734113Y-76702216D01*
X119642923Y-76582077D01*
X119522784Y-76490887D01*
X119382548Y-76435364D01*
X119292773Y-76424500D01*
X118937560Y-76424500D01*
X118582228Y-76424501D01*
X118579263Y-76424860D01*
X118579259Y-76424860D01*
X118498765Y-76434600D01*
X118498764Y-76434600D01*
X118492452Y-76435364D01*
X118352216Y-76490887D01*
X118232077Y-76582077D01*
X118140887Y-76702216D01*
X118085364Y-76842452D01*
X118074500Y-76932227D01*
X118074501Y-78267772D01*
X118074860Y-78270737D01*
X118074860Y-78270741D01*
X118078019Y-78296846D01*
X118085364Y-78357548D01*
X118140887Y-78497784D01*
X118232077Y-78617923D01*
X118237455Y-78622005D01*
X118335355Y-78696315D01*
X118370275Y-78746558D01*
X118374500Y-78775172D01*
X118374500Y-78782444D01*
X118355593Y-78840635D01*
X118327278Y-78865862D01*
X118327216Y-78865887D01*
X118207077Y-78957077D01*
X118115887Y-79077216D01*
X118060364Y-79217452D01*
X118049500Y-79307227D01*
X118049500Y-79531863D01*
X118030593Y-79590054D01*
X117989819Y-79622720D01*
X117962145Y-79634695D01*
X117948581Y-79645678D01*
X117933983Y-79655487D01*
X117918692Y-79663894D01*
X117910578Y-79670898D01*
X117885036Y-79696440D01*
X117877347Y-79703363D01*
X117844930Y-79729614D01*
X117841023Y-79735112D01*
X117841019Y-79735116D01*
X117832721Y-79746793D01*
X117822027Y-79759449D01*
X117215972Y-80365504D01*
X117161455Y-80393281D01*
X117145968Y-80394500D01*
X111399500Y-80394500D01*
X111341309Y-80375593D01*
X111305345Y-80326093D01*
X111300500Y-80295500D01*
X111300500Y-77301346D01*
X113063694Y-77301346D01*
X113064321Y-77305310D01*
X113065292Y-77306582D01*
X113101687Y-77339698D01*
X113106112Y-77343281D01*
X113383182Y-77542377D01*
X113388000Y-77545434D01*
X113686117Y-77711363D01*
X113691234Y-77713837D01*
X114006461Y-77844409D01*
X114011836Y-77846280D01*
X114339974Y-77939753D01*
X114345517Y-77940992D01*
X114682235Y-77996132D01*
X114687893Y-77996726D01*
X115028697Y-78012798D01*
X115034402Y-78012739D01*
X115374794Y-77989533D01*
X115380452Y-77988818D01*
X115715915Y-77926644D01*
X115721458Y-77925282D01*
X116047548Y-77824963D01*
X116052894Y-77822976D01*
X116365313Y-77685834D01*
X116370380Y-77683252D01*
X116664964Y-77511110D01*
X116669696Y-77507966D01*
X116930777Y-77311941D01*
X116938446Y-77301030D01*
X116938422Y-77299512D01*
X116935309Y-77294520D01*
X115011086Y-75370296D01*
X114999203Y-75364242D01*
X114994172Y-75365038D01*
X113069748Y-77289463D01*
X113063694Y-77301346D01*
X111300500Y-77301346D01*
X111300500Y-74908205D01*
X111988464Y-74908205D01*
X111997394Y-75249270D01*
X111997872Y-75254965D01*
X112045943Y-75592725D01*
X112047074Y-75598333D01*
X112133651Y-75928342D01*
X112135406Y-75933744D01*
X112259349Y-76251644D01*
X112261715Y-76256812D01*
X112421368Y-76558343D01*
X112424324Y-76563223D01*
X112617562Y-76844385D01*
X112621068Y-76848906D01*
X112690345Y-76928319D01*
X112701791Y-76935170D01*
X112705239Y-76934862D01*
X112707361Y-76933428D01*
X114629704Y-75011086D01*
X114634946Y-75000797D01*
X115364242Y-75000797D01*
X115365038Y-75005828D01*
X117287994Y-76928783D01*
X117299877Y-76934837D01*
X117302748Y-76934383D01*
X117305503Y-76932187D01*
X117417135Y-76798676D01*
X117420535Y-76794099D01*
X117607855Y-76508929D01*
X117610697Y-76504008D01*
X117764009Y-76199183D01*
X117766263Y-76193973D01*
X117883515Y-75873565D01*
X117885163Y-75868108D01*
X117964813Y-75536343D01*
X117965821Y-75530743D01*
X118006887Y-75191385D01*
X118007221Y-75186987D01*
X118013028Y-75002214D01*
X118012971Y-74997793D01*
X117993293Y-74656529D01*
X117992639Y-74650875D01*
X117933980Y-74314767D01*
X117932678Y-74309218D01*
X117835777Y-73982086D01*
X117833846Y-73976723D01*
X117699983Y-73662888D01*
X117697459Y-73657802D01*
X117528407Y-73361421D01*
X117525311Y-73356654D01*
X117323319Y-73081676D01*
X117319696Y-73077296D01*
X117312172Y-73069199D01*
X117300517Y-73062713D01*
X117296258Y-73063228D01*
X117295344Y-73063867D01*
X115370296Y-74988914D01*
X115364242Y-75000797D01*
X114634946Y-75000797D01*
X114635758Y-74999203D01*
X114634962Y-74994172D01*
X112710648Y-73069859D01*
X112698765Y-73063805D01*
X112696715Y-73064129D01*
X112692902Y-73067267D01*
X112527552Y-73278145D01*
X112524305Y-73282818D01*
X112346038Y-73573723D01*
X112343343Y-73578749D01*
X112199697Y-73888208D01*
X112197594Y-73893520D01*
X112090465Y-74217450D01*
X112088994Y-74222940D01*
X112019805Y-74557042D01*
X112018972Y-74562681D01*
X111988642Y-74902517D01*
X111988464Y-74908205D01*
X111300500Y-74908205D01*
X111300500Y-73034953D01*
X111302004Y-73017761D01*
X111303632Y-73008528D01*
X111305136Y-73000000D01*
X111303632Y-72991470D01*
X111303632Y-72986944D01*
X111302711Y-72969093D01*
X111317293Y-72765194D01*
X111319304Y-72751212D01*
X111327837Y-72711990D01*
X111330098Y-72701596D01*
X113064376Y-72701596D01*
X113064487Y-72703945D01*
X113066912Y-72707701D01*
X114988914Y-74629704D01*
X115000797Y-74635758D01*
X115005828Y-74634962D01*
X116928800Y-72711990D01*
X116934854Y-72700107D01*
X116934356Y-72696963D01*
X116932471Y-72694571D01*
X116823894Y-72601837D01*
X116819341Y-72598381D01*
X116536159Y-72408091D01*
X116531256Y-72405191D01*
X116228073Y-72248707D01*
X116222870Y-72246390D01*
X115903711Y-72125790D01*
X115898266Y-72124083D01*
X115567368Y-72040968D01*
X115561769Y-72039900D01*
X115223502Y-71995366D01*
X115217824Y-71994949D01*
X114876667Y-71989590D01*
X114871000Y-71989827D01*
X114531486Y-72023715D01*
X114525853Y-72024607D01*
X114192506Y-72097289D01*
X114187019Y-72098821D01*
X113864232Y-72209336D01*
X113858955Y-72211489D01*
X113551002Y-72358375D01*
X113546010Y-72361119D01*
X113256992Y-72542420D01*
X113252335Y-72545730D01*
X113071700Y-72690446D01*
X113064376Y-72701596D01*
X111330098Y-72701596D01*
X111367837Y-72528116D01*
X111371815Y-72514565D01*
X111451606Y-72300636D01*
X111457474Y-72287787D01*
X111566897Y-72087396D01*
X111574533Y-72075514D01*
X111711358Y-71892736D01*
X111720608Y-71882060D01*
X111882060Y-71720608D01*
X111892736Y-71711358D01*
X112075514Y-71574533D01*
X112087396Y-71566897D01*
X112287787Y-71457474D01*
X112300636Y-71451606D01*
X112431516Y-71402791D01*
X112514568Y-71371814D01*
X112528116Y-71367837D01*
X112751215Y-71319304D01*
X112765191Y-71317293D01*
X112847107Y-71311435D01*
X112969093Y-71302711D01*
X112986944Y-71303632D01*
X112991470Y-71303632D01*
X113000000Y-71305136D01*
X113017764Y-71302004D01*
X113034953Y-71300500D01*
X158965047Y-71300500D01*
X158982236Y-71302004D01*
G37*
G04 #@! TD.AperFunction*
G04 #@! TA.AperFunction,Conductor*
G36*
X146846663Y-89056092D02*
G01*
X146964631Y-89097519D01*
X146970638Y-89098087D01*
X146970639Y-89098087D01*
X146993855Y-89100282D01*
X146993865Y-89100282D01*
X146996166Y-89100500D01*
X148353834Y-89100500D01*
X148356135Y-89100282D01*
X148356145Y-89100282D01*
X148379361Y-89098087D01*
X148379362Y-89098087D01*
X148385369Y-89097519D01*
X148503337Y-89056092D01*
X148536139Y-89050500D01*
X148970383Y-89050500D01*
X149028574Y-89069407D01*
X149064538Y-89118907D01*
X149062431Y-89185944D01*
X149041686Y-89238342D01*
X149010364Y-89317452D01*
X148999500Y-89407227D01*
X148999501Y-90192772D01*
X148999860Y-90195737D01*
X148999860Y-90195741D01*
X149009600Y-90276234D01*
X149010364Y-90282548D01*
X149065887Y-90422784D01*
X149157077Y-90542923D01*
X149277216Y-90634113D01*
X149417452Y-90689636D01*
X149507227Y-90700500D01*
X150199884Y-90700500D01*
X150892772Y-90700499D01*
X150895737Y-90700140D01*
X150895741Y-90700140D01*
X150976235Y-90690400D01*
X150976236Y-90690400D01*
X150982548Y-90689636D01*
X151122784Y-90634113D01*
X151242923Y-90542923D01*
X151334113Y-90422784D01*
X151389636Y-90282548D01*
X151400500Y-90192773D01*
X151400499Y-89418032D01*
X151419406Y-89359841D01*
X151468906Y-89323877D01*
X151530092Y-89323877D01*
X151569503Y-89348028D01*
X151920504Y-89699029D01*
X151948281Y-89753546D01*
X151949500Y-89769033D01*
X151949500Y-92465631D01*
X151948958Y-92475979D01*
X151944599Y-92517454D01*
X151945724Y-92524105D01*
X151948114Y-92538236D01*
X151949500Y-92554746D01*
X151949500Y-96230968D01*
X151930593Y-96289159D01*
X151920504Y-96300972D01*
X151324504Y-96896972D01*
X151269987Y-96924749D01*
X151209555Y-96915178D01*
X151166290Y-96871913D01*
X151155500Y-96826968D01*
X151155500Y-92008258D01*
X151154846Y-91988276D01*
X151153768Y-91971830D01*
X151151808Y-91951936D01*
X151151523Y-91949765D01*
X151138225Y-91848764D01*
X151138014Y-91847161D01*
X151137699Y-91845577D01*
X151130535Y-91809558D01*
X151130534Y-91809554D01*
X151130219Y-91807970D01*
X151123967Y-91784635D01*
X151122122Y-91777749D01*
X151122118Y-91777737D01*
X151121706Y-91776198D01*
X151108860Y-91738355D01*
X151071606Y-91648416D01*
X151053929Y-91612572D01*
X151052644Y-91610345D01*
X151038292Y-91585489D01*
X151037482Y-91584086D01*
X151020197Y-91558217D01*
X151016191Y-91552221D01*
X151016182Y-91552209D01*
X151015283Y-91550863D01*
X150975843Y-91499464D01*
X150957011Y-91474921D01*
X150957005Y-91474914D01*
X150956020Y-91473630D01*
X150951408Y-91468371D01*
X150930748Y-91444812D01*
X150930735Y-91444798D01*
X150929672Y-91443586D01*
X150906414Y-91420328D01*
X150905202Y-91419265D01*
X150905188Y-91419252D01*
X150877594Y-91395053D01*
X150877586Y-91395047D01*
X150876370Y-91393980D01*
X150799137Y-91334717D01*
X150797791Y-91333818D01*
X150797779Y-91333809D01*
X150773277Y-91317438D01*
X150765914Y-91312518D01*
X150754071Y-91305680D01*
X150738823Y-91296876D01*
X150738813Y-91296871D01*
X150737428Y-91296071D01*
X150701584Y-91278394D01*
X150611645Y-91241140D01*
X150573802Y-91228294D01*
X150572263Y-91227882D01*
X150572251Y-91227878D01*
X150543594Y-91220200D01*
X150543592Y-91220200D01*
X150542030Y-91219781D01*
X150540446Y-91219466D01*
X150540442Y-91219465D01*
X150504423Y-91212301D01*
X150504421Y-91212301D01*
X150502839Y-91211986D01*
X150492386Y-91210610D01*
X150398880Y-91198299D01*
X150398855Y-91198296D01*
X150398064Y-91198192D01*
X150378170Y-91196232D01*
X150361724Y-91195154D01*
X150359990Y-91195097D01*
X150342568Y-91194527D01*
X150342566Y-91194527D01*
X150341742Y-91194500D01*
X142908258Y-91194500D01*
X142907434Y-91194527D01*
X142907432Y-91194527D01*
X142890010Y-91195097D01*
X142888276Y-91195154D01*
X142871830Y-91196232D01*
X142851936Y-91198192D01*
X142851145Y-91198296D01*
X142851120Y-91198299D01*
X142757614Y-91210610D01*
X142747161Y-91211986D01*
X142722596Y-91216872D01*
X142697176Y-91213863D01*
X142669899Y-91230432D01*
X142639880Y-91240622D01*
X142639871Y-91240625D01*
X142638355Y-91241140D01*
X142548416Y-91278394D01*
X142512572Y-91296071D01*
X142511187Y-91296871D01*
X142511177Y-91296876D01*
X142495929Y-91305680D01*
X142484086Y-91312518D01*
X142476723Y-91317438D01*
X142452221Y-91333809D01*
X142452209Y-91333818D01*
X142450863Y-91334717D01*
X142373630Y-91393980D01*
X142372414Y-91395047D01*
X142372406Y-91395053D01*
X142344812Y-91419252D01*
X142344798Y-91419265D01*
X142343586Y-91420328D01*
X142320328Y-91443586D01*
X142319265Y-91444798D01*
X142319252Y-91444812D01*
X142298592Y-91468371D01*
X142293980Y-91473630D01*
X142292995Y-91474914D01*
X142292989Y-91474921D01*
X142274157Y-91499464D01*
X142234717Y-91550863D01*
X142233818Y-91552209D01*
X142233809Y-91552221D01*
X142229803Y-91558217D01*
X142212518Y-91584086D01*
X142211708Y-91585489D01*
X142197357Y-91610345D01*
X142196071Y-91612572D01*
X142178394Y-91648416D01*
X142141140Y-91738355D01*
X142128294Y-91776198D01*
X142127882Y-91777737D01*
X142127878Y-91777749D01*
X142126033Y-91784635D01*
X142119781Y-91807970D01*
X142119466Y-91809554D01*
X142119465Y-91809558D01*
X142112301Y-91845577D01*
X142111986Y-91847161D01*
X142108567Y-91873133D01*
X142105748Y-91894540D01*
X142079406Y-91949765D01*
X142025635Y-91978959D01*
X141964973Y-91970972D01*
X141928741Y-91941475D01*
X141876867Y-91873133D01*
X141866367Y-91865163D01*
X141768925Y-91791200D01*
X141768923Y-91791199D01*
X141763548Y-91787119D01*
X141757277Y-91784636D01*
X141757275Y-91784635D01*
X141679372Y-91753791D01*
X141631273Y-91734747D01*
X141624964Y-91733984D01*
X141624962Y-91733983D01*
X141549561Y-91724859D01*
X141549560Y-91724859D01*
X141546594Y-91724500D01*
X141028406Y-91724500D01*
X141025440Y-91724859D01*
X141025439Y-91724859D01*
X140950038Y-91733983D01*
X140950036Y-91733984D01*
X140943727Y-91734747D01*
X140895628Y-91753791D01*
X140817725Y-91784635D01*
X140817723Y-91784636D01*
X140811452Y-91787119D01*
X140806077Y-91791199D01*
X140806075Y-91791200D01*
X140708633Y-91865163D01*
X140698133Y-91873133D01*
X140694047Y-91878516D01*
X140617807Y-91978959D01*
X140612119Y-91986452D01*
X140609636Y-91992723D01*
X140609635Y-91992725D01*
X140592048Y-92037145D01*
X140553047Y-92084289D01*
X140493783Y-92099505D01*
X140436895Y-92076981D01*
X140407952Y-92037145D01*
X140390365Y-91992725D01*
X140390364Y-91992723D01*
X140387881Y-91986452D01*
X140382194Y-91978959D01*
X140305953Y-91878516D01*
X140301867Y-91873133D01*
X140291367Y-91865163D01*
X140193925Y-91791200D01*
X140193923Y-91791199D01*
X140188548Y-91787119D01*
X140175556Y-91781975D01*
X140128413Y-91742975D01*
X140113000Y-91689927D01*
X140113000Y-91149500D01*
X140131907Y-91091309D01*
X140181407Y-91055345D01*
X140212000Y-91050500D01*
X142485565Y-91050500D01*
X142489711Y-91050587D01*
X142552294Y-91053210D01*
X142558867Y-91051668D01*
X142558870Y-91051668D01*
X142595893Y-91042984D01*
X142605063Y-91041284D01*
X142615832Y-91039809D01*
X142624640Y-91038602D01*
X142645102Y-91042283D01*
X142663951Y-91028923D01*
X142665427Y-91028284D01*
X142682144Y-91022753D01*
X142699136Y-91018768D01*
X142705049Y-91015517D01*
X142705055Y-91015515D01*
X142738387Y-90997191D01*
X142746760Y-90993089D01*
X142781661Y-90977986D01*
X142781665Y-90977984D01*
X142787855Y-90975305D01*
X142801409Y-90964329D01*
X142816014Y-90954516D01*
X142826765Y-90948605D01*
X142826768Y-90948603D01*
X142831308Y-90946107D01*
X142839422Y-90939103D01*
X142864969Y-90913556D01*
X142872670Y-90906623D01*
X142899825Y-90884633D01*
X142905070Y-90880386D01*
X142917278Y-90863208D01*
X142927971Y-90850554D01*
X144699029Y-89079496D01*
X144753546Y-89051719D01*
X144769033Y-89050500D01*
X146813861Y-89050500D01*
X146846663Y-89056092D01*
G37*
G04 #@! TD.AperFunction*
G04 #@! TA.AperFunction,Conductor*
G36*
X135708701Y-87694407D02*
G01*
X135744665Y-87743907D01*
X135749510Y-87774500D01*
X135749510Y-88643090D01*
X135730603Y-88701281D01*
X135720514Y-88713094D01*
X131694516Y-92739091D01*
X131694513Y-92739095D01*
X131671950Y-92761658D01*
X131660998Y-92783154D01*
X131652884Y-92796393D01*
X131638704Y-92815910D01*
X131636296Y-92823321D01*
X131631248Y-92838857D01*
X131625305Y-92853203D01*
X131614354Y-92874696D01*
X131613136Y-92882389D01*
X131613135Y-92882391D01*
X131610581Y-92898519D01*
X131606956Y-92913620D01*
X131599500Y-92936567D01*
X131599500Y-94004127D01*
X131580593Y-94062318D01*
X131574175Y-94069833D01*
X131571718Y-94071718D01*
X131475464Y-94197159D01*
X131414956Y-94343238D01*
X131394318Y-94500000D01*
X131414956Y-94656762D01*
X131475464Y-94802841D01*
X131571718Y-94928282D01*
X131697159Y-95024536D01*
X131843238Y-95085044D01*
X132000000Y-95105682D01*
X132156762Y-95085044D01*
X132302841Y-95024536D01*
X132428282Y-94928282D01*
X132524536Y-94802841D01*
X132585044Y-94656762D01*
X132605682Y-94500000D01*
X132585044Y-94343238D01*
X132524536Y-94197159D01*
X132428282Y-94071718D01*
X132428257Y-94071699D01*
X132401719Y-94019614D01*
X132400500Y-94004127D01*
X132400500Y-93206901D01*
X132419407Y-93148710D01*
X132429496Y-93136897D01*
X133930496Y-91635897D01*
X133985013Y-91608120D01*
X134045445Y-91617691D01*
X134088710Y-91660956D01*
X134099500Y-91705901D01*
X134099500Y-94004127D01*
X134080593Y-94062318D01*
X134074175Y-94069833D01*
X134071718Y-94071718D01*
X133975464Y-94197159D01*
X133914956Y-94343238D01*
X133894318Y-94500000D01*
X133914956Y-94656762D01*
X133975464Y-94802841D01*
X134071718Y-94928282D01*
X134197159Y-95024536D01*
X134343238Y-95085044D01*
X134500000Y-95105682D01*
X134656762Y-95085044D01*
X134802841Y-95024536D01*
X134928282Y-94928282D01*
X135024536Y-94802841D01*
X135085044Y-94656762D01*
X135105682Y-94500000D01*
X135085044Y-94343238D01*
X135024536Y-94197159D01*
X134928282Y-94071718D01*
X134928257Y-94071699D01*
X134901719Y-94019614D01*
X134900500Y-94004127D01*
X134900500Y-91272601D01*
X134919407Y-91214410D01*
X134929496Y-91202597D01*
X135082159Y-91049934D01*
X135136676Y-91022157D01*
X135197108Y-91031728D01*
X135230705Y-91059671D01*
X135321718Y-91178282D01*
X135403637Y-91241140D01*
X135413489Y-91248700D01*
X135448145Y-91299124D01*
X135451375Y-91340164D01*
X135433965Y-91472406D01*
X135430805Y-91496411D01*
X135451443Y-91653173D01*
X135511951Y-91799252D01*
X135608205Y-91924693D01*
X135733646Y-92020947D01*
X135879725Y-92081455D01*
X136036487Y-92102093D01*
X136193249Y-92081455D01*
X136339328Y-92020947D01*
X136464769Y-91924693D01*
X136464788Y-91924668D01*
X136516873Y-91898130D01*
X136532360Y-91896911D01*
X136567022Y-91896911D01*
X136589969Y-91889455D01*
X136605070Y-91885830D01*
X136621198Y-91883276D01*
X136621200Y-91883275D01*
X136628893Y-91882057D01*
X136650386Y-91871106D01*
X136664732Y-91865163D01*
X136680268Y-91860115D01*
X136687679Y-91857707D01*
X136693983Y-91853127D01*
X136700924Y-91849590D01*
X136701778Y-91851266D01*
X136750502Y-91835436D01*
X136808693Y-91854345D01*
X136844655Y-91903846D01*
X136849500Y-91934436D01*
X136849500Y-92813433D01*
X136856955Y-92836375D01*
X136860581Y-92851481D01*
X136864354Y-92875304D01*
X136875305Y-92896797D01*
X136881248Y-92911143D01*
X136888704Y-92934090D01*
X136893285Y-92940395D01*
X136902883Y-92953605D01*
X136910998Y-92966846D01*
X136921950Y-92988342D01*
X136944513Y-93010905D01*
X136944516Y-93010909D01*
X137671950Y-93738342D01*
X137761658Y-93828050D01*
X137783156Y-93839004D01*
X137796386Y-93847111D01*
X137815910Y-93861296D01*
X137823315Y-93863702D01*
X137823319Y-93863704D01*
X137838857Y-93868752D01*
X137853203Y-93874695D01*
X137874696Y-93885646D01*
X137882389Y-93886864D01*
X137882391Y-93886865D01*
X137898519Y-93889419D01*
X137913620Y-93893044D01*
X137936567Y-93900500D01*
X140350933Y-93900500D01*
X140373880Y-93893044D01*
X140388981Y-93889419D01*
X140405109Y-93886865D01*
X140405111Y-93886864D01*
X140412804Y-93885646D01*
X140434297Y-93874695D01*
X140448643Y-93868752D01*
X140464179Y-93863704D01*
X140471590Y-93861296D01*
X140491107Y-93847116D01*
X140504346Y-93839002D01*
X140525842Y-93828050D01*
X140548405Y-93805487D01*
X140548409Y-93805484D01*
X141049397Y-93304496D01*
X141103914Y-93276719D01*
X141119401Y-93275500D01*
X141546594Y-93275500D01*
X141549561Y-93275141D01*
X141624962Y-93266017D01*
X141624964Y-93266016D01*
X141631273Y-93265253D01*
X141706827Y-93235339D01*
X141757275Y-93215365D01*
X141757277Y-93215364D01*
X141763548Y-93212881D01*
X141771427Y-93206901D01*
X141871484Y-93130953D01*
X141876867Y-93126867D01*
X141916645Y-93074461D01*
X141966886Y-93039543D01*
X142028058Y-93040825D01*
X142076794Y-93077818D01*
X142094500Y-93134318D01*
X142094500Y-95638000D01*
X142075593Y-95696191D01*
X142026093Y-95732155D01*
X141995500Y-95737000D01*
X121937000Y-95737000D01*
X121878809Y-95718093D01*
X121842845Y-95668593D01*
X121838000Y-95638000D01*
X121838000Y-94442371D01*
X121856907Y-94384180D01*
X121906407Y-94348216D01*
X121949922Y-94344218D01*
X122037000Y-94355682D01*
X122193762Y-94335044D01*
X122339841Y-94274536D01*
X122465282Y-94178282D01*
X122465301Y-94178257D01*
X122517386Y-94151719D01*
X122532873Y-94150500D01*
X123846627Y-94150500D01*
X123904818Y-94169407D01*
X123940782Y-94218907D01*
X123940782Y-94280093D01*
X123938094Y-94287379D01*
X123914956Y-94343238D01*
X123894318Y-94500000D01*
X123914956Y-94656762D01*
X123975464Y-94802841D01*
X124071718Y-94928282D01*
X124197159Y-95024536D01*
X124343238Y-95085044D01*
X124500000Y-95105682D01*
X124656762Y-95085044D01*
X124802841Y-95024536D01*
X124928282Y-94928282D01*
X125024536Y-94802841D01*
X125085044Y-94656762D01*
X125105682Y-94500000D01*
X125105678Y-94499971D01*
X125123742Y-94444375D01*
X125133831Y-94432562D01*
X126886897Y-92679496D01*
X126941414Y-92651719D01*
X126956901Y-92650500D01*
X128978399Y-92650500D01*
X129036590Y-92669407D01*
X129072554Y-92718907D01*
X129072554Y-92780093D01*
X129048403Y-92819504D01*
X127797403Y-94070504D01*
X127742886Y-94098281D01*
X127727399Y-94099500D01*
X127495873Y-94099500D01*
X127437682Y-94080593D01*
X127430167Y-94074175D01*
X127428282Y-94071718D01*
X127302841Y-93975464D01*
X127156762Y-93914956D01*
X127000000Y-93894318D01*
X126843238Y-93914956D01*
X126697159Y-93975464D01*
X126571718Y-94071718D01*
X126475464Y-94197159D01*
X126414956Y-94343238D01*
X126394318Y-94500000D01*
X126414956Y-94656762D01*
X126475464Y-94802841D01*
X126571718Y-94928282D01*
X126697159Y-95024536D01*
X126843238Y-95085044D01*
X127000000Y-95105682D01*
X127156762Y-95085044D01*
X127302841Y-95024536D01*
X127428282Y-94928282D01*
X127428301Y-94928257D01*
X127480386Y-94901719D01*
X127495873Y-94900500D01*
X127997733Y-94900500D01*
X128020680Y-94893044D01*
X128035781Y-94889419D01*
X128051909Y-94886865D01*
X128051911Y-94886864D01*
X128059604Y-94885646D01*
X128081097Y-94874695D01*
X128095443Y-94868752D01*
X128110979Y-94863704D01*
X128118390Y-94861296D01*
X128137907Y-94847116D01*
X128151146Y-94839002D01*
X128172642Y-94828050D01*
X128195205Y-94805487D01*
X128195209Y-94805484D01*
X128749148Y-94251545D01*
X128803665Y-94223768D01*
X128864097Y-94233339D01*
X128907362Y-94276604D01*
X128916933Y-94337036D01*
X128916309Y-94339971D01*
X128914956Y-94343238D01*
X128894318Y-94500000D01*
X128914956Y-94656762D01*
X128975464Y-94802841D01*
X129071718Y-94928282D01*
X129197159Y-95024536D01*
X129343238Y-95085044D01*
X129500000Y-95105682D01*
X129656762Y-95085044D01*
X129802841Y-95024536D01*
X129928282Y-94928282D01*
X130024536Y-94802841D01*
X130085044Y-94656762D01*
X130105682Y-94500000D01*
X130085044Y-94343238D01*
X130024536Y-94197159D01*
X129928282Y-94071718D01*
X129928257Y-94071699D01*
X129901719Y-94019614D01*
X129900500Y-94004127D01*
X129900500Y-93706901D01*
X129919407Y-93648710D01*
X129929496Y-93636897D01*
X133805483Y-89760909D01*
X133828050Y-89738342D01*
X133839004Y-89716844D01*
X133847111Y-89703614D01*
X133861296Y-89684090D01*
X133868751Y-89661144D01*
X133874696Y-89646794D01*
X133876461Y-89643330D01*
X133885646Y-89625304D01*
X133889420Y-89601475D01*
X133893046Y-89586373D01*
X133898092Y-89570843D01*
X133898093Y-89570840D01*
X133900499Y-89563433D01*
X133900499Y-89531525D01*
X133900500Y-89531519D01*
X133900500Y-88999500D01*
X133919407Y-88941309D01*
X133968907Y-88905345D01*
X133999500Y-88900500D01*
X134096904Y-88900500D01*
X134100476Y-88899974D01*
X134100479Y-88899974D01*
X134160647Y-88891117D01*
X134160648Y-88891117D01*
X134168254Y-88889997D01*
X134175155Y-88886609D01*
X134175161Y-88886607D01*
X134206405Y-88871267D01*
X134266972Y-88862594D01*
X134293511Y-88871191D01*
X134325456Y-88886806D01*
X134325457Y-88886806D01*
X134332361Y-88890181D01*
X134384048Y-88897721D01*
X134399551Y-88899983D01*
X134399553Y-88899983D01*
X134403096Y-88900500D01*
X134596904Y-88900500D01*
X134600476Y-88899974D01*
X134600479Y-88899974D01*
X134660647Y-88891117D01*
X134660648Y-88891117D01*
X134668254Y-88889997D01*
X134675159Y-88886607D01*
X134769390Y-88840342D01*
X134769391Y-88840341D01*
X134776732Y-88836737D01*
X134862110Y-88751210D01*
X134869697Y-88735690D01*
X134911806Y-88649543D01*
X134915181Y-88642639D01*
X134923985Y-88582289D01*
X134924983Y-88575449D01*
X134924983Y-88575447D01*
X134925500Y-88571904D01*
X134925500Y-87921668D01*
X134944407Y-87863477D01*
X134965127Y-87842448D01*
X135032255Y-87792138D01*
X135042138Y-87782255D01*
X135092448Y-87715127D01*
X135142476Y-87679902D01*
X135171668Y-87675500D01*
X135650510Y-87675500D01*
X135708701Y-87694407D01*
G37*
G04 #@! TD.AperFunction*
G04 #@! TA.AperFunction,Conductor*
G36*
X120605589Y-89506054D02*
G01*
X120613078Y-89514812D01*
X120623090Y-89528002D01*
X120694051Y-89621490D01*
X120694054Y-89621493D01*
X120698133Y-89626867D01*
X120703508Y-89630947D01*
X120708005Y-89635444D01*
X120735782Y-89689962D01*
X120737000Y-89705446D01*
X120737000Y-93062632D01*
X120718093Y-93120823D01*
X120668593Y-93156787D01*
X120625079Y-93160785D01*
X120500000Y-93144318D01*
X120343238Y-93164956D01*
X120197159Y-93225464D01*
X120071718Y-93321718D01*
X120071699Y-93321743D01*
X120019614Y-93348281D01*
X120004127Y-93349500D01*
X119956901Y-93349500D01*
X119898710Y-93330593D01*
X119886897Y-93320504D01*
X118760909Y-92194516D01*
X118760905Y-92194513D01*
X118738342Y-92171950D01*
X118716846Y-92160998D01*
X118703605Y-92152883D01*
X118690395Y-92143285D01*
X118684090Y-92138704D01*
X118661143Y-92131248D01*
X118646797Y-92125305D01*
X118625304Y-92114354D01*
X118617611Y-92113136D01*
X118617609Y-92113135D01*
X118601481Y-92110581D01*
X118586380Y-92106956D01*
X118563433Y-92099500D01*
X118074920Y-92099500D01*
X118016729Y-92080593D01*
X117982872Y-92036944D01*
X117977522Y-92023430D01*
X117962881Y-91986452D01*
X117957194Y-91978959D01*
X117880953Y-91878516D01*
X117876867Y-91873133D01*
X117866367Y-91865163D01*
X117768925Y-91791200D01*
X117768923Y-91791199D01*
X117763548Y-91787119D01*
X117757277Y-91784636D01*
X117757275Y-91784635D01*
X117679372Y-91753791D01*
X117632228Y-91714790D01*
X117617012Y-91655526D01*
X117639536Y-91598638D01*
X117679350Y-91570722D01*
X117679007Y-91569894D01*
X117705678Y-91558847D01*
X117713521Y-91554655D01*
X117756351Y-91531762D01*
X117756355Y-91531760D01*
X117758502Y-91530612D01*
X117787136Y-91511479D01*
X117796888Y-91504963D01*
X117796891Y-91504961D01*
X117798914Y-91503609D01*
X117836935Y-91472406D01*
X117843331Y-91467157D01*
X117843334Y-91467155D01*
X117845206Y-91465618D01*
X117865619Y-91445205D01*
X117903611Y-91398912D01*
X117930613Y-91358501D01*
X117958846Y-91305680D01*
X117967169Y-91285586D01*
X117968966Y-91281248D01*
X117968967Y-91281244D01*
X117969894Y-91279007D01*
X117970598Y-91276687D01*
X117986571Y-91224032D01*
X117986573Y-91224026D01*
X117987279Y-91221697D01*
X117988729Y-91214410D01*
X117997968Y-91167955D01*
X117998209Y-91166745D01*
X117999565Y-91157606D01*
X118002424Y-91138332D01*
X118002426Y-91138318D01*
X118002607Y-91137096D01*
X118004029Y-91122660D01*
X118005500Y-91092712D01*
X118005500Y-90156999D01*
X118024407Y-90098808D01*
X118073907Y-90062844D01*
X118104500Y-90057999D01*
X118370411Y-90057999D01*
X118375751Y-90057710D01*
X118429035Y-90051922D01*
X118441020Y-90049073D01*
X118564855Y-90002649D01*
X118577108Y-89995941D01*
X118682256Y-89917137D01*
X118692137Y-89907256D01*
X118770941Y-89802108D01*
X118777649Y-89789855D01*
X118824072Y-89666022D01*
X118826923Y-89654033D01*
X118831145Y-89615165D01*
X118856226Y-89559357D01*
X118909321Y-89528949D01*
X118970148Y-89535557D01*
X118994758Y-89551352D01*
X119081062Y-89626867D01*
X119137254Y-89676035D01*
X119158702Y-89693164D01*
X119160283Y-89694314D01*
X119168558Y-89700335D01*
X119168577Y-89700349D01*
X119169440Y-89700976D01*
X119176203Y-89705446D01*
X119189589Y-89714293D01*
X119192324Y-89716101D01*
X119200493Y-89720988D01*
X119229501Y-89738342D01*
X119236426Y-89742485D01*
X119238440Y-89743456D01*
X119283799Y-89765327D01*
X119283810Y-89765332D01*
X119285812Y-89766297D01*
X119294395Y-89769522D01*
X119308502Y-89774823D01*
X119308508Y-89774825D01*
X119310576Y-89775602D01*
X119363425Y-89790204D01*
X119365601Y-89790599D01*
X119365604Y-89790600D01*
X119386555Y-89794406D01*
X119413979Y-89799388D01*
X119415078Y-89799537D01*
X119415084Y-89799538D01*
X119440073Y-89802927D01*
X119440077Y-89802927D01*
X119441165Y-89803075D01*
X119442271Y-89803175D01*
X119442274Y-89803175D01*
X119453257Y-89804165D01*
X119453270Y-89804166D01*
X119454392Y-89804267D01*
X119455517Y-89804318D01*
X119455523Y-89804318D01*
X119480697Y-89805450D01*
X119480703Y-89805450D01*
X119481812Y-89805500D01*
X119992712Y-89805500D01*
X120022660Y-89804029D01*
X120037096Y-89802607D01*
X120038280Y-89802431D01*
X120038299Y-89802429D01*
X120054475Y-89800029D01*
X120066748Y-89798208D01*
X120067926Y-89797974D01*
X120067930Y-89797973D01*
X120119324Y-89787750D01*
X120121702Y-89787277D01*
X120124022Y-89786573D01*
X120124027Y-89786572D01*
X120176687Y-89770598D01*
X120176692Y-89770596D01*
X120179007Y-89769894D01*
X120181234Y-89768972D01*
X120181244Y-89768968D01*
X120193446Y-89763913D01*
X120205678Y-89758847D01*
X120207824Y-89757700D01*
X120256351Y-89731762D01*
X120256355Y-89731760D01*
X120258502Y-89730612D01*
X120298914Y-89703609D01*
X120345206Y-89665618D01*
X120365619Y-89645205D01*
X120403611Y-89598912D01*
X120430613Y-89558501D01*
X120433307Y-89553462D01*
X120446915Y-89528002D01*
X120491020Y-89485595D01*
X120551629Y-89477212D01*
X120605589Y-89506054D01*
G37*
G04 #@! TD.AperFunction*
G04 #@! TA.AperFunction,Conductor*
G36*
X124544503Y-88856606D02*
G01*
X124595504Y-88907607D01*
X124623281Y-88962124D01*
X124624500Y-88977611D01*
X124624501Y-89150500D01*
X124624501Y-89322376D01*
X124624790Y-89325035D01*
X124624790Y-89325038D01*
X124630396Y-89376645D01*
X124631149Y-89383580D01*
X124635884Y-89396210D01*
X124678237Y-89509188D01*
X124681474Y-89517824D01*
X124685707Y-89523472D01*
X124756259Y-89617608D01*
X124767454Y-89632546D01*
X124882176Y-89718526D01*
X124888782Y-89721003D01*
X124888785Y-89721004D01*
X124924216Y-89734286D01*
X125016420Y-89768851D01*
X125077623Y-89775500D01*
X125105576Y-89775500D01*
X125493098Y-89775499D01*
X125551289Y-89794406D01*
X125563102Y-89804495D01*
X125839101Y-90080494D01*
X125839105Y-90080497D01*
X125861668Y-90103060D01*
X125868605Y-90106594D01*
X125868607Y-90106596D01*
X125883161Y-90114011D01*
X125896400Y-90122123D01*
X125915921Y-90136306D01*
X125923326Y-90138712D01*
X125923330Y-90138714D01*
X125938865Y-90143761D01*
X125953211Y-90149704D01*
X125974706Y-90160656D01*
X125982399Y-90161874D01*
X125982401Y-90161875D01*
X125998529Y-90164429D01*
X126013630Y-90168054D01*
X126036577Y-90175510D01*
X129627482Y-90175510D01*
X129685673Y-90194417D01*
X129721637Y-90243917D01*
X129721637Y-90305103D01*
X129718950Y-90312385D01*
X129664956Y-90442738D01*
X129664109Y-90449174D01*
X129648981Y-90564077D01*
X129622640Y-90619302D01*
X129568869Y-90648497D01*
X129537907Y-90649308D01*
X129506435Y-90645165D01*
X129506434Y-90645165D01*
X129500000Y-90644318D01*
X129343238Y-90664956D01*
X129197159Y-90725464D01*
X129071718Y-90821718D01*
X128975464Y-90947159D01*
X128914956Y-91093238D01*
X128894318Y-91250000D01*
X128894322Y-91250029D01*
X128876258Y-91305625D01*
X128866169Y-91317438D01*
X128762623Y-91420984D01*
X128708106Y-91448761D01*
X128692619Y-91449980D01*
X126521081Y-91449980D01*
X126498134Y-91457436D01*
X126483033Y-91461061D01*
X126466905Y-91463615D01*
X126466903Y-91463616D01*
X126459210Y-91464834D01*
X126437715Y-91475786D01*
X126423369Y-91481729D01*
X126407834Y-91486776D01*
X126407830Y-91486778D01*
X126400425Y-91489184D01*
X126380904Y-91503367D01*
X126367665Y-91511479D01*
X126353111Y-91518894D01*
X126353109Y-91518896D01*
X126346172Y-91522430D01*
X126323609Y-91544993D01*
X126323605Y-91544996D01*
X124548097Y-93320504D01*
X124493580Y-93348281D01*
X124478093Y-93349500D01*
X122532873Y-93349500D01*
X122474682Y-93330593D01*
X122467167Y-93324175D01*
X122465282Y-93321718D01*
X122339841Y-93225464D01*
X122193762Y-93164956D01*
X122037000Y-93144318D01*
X121949922Y-93155782D01*
X121889761Y-93144632D01*
X121847644Y-93100250D01*
X121838000Y-93057629D01*
X121838000Y-89705446D01*
X121856907Y-89647255D01*
X121866995Y-89635444D01*
X121871492Y-89630947D01*
X121876867Y-89626867D01*
X121880946Y-89621493D01*
X121880949Y-89621490D01*
X121958800Y-89518925D01*
X121958801Y-89518923D01*
X121962881Y-89513548D01*
X121965365Y-89507276D01*
X121968681Y-89501390D01*
X121971446Y-89502948D01*
X122002049Y-89465929D01*
X122055124Y-89450500D01*
X122937621Y-89450500D01*
X122995812Y-89469407D01*
X123023718Y-89506070D01*
X123025612Y-89505033D01*
X123028996Y-89511215D01*
X123031474Y-89517824D01*
X123035707Y-89523472D01*
X123106259Y-89617608D01*
X123117454Y-89632546D01*
X123232176Y-89718526D01*
X123238782Y-89721003D01*
X123238785Y-89721004D01*
X123274216Y-89734286D01*
X123366420Y-89768851D01*
X123427623Y-89775500D01*
X123674907Y-89775500D01*
X123922376Y-89775499D01*
X123925035Y-89775210D01*
X123925038Y-89775210D01*
X123977405Y-89769522D01*
X123977407Y-89769522D01*
X123983580Y-89768851D01*
X124051322Y-89743456D01*
X124111215Y-89721004D01*
X124111218Y-89721003D01*
X124117824Y-89718526D01*
X124232546Y-89632546D01*
X124243742Y-89617608D01*
X124314293Y-89523472D01*
X124318526Y-89517824D01*
X124321764Y-89509188D01*
X124352914Y-89426093D01*
X124368851Y-89383580D01*
X124375500Y-89322377D01*
X124375499Y-88926609D01*
X124394406Y-88868419D01*
X124443906Y-88832455D01*
X124505091Y-88832455D01*
X124544503Y-88856606D01*
G37*
G04 #@! TD.AperFunction*
G04 #@! TA.AperFunction,Conductor*
G36*
X117709191Y-89073907D02*
G01*
X117745155Y-89123407D01*
X117750000Y-89154000D01*
X117750000Y-89354088D01*
X117731093Y-89412279D01*
X117681593Y-89448243D01*
X117633808Y-89451584D01*
X117596470Y-89445000D01*
X117549000Y-89445000D01*
X117490809Y-89426093D01*
X117454845Y-89376593D01*
X117450000Y-89346000D01*
X117450000Y-89154000D01*
X117468907Y-89095809D01*
X117518407Y-89059845D01*
X117549000Y-89055000D01*
X117651000Y-89055000D01*
X117709191Y-89073907D01*
G37*
G04 #@! TD.AperFunction*
G04 #@! TA.AperFunction,Conductor*
G36*
X124517538Y-85569195D02*
G01*
X124525845Y-85576615D01*
X124547758Y-85598528D01*
X124571032Y-85610387D01*
X124584271Y-85618500D01*
X124599092Y-85629269D01*
X124599096Y-85629271D01*
X124605397Y-85633849D01*
X124630234Y-85641919D01*
X124644576Y-85647860D01*
X124667852Y-85659719D01*
X124675548Y-85660938D01*
X124693643Y-85663804D01*
X124708744Y-85667430D01*
X124731090Y-85674690D01*
X124780591Y-85710652D01*
X124799500Y-85768845D01*
X124799500Y-86019646D01*
X124802618Y-86045846D01*
X124848061Y-86148153D01*
X124927287Y-86227241D01*
X124935645Y-86230936D01*
X125022864Y-86269496D01*
X125022866Y-86269496D01*
X125029673Y-86272506D01*
X125037067Y-86273368D01*
X125052378Y-86275153D01*
X125055354Y-86275500D01*
X125644646Y-86275500D01*
X125662561Y-86273368D01*
X125663469Y-86273260D01*
X125663470Y-86273260D01*
X125670846Y-86272382D01*
X125773153Y-86226939D01*
X125783017Y-86217057D01*
X125837511Y-86189232D01*
X125853082Y-86188000D01*
X128980599Y-86188000D01*
X129038790Y-86206907D01*
X129050603Y-86216996D01*
X129389084Y-86555477D01*
X129389099Y-86555491D01*
X129391381Y-86557773D01*
X129419158Y-86612290D01*
X129409587Y-86672722D01*
X129366322Y-86715987D01*
X129309483Y-86726060D01*
X129296594Y-86724500D01*
X128778406Y-86724500D01*
X128775440Y-86724859D01*
X128775439Y-86724859D01*
X128700038Y-86733983D01*
X128700036Y-86733984D01*
X128693727Y-86734747D01*
X128647184Y-86753175D01*
X128567725Y-86784635D01*
X128567723Y-86784636D01*
X128561452Y-86787119D01*
X128556077Y-86791199D01*
X128556075Y-86791200D01*
X128455615Y-86867454D01*
X128448133Y-86873133D01*
X128447411Y-86874084D01*
X128395071Y-86900752D01*
X128334639Y-86891181D01*
X128295399Y-86855066D01*
X128257701Y-86794147D01*
X128250607Y-86785196D01*
X128138809Y-86673593D01*
X128129846Y-86666514D01*
X127995374Y-86583624D01*
X127985020Y-86578796D01*
X127834762Y-86528958D01*
X127824248Y-86526705D01*
X127732056Y-86517259D01*
X127731476Y-86517229D01*
X127719495Y-86521122D01*
X127716500Y-86525243D01*
X127716500Y-89155000D01*
X127697593Y-89213191D01*
X127648093Y-89249155D01*
X127617500Y-89254000D01*
X126532680Y-89254000D01*
X126519995Y-89258122D01*
X126517000Y-89262243D01*
X126517000Y-89275510D01*
X126498093Y-89333701D01*
X126448593Y-89369665D01*
X126418000Y-89374510D01*
X126306911Y-89374510D01*
X126248720Y-89355603D01*
X126236907Y-89345514D01*
X126054496Y-89163103D01*
X126026719Y-89108586D01*
X126025500Y-89093099D01*
X126025499Y-88730320D01*
X126517000Y-88730320D01*
X126521122Y-88743005D01*
X126525243Y-88746000D01*
X127192820Y-88746000D01*
X127205505Y-88741878D01*
X127208500Y-88737757D01*
X127208500Y-87769680D01*
X127204378Y-87756995D01*
X127200257Y-87754000D01*
X126532680Y-87754000D01*
X126519995Y-87758122D01*
X126517000Y-87762243D01*
X126517000Y-87801963D01*
X126517265Y-87807090D01*
X126526956Y-87900487D01*
X126529232Y-87911023D01*
X126579327Y-88061177D01*
X126584174Y-88071526D01*
X126662308Y-88197788D01*
X126676851Y-88257220D01*
X126662398Y-88301832D01*
X126583625Y-88429624D01*
X126578796Y-88439980D01*
X126528958Y-88590238D01*
X126526705Y-88600752D01*
X126517259Y-88692944D01*
X126517000Y-88698001D01*
X126517000Y-88730320D01*
X126025499Y-88730320D01*
X126025499Y-88680301D01*
X126025499Y-88677624D01*
X126023226Y-88656694D01*
X126019522Y-88622595D01*
X126019522Y-88622593D01*
X126018851Y-88616420D01*
X125989837Y-88539024D01*
X125971004Y-88488785D01*
X125971003Y-88488782D01*
X125968526Y-88482176D01*
X125956004Y-88465468D01*
X125936235Y-88407568D01*
X125954275Y-88349102D01*
X125965220Y-88336092D01*
X126082024Y-88219288D01*
X126089333Y-88209965D01*
X126171921Y-88073597D01*
X126176798Y-88062797D01*
X126224687Y-87909979D01*
X126226737Y-87899743D01*
X126232793Y-87833837D01*
X126233000Y-87829328D01*
X126233000Y-87769680D01*
X126228878Y-87756995D01*
X126224757Y-87754000D01*
X125170000Y-87754000D01*
X125111809Y-87735093D01*
X125075845Y-87685593D01*
X125071000Y-87655000D01*
X125071000Y-87230320D01*
X125579000Y-87230320D01*
X125583122Y-87243005D01*
X125587243Y-87246000D01*
X126217319Y-87246000D01*
X126230004Y-87241878D01*
X126232999Y-87237757D01*
X126232999Y-87230320D01*
X126517000Y-87230320D01*
X126521122Y-87243005D01*
X126525243Y-87246000D01*
X127192820Y-87246000D01*
X127205505Y-87241878D01*
X127208500Y-87237757D01*
X127208500Y-86532680D01*
X127204378Y-86519995D01*
X127200257Y-86517000D01*
X127198037Y-86517000D01*
X127192910Y-86517265D01*
X127099513Y-86526956D01*
X127088977Y-86529232D01*
X126938823Y-86579327D01*
X126928474Y-86584174D01*
X126794147Y-86667299D01*
X126785196Y-86674393D01*
X126673593Y-86786191D01*
X126666514Y-86795154D01*
X126583624Y-86929626D01*
X126578796Y-86939980D01*
X126528958Y-87090238D01*
X126526705Y-87100752D01*
X126517259Y-87192944D01*
X126517000Y-87198001D01*
X126517000Y-87230320D01*
X126232999Y-87230320D01*
X126232999Y-87170673D01*
X126232792Y-87166163D01*
X126226737Y-87100256D01*
X126224688Y-87090022D01*
X126176798Y-86937203D01*
X126171921Y-86926403D01*
X126089333Y-86790035D01*
X126082024Y-86780712D01*
X125969288Y-86667976D01*
X125959965Y-86660667D01*
X125823597Y-86578079D01*
X125812797Y-86573202D01*
X125659979Y-86525313D01*
X125649743Y-86523263D01*
X125591794Y-86517938D01*
X125581995Y-86521122D01*
X125579000Y-86525243D01*
X125579000Y-87230320D01*
X125071000Y-87230320D01*
X125071000Y-86532681D01*
X125066878Y-86519996D01*
X125063391Y-86517462D01*
X125000256Y-86523263D01*
X124990022Y-86525312D01*
X124837203Y-86573202D01*
X124826403Y-86578079D01*
X124690035Y-86660667D01*
X124680712Y-86667976D01*
X124567976Y-86780712D01*
X124560667Y-86790035D01*
X124478078Y-86926404D01*
X124471333Y-86941342D01*
X124430154Y-86986595D01*
X124370240Y-86999002D01*
X124314475Y-86973822D01*
X124301889Y-86959978D01*
X124232546Y-86867454D01*
X124209925Y-86850500D01*
X124123472Y-86785707D01*
X124117824Y-86781474D01*
X124111218Y-86778997D01*
X124111215Y-86778996D01*
X124041556Y-86752883D01*
X123983580Y-86731149D01*
X123922377Y-86724500D01*
X123675093Y-86724500D01*
X123427624Y-86724501D01*
X123424965Y-86724790D01*
X123424962Y-86724790D01*
X123372595Y-86730478D01*
X123372593Y-86730478D01*
X123366420Y-86731149D01*
X123317468Y-86749500D01*
X123238785Y-86778996D01*
X123238782Y-86778997D01*
X123232176Y-86781474D01*
X123226528Y-86785707D01*
X123140076Y-86850500D01*
X123117454Y-86867454D01*
X123031474Y-86982176D01*
X123028997Y-86988782D01*
X123028996Y-86988785D01*
X123024815Y-86999939D01*
X122981149Y-87116420D01*
X122974500Y-87177623D01*
X122974501Y-87822376D01*
X122974790Y-87825035D01*
X122974790Y-87825038D01*
X122977656Y-87851418D01*
X122981149Y-87883580D01*
X122991437Y-87911023D01*
X123028343Y-88009471D01*
X123031474Y-88017824D01*
X123056634Y-88051395D01*
X123085648Y-88090107D01*
X123117454Y-88132546D01*
X123123102Y-88136779D01*
X123168469Y-88170780D01*
X123203694Y-88220808D01*
X123202786Y-88281987D01*
X123168469Y-88329220D01*
X123147205Y-88345157D01*
X123117454Y-88367454D01*
X123031474Y-88482176D01*
X123028996Y-88488785D01*
X123025612Y-88494967D01*
X123023502Y-88493812D01*
X122992185Y-88533106D01*
X122937621Y-88549500D01*
X122055124Y-88549500D01*
X121996933Y-88530593D01*
X121971082Y-88497254D01*
X121968680Y-88498608D01*
X121965364Y-88492723D01*
X121962881Y-88486452D01*
X121958803Y-88481080D01*
X121958800Y-88481074D01*
X121945990Y-88464198D01*
X121925868Y-88406416D01*
X121943552Y-88347842D01*
X121963349Y-88326760D01*
X121964805Y-88325606D01*
X122076407Y-88213809D01*
X122083486Y-88204846D01*
X122166376Y-88070374D01*
X122171204Y-88060020D01*
X122221042Y-87909762D01*
X122223295Y-87899248D01*
X122232741Y-87807056D01*
X122233000Y-87801999D01*
X122233000Y-87769680D01*
X122228878Y-87756995D01*
X122224757Y-87754000D01*
X121132500Y-87754000D01*
X121074309Y-87735093D01*
X121038345Y-87685593D01*
X121033500Y-87655000D01*
X121033500Y-87345000D01*
X121052407Y-87286809D01*
X121101907Y-87250845D01*
X121132500Y-87246000D01*
X122217320Y-87246000D01*
X122230005Y-87241878D01*
X122233000Y-87237757D01*
X122233000Y-87198037D01*
X122232735Y-87192910D01*
X122223044Y-87099513D01*
X122220768Y-87088977D01*
X122170673Y-86938823D01*
X122165826Y-86928474D01*
X122087310Y-86801595D01*
X122072767Y-86742163D01*
X122095935Y-86685534D01*
X122147964Y-86653337D01*
X122171495Y-86650500D01*
X122913433Y-86650500D01*
X122936380Y-86643044D01*
X122951481Y-86639419D01*
X122967609Y-86636865D01*
X122967611Y-86636864D01*
X122975304Y-86635646D01*
X122996797Y-86624695D01*
X123011143Y-86618752D01*
X123026679Y-86613704D01*
X123034090Y-86611296D01*
X123053607Y-86597116D01*
X123066846Y-86589002D01*
X123088342Y-86578050D01*
X123110905Y-86555487D01*
X123110909Y-86555484D01*
X123361897Y-86304496D01*
X123416414Y-86276719D01*
X123431901Y-86275500D01*
X123944646Y-86275500D01*
X123962561Y-86273368D01*
X123963469Y-86273260D01*
X123963470Y-86273260D01*
X123970846Y-86272382D01*
X124073153Y-86226939D01*
X124152241Y-86147713D01*
X124165318Y-86118133D01*
X124194496Y-86052136D01*
X124194496Y-86052134D01*
X124197506Y-86045327D01*
X124200500Y-86019646D01*
X124200500Y-85859195D01*
X124219407Y-85801004D01*
X124240127Y-85779975D01*
X124257255Y-85767138D01*
X124267137Y-85757256D01*
X124345941Y-85652108D01*
X124352649Y-85639855D01*
X124363141Y-85611867D01*
X124401271Y-85564017D01*
X124460246Y-85547717D01*
X124517538Y-85569195D01*
G37*
G04 #@! TD.AperFunction*
G04 #@! TA.AperFunction,Conductor*
G36*
X144076280Y-78644397D02*
G01*
X144088093Y-78654486D01*
X144970494Y-79536887D01*
X144998271Y-79591404D01*
X144999490Y-79606891D01*
X144999490Y-87850500D01*
X144980583Y-87908691D01*
X144931083Y-87944655D01*
X144900490Y-87949500D01*
X144514435Y-87949500D01*
X144510289Y-87949413D01*
X144447706Y-87946790D01*
X144441133Y-87948332D01*
X144441130Y-87948332D01*
X144404107Y-87957016D01*
X144394937Y-87958716D01*
X144388054Y-87959659D01*
X144350568Y-87964794D01*
X144334554Y-87971724D01*
X144317856Y-87977247D01*
X144300864Y-87981232D01*
X144294951Y-87984483D01*
X144294945Y-87984485D01*
X144261613Y-88002809D01*
X144253240Y-88006911D01*
X144218339Y-88022014D01*
X144218335Y-88022016D01*
X144212145Y-88024695D01*
X144206902Y-88028940D01*
X144206901Y-88028941D01*
X144198590Y-88035671D01*
X144183986Y-88045484D01*
X144173235Y-88051395D01*
X144173232Y-88051397D01*
X144168692Y-88053893D01*
X144160578Y-88060897D01*
X144135031Y-88086444D01*
X144127331Y-88093376D01*
X144094930Y-88119614D01*
X144091022Y-88125113D01*
X144089653Y-88127040D01*
X144082732Y-88136779D01*
X144082723Y-88136791D01*
X144072029Y-88149446D01*
X143124293Y-89097182D01*
X143069776Y-89124959D01*
X143009344Y-89115388D01*
X142984285Y-89097182D01*
X142979496Y-89092393D01*
X142951719Y-89037876D01*
X142950500Y-89022389D01*
X142950500Y-88782627D01*
X142951186Y-88770991D01*
X142953527Y-88751210D01*
X142955364Y-88735690D01*
X142952111Y-88717878D01*
X142950500Y-88700092D01*
X142950500Y-88282627D01*
X142951186Y-88270991D01*
X142954494Y-88243038D01*
X142955364Y-88235690D01*
X142944749Y-88177567D01*
X142944240Y-88174510D01*
X142939588Y-88143569D01*
X142935449Y-88116038D01*
X142932323Y-88109528D01*
X142931026Y-88102427D01*
X142913292Y-88068287D01*
X142903796Y-88050005D01*
X142902408Y-88047227D01*
X142880017Y-88000600D01*
X142880015Y-88000596D01*
X142876809Y-87993921D01*
X142872706Y-87989483D01*
X142871181Y-87987220D01*
X142868580Y-87982212D01*
X142864275Y-87977172D01*
X142826643Y-87939540D01*
X142823949Y-87936737D01*
X142789876Y-87899876D01*
X142789873Y-87899874D01*
X142784854Y-87894444D01*
X142778790Y-87890922D01*
X142771465Y-87884362D01*
X142491619Y-87604516D01*
X142483877Y-87595803D01*
X142466453Y-87573701D01*
X142461872Y-87567890D01*
X142413251Y-87534286D01*
X142410728Y-87532483D01*
X142369139Y-87501764D01*
X142369137Y-87501763D01*
X142363184Y-87497366D01*
X142356368Y-87494973D01*
X142350431Y-87490869D01*
X142343372Y-87488636D01*
X142343371Y-87488636D01*
X142299293Y-87474696D01*
X142294071Y-87473044D01*
X142291186Y-87472082D01*
X142235369Y-87452481D01*
X142229327Y-87452244D01*
X142226653Y-87451723D01*
X142221270Y-87450020D01*
X142214663Y-87449500D01*
X142199160Y-87449500D01*
X142140969Y-87430593D01*
X142105005Y-87381093D01*
X142100411Y-87345411D01*
X142100500Y-87344646D01*
X142100500Y-86855354D01*
X142097382Y-86829154D01*
X142095347Y-86824572D01*
X142098102Y-86764617D01*
X142136301Y-86716820D01*
X142190753Y-86700500D01*
X142263433Y-86700500D01*
X142286380Y-86693044D01*
X142301481Y-86689419D01*
X142317609Y-86686865D01*
X142317611Y-86686864D01*
X142325304Y-86685646D01*
X142346797Y-86674695D01*
X142361143Y-86668752D01*
X142376679Y-86663704D01*
X142384090Y-86661296D01*
X142403607Y-86647116D01*
X142416846Y-86639002D01*
X142438342Y-86628050D01*
X142460905Y-86605487D01*
X142460909Y-86605484D01*
X143555483Y-85510909D01*
X143578050Y-85488342D01*
X143589004Y-85466844D01*
X143597111Y-85453614D01*
X143611296Y-85434090D01*
X143618751Y-85411144D01*
X143624696Y-85396794D01*
X143626606Y-85393045D01*
X143635646Y-85375304D01*
X143639420Y-85351475D01*
X143643046Y-85336373D01*
X143648092Y-85320843D01*
X143648093Y-85320840D01*
X143650499Y-85313433D01*
X143650499Y-85281525D01*
X143650500Y-85281519D01*
X143650500Y-82686567D01*
X143646134Y-82673129D01*
X143643045Y-82663621D01*
X143639419Y-82648517D01*
X143636865Y-82632392D01*
X143636865Y-82632391D01*
X143635646Y-82624696D01*
X143624695Y-82603203D01*
X143618753Y-82588859D01*
X143614474Y-82575690D01*
X143611297Y-82565911D01*
X143606719Y-82559610D01*
X143606717Y-82559606D01*
X143597113Y-82546387D01*
X143588997Y-82533143D01*
X143578050Y-82511658D01*
X143555487Y-82489095D01*
X143555484Y-82489091D01*
X142679496Y-81613103D01*
X142651719Y-81558586D01*
X142650500Y-81543099D01*
X142650500Y-79936567D01*
X142643044Y-79913620D01*
X142639419Y-79898519D01*
X142636865Y-79882391D01*
X142636864Y-79882389D01*
X142635646Y-79874696D01*
X142624694Y-79853201D01*
X142618751Y-79838855D01*
X142613704Y-79823320D01*
X142613702Y-79823316D01*
X142611296Y-79815911D01*
X142597113Y-79796390D01*
X142589001Y-79783151D01*
X142581586Y-79768597D01*
X142581584Y-79768595D01*
X142578050Y-79761658D01*
X142555487Y-79739095D01*
X142555484Y-79739091D01*
X142050457Y-79234064D01*
X142022178Y-79175953D01*
X142016017Y-79125038D01*
X142016016Y-79125036D01*
X142015253Y-79118727D01*
X141962881Y-78986452D01*
X141944667Y-78962455D01*
X141880953Y-78878516D01*
X141876867Y-78873133D01*
X141784926Y-78803346D01*
X141750006Y-78753104D01*
X141751288Y-78691932D01*
X141788280Y-78643196D01*
X141844781Y-78625490D01*
X144018089Y-78625490D01*
X144076280Y-78644397D01*
G37*
G04 #@! TD.AperFunction*
G04 #@! TA.AperFunction,Conductor*
G36*
X122687946Y-85275190D02*
G01*
X122731211Y-85318455D01*
X122742001Y-85363400D01*
X122742001Y-85445411D01*
X122742290Y-85450751D01*
X122748078Y-85504035D01*
X122750927Y-85516020D01*
X122799828Y-85646462D01*
X122797747Y-85647242D01*
X122807186Y-85697186D01*
X122778992Y-85754615D01*
X122713103Y-85820504D01*
X122658586Y-85848281D01*
X122643099Y-85849500D01*
X122255901Y-85849500D01*
X122197710Y-85830593D01*
X122161746Y-85781093D01*
X122161746Y-85719907D01*
X122185897Y-85680496D01*
X122572997Y-85293396D01*
X122627514Y-85265619D01*
X122687946Y-85275190D01*
G37*
G04 #@! TD.AperFunction*
G04 #@! TA.AperFunction,Conductor*
G36*
X123440935Y-83344407D02*
G01*
X123452748Y-83354496D01*
X124045504Y-83947251D01*
X124073281Y-84001768D01*
X124074500Y-84017255D01*
X124074500Y-84128427D01*
X124055593Y-84186618D01*
X124006093Y-84222582D01*
X123964037Y-84226761D01*
X123944646Y-84224500D01*
X123355354Y-84224500D01*
X123338951Y-84226452D01*
X123336531Y-84226740D01*
X123336530Y-84226740D01*
X123329154Y-84227618D01*
X123226847Y-84273061D01*
X123220391Y-84279528D01*
X123220390Y-84279529D01*
X123216982Y-84282943D01*
X123162489Y-84310768D01*
X123146918Y-84312000D01*
X122524067Y-84312000D01*
X122516660Y-84314407D01*
X122516658Y-84314407D01*
X122501121Y-84319455D01*
X122486017Y-84323081D01*
X122469892Y-84325635D01*
X122469891Y-84325635D01*
X122462196Y-84326854D01*
X122440703Y-84337805D01*
X122426359Y-84343747D01*
X122403411Y-84351203D01*
X122397110Y-84355781D01*
X122397106Y-84355783D01*
X122383887Y-84365387D01*
X122370646Y-84373501D01*
X122349158Y-84384450D01*
X122326595Y-84407013D01*
X122326591Y-84407016D01*
X122258603Y-84475004D01*
X122204086Y-84502781D01*
X122188599Y-84504000D01*
X121132500Y-84504000D01*
X121074309Y-84485093D01*
X121038345Y-84435593D01*
X121033500Y-84405000D01*
X121033500Y-84095000D01*
X121052407Y-84036809D01*
X121101907Y-84000845D01*
X121132500Y-83996000D01*
X122217320Y-83996000D01*
X122230005Y-83991878D01*
X122233000Y-83987757D01*
X122233000Y-83948037D01*
X122232735Y-83942910D01*
X122223044Y-83849513D01*
X122220768Y-83838977D01*
X122170673Y-83688823D01*
X122165825Y-83678474D01*
X122114360Y-83595306D01*
X122099817Y-83535874D01*
X122122985Y-83479244D01*
X122128541Y-83473207D01*
X122247252Y-83354496D01*
X122301769Y-83326719D01*
X122317256Y-83325500D01*
X123382744Y-83325500D01*
X123440935Y-83344407D01*
G37*
G04 #@! TD.AperFunction*
G04 #@! TA.AperFunction,Conductor*
G36*
X119900000Y-83000000D02*
G01*
X116800000Y-83000000D01*
X116800000Y-82400000D01*
X118500000Y-82400000D01*
X118500000Y-81500000D01*
X119900000Y-81500000D01*
X119900000Y-83000000D01*
G37*
G04 #@! TD.AperFunction*
G04 #@! TA.AperFunction,Conductor*
G36*
X118107148Y-83301422D02*
G01*
X118127097Y-83305390D01*
X118162102Y-83312353D01*
X118188773Y-83323400D01*
X118229184Y-83350402D01*
X118249597Y-83370815D01*
X118276600Y-83411227D01*
X118287648Y-83437900D01*
X118298578Y-83492852D01*
X118300000Y-83507288D01*
X118300000Y-83692712D01*
X118298578Y-83707148D01*
X118288440Y-83758120D01*
X118287648Y-83762100D01*
X118276600Y-83788773D01*
X118250263Y-83828189D01*
X118249598Y-83829184D01*
X118229185Y-83849597D01*
X118188773Y-83876600D01*
X118162102Y-83887647D01*
X118124299Y-83895167D01*
X118109662Y-83898078D01*
X118095226Y-83899500D01*
X116855252Y-83899500D01*
X116852738Y-83900000D01*
X116800000Y-83900000D01*
X116800000Y-83910490D01*
X116796769Y-83911133D01*
X116730448Y-83955448D01*
X116686133Y-84021769D01*
X116674500Y-84080252D01*
X116674500Y-84419748D01*
X116684995Y-84472510D01*
X116684995Y-84472511D01*
X116686133Y-84478231D01*
X116685253Y-84478406D01*
X116687084Y-84520346D01*
X116686133Y-84521769D01*
X116684712Y-84528914D01*
X116684711Y-84528916D01*
X116675210Y-84576682D01*
X116674500Y-84580252D01*
X116674500Y-84919748D01*
X116684995Y-84972510D01*
X116684995Y-84972511D01*
X116686133Y-84978231D01*
X116685253Y-84978406D01*
X116687084Y-85020346D01*
X116686133Y-85021769D01*
X116674500Y-85080252D01*
X116674500Y-85378844D01*
X116657187Y-85426410D01*
X116616768Y-85451034D01*
X116614623Y-85451518D01*
X116607791Y-85451774D01*
X116601511Y-85454472D01*
X116601508Y-85454473D01*
X116594658Y-85457416D01*
X116578995Y-85462175D01*
X116571664Y-85463540D01*
X116571663Y-85463540D01*
X116564947Y-85464791D01*
X116559132Y-85468376D01*
X116559128Y-85468377D01*
X116540710Y-85479730D01*
X116531093Y-85484726D01*
X116509738Y-85493901D01*
X116509736Y-85493902D01*
X116504937Y-85495964D01*
X116500051Y-85499978D01*
X116493620Y-85506409D01*
X116480125Y-85517076D01*
X116469652Y-85523532D01*
X116465516Y-85528971D01*
X116450961Y-85548112D01*
X116444383Y-85555646D01*
X116326099Y-85673930D01*
X116321946Y-85677515D01*
X116317731Y-85679575D01*
X116283774Y-85716181D01*
X116281848Y-85718181D01*
X116267752Y-85732277D01*
X116265824Y-85735088D01*
X116263647Y-85737707D01*
X116263515Y-85737597D01*
X116260961Y-85740773D01*
X116241599Y-85761646D01*
X116239069Y-85767988D01*
X116239065Y-85767994D01*
X116236301Y-85774923D01*
X116228593Y-85789359D01*
X116224376Y-85795507D01*
X116220508Y-85801146D01*
X116218930Y-85807796D01*
X116218929Y-85807798D01*
X116213936Y-85828840D01*
X116210668Y-85839176D01*
X116200117Y-85865622D01*
X116199500Y-85871915D01*
X116199500Y-85881012D01*
X116197500Y-85898098D01*
X116194660Y-85910066D01*
X116195582Y-85916839D01*
X116198824Y-85940663D01*
X116199500Y-85950642D01*
X116199500Y-86520433D01*
X116199098Y-86525906D01*
X116197575Y-86530342D01*
X116197831Y-86537166D01*
X116197831Y-86537167D01*
X116199448Y-86580241D01*
X116199500Y-86583017D01*
X116199500Y-86602948D01*
X116200124Y-86606300D01*
X116200437Y-86609691D01*
X116200247Y-86609709D01*
X116200706Y-86613755D01*
X116201774Y-86642208D01*
X116204471Y-86648485D01*
X116204472Y-86648490D01*
X116207416Y-86655343D01*
X116212174Y-86671002D01*
X116214791Y-86685053D01*
X116218376Y-86690868D01*
X116218377Y-86690872D01*
X116229730Y-86709290D01*
X116234726Y-86718907D01*
X116245964Y-86745063D01*
X116249978Y-86749949D01*
X116256409Y-86756380D01*
X116267076Y-86769875D01*
X116273532Y-86780348D01*
X116278971Y-86784484D01*
X116298112Y-86799039D01*
X116305646Y-86805617D01*
X116423933Y-86923905D01*
X116427515Y-86928054D01*
X116429575Y-86932269D01*
X116434587Y-86936918D01*
X116466168Y-86966214D01*
X116468168Y-86968140D01*
X116482276Y-86982248D01*
X116485084Y-86984174D01*
X116487710Y-86986356D01*
X116487594Y-86986495D01*
X116490776Y-86989042D01*
X116506634Y-87003752D01*
X116511646Y-87008401D01*
X116524923Y-87013698D01*
X116539359Y-87021406D01*
X116551146Y-87029492D01*
X116557796Y-87031070D01*
X116557798Y-87031071D01*
X116578840Y-87036064D01*
X116589176Y-87039332D01*
X116615622Y-87049883D01*
X116618717Y-87050186D01*
X116660120Y-87077774D01*
X116674500Y-87121608D01*
X116674500Y-87419748D01*
X116684995Y-87472510D01*
X116684995Y-87472511D01*
X116686133Y-87478231D01*
X116685253Y-87478406D01*
X116687084Y-87520346D01*
X116686133Y-87521769D01*
X116674500Y-87580252D01*
X116674500Y-87919748D01*
X116686133Y-87978231D01*
X116690184Y-87984293D01*
X116690184Y-87984294D01*
X116726398Y-88038491D01*
X116730448Y-88044552D01*
X116796769Y-88088867D01*
X116800000Y-88089510D01*
X116800000Y-88100000D01*
X116852738Y-88100000D01*
X116855252Y-88100500D01*
X118344748Y-88100500D01*
X118346422Y-88100167D01*
X118349824Y-88100000D01*
X118923587Y-88100000D01*
X118936009Y-88101050D01*
X118983624Y-88109159D01*
X119007065Y-88117381D01*
X119049316Y-88140796D01*
X119059663Y-88147731D01*
X119086669Y-88169335D01*
X119442779Y-88454224D01*
X119442785Y-88454228D01*
X119500000Y-88500000D01*
X119992712Y-88500000D01*
X120007148Y-88501422D01*
X120027097Y-88505390D01*
X120062102Y-88512353D01*
X120088773Y-88523400D01*
X120129184Y-88550402D01*
X120149597Y-88570815D01*
X120176600Y-88611227D01*
X120187648Y-88637900D01*
X120198578Y-88692852D01*
X120200000Y-88707288D01*
X120200000Y-89292712D01*
X120198578Y-89307148D01*
X120187648Y-89362100D01*
X120176600Y-89388773D01*
X120149598Y-89429184D01*
X120129185Y-89449597D01*
X120088773Y-89476600D01*
X120062102Y-89487647D01*
X120027097Y-89494610D01*
X120007148Y-89498578D01*
X119992712Y-89500000D01*
X119481812Y-89500000D01*
X119468585Y-89498808D01*
X119418031Y-89489624D01*
X119393267Y-89480319D01*
X119349165Y-89453935D01*
X119338427Y-89446123D01*
X118659058Y-88851676D01*
X118656554Y-88849485D01*
X118600000Y-88800000D01*
X118483847Y-88800000D01*
X118442735Y-88787529D01*
X118409289Y-88765181D01*
X118403231Y-88761133D01*
X118396086Y-88759712D01*
X118396084Y-88759711D01*
X118348318Y-88750210D01*
X118348317Y-88750210D01*
X118344748Y-88749500D01*
X116855252Y-88749500D01*
X116851683Y-88750210D01*
X116851682Y-88750210D01*
X116812425Y-88758019D01*
X116796769Y-88761133D01*
X116793982Y-88762995D01*
X116745656Y-88765107D01*
X116705496Y-88734293D01*
X116699539Y-88722850D01*
X116654553Y-88614246D01*
X116652698Y-88609767D01*
X116560451Y-88489549D01*
X116440233Y-88397302D01*
X116300236Y-88339313D01*
X116295434Y-88338681D01*
X116295431Y-88338680D01*
X116212820Y-88327805D01*
X116187720Y-88324500D01*
X116112280Y-88324500D01*
X116087180Y-88327805D01*
X116004569Y-88338680D01*
X116004566Y-88338681D01*
X115999764Y-88339313D01*
X115995285Y-88341168D01*
X115995286Y-88341168D01*
X115980262Y-88347391D01*
X115929691Y-88349599D01*
X115910895Y-88340596D01*
X115796662Y-88264441D01*
X115782919Y-88252608D01*
X115736138Y-88201075D01*
X115719151Y-88169335D01*
X115713735Y-88147734D01*
X115702222Y-88101824D01*
X115700000Y-88083825D01*
X115700000Y-83842773D01*
X115701451Y-83828189D01*
X115709374Y-83788778D01*
X115712606Y-83772701D01*
X115723876Y-83745804D01*
X115751394Y-83705157D01*
X115772185Y-83684702D01*
X115807960Y-83661320D01*
X115819562Y-83653738D01*
X115832552Y-83646979D01*
X115872814Y-83630875D01*
X115923405Y-83629283D01*
X115928610Y-83631214D01*
X115999764Y-83660687D01*
X116004566Y-83661319D01*
X116004569Y-83661320D01*
X116087180Y-83672195D01*
X116112280Y-83675500D01*
X116187720Y-83675500D01*
X116212820Y-83672195D01*
X116295431Y-83661320D01*
X116295434Y-83661319D01*
X116300236Y-83660687D01*
X116440233Y-83602698D01*
X116560451Y-83510451D01*
X116652698Y-83390233D01*
X116671049Y-83345931D01*
X116705247Y-83308611D01*
X116732380Y-83300585D01*
X116735011Y-83300334D01*
X116742034Y-83300000D01*
X118092712Y-83300000D01*
X118107148Y-83301422D01*
G37*
G04 #@! TD.AperFunction*
G04 #@! TA.AperFunction,Conductor*
G36*
X118336409Y-88962105D02*
G01*
X118383082Y-88984180D01*
X118393228Y-88987258D01*
X118418749Y-88995000D01*
X119300000Y-89700000D01*
X119426355Y-89700000D01*
X119431854Y-89700999D01*
X119432661Y-89701108D01*
X119432677Y-89701111D01*
X119449327Y-89703369D01*
X119449338Y-89703370D01*
X119450140Y-89703479D01*
X119450966Y-89703553D01*
X119450971Y-89703554D01*
X119454973Y-89703915D01*
X119463367Y-89704671D01*
X119464208Y-89704709D01*
X119464211Y-89704709D01*
X119466295Y-89704803D01*
X119481812Y-89705500D01*
X119992712Y-89705500D01*
X120000872Y-89705099D01*
X120011950Y-89704555D01*
X120011967Y-89704554D01*
X120012857Y-89704510D01*
X120019966Y-89703810D01*
X120026384Y-89703178D01*
X120026402Y-89703176D01*
X120027293Y-89703088D01*
X120028251Y-89702946D01*
X120046345Y-89700262D01*
X120046360Y-89700259D01*
X120047239Y-89700129D01*
X120047888Y-89700000D01*
X120200000Y-89700000D01*
X120200000Y-91600000D01*
X117900000Y-91600000D01*
X117900000Y-91147891D01*
X117900130Y-91147237D01*
X117903088Y-91127293D01*
X117904510Y-91112857D01*
X117905500Y-91092712D01*
X117905500Y-89907288D01*
X117904510Y-89887143D01*
X117903088Y-89872707D01*
X117900130Y-89852763D01*
X117900000Y-89852109D01*
X117900000Y-89700000D01*
X117849039Y-89700000D01*
X117848322Y-89698659D01*
X117847465Y-89697055D01*
X117831183Y-89672687D01*
X117829583Y-89670292D01*
X117829574Y-89670279D01*
X117828862Y-89669214D01*
X117811010Y-89646211D01*
X117797050Y-89630639D01*
X117781480Y-89620112D01*
X117718094Y-89577256D01*
X117718090Y-89577254D01*
X117714323Y-89574707D01*
X117666757Y-89557394D01*
X117663583Y-89556834D01*
X117663578Y-89556833D01*
X117629326Y-89550794D01*
X117596470Y-89545000D01*
X116895230Y-89545000D01*
X116863591Y-89537895D01*
X116862883Y-89537560D01*
X116816918Y-89515820D01*
X116800000Y-89510688D01*
X116800000Y-88968428D01*
X116801282Y-88968372D01*
X116802063Y-88968338D01*
X116802066Y-88968338D01*
X116802954Y-88968299D01*
X116803813Y-88968220D01*
X116803825Y-88968219D01*
X116809021Y-88967740D01*
X116822698Y-88966479D01*
X116827419Y-88964677D01*
X116832336Y-88963535D01*
X116832460Y-88964070D01*
X116836921Y-88962991D01*
X116836860Y-88962684D01*
X116868341Y-88956422D01*
X116882778Y-88955000D01*
X118304770Y-88955000D01*
X118336409Y-88962105D01*
G37*
G04 #@! TD.AperFunction*
M02*
