G04 #@! TF.GenerationSoftware,KiCad,Pcbnew,(5.1.8)-1*
G04 #@! TF.CreationDate,2021-01-19T07:53:21+02:00*
G04 #@! TF.ProjectId,link,6c696e6b-2e6b-4696-9361-645f70636258,rev?*
G04 #@! TF.SameCoordinates,Original*
G04 #@! TF.FileFunction,Legend,Top*
G04 #@! TF.FilePolarity,Positive*
%FSLAX46Y46*%
G04 Gerber Fmt 4.6, Leading zero omitted, Abs format (unit mm)*
G04 Created by KiCad (PCBNEW (5.1.8)-1) date 2021-01-19 07:53:21*
%MOMM*%
%LPD*%
G01*
G04 APERTURE LIST*
%ADD10C,0.250000*%
%ADD11C,0.200000*%
%ADD12C,0.120000*%
%ADD13C,0.020000*%
%ADD14C,0.100000*%
%ADD15C,0.150000*%
G04 APERTURE END LIST*
D10*
X153314285Y-79714285D02*
X153714285Y-79714285D01*
X153885714Y-80342857D02*
X153314285Y-80342857D01*
X153314285Y-79142857D01*
X153885714Y-79142857D01*
X154400000Y-80342857D02*
X154400000Y-79142857D01*
X155085714Y-80342857D01*
X155085714Y-79142857D01*
X152700000Y-82842857D02*
X152700000Y-81642857D01*
X153500000Y-81642857D02*
X153728571Y-81642857D01*
X153842857Y-81700000D01*
X153957142Y-81814285D01*
X154014285Y-82042857D01*
X154014285Y-82442857D01*
X153957142Y-82671428D01*
X153842857Y-82785714D01*
X153728571Y-82842857D01*
X153500000Y-82842857D01*
X153385714Y-82785714D01*
X153271428Y-82671428D01*
X153214285Y-82442857D01*
X153214285Y-82042857D01*
X153271428Y-81814285D01*
X153385714Y-81700000D01*
X153500000Y-81642857D01*
X154757142Y-81642857D02*
X154871428Y-81642857D01*
X154985714Y-81700000D01*
X155042857Y-81757142D01*
X155100000Y-81871428D01*
X155157142Y-82100000D01*
X155157142Y-82385714D01*
X155100000Y-82614285D01*
X155042857Y-82728571D01*
X154985714Y-82785714D01*
X154871428Y-82842857D01*
X154757142Y-82842857D01*
X154642857Y-82785714D01*
X154585714Y-82728571D01*
X154528571Y-82614285D01*
X154471428Y-82385714D01*
X154471428Y-82100000D01*
X154528571Y-81871428D01*
X154585714Y-81757142D01*
X154642857Y-81700000D01*
X154757142Y-81642857D01*
D11*
X142833333Y-79552380D02*
X142500000Y-79076190D01*
X142261904Y-79552380D02*
X142261904Y-78552380D01*
X142642857Y-78552380D01*
X142738095Y-78600000D01*
X142785714Y-78647619D01*
X142833333Y-78742857D01*
X142833333Y-78885714D01*
X142785714Y-78980952D01*
X142738095Y-79028571D01*
X142642857Y-79076190D01*
X142261904Y-79076190D01*
X143166666Y-78552380D02*
X143833333Y-79552380D01*
X143833333Y-78552380D02*
X143166666Y-79552380D01*
X142238095Y-93052380D02*
X142809523Y-93052380D01*
X142523809Y-94052380D02*
X142523809Y-93052380D01*
X143047619Y-93052380D02*
X143714285Y-94052380D01*
X143714285Y-93052380D02*
X143047619Y-94052380D01*
X146695238Y-94552380D02*
X146123809Y-94552380D01*
X146409523Y-94552380D02*
X146409523Y-93552380D01*
X146314285Y-93695238D01*
X146219047Y-93790476D01*
X146123809Y-93838095D01*
X147314285Y-93552380D02*
X147409523Y-93552380D01*
X147504761Y-93600000D01*
X147552380Y-93647619D01*
X147600000Y-93742857D01*
X147647619Y-93933333D01*
X147647619Y-94171428D01*
X147600000Y-94361904D01*
X147552380Y-94457142D01*
X147504761Y-94504761D01*
X147409523Y-94552380D01*
X147314285Y-94552380D01*
X147219047Y-94504761D01*
X147171428Y-94457142D01*
X147123809Y-94361904D01*
X147076190Y-94171428D01*
X147076190Y-93933333D01*
X147123809Y-93742857D01*
X147171428Y-93647619D01*
X147219047Y-93600000D01*
X147314285Y-93552380D01*
X148266666Y-93552380D02*
X148361904Y-93552380D01*
X148457142Y-93600000D01*
X148504761Y-93647619D01*
X148552380Y-93742857D01*
X148600000Y-93933333D01*
X148600000Y-94171428D01*
X148552380Y-94361904D01*
X148504761Y-94457142D01*
X148457142Y-94504761D01*
X148361904Y-94552380D01*
X148266666Y-94552380D01*
X148171428Y-94504761D01*
X148123809Y-94457142D01*
X148076190Y-94361904D01*
X148028571Y-94171428D01*
X148028571Y-93933333D01*
X148076190Y-93742857D01*
X148123809Y-93647619D01*
X148171428Y-93600000D01*
X148266666Y-93552380D01*
X149028571Y-94552380D02*
X149028571Y-93885714D01*
X149028571Y-93980952D02*
X149076190Y-93933333D01*
X149171428Y-93885714D01*
X149314285Y-93885714D01*
X149409523Y-93933333D01*
X149457142Y-94028571D01*
X149457142Y-94552380D01*
X149457142Y-94028571D02*
X149504761Y-93933333D01*
X149600000Y-93885714D01*
X149742857Y-93885714D01*
X149838095Y-93933333D01*
X149885714Y-94028571D01*
X149885714Y-94552380D01*
X150314285Y-94266666D02*
X150790476Y-94266666D01*
X150219047Y-94552380D02*
X150552380Y-93552380D01*
X150885714Y-94552380D01*
X151980952Y-94552380D02*
X151980952Y-93885714D01*
X151980952Y-93980952D02*
X152028571Y-93933333D01*
X152123809Y-93885714D01*
X152266666Y-93885714D01*
X152361904Y-93933333D01*
X152409523Y-94028571D01*
X152409523Y-94552380D01*
X152409523Y-94028571D02*
X152457142Y-93933333D01*
X152552380Y-93885714D01*
X152695238Y-93885714D01*
X152790476Y-93933333D01*
X152838095Y-94028571D01*
X152838095Y-94552380D01*
X153742857Y-94552380D02*
X153742857Y-94028571D01*
X153695238Y-93933333D01*
X153600000Y-93885714D01*
X153409523Y-93885714D01*
X153314285Y-93933333D01*
X153742857Y-94504761D02*
X153647619Y-94552380D01*
X153409523Y-94552380D01*
X153314285Y-94504761D01*
X153266666Y-94409523D01*
X153266666Y-94314285D01*
X153314285Y-94219047D01*
X153409523Y-94171428D01*
X153647619Y-94171428D01*
X153742857Y-94123809D01*
X154123809Y-94552380D02*
X154647619Y-93885714D01*
X154123809Y-93885714D02*
X154647619Y-94552380D01*
X155028571Y-94457142D02*
X155076190Y-94504761D01*
X155028571Y-94552380D01*
X154980952Y-94504761D01*
X155028571Y-94457142D01*
X155028571Y-94552380D01*
X155028571Y-94171428D02*
X154980952Y-93600000D01*
X155028571Y-93552380D01*
X155076190Y-93600000D01*
X155028571Y-94171428D01*
X155028571Y-93552380D01*
X143819047Y-88361904D02*
X144314285Y-88361904D01*
X144047619Y-88666666D01*
X144161904Y-88666666D01*
X144238095Y-88704761D01*
X144276190Y-88742857D01*
X144314285Y-88819047D01*
X144314285Y-89009523D01*
X144276190Y-89085714D01*
X144238095Y-89123809D01*
X144161904Y-89161904D01*
X143933333Y-89161904D01*
X143857142Y-89123809D01*
X143819047Y-89085714D01*
X144657142Y-89085714D02*
X144695238Y-89123809D01*
X144657142Y-89161904D01*
X144619047Y-89123809D01*
X144657142Y-89085714D01*
X144657142Y-89161904D01*
X145380952Y-88628571D02*
X145380952Y-89161904D01*
X145190476Y-88323809D02*
X145000000Y-88895238D01*
X145495238Y-88895238D01*
X145685714Y-88361904D02*
X145952380Y-89161904D01*
X146219047Y-88361904D01*
X144590476Y-87300000D02*
X144514285Y-87261904D01*
X144400000Y-87261904D01*
X144285714Y-87300000D01*
X144209523Y-87376190D01*
X144171428Y-87452380D01*
X144133333Y-87604761D01*
X144133333Y-87719047D01*
X144171428Y-87871428D01*
X144209523Y-87947619D01*
X144285714Y-88023809D01*
X144400000Y-88061904D01*
X144476190Y-88061904D01*
X144590476Y-88023809D01*
X144628571Y-87985714D01*
X144628571Y-87719047D01*
X144476190Y-87719047D01*
X144971428Y-88061904D02*
X144971428Y-87261904D01*
X145428571Y-88061904D01*
X145428571Y-87261904D01*
X145809523Y-88061904D02*
X145809523Y-87261904D01*
X146000000Y-87261904D01*
X146114285Y-87300000D01*
X146190476Y-87376190D01*
X146228571Y-87452380D01*
X146266666Y-87604761D01*
X146266666Y-87719047D01*
X146228571Y-87871428D01*
X146190476Y-87947619D01*
X146114285Y-88023809D01*
X146000000Y-88061904D01*
X145809523Y-88061904D01*
X144666666Y-86961904D02*
X144400000Y-86580952D01*
X144209523Y-86961904D02*
X144209523Y-86161904D01*
X144514285Y-86161904D01*
X144590476Y-86200000D01*
X144628571Y-86238095D01*
X144666666Y-86314285D01*
X144666666Y-86428571D01*
X144628571Y-86504761D01*
X144590476Y-86542857D01*
X144514285Y-86580952D01*
X144209523Y-86580952D01*
X144933333Y-86161904D02*
X145466666Y-86961904D01*
X145466666Y-86161904D02*
X144933333Y-86961904D01*
X145771428Y-86961904D02*
X145771428Y-86161904D01*
X145961904Y-86161904D01*
X146076190Y-86200000D01*
X146152380Y-86276190D01*
X146190476Y-86352380D01*
X146228571Y-86504761D01*
X146228571Y-86619047D01*
X146190476Y-86771428D01*
X146152380Y-86847619D01*
X146076190Y-86923809D01*
X145961904Y-86961904D01*
X145771428Y-86961904D01*
X144290476Y-85061904D02*
X144747619Y-85061904D01*
X144519047Y-85861904D02*
X144519047Y-85061904D01*
X144938095Y-85061904D02*
X145471428Y-85861904D01*
X145471428Y-85061904D02*
X144938095Y-85861904D01*
X145776190Y-85861904D02*
X145776190Y-85061904D01*
X145966666Y-85061904D01*
X146080952Y-85100000D01*
X146157142Y-85176190D01*
X146195238Y-85252380D01*
X146233333Y-85404761D01*
X146233333Y-85519047D01*
X146195238Y-85671428D01*
X146157142Y-85747619D01*
X146080952Y-85823809D01*
X145966666Y-85861904D01*
X145776190Y-85861904D01*
X144500000Y-84761904D02*
X144500000Y-83961904D01*
X145033333Y-83961904D02*
X145185714Y-83961904D01*
X145261904Y-84000000D01*
X145338095Y-84076190D01*
X145376190Y-84228571D01*
X145376190Y-84495238D01*
X145338095Y-84647619D01*
X145261904Y-84723809D01*
X145185714Y-84761904D01*
X145033333Y-84761904D01*
X144957142Y-84723809D01*
X144880952Y-84647619D01*
X144842857Y-84495238D01*
X144842857Y-84228571D01*
X144880952Y-84076190D01*
X144957142Y-84000000D01*
X145033333Y-83961904D01*
X145871428Y-83961904D02*
X145947619Y-83961904D01*
X146023809Y-84000000D01*
X146061904Y-84038095D01*
X146100000Y-84114285D01*
X146138095Y-84266666D01*
X146138095Y-84457142D01*
X146100000Y-84609523D01*
X146061904Y-84685714D01*
X146023809Y-84723809D01*
X145947619Y-84761904D01*
X145871428Y-84761904D01*
X145795238Y-84723809D01*
X145757142Y-84685714D01*
X145719047Y-84609523D01*
X145680952Y-84457142D01*
X145680952Y-84266666D01*
X145719047Y-84114285D01*
X145757142Y-84038095D01*
X145795238Y-84000000D01*
X145871428Y-83961904D01*
X144909523Y-83242857D02*
X145176190Y-83242857D01*
X145290476Y-83661904D02*
X144909523Y-83661904D01*
X144909523Y-82861904D01*
X145290476Y-82861904D01*
X145633333Y-83661904D02*
X145633333Y-82861904D01*
X146090476Y-83661904D01*
X146090476Y-82861904D01*
D10*
X138611000Y-78171428D02*
X138611000Y-77028571D01*
X140285714Y-77942857D02*
X140342857Y-77771428D01*
X140342857Y-77485714D01*
X140285714Y-77371428D01*
X140228571Y-77314285D01*
X140114285Y-77257142D01*
X140000000Y-77257142D01*
X139885714Y-77314285D01*
X139828571Y-77371428D01*
X139771428Y-77485714D01*
X139714285Y-77714285D01*
X139657142Y-77828571D01*
X139600000Y-77885714D01*
X139485714Y-77942857D01*
X139371428Y-77942857D01*
X139257142Y-77885714D01*
X139200000Y-77828571D01*
X139142857Y-77714285D01*
X139142857Y-77428571D01*
X139200000Y-77257142D01*
X138611000Y-77028571D02*
X138611000Y-75771428D01*
X139142857Y-76742857D02*
X140114285Y-76742857D01*
X140228571Y-76685714D01*
X140285714Y-76628571D01*
X140342857Y-76514285D01*
X140342857Y-76285714D01*
X140285714Y-76171428D01*
X140228571Y-76114285D01*
X140114285Y-76057142D01*
X139142857Y-76057142D01*
X138611000Y-75771428D02*
X138611000Y-74628571D01*
X140285714Y-75542857D02*
X140342857Y-75371428D01*
X140342857Y-75085714D01*
X140285714Y-74971428D01*
X140228571Y-74914285D01*
X140114285Y-74857142D01*
X140000000Y-74857142D01*
X139885714Y-74914285D01*
X139828571Y-74971428D01*
X139771428Y-75085714D01*
X139714285Y-75314285D01*
X139657142Y-75428571D01*
X139600000Y-75485714D01*
X139485714Y-75542857D01*
X139371428Y-75542857D01*
X139257142Y-75485714D01*
X139200000Y-75428571D01*
X139142857Y-75314285D01*
X139142857Y-75028571D01*
X139200000Y-74857142D01*
X137785714Y-77942857D02*
X137842857Y-77771428D01*
X137842857Y-77485714D01*
X137785714Y-77371428D01*
X137728571Y-77314285D01*
X137614285Y-77257142D01*
X137500000Y-77257142D01*
X137385714Y-77314285D01*
X137328571Y-77371428D01*
X137271428Y-77485714D01*
X137214285Y-77714285D01*
X137157142Y-77828571D01*
X137100000Y-77885714D01*
X136985714Y-77942857D01*
X136871428Y-77942857D01*
X136757142Y-77885714D01*
X136700000Y-77828571D01*
X136642857Y-77714285D01*
X136642857Y-77428571D01*
X136700000Y-77257142D01*
X136642857Y-76742857D02*
X137614285Y-76742857D01*
X137728571Y-76685714D01*
X137785714Y-76628571D01*
X137842857Y-76514285D01*
X137842857Y-76285714D01*
X137785714Y-76171428D01*
X137728571Y-76114285D01*
X137614285Y-76057142D01*
X136642857Y-76057142D01*
X137785714Y-75542857D02*
X137842857Y-75371428D01*
X137842857Y-75085714D01*
X137785714Y-74971428D01*
X137728571Y-74914285D01*
X137614285Y-74857142D01*
X137500000Y-74857142D01*
X137385714Y-74914285D01*
X137328571Y-74971428D01*
X137271428Y-75085714D01*
X137214285Y-75314285D01*
X137157142Y-75428571D01*
X137100000Y-75485714D01*
X136985714Y-75542857D01*
X136871428Y-75542857D01*
X136757142Y-75485714D01*
X136700000Y-75428571D01*
X136642857Y-75314285D01*
X136642857Y-75028571D01*
X136700000Y-74857142D01*
X135228571Y-77057142D02*
X135285714Y-77114285D01*
X135342857Y-77285714D01*
X135342857Y-77400000D01*
X135285714Y-77571428D01*
X135171428Y-77685714D01*
X135057142Y-77742857D01*
X134828571Y-77800000D01*
X134657142Y-77800000D01*
X134428571Y-77742857D01*
X134314285Y-77685714D01*
X134200000Y-77571428D01*
X134142857Y-77400000D01*
X134142857Y-77285714D01*
X134200000Y-77114285D01*
X134257142Y-77057142D01*
X134142857Y-76714285D02*
X134142857Y-76028571D01*
X135342857Y-76371428D02*
X134142857Y-76371428D01*
X135285714Y-75685714D02*
X135342857Y-75514285D01*
X135342857Y-75228571D01*
X135285714Y-75114285D01*
X135228571Y-75057142D01*
X135114285Y-75000000D01*
X135000000Y-75000000D01*
X134885714Y-75057142D01*
X134828571Y-75114285D01*
X134771428Y-75228571D01*
X134714285Y-75457142D01*
X134657142Y-75571428D01*
X134600000Y-75628571D01*
X134485714Y-75685714D01*
X134371428Y-75685714D01*
X134257142Y-75628571D01*
X134200000Y-75571428D01*
X134142857Y-75457142D01*
X134142857Y-75171428D01*
X134200000Y-75000000D01*
X132742857Y-77057142D02*
X132171428Y-77457142D01*
X132742857Y-77742857D02*
X131542857Y-77742857D01*
X131542857Y-77285714D01*
X131600000Y-77171428D01*
X131657142Y-77114285D01*
X131771428Y-77057142D01*
X131942857Y-77057142D01*
X132057142Y-77114285D01*
X132114285Y-77171428D01*
X132171428Y-77285714D01*
X132171428Y-77742857D01*
X131542857Y-76714285D02*
X131542857Y-76028571D01*
X132742857Y-76371428D02*
X131542857Y-76371428D01*
X132685714Y-75685714D02*
X132742857Y-75514285D01*
X132742857Y-75228571D01*
X132685714Y-75114285D01*
X132628571Y-75057142D01*
X132514285Y-75000000D01*
X132400000Y-75000000D01*
X132285714Y-75057142D01*
X132228571Y-75114285D01*
X132171428Y-75228571D01*
X132114285Y-75457142D01*
X132057142Y-75571428D01*
X132000000Y-75628571D01*
X131885714Y-75685714D01*
X131771428Y-75685714D01*
X131657142Y-75628571D01*
X131600000Y-75571428D01*
X131542857Y-75457142D01*
X131542857Y-75171428D01*
X131600000Y-75000000D01*
X130242857Y-77885714D02*
X129042857Y-77885714D01*
X129042857Y-77600000D01*
X129100000Y-77428571D01*
X129214285Y-77314285D01*
X129328571Y-77257142D01*
X129557142Y-77200000D01*
X129728571Y-77200000D01*
X129957142Y-77257142D01*
X130071428Y-77314285D01*
X130185714Y-77428571D01*
X130242857Y-77600000D01*
X130242857Y-77885714D01*
X130185714Y-76742857D02*
X130242857Y-76571428D01*
X130242857Y-76285714D01*
X130185714Y-76171428D01*
X130128571Y-76114285D01*
X130014285Y-76057142D01*
X129900000Y-76057142D01*
X129785714Y-76114285D01*
X129728571Y-76171428D01*
X129671428Y-76285714D01*
X129614285Y-76514285D01*
X129557142Y-76628571D01*
X129500000Y-76685714D01*
X129385714Y-76742857D01*
X129271428Y-76742857D01*
X129157142Y-76685714D01*
X129100000Y-76628571D01*
X129042857Y-76514285D01*
X129042857Y-76228571D01*
X129100000Y-76057142D01*
X130242857Y-74857142D02*
X129671428Y-75257142D01*
X130242857Y-75542857D02*
X129042857Y-75542857D01*
X129042857Y-75085714D01*
X129100000Y-74971428D01*
X129157142Y-74914285D01*
X129271428Y-74857142D01*
X129442857Y-74857142D01*
X129557142Y-74914285D01*
X129614285Y-74971428D01*
X129671428Y-75085714D01*
X129671428Y-75542857D01*
X127642857Y-77671428D02*
X126442857Y-77671428D01*
X126442857Y-77385714D01*
X126500000Y-77214285D01*
X126614285Y-77100000D01*
X126728571Y-77042857D01*
X126957142Y-76985714D01*
X127128571Y-76985714D01*
X127357142Y-77042857D01*
X127471428Y-77100000D01*
X127585714Y-77214285D01*
X127642857Y-77385714D01*
X127642857Y-77671428D01*
X126442857Y-76642857D02*
X126442857Y-75957142D01*
X127642857Y-76300000D02*
X126442857Y-76300000D01*
X127642857Y-74871428D02*
X127071428Y-75271428D01*
X127642857Y-75557142D02*
X126442857Y-75557142D01*
X126442857Y-75100000D01*
X126500000Y-74985714D01*
X126557142Y-74928571D01*
X126671428Y-74871428D01*
X126842857Y-74871428D01*
X126957142Y-74928571D01*
X127014285Y-74985714D01*
X127071428Y-75100000D01*
X127071428Y-75557142D01*
X125142857Y-77914285D02*
X123942857Y-77914285D01*
X123942857Y-77628571D01*
X124000000Y-77457142D01*
X124114285Y-77342857D01*
X124228571Y-77285714D01*
X124457142Y-77228571D01*
X124628571Y-77228571D01*
X124857142Y-77285714D01*
X124971428Y-77342857D01*
X125085714Y-77457142D01*
X125142857Y-77628571D01*
X125142857Y-77914285D01*
X125028571Y-76028571D02*
X125085714Y-76085714D01*
X125142857Y-76257142D01*
X125142857Y-76371428D01*
X125085714Y-76542857D01*
X124971428Y-76657142D01*
X124857142Y-76714285D01*
X124628571Y-76771428D01*
X124457142Y-76771428D01*
X124228571Y-76714285D01*
X124114285Y-76657142D01*
X124000000Y-76542857D01*
X123942857Y-76371428D01*
X123942857Y-76257142D01*
X124000000Y-76085714D01*
X124057142Y-76028571D01*
X125142857Y-75514285D02*
X123942857Y-75514285D01*
X123942857Y-75228571D01*
X124000000Y-75057142D01*
X124114285Y-74942857D01*
X124228571Y-74885714D01*
X124457142Y-74828571D01*
X124628571Y-74828571D01*
X124857142Y-74885714D01*
X124971428Y-74942857D01*
X125085714Y-75057142D01*
X125142857Y-75228571D01*
X125142857Y-75514285D01*
X122542857Y-75514285D02*
X121971428Y-75914285D01*
X122542857Y-76200000D02*
X121342857Y-76200000D01*
X121342857Y-75742857D01*
X121400000Y-75628571D01*
X121457142Y-75571428D01*
X121571428Y-75514285D01*
X121742857Y-75514285D01*
X121857142Y-75571428D01*
X121914285Y-75628571D01*
X121971428Y-75742857D01*
X121971428Y-76200000D01*
X122542857Y-75000000D02*
X121342857Y-75000000D01*
X139000000Y-96585714D02*
X138942857Y-96700000D01*
X138942857Y-96871428D01*
X139000000Y-97042857D01*
X139114285Y-97157142D01*
X139228571Y-97214285D01*
X139457142Y-97271428D01*
X139628571Y-97271428D01*
X139857142Y-97214285D01*
X139971428Y-97157142D01*
X140085714Y-97042857D01*
X140142857Y-96871428D01*
X140142857Y-96757142D01*
X140085714Y-96585714D01*
X140028571Y-96528571D01*
X139628571Y-96528571D01*
X139628571Y-96757142D01*
X136542857Y-97271428D02*
X136542857Y-96528571D01*
X137000000Y-96928571D01*
X137000000Y-96757142D01*
X137057142Y-96642857D01*
X137114285Y-96585714D01*
X137228571Y-96528571D01*
X137514285Y-96528571D01*
X137628571Y-96585714D01*
X137685714Y-96642857D01*
X137742857Y-96757142D01*
X137742857Y-97100000D01*
X137685714Y-97214285D01*
X137628571Y-97271428D01*
X137628571Y-96014285D02*
X137685714Y-95957142D01*
X137742857Y-96014285D01*
X137685714Y-96071428D01*
X137628571Y-96014285D01*
X137742857Y-96014285D01*
X136942857Y-94928571D02*
X137742857Y-94928571D01*
X136485714Y-95214285D02*
X137342857Y-95500000D01*
X137342857Y-94757142D01*
X136542857Y-94471428D02*
X137742857Y-94071428D01*
X136542857Y-93671428D01*
X134000000Y-96371428D02*
X133942857Y-96485714D01*
X133942857Y-96657142D01*
X134000000Y-96828571D01*
X134114285Y-96942857D01*
X134228571Y-97000000D01*
X134457142Y-97057142D01*
X134628571Y-97057142D01*
X134857142Y-97000000D01*
X134971428Y-96942857D01*
X135085714Y-96828571D01*
X135142857Y-96657142D01*
X135142857Y-96542857D01*
X135085714Y-96371428D01*
X135028571Y-96314285D01*
X134628571Y-96314285D01*
X134628571Y-96542857D01*
X135142857Y-95800000D02*
X133942857Y-95800000D01*
X133942857Y-95342857D01*
X134000000Y-95228571D01*
X134057142Y-95171428D01*
X134171428Y-95114285D01*
X134342857Y-95114285D01*
X134457142Y-95171428D01*
X134514285Y-95228571D01*
X134571428Y-95342857D01*
X134571428Y-95800000D01*
X135142857Y-94600000D02*
X133942857Y-94600000D01*
X133942857Y-93800000D02*
X133942857Y-93571428D01*
X134000000Y-93457142D01*
X134114285Y-93342857D01*
X134342857Y-93285714D01*
X134742857Y-93285714D01*
X134971428Y-93342857D01*
X135085714Y-93457142D01*
X135142857Y-93571428D01*
X135142857Y-93800000D01*
X135085714Y-93914285D01*
X134971428Y-94028571D01*
X134742857Y-94085714D01*
X134342857Y-94085714D01*
X134114285Y-94028571D01*
X134000000Y-93914285D01*
X133942857Y-93800000D01*
X134057142Y-92828571D02*
X134000000Y-92771428D01*
X133942857Y-92657142D01*
X133942857Y-92371428D01*
X134000000Y-92257142D01*
X134057142Y-92200000D01*
X134171428Y-92142857D01*
X134285714Y-92142857D01*
X134457142Y-92200000D01*
X135142857Y-92885714D01*
X135142857Y-92142857D01*
X131500000Y-96371428D02*
X131442857Y-96485714D01*
X131442857Y-96657142D01*
X131500000Y-96828571D01*
X131614285Y-96942857D01*
X131728571Y-97000000D01*
X131957142Y-97057142D01*
X132128571Y-97057142D01*
X132357142Y-97000000D01*
X132471428Y-96942857D01*
X132585714Y-96828571D01*
X132642857Y-96657142D01*
X132642857Y-96542857D01*
X132585714Y-96371428D01*
X132528571Y-96314285D01*
X132128571Y-96314285D01*
X132128571Y-96542857D01*
X132642857Y-95800000D02*
X131442857Y-95800000D01*
X131442857Y-95342857D01*
X131500000Y-95228571D01*
X131557142Y-95171428D01*
X131671428Y-95114285D01*
X131842857Y-95114285D01*
X131957142Y-95171428D01*
X132014285Y-95228571D01*
X132071428Y-95342857D01*
X132071428Y-95800000D01*
X132642857Y-94600000D02*
X131442857Y-94600000D01*
X131442857Y-93800000D02*
X131442857Y-93571428D01*
X131500000Y-93457142D01*
X131614285Y-93342857D01*
X131842857Y-93285714D01*
X132242857Y-93285714D01*
X132471428Y-93342857D01*
X132585714Y-93457142D01*
X132642857Y-93571428D01*
X132642857Y-93800000D01*
X132585714Y-93914285D01*
X132471428Y-94028571D01*
X132242857Y-94085714D01*
X131842857Y-94085714D01*
X131614285Y-94028571D01*
X131500000Y-93914285D01*
X131442857Y-93800000D01*
X131442857Y-92885714D02*
X131442857Y-92142857D01*
X131900000Y-92542857D01*
X131900000Y-92371428D01*
X131957142Y-92257142D01*
X132014285Y-92200000D01*
X132128571Y-92142857D01*
X132414285Y-92142857D01*
X132528571Y-92200000D01*
X132585714Y-92257142D01*
X132642857Y-92371428D01*
X132642857Y-92714285D01*
X132585714Y-92828571D01*
X132528571Y-92885714D01*
X128311000Y-97128571D02*
X128311000Y-95928571D01*
X130042857Y-96157142D02*
X129471428Y-96557142D01*
X130042857Y-96842857D02*
X128842857Y-96842857D01*
X128842857Y-96385714D01*
X128900000Y-96271428D01*
X128957142Y-96214285D01*
X129071428Y-96157142D01*
X129242857Y-96157142D01*
X129357142Y-96214285D01*
X129414285Y-96271428D01*
X129471428Y-96385714D01*
X129471428Y-96842857D01*
X128311000Y-95928571D02*
X128311000Y-94785714D01*
X129985714Y-95700000D02*
X130042857Y-95528571D01*
X130042857Y-95242857D01*
X129985714Y-95128571D01*
X129928571Y-95071428D01*
X129814285Y-95014285D01*
X129700000Y-95014285D01*
X129585714Y-95071428D01*
X129528571Y-95128571D01*
X129471428Y-95242857D01*
X129414285Y-95471428D01*
X129357142Y-95585714D01*
X129300000Y-95642857D01*
X129185714Y-95700000D01*
X129071428Y-95700000D01*
X128957142Y-95642857D01*
X128900000Y-95585714D01*
X128842857Y-95471428D01*
X128842857Y-95185714D01*
X128900000Y-95014285D01*
X128311000Y-94785714D02*
X128311000Y-93871428D01*
X128842857Y-94671428D02*
X128842857Y-93985714D01*
X130042857Y-94328571D02*
X128842857Y-94328571D01*
X126300000Y-96414285D02*
X126242857Y-96528571D01*
X126242857Y-96700000D01*
X126300000Y-96871428D01*
X126414285Y-96985714D01*
X126528571Y-97042857D01*
X126757142Y-97100000D01*
X126928571Y-97100000D01*
X127157142Y-97042857D01*
X127271428Y-96985714D01*
X127385714Y-96871428D01*
X127442857Y-96700000D01*
X127442857Y-96585714D01*
X127385714Y-96414285D01*
X127328571Y-96357142D01*
X126928571Y-96357142D01*
X126928571Y-96585714D01*
X127442857Y-95842857D02*
X126242857Y-95842857D01*
X127442857Y-95157142D01*
X126242857Y-95157142D01*
X127442857Y-94585714D02*
X126242857Y-94585714D01*
X126242857Y-94300000D01*
X126300000Y-94128571D01*
X126414285Y-94014285D01*
X126528571Y-93957142D01*
X126757142Y-93900000D01*
X126928571Y-93900000D01*
X127157142Y-93957142D01*
X127271428Y-94014285D01*
X127385714Y-94128571D01*
X127442857Y-94300000D01*
X127442857Y-94585714D01*
X123742857Y-96814285D02*
X124942857Y-96414285D01*
X123742857Y-96014285D01*
X124942857Y-95614285D02*
X123742857Y-95614285D01*
X123742857Y-94814285D02*
X123742857Y-94585714D01*
X123800000Y-94471428D01*
X123914285Y-94357142D01*
X124142857Y-94300000D01*
X124542857Y-94300000D01*
X124771428Y-94357142D01*
X124885714Y-94471428D01*
X124942857Y-94585714D01*
X124942857Y-94814285D01*
X124885714Y-94928571D01*
X124771428Y-95042857D01*
X124542857Y-95100000D01*
X124142857Y-95100000D01*
X123914285Y-95042857D01*
X123800000Y-94928571D01*
X123742857Y-94814285D01*
X121242857Y-97100000D02*
X122442857Y-96700000D01*
X121242857Y-96300000D01*
X121814285Y-95500000D02*
X121871428Y-95328571D01*
X121928571Y-95271428D01*
X122042857Y-95214285D01*
X122214285Y-95214285D01*
X122328571Y-95271428D01*
X122385714Y-95328571D01*
X122442857Y-95442857D01*
X122442857Y-95900000D01*
X121242857Y-95900000D01*
X121242857Y-95500000D01*
X121300000Y-95385714D01*
X121357142Y-95328571D01*
X121471428Y-95271428D01*
X121585714Y-95271428D01*
X121700000Y-95328571D01*
X121757142Y-95385714D01*
X121814285Y-95500000D01*
X121814285Y-95900000D01*
X121242857Y-94700000D02*
X122214285Y-94700000D01*
X122328571Y-94642857D01*
X122385714Y-94585714D01*
X122442857Y-94471428D01*
X122442857Y-94242857D01*
X122385714Y-94128571D01*
X122328571Y-94071428D01*
X122214285Y-94014285D01*
X121242857Y-94014285D01*
X122385714Y-93500000D02*
X122442857Y-93328571D01*
X122442857Y-93042857D01*
X122385714Y-92928571D01*
X122328571Y-92871428D01*
X122214285Y-92814285D01*
X122100000Y-92814285D01*
X121985714Y-92871428D01*
X121928571Y-92928571D01*
X121871428Y-93042857D01*
X121814285Y-93271428D01*
X121757142Y-93385714D01*
X121700000Y-93442857D01*
X121585714Y-93500000D01*
X121471428Y-93500000D01*
X121357142Y-93442857D01*
X121300000Y-93385714D01*
X121242857Y-93271428D01*
X121242857Y-92985714D01*
X121300000Y-92814285D01*
X151778571Y-91792857D02*
X152521428Y-91792857D01*
X152121428Y-92250000D01*
X152292857Y-92250000D01*
X152407142Y-92307142D01*
X152464285Y-92364285D01*
X152521428Y-92478571D01*
X152521428Y-92764285D01*
X152464285Y-92878571D01*
X152407142Y-92935714D01*
X152292857Y-92992857D01*
X151950000Y-92992857D01*
X151835714Y-92935714D01*
X151778571Y-92878571D01*
X153035714Y-92878571D02*
X153092857Y-92935714D01*
X153035714Y-92992857D01*
X152978571Y-92935714D01*
X153035714Y-92878571D01*
X153035714Y-92992857D01*
X154121428Y-92192857D02*
X154121428Y-92992857D01*
X153835714Y-91735714D02*
X153550000Y-92592857D01*
X154292857Y-92592857D01*
X154578571Y-91792857D02*
X154978571Y-92992857D01*
X155378571Y-91792857D01*
X152885714Y-89250000D02*
X152771428Y-89192857D01*
X152600000Y-89192857D01*
X152428571Y-89250000D01*
X152314285Y-89364285D01*
X152257142Y-89478571D01*
X152200000Y-89707142D01*
X152200000Y-89878571D01*
X152257142Y-90107142D01*
X152314285Y-90221428D01*
X152428571Y-90335714D01*
X152600000Y-90392857D01*
X152714285Y-90392857D01*
X152885714Y-90335714D01*
X152942857Y-90278571D01*
X152942857Y-89878571D01*
X152714285Y-89878571D01*
X153457142Y-90392857D02*
X153457142Y-89192857D01*
X154142857Y-90392857D01*
X154142857Y-89192857D01*
X154714285Y-90392857D02*
X154714285Y-89192857D01*
X155000000Y-89192857D01*
X155171428Y-89250000D01*
X155285714Y-89364285D01*
X155342857Y-89478571D01*
X155400000Y-89707142D01*
X155400000Y-89878571D01*
X155342857Y-90107142D01*
X155285714Y-90221428D01*
X155171428Y-90335714D01*
X155000000Y-90392857D01*
X154714285Y-90392857D01*
X153000000Y-87892857D02*
X152600000Y-87321428D01*
X152314285Y-87892857D02*
X152314285Y-86692857D01*
X152771428Y-86692857D01*
X152885714Y-86750000D01*
X152942857Y-86807142D01*
X153000000Y-86921428D01*
X153000000Y-87092857D01*
X152942857Y-87207142D01*
X152885714Y-87264285D01*
X152771428Y-87321428D01*
X152314285Y-87321428D01*
X153400000Y-86692857D02*
X154200000Y-87892857D01*
X154200000Y-86692857D02*
X153400000Y-87892857D01*
X154657142Y-87892857D02*
X154657142Y-86692857D01*
X154942857Y-86692857D01*
X155114285Y-86750000D01*
X155228571Y-86864285D01*
X155285714Y-86978571D01*
X155342857Y-87207142D01*
X155342857Y-87378571D01*
X155285714Y-87607142D01*
X155228571Y-87721428D01*
X155114285Y-87835714D01*
X154942857Y-87892857D01*
X154657142Y-87892857D01*
X152285714Y-84092857D02*
X152971428Y-84092857D01*
X152628571Y-85292857D02*
X152628571Y-84092857D01*
X153257142Y-84092857D02*
X154057142Y-85292857D01*
X154057142Y-84092857D02*
X153257142Y-85292857D01*
X154514285Y-85292857D02*
X154514285Y-84092857D01*
X154800000Y-84092857D01*
X154971428Y-84150000D01*
X155085714Y-84264285D01*
X155142857Y-84378571D01*
X155200000Y-84607142D01*
X155200000Y-84778571D01*
X155142857Y-85007142D01*
X155085714Y-85121428D01*
X154971428Y-85235714D01*
X154800000Y-85292857D01*
X154514285Y-85292857D01*
D12*
X158140000Y-78320000D02*
X158140000Y-93680000D01*
X158140000Y-93680000D02*
X160800000Y-93680000D01*
X160800000Y-93680000D02*
X160800000Y-78320000D01*
X160800000Y-78320000D02*
X158140000Y-78320000D01*
X160800000Y-79270000D02*
X166800000Y-79270000D01*
X166800000Y-79270000D02*
X166800000Y-80030000D01*
X166800000Y-80030000D02*
X160800000Y-80030000D01*
X160800000Y-79330000D02*
X166800000Y-79330000D01*
X160800000Y-79450000D02*
X166800000Y-79450000D01*
X160800000Y-79570000D02*
X166800000Y-79570000D01*
X160800000Y-79690000D02*
X166800000Y-79690000D01*
X160800000Y-79810000D02*
X166800000Y-79810000D01*
X160800000Y-79930000D02*
X166800000Y-79930000D01*
X157810000Y-79270000D02*
X158140000Y-79270000D01*
X157810000Y-80030000D02*
X158140000Y-80030000D01*
X158140000Y-80920000D02*
X160800000Y-80920000D01*
X160800000Y-81810000D02*
X166800000Y-81810000D01*
X166800000Y-81810000D02*
X166800000Y-82570000D01*
X166800000Y-82570000D02*
X160800000Y-82570000D01*
X157742929Y-81810000D02*
X158140000Y-81810000D01*
X157742929Y-82570000D02*
X158140000Y-82570000D01*
X158140000Y-83460000D02*
X160800000Y-83460000D01*
X160800000Y-84350000D02*
X166800000Y-84350000D01*
X166800000Y-84350000D02*
X166800000Y-85110000D01*
X166800000Y-85110000D02*
X160800000Y-85110000D01*
X157742929Y-84350000D02*
X158140000Y-84350000D01*
X157742929Y-85110000D02*
X158140000Y-85110000D01*
X158140000Y-86000000D02*
X160800000Y-86000000D01*
X160800000Y-86890000D02*
X166800000Y-86890000D01*
X166800000Y-86890000D02*
X166800000Y-87650000D01*
X166800000Y-87650000D02*
X160800000Y-87650000D01*
X157742929Y-86890000D02*
X158140000Y-86890000D01*
X157742929Y-87650000D02*
X158140000Y-87650000D01*
X158140000Y-88540000D02*
X160800000Y-88540000D01*
X160800000Y-89430000D02*
X166800000Y-89430000D01*
X166800000Y-89430000D02*
X166800000Y-90190000D01*
X166800000Y-90190000D02*
X160800000Y-90190000D01*
X157742929Y-89430000D02*
X158140000Y-89430000D01*
X157742929Y-90190000D02*
X158140000Y-90190000D01*
X158140000Y-91080000D02*
X160800000Y-91080000D01*
X160800000Y-91970000D02*
X166800000Y-91970000D01*
X166800000Y-91970000D02*
X166800000Y-92730000D01*
X166800000Y-92730000D02*
X160800000Y-92730000D01*
X157742929Y-91970000D02*
X158140000Y-91970000D01*
X157742929Y-92730000D02*
X158140000Y-92730000D01*
X155430000Y-79650000D02*
X155430000Y-78380000D01*
X155430000Y-78380000D02*
X156700000Y-78380000D01*
X141110000Y-74330000D02*
X141110000Y-71670000D01*
X123270000Y-74330000D02*
X141110000Y-74330000D01*
X123270000Y-71670000D02*
X141110000Y-71670000D01*
X123270000Y-74330000D02*
X123270000Y-71670000D01*
X122000000Y-74330000D02*
X120670000Y-74330000D01*
X120670000Y-74330000D02*
X120670000Y-73000000D01*
X140990000Y-100330000D02*
X140990000Y-97670000D01*
X123150000Y-100330000D02*
X140990000Y-100330000D01*
X123150000Y-97670000D02*
X140990000Y-97670000D01*
X123150000Y-100330000D02*
X123150000Y-97670000D01*
X121880000Y-100330000D02*
X120550000Y-100330000D01*
X120550000Y-100330000D02*
X120550000Y-99000000D01*
X149040000Y-81890000D02*
X147890000Y-81890000D01*
X147890000Y-81890000D02*
X147890000Y-82940000D01*
X147890000Y-82940000D02*
X146900000Y-82940000D01*
X149040000Y-90110000D02*
X147890000Y-90110000D01*
X147890000Y-90110000D02*
X147890000Y-89060000D01*
X151010000Y-83060000D02*
X151010000Y-88940000D01*
X134635000Y-83890000D02*
X135110000Y-83890000D01*
X135110000Y-83890000D02*
X135110000Y-84365000D01*
X131365000Y-88110000D02*
X130890000Y-88110000D01*
X130890000Y-88110000D02*
X130890000Y-87635000D01*
X134635000Y-88110000D02*
X135110000Y-88110000D01*
X135110000Y-88110000D02*
X135110000Y-87635000D01*
X131365000Y-83890000D02*
X130890000Y-83890000D01*
X140662779Y-86010000D02*
X140337221Y-86010000D01*
X140662779Y-84990000D02*
X140337221Y-84990000D01*
X140337221Y-86490000D02*
X140662779Y-86490000D01*
X140337221Y-87510000D02*
X140662779Y-87510000D01*
X124662779Y-91010000D02*
X124337221Y-91010000D01*
X124662779Y-89990000D02*
X124337221Y-89990000D01*
X140662779Y-81010000D02*
X140337221Y-81010000D01*
X140662779Y-79990000D02*
X140337221Y-79990000D01*
X140662779Y-92510000D02*
X140337221Y-92510000D01*
X140662779Y-91490000D02*
X140337221Y-91490000D01*
X120337221Y-83740000D02*
X120662779Y-83740000D01*
X120337221Y-84760000D02*
X120662779Y-84760000D01*
X120337221Y-86990000D02*
X120662779Y-86990000D01*
X120337221Y-88010000D02*
X120662779Y-88010000D01*
X120337221Y-79990000D02*
X120662779Y-79990000D01*
X120337221Y-81010000D02*
X120662779Y-81010000D01*
X141260000Y-84580000D02*
X141260000Y-83650000D01*
X141260000Y-81420000D02*
X141260000Y-82350000D01*
X141260000Y-81420000D02*
X139100000Y-81420000D01*
X141260000Y-84580000D02*
X139800000Y-84580000D01*
X141260000Y-91080000D02*
X141260000Y-90150000D01*
X141260000Y-87920000D02*
X141260000Y-88850000D01*
X141260000Y-87920000D02*
X139100000Y-87920000D01*
X141260000Y-91080000D02*
X139800000Y-91080000D01*
X123100000Y-89000000D02*
X123100000Y-87000000D01*
X125900000Y-89000000D02*
X123100000Y-89000000D01*
X125900000Y-87000000D02*
X125900000Y-89000000D01*
X123100000Y-87000000D02*
X125900000Y-87000000D01*
D13*
X116520000Y-86000000D02*
X110200000Y-86000000D01*
D14*
X111000000Y-90200000D02*
X111000000Y-81800000D01*
X117000000Y-81600000D02*
X117000000Y-90400000D01*
X109900000Y-90400000D02*
X109900000Y-81600000D01*
X117000000Y-90400000D02*
X109900000Y-90400000D01*
X117000000Y-81600000D02*
X109900000Y-81600000D01*
D12*
X120662779Y-89510000D02*
X120337221Y-89510000D01*
X120662779Y-88490000D02*
X120337221Y-88490000D01*
X139700000Y-79735000D02*
X141985000Y-79735000D01*
X141985000Y-79735000D02*
X141985000Y-78265000D01*
X141985000Y-78265000D02*
X139700000Y-78265000D01*
X139700000Y-94235000D02*
X141985000Y-94235000D01*
X141985000Y-94235000D02*
X141985000Y-92765000D01*
X141985000Y-92765000D02*
X139700000Y-92765000D01*
X125610000Y-84400000D02*
X125610000Y-82600000D01*
X122390000Y-82600000D02*
X122390000Y-85050000D01*
X136990000Y-84912779D02*
X136990000Y-84587221D01*
X138010000Y-84912779D02*
X138010000Y-84587221D01*
X128412779Y-88010000D02*
X128087221Y-88010000D01*
X128412779Y-86990000D02*
X128087221Y-86990000D01*
X128412779Y-89510000D02*
X128087221Y-89510000D01*
X128412779Y-88490000D02*
X128087221Y-88490000D01*
X120662779Y-91010000D02*
X120337221Y-91010000D01*
X120662779Y-89990000D02*
X120337221Y-89990000D01*
X120337221Y-78490000D02*
X120662779Y-78490000D01*
X120337221Y-79510000D02*
X120662779Y-79510000D01*
D15*
X159683333Y-76861904D02*
X159683333Y-77433333D01*
X159645238Y-77547619D01*
X159569047Y-77623809D01*
X159454761Y-77661904D01*
X159378571Y-77661904D01*
X160026190Y-76938095D02*
X160064285Y-76900000D01*
X160140476Y-76861904D01*
X160330952Y-76861904D01*
X160407142Y-76900000D01*
X160445238Y-76938095D01*
X160483333Y-77014285D01*
X160483333Y-77090476D01*
X160445238Y-77204761D01*
X159988095Y-77661904D01*
X160483333Y-77661904D01*
X119403333Y-72561904D02*
X119403333Y-73133333D01*
X119365238Y-73247619D01*
X119289047Y-73323809D01*
X119174761Y-73361904D01*
X119098571Y-73361904D01*
X120165238Y-72561904D02*
X119784285Y-72561904D01*
X119746190Y-72942857D01*
X119784285Y-72904761D01*
X119860476Y-72866666D01*
X120050952Y-72866666D01*
X120127142Y-72904761D01*
X120165238Y-72942857D01*
X120203333Y-73019047D01*
X120203333Y-73209523D01*
X120165238Y-73285714D01*
X120127142Y-73323809D01*
X120050952Y-73361904D01*
X119860476Y-73361904D01*
X119784285Y-73323809D01*
X119746190Y-73285714D01*
X119283333Y-98561904D02*
X119283333Y-99133333D01*
X119245238Y-99247619D01*
X119169047Y-99323809D01*
X119054761Y-99361904D01*
X118978571Y-99361904D01*
X120007142Y-98828571D02*
X120007142Y-99361904D01*
X119816666Y-98523809D02*
X119626190Y-99095238D01*
X120121428Y-99095238D01*
X150333333Y-79861904D02*
X150333333Y-80433333D01*
X150295238Y-80547619D01*
X150219047Y-80623809D01*
X150104761Y-80661904D01*
X150028571Y-80661904D01*
X151133333Y-80661904D02*
X150676190Y-80661904D01*
X150904761Y-80661904D02*
X150904761Y-79861904D01*
X150828571Y-79976190D01*
X150752380Y-80052380D01*
X150676190Y-80090476D01*
X132390476Y-82261904D02*
X132390476Y-82909523D01*
X132428571Y-82985714D01*
X132466666Y-83023809D01*
X132542857Y-83061904D01*
X132695238Y-83061904D01*
X132771428Y-83023809D01*
X132809523Y-82985714D01*
X132847619Y-82909523D01*
X132847619Y-82261904D01*
X133647619Y-83061904D02*
X133190476Y-83061904D01*
X133419047Y-83061904D02*
X133419047Y-82261904D01*
X133342857Y-82376190D01*
X133266666Y-82452380D01*
X133190476Y-82490476D01*
X137866666Y-87161904D02*
X137600000Y-86780952D01*
X137409523Y-87161904D02*
X137409523Y-86361904D01*
X137714285Y-86361904D01*
X137790476Y-86400000D01*
X137828571Y-86438095D01*
X137866666Y-86514285D01*
X137866666Y-86628571D01*
X137828571Y-86704761D01*
X137790476Y-86742857D01*
X137714285Y-86780952D01*
X137409523Y-86780952D01*
X138323809Y-86704761D02*
X138247619Y-86666666D01*
X138209523Y-86628571D01*
X138171428Y-86552380D01*
X138171428Y-86514285D01*
X138209523Y-86438095D01*
X138247619Y-86400000D01*
X138323809Y-86361904D01*
X138476190Y-86361904D01*
X138552380Y-86400000D01*
X138590476Y-86438095D01*
X138628571Y-86514285D01*
X138628571Y-86552380D01*
X138590476Y-86628571D01*
X138552380Y-86666666D01*
X138476190Y-86704761D01*
X138323809Y-86704761D01*
X138247619Y-86742857D01*
X138209523Y-86780952D01*
X138171428Y-86857142D01*
X138171428Y-87009523D01*
X138209523Y-87085714D01*
X138247619Y-87123809D01*
X138323809Y-87161904D01*
X138476190Y-87161904D01*
X138552380Y-87123809D01*
X138590476Y-87085714D01*
X138628571Y-87009523D01*
X138628571Y-86857142D01*
X138590476Y-86780952D01*
X138552380Y-86742857D01*
X138476190Y-86704761D01*
X137866666Y-88261904D02*
X137600000Y-87880952D01*
X137409523Y-88261904D02*
X137409523Y-87461904D01*
X137714285Y-87461904D01*
X137790476Y-87500000D01*
X137828571Y-87538095D01*
X137866666Y-87614285D01*
X137866666Y-87728571D01*
X137828571Y-87804761D01*
X137790476Y-87842857D01*
X137714285Y-87880952D01*
X137409523Y-87880952D01*
X138133333Y-87461904D02*
X138666666Y-87461904D01*
X138323809Y-88261904D01*
X125266666Y-92261904D02*
X125000000Y-91880952D01*
X124809523Y-92261904D02*
X124809523Y-91461904D01*
X125114285Y-91461904D01*
X125190476Y-91500000D01*
X125228571Y-91538095D01*
X125266666Y-91614285D01*
X125266666Y-91728571D01*
X125228571Y-91804761D01*
X125190476Y-91842857D01*
X125114285Y-91880952D01*
X124809523Y-91880952D01*
X125952380Y-91461904D02*
X125800000Y-91461904D01*
X125723809Y-91500000D01*
X125685714Y-91538095D01*
X125609523Y-91652380D01*
X125571428Y-91804761D01*
X125571428Y-92109523D01*
X125609523Y-92185714D01*
X125647619Y-92223809D01*
X125723809Y-92261904D01*
X125876190Y-92261904D01*
X125952380Y-92223809D01*
X125990476Y-92185714D01*
X126028571Y-92109523D01*
X126028571Y-91919047D01*
X125990476Y-91842857D01*
X125952380Y-91804761D01*
X125876190Y-91766666D01*
X125723809Y-91766666D01*
X125647619Y-91804761D01*
X125609523Y-91842857D01*
X125571428Y-91919047D01*
X138066666Y-81061904D02*
X137800000Y-80680952D01*
X137609523Y-81061904D02*
X137609523Y-80261904D01*
X137914285Y-80261904D01*
X137990476Y-80300000D01*
X138028571Y-80338095D01*
X138066666Y-80414285D01*
X138066666Y-80528571D01*
X138028571Y-80604761D01*
X137990476Y-80642857D01*
X137914285Y-80680952D01*
X137609523Y-80680952D01*
X138790476Y-80261904D02*
X138409523Y-80261904D01*
X138371428Y-80642857D01*
X138409523Y-80604761D01*
X138485714Y-80566666D01*
X138676190Y-80566666D01*
X138752380Y-80604761D01*
X138790476Y-80642857D01*
X138828571Y-80719047D01*
X138828571Y-80909523D01*
X138790476Y-80985714D01*
X138752380Y-81023809D01*
X138676190Y-81061904D01*
X138485714Y-81061904D01*
X138409523Y-81023809D01*
X138371428Y-80985714D01*
X138066666Y-92261904D02*
X137800000Y-91880952D01*
X137609523Y-92261904D02*
X137609523Y-91461904D01*
X137914285Y-91461904D01*
X137990476Y-91500000D01*
X138028571Y-91538095D01*
X138066666Y-91614285D01*
X138066666Y-91728571D01*
X138028571Y-91804761D01*
X137990476Y-91842857D01*
X137914285Y-91880952D01*
X137609523Y-91880952D01*
X138752380Y-91728571D02*
X138752380Y-92261904D01*
X138561904Y-91423809D02*
X138371428Y-91995238D01*
X138866666Y-91995238D01*
X121266666Y-83261904D02*
X121000000Y-82880952D01*
X120809523Y-83261904D02*
X120809523Y-82461904D01*
X121114285Y-82461904D01*
X121190476Y-82500000D01*
X121228571Y-82538095D01*
X121266666Y-82614285D01*
X121266666Y-82728571D01*
X121228571Y-82804761D01*
X121190476Y-82842857D01*
X121114285Y-82880952D01*
X120809523Y-82880952D01*
X121533333Y-82461904D02*
X122028571Y-82461904D01*
X121761904Y-82766666D01*
X121876190Y-82766666D01*
X121952380Y-82804761D01*
X121990476Y-82842857D01*
X122028571Y-82919047D01*
X122028571Y-83109523D01*
X121990476Y-83185714D01*
X121952380Y-83223809D01*
X121876190Y-83261904D01*
X121647619Y-83261904D01*
X121571428Y-83223809D01*
X121533333Y-83185714D01*
X121066666Y-86561904D02*
X120800000Y-86180952D01*
X120609523Y-86561904D02*
X120609523Y-85761904D01*
X120914285Y-85761904D01*
X120990476Y-85800000D01*
X121028571Y-85838095D01*
X121066666Y-85914285D01*
X121066666Y-86028571D01*
X121028571Y-86104761D01*
X120990476Y-86142857D01*
X120914285Y-86180952D01*
X120609523Y-86180952D01*
X121371428Y-85838095D02*
X121409523Y-85800000D01*
X121485714Y-85761904D01*
X121676190Y-85761904D01*
X121752380Y-85800000D01*
X121790476Y-85838095D01*
X121828571Y-85914285D01*
X121828571Y-85990476D01*
X121790476Y-86104761D01*
X121333333Y-86561904D01*
X121828571Y-86561904D01*
X122666666Y-80961904D02*
X122400000Y-80580952D01*
X122209523Y-80961904D02*
X122209523Y-80161904D01*
X122514285Y-80161904D01*
X122590476Y-80200000D01*
X122628571Y-80238095D01*
X122666666Y-80314285D01*
X122666666Y-80428571D01*
X122628571Y-80504761D01*
X122590476Y-80542857D01*
X122514285Y-80580952D01*
X122209523Y-80580952D01*
X123428571Y-80961904D02*
X122971428Y-80961904D01*
X123200000Y-80961904D02*
X123200000Y-80161904D01*
X123123809Y-80276190D01*
X123047619Y-80352380D01*
X122971428Y-80390476D01*
X142123809Y-82238095D02*
X142047619Y-82200000D01*
X141971428Y-82123809D01*
X141857142Y-82009523D01*
X141780952Y-81971428D01*
X141704761Y-81971428D01*
X141742857Y-82161904D02*
X141666666Y-82123809D01*
X141590476Y-82047619D01*
X141552380Y-81895238D01*
X141552380Y-81628571D01*
X141590476Y-81476190D01*
X141666666Y-81400000D01*
X141742857Y-81361904D01*
X141895238Y-81361904D01*
X141971428Y-81400000D01*
X142047619Y-81476190D01*
X142085714Y-81628571D01*
X142085714Y-81895238D01*
X142047619Y-82047619D01*
X141971428Y-82123809D01*
X141895238Y-82161904D01*
X141742857Y-82161904D01*
X142390476Y-81438095D02*
X142428571Y-81400000D01*
X142504761Y-81361904D01*
X142695238Y-81361904D01*
X142771428Y-81400000D01*
X142809523Y-81438095D01*
X142847619Y-81514285D01*
X142847619Y-81590476D01*
X142809523Y-81704761D01*
X142352380Y-82161904D01*
X142847619Y-82161904D01*
X137923809Y-90938095D02*
X137847619Y-90900000D01*
X137771428Y-90823809D01*
X137657142Y-90709523D01*
X137580952Y-90671428D01*
X137504761Y-90671428D01*
X137542857Y-90861904D02*
X137466666Y-90823809D01*
X137390476Y-90747619D01*
X137352380Y-90595238D01*
X137352380Y-90328571D01*
X137390476Y-90176190D01*
X137466666Y-90100000D01*
X137542857Y-90061904D01*
X137695238Y-90061904D01*
X137771428Y-90100000D01*
X137847619Y-90176190D01*
X137885714Y-90328571D01*
X137885714Y-90595238D01*
X137847619Y-90747619D01*
X137771428Y-90823809D01*
X137695238Y-90861904D01*
X137542857Y-90861904D01*
X138647619Y-90861904D02*
X138190476Y-90861904D01*
X138419047Y-90861904D02*
X138419047Y-90061904D01*
X138342857Y-90176190D01*
X138266666Y-90252380D01*
X138190476Y-90290476D01*
X123833333Y-85761904D02*
X123833333Y-86333333D01*
X123795238Y-86447619D01*
X123719047Y-86523809D01*
X123604761Y-86561904D01*
X123528571Y-86561904D01*
X124214285Y-86561904D02*
X124214285Y-85761904D01*
X124519047Y-85761904D01*
X124595238Y-85800000D01*
X124633333Y-85838095D01*
X124671428Y-85914285D01*
X124671428Y-86028571D01*
X124633333Y-86104761D01*
X124595238Y-86142857D01*
X124519047Y-86180952D01*
X124214285Y-86180952D01*
X125433333Y-86561904D02*
X124976190Y-86561904D01*
X125204761Y-86561904D02*
X125204761Y-85761904D01*
X125128571Y-85876190D01*
X125052380Y-85952380D01*
X124976190Y-85990476D01*
X116533333Y-91761904D02*
X116533333Y-92333333D01*
X116495238Y-92447619D01*
X116419047Y-92523809D01*
X116304761Y-92561904D01*
X116228571Y-92561904D01*
X116838095Y-91761904D02*
X117333333Y-91761904D01*
X117066666Y-92066666D01*
X117180952Y-92066666D01*
X117257142Y-92104761D01*
X117295238Y-92142857D01*
X117333333Y-92219047D01*
X117333333Y-92409523D01*
X117295238Y-92485714D01*
X117257142Y-92523809D01*
X117180952Y-92561904D01*
X116952380Y-92561904D01*
X116876190Y-92523809D01*
X116838095Y-92485714D01*
X122333333Y-89042857D02*
X122066666Y-89042857D01*
X122066666Y-89461904D02*
X122066666Y-88661904D01*
X122447619Y-88661904D01*
X123171428Y-89461904D02*
X122714285Y-89461904D01*
X122942857Y-89461904D02*
X122942857Y-88661904D01*
X122866666Y-88776190D01*
X122790476Y-88852380D01*
X122714285Y-88890476D01*
X137609523Y-79561904D02*
X137609523Y-78761904D01*
X137800000Y-78761904D01*
X137914285Y-78800000D01*
X137990476Y-78876190D01*
X138028571Y-78952380D01*
X138066666Y-79104761D01*
X138066666Y-79219047D01*
X138028571Y-79371428D01*
X137990476Y-79447619D01*
X137914285Y-79523809D01*
X137800000Y-79561904D01*
X137609523Y-79561904D01*
X138333333Y-78761904D02*
X138828571Y-78761904D01*
X138561904Y-79066666D01*
X138676190Y-79066666D01*
X138752380Y-79104761D01*
X138790476Y-79142857D01*
X138828571Y-79219047D01*
X138828571Y-79409523D01*
X138790476Y-79485714D01*
X138752380Y-79523809D01*
X138676190Y-79561904D01*
X138447619Y-79561904D01*
X138371428Y-79523809D01*
X138333333Y-79485714D01*
X137609523Y-93561904D02*
X137609523Y-92761904D01*
X137800000Y-92761904D01*
X137914285Y-92800000D01*
X137990476Y-92876190D01*
X138028571Y-92952380D01*
X138066666Y-93104761D01*
X138066666Y-93219047D01*
X138028571Y-93371428D01*
X137990476Y-93447619D01*
X137914285Y-93523809D01*
X137800000Y-93561904D01*
X137609523Y-93561904D01*
X138371428Y-92838095D02*
X138409523Y-92800000D01*
X138485714Y-92761904D01*
X138676190Y-92761904D01*
X138752380Y-92800000D01*
X138790476Y-92838095D01*
X138828571Y-92914285D01*
X138828571Y-92990476D01*
X138790476Y-93104761D01*
X138333333Y-93561904D01*
X138828571Y-93561904D01*
X126009523Y-82661904D02*
X126009523Y-81861904D01*
X126200000Y-81861904D01*
X126314285Y-81900000D01*
X126390476Y-81976190D01*
X126428571Y-82052380D01*
X126466666Y-82204761D01*
X126466666Y-82319047D01*
X126428571Y-82471428D01*
X126390476Y-82547619D01*
X126314285Y-82623809D01*
X126200000Y-82661904D01*
X126009523Y-82661904D01*
X127228571Y-82661904D02*
X126771428Y-82661904D01*
X127000000Y-82661904D02*
X127000000Y-81861904D01*
X126923809Y-81976190D01*
X126847619Y-82052380D01*
X126771428Y-82090476D01*
X137266666Y-82985714D02*
X137228571Y-83023809D01*
X137114285Y-83061904D01*
X137038095Y-83061904D01*
X136923809Y-83023809D01*
X136847619Y-82947619D01*
X136809523Y-82871428D01*
X136771428Y-82719047D01*
X136771428Y-82604761D01*
X136809523Y-82452380D01*
X136847619Y-82376190D01*
X136923809Y-82300000D01*
X137038095Y-82261904D01*
X137114285Y-82261904D01*
X137228571Y-82300000D01*
X137266666Y-82338095D01*
X137990476Y-82261904D02*
X137609523Y-82261904D01*
X137571428Y-82642857D01*
X137609523Y-82604761D01*
X137685714Y-82566666D01*
X137876190Y-82566666D01*
X137952380Y-82604761D01*
X137990476Y-82642857D01*
X138028571Y-82719047D01*
X138028571Y-82909523D01*
X137990476Y-82985714D01*
X137952380Y-83023809D01*
X137876190Y-83061904D01*
X137685714Y-83061904D01*
X137609523Y-83023809D01*
X137571428Y-82985714D01*
X127266666Y-86485714D02*
X127228571Y-86523809D01*
X127114285Y-86561904D01*
X127038095Y-86561904D01*
X126923809Y-86523809D01*
X126847619Y-86447619D01*
X126809523Y-86371428D01*
X126771428Y-86219047D01*
X126771428Y-86104761D01*
X126809523Y-85952380D01*
X126847619Y-85876190D01*
X126923809Y-85800000D01*
X127038095Y-85761904D01*
X127114285Y-85761904D01*
X127228571Y-85800000D01*
X127266666Y-85838095D01*
X127952380Y-86028571D02*
X127952380Y-86561904D01*
X127761904Y-85723809D02*
X127571428Y-86295238D01*
X128066666Y-86295238D01*
X127266666Y-90685714D02*
X127228571Y-90723809D01*
X127114285Y-90761904D01*
X127038095Y-90761904D01*
X126923809Y-90723809D01*
X126847619Y-90647619D01*
X126809523Y-90571428D01*
X126771428Y-90419047D01*
X126771428Y-90304761D01*
X126809523Y-90152380D01*
X126847619Y-90076190D01*
X126923809Y-90000000D01*
X127038095Y-89961904D01*
X127114285Y-89961904D01*
X127228571Y-90000000D01*
X127266666Y-90038095D01*
X127533333Y-89961904D02*
X128028571Y-89961904D01*
X127761904Y-90266666D01*
X127876190Y-90266666D01*
X127952380Y-90304761D01*
X127990476Y-90342857D01*
X128028571Y-90419047D01*
X128028571Y-90609523D01*
X127990476Y-90685714D01*
X127952380Y-90723809D01*
X127876190Y-90761904D01*
X127647619Y-90761904D01*
X127571428Y-90723809D01*
X127533333Y-90685714D01*
X121166666Y-92085714D02*
X121128571Y-92123809D01*
X121014285Y-92161904D01*
X120938095Y-92161904D01*
X120823809Y-92123809D01*
X120747619Y-92047619D01*
X120709523Y-91971428D01*
X120671428Y-91819047D01*
X120671428Y-91704761D01*
X120709523Y-91552380D01*
X120747619Y-91476190D01*
X120823809Y-91400000D01*
X120938095Y-91361904D01*
X121014285Y-91361904D01*
X121128571Y-91400000D01*
X121166666Y-91438095D01*
X121471428Y-91438095D02*
X121509523Y-91400000D01*
X121585714Y-91361904D01*
X121776190Y-91361904D01*
X121852380Y-91400000D01*
X121890476Y-91438095D01*
X121928571Y-91514285D01*
X121928571Y-91590476D01*
X121890476Y-91704761D01*
X121433333Y-92161904D01*
X121928571Y-92161904D01*
X122666666Y-79285714D02*
X122628571Y-79323809D01*
X122514285Y-79361904D01*
X122438095Y-79361904D01*
X122323809Y-79323809D01*
X122247619Y-79247619D01*
X122209523Y-79171428D01*
X122171428Y-79019047D01*
X122171428Y-78904761D01*
X122209523Y-78752380D01*
X122247619Y-78676190D01*
X122323809Y-78600000D01*
X122438095Y-78561904D01*
X122514285Y-78561904D01*
X122628571Y-78600000D01*
X122666666Y-78638095D01*
X123428571Y-79361904D02*
X122971428Y-79361904D01*
X123200000Y-79361904D02*
X123200000Y-78561904D01*
X123123809Y-78676190D01*
X123047619Y-78752380D01*
X122971428Y-78790476D01*
M02*
